M48
;GenerationSoftware,Autodesk,EAGLE,9.3.0*%
;CreationDate,2020-03-17T20:02:30Z*%
FMAT,2
ICI,OFF
METRIC,TZ,000.000
T2C0.350
T1C1.020
%
G90
M71
T1
X29667Y32067
X27127Y32067
T2
X31798Y42710
X25463Y34163
X39954Y47307
X36538Y26529
X34544Y40132
X35687Y40132
X36775Y44167
X25489Y47168
X30652Y36880
X25854Y43062
X33325Y31344
X40221Y27978
X41542Y34404
X35725Y45352
X46333Y36259
X30037Y44471
X24447Y37567
X37046Y37529
X47752Y30594
X32347Y36500
X38143Y38930
X33160Y46672
X38176Y36411
X46660Y38976
X31511Y36005
X24651Y28765
X38506Y38085
X24079Y45110
X34239Y36119
X26968Y40627
X35277Y32140
X28600Y42316
X39459Y33807
X34219Y26529
X28867Y20574
X42875Y27318
X34709Y29578
X27419Y39802
X35154Y31232
X39726Y23599
X36462Y33973
X32093Y28551
X24441Y35046
X31639Y40015
X28804Y40157
M30