M48
;GenerationSoftware,Autodesk,EAGLE,9.6.1*%
;CreationDate,2024-09-10T12:52:07Z*%
FMAT,2
ICI,OFF
METRIC,TZ,000.000
T4C0.300
T3C0.350
T2C0.550
T1C1.016
%
G90
M71
T1
X24130Y11430
X24130Y8890
X24130Y6350
X-23495Y19209
X-20955Y19209
X-18415Y19209
X-15875Y19209
X-10795Y19209
X-8255Y19209
X-5715Y19209
X-3175Y19209
X-635Y19209
X-13335Y19209
X1905Y19209
X4445Y19209
X6985Y19209
X9525Y19209
X12065Y19209
X14605Y19209
X17145Y19209
X19685Y19209
X22225Y19209
X24765Y19209
X-23495Y3492
X-20955Y3492
X-18415Y3492
X-15875Y3492
X-13335Y3492
X-10795Y3492
X-8255Y3492
X-3175Y3492
X-635Y3492
X1905Y3492
X4445Y3492
X6985Y3492
X9525Y3492
X11036Y12344
X12065Y3492
X14605Y3492
X17145Y3492
X19685Y3492
X22225Y3492
X24765Y3492
X11036Y10357
X11036Y5836
X17539Y10357
X17539Y5836
X11036Y16866
X-5715Y3492
X17539Y16866
X17539Y12344
X24130Y16510
X24130Y13970
T2
X-20728Y13505
X-20728Y9355
T3
X3413Y11351
X79Y13811
X7302Y8890
X-11509Y11351
X-8811Y11351
X-10160Y6032
X15875Y21273
X5715Y21273
X-4445Y21273
X-14605Y21273
X-4445Y952
X5715Y1429
X15875Y1429
X-5398Y13652
X7779Y14922
X-23177Y15875
X-23177Y12541
X-23177Y10160
X-23177Y7461
X-4366Y12462
X1746Y16351
X5556Y11112
X-14843Y10501
X-18256Y13970
X-14605Y1429
X-19526Y12859
X-5205Y10761
X-3969Y7461
X-2143Y11351
T4
X7302Y7346
X-1852Y7620
X-18415Y7926
X-18415Y8684
X-1191Y6032
X-7302Y9366
X5579Y7302
X-2540Y6032
X-3776Y14798
X3016Y15594
X3016Y16351
X-6826Y13652
M30