G04 EAGLE Gerber RS-274X export*
G75*
%MOMM*%
%FSLAX34Y34*%
%LPD*%
%INTop Copper*%
%IPPOS*%
%AMOC8*
5,1,8,0,0,1.08239X$1,22.5*%
G01*
%ADD10C,0.124994*%
%ADD11R,5.699988X5.699988*%
%ADD12R,1.399997X0.400000*%
%ADD13R,1.350000X0.400000*%
%ADD14R,1.900000X1.800000*%
%ADD15R,1.900000X1.900000*%
%ADD16C,1.524000*%
%ADD17C,1.524000*%
%ADD18R,0.800000X0.800000*%
%ADD19C,0.750000*%
%ADD20C,0.406400*%
%ADD21C,0.254000*%
%ADD22C,0.604800*%
%ADD23C,0.203200*%

G36*
X259695Y1504D02*
X259695Y1504D01*
X259715Y1502D01*
X259816Y1524D01*
X259918Y1540D01*
X259936Y1550D01*
X259955Y1554D01*
X260044Y1607D01*
X260136Y1656D01*
X260149Y1670D01*
X260166Y1680D01*
X260234Y1759D01*
X260305Y1834D01*
X260313Y1852D01*
X260326Y1867D01*
X260365Y1963D01*
X260409Y2057D01*
X260411Y2077D01*
X260418Y2095D01*
X260437Y2262D01*
X260437Y224751D01*
X260434Y224770D01*
X260436Y224790D01*
X260414Y224891D01*
X260397Y224993D01*
X260388Y225011D01*
X260383Y225030D01*
X260330Y225119D01*
X260282Y225211D01*
X260268Y225224D01*
X260257Y225241D01*
X260179Y225309D01*
X260104Y225380D01*
X260086Y225388D01*
X260070Y225401D01*
X259974Y225440D01*
X259881Y225484D01*
X259861Y225486D01*
X259842Y225493D01*
X259676Y225512D01*
X-246976Y225512D01*
X-246995Y225509D01*
X-247015Y225511D01*
X-247116Y225489D01*
X-247218Y225472D01*
X-247236Y225463D01*
X-247255Y225458D01*
X-247344Y225405D01*
X-247436Y225357D01*
X-247449Y225343D01*
X-247466Y225332D01*
X-247534Y225254D01*
X-247605Y225179D01*
X-247613Y225161D01*
X-247626Y225145D01*
X-247665Y225049D01*
X-247709Y224956D01*
X-247711Y224936D01*
X-247718Y224917D01*
X-247737Y224751D01*
X-247737Y2262D01*
X-247734Y2242D01*
X-247736Y2223D01*
X-247714Y2121D01*
X-247697Y2019D01*
X-247688Y2002D01*
X-247683Y1982D01*
X-247630Y1893D01*
X-247582Y1802D01*
X-247568Y1788D01*
X-247557Y1771D01*
X-247479Y1704D01*
X-247404Y1632D01*
X-247386Y1624D01*
X-247370Y1611D01*
X-247274Y1572D01*
X-247181Y1529D01*
X-247161Y1527D01*
X-247142Y1519D01*
X-246976Y1501D01*
X259676Y1501D01*
X259695Y1504D01*
G37*
%LPC*%
G36*
X-117744Y15366D02*
X-117744Y15366D01*
X-119604Y17226D01*
X-128786Y26409D01*
X-128870Y26469D01*
X-128920Y26512D01*
X-128937Y26518D01*
X-128975Y26547D01*
X-128981Y26549D01*
X-128986Y26552D01*
X-129097Y26586D01*
X-129142Y26601D01*
X-129148Y26604D01*
X-129150Y26604D01*
X-129209Y26623D01*
X-129215Y26623D01*
X-129221Y26625D01*
X-129320Y26622D01*
X-129348Y26622D01*
X-129351Y26621D01*
X-129454Y26620D01*
X-129462Y26618D01*
X-129467Y26618D01*
X-129484Y26612D01*
X-129581Y26584D01*
X-129590Y26582D01*
X-129595Y26580D01*
X-129616Y26574D01*
X-131531Y25780D01*
X-135169Y25780D01*
X-138530Y27172D01*
X-141103Y29745D01*
X-142495Y33106D01*
X-142495Y36744D01*
X-141103Y40105D01*
X-138530Y42678D01*
X-135169Y44070D01*
X-131531Y44070D01*
X-128170Y42678D01*
X-125597Y40105D01*
X-124205Y36744D01*
X-124205Y33106D01*
X-124999Y31191D01*
X-125025Y31077D01*
X-125054Y30963D01*
X-125053Y30957D01*
X-125055Y30951D01*
X-125044Y30835D01*
X-125035Y30718D01*
X-125032Y30713D01*
X-125032Y30706D01*
X-124984Y30599D01*
X-124938Y30492D01*
X-124934Y30486D01*
X-124932Y30482D01*
X-124919Y30468D01*
X-124834Y30361D01*
X-115651Y21179D01*
X-115577Y21126D01*
X-115508Y21066D01*
X-115478Y21054D01*
X-115452Y21035D01*
X-115365Y21008D01*
X-115280Y20974D01*
X-115239Y20970D01*
X-115217Y20963D01*
X-115184Y20964D01*
X-115113Y20956D01*
X-99771Y20956D01*
X-99700Y20967D01*
X-99628Y20969D01*
X-99579Y20987D01*
X-99528Y20995D01*
X-99465Y21029D01*
X-99397Y21054D01*
X-99357Y21086D01*
X-99311Y21111D01*
X-99261Y21162D01*
X-99205Y21207D01*
X-99177Y21251D01*
X-99141Y21289D01*
X-99111Y21354D01*
X-99072Y21414D01*
X-99060Y21465D01*
X-99038Y21512D01*
X-99030Y21583D01*
X-99012Y21653D01*
X-99016Y21705D01*
X-99011Y21756D01*
X-99026Y21827D01*
X-99031Y21898D01*
X-99052Y21946D01*
X-99063Y21997D01*
X-99100Y22058D01*
X-99128Y22124D01*
X-99173Y22180D01*
X-99189Y22208D01*
X-99207Y22223D01*
X-99233Y22255D01*
X-103386Y26409D01*
X-103470Y26469D01*
X-103520Y26512D01*
X-103537Y26518D01*
X-103575Y26547D01*
X-103581Y26549D01*
X-103586Y26552D01*
X-103697Y26586D01*
X-103742Y26601D01*
X-103748Y26604D01*
X-103750Y26604D01*
X-103809Y26623D01*
X-103815Y26623D01*
X-103821Y26625D01*
X-103920Y26622D01*
X-103948Y26622D01*
X-103951Y26621D01*
X-104054Y26620D01*
X-104062Y26618D01*
X-104067Y26618D01*
X-104084Y26612D01*
X-104181Y26584D01*
X-104190Y26582D01*
X-104195Y26580D01*
X-104216Y26574D01*
X-106131Y25780D01*
X-109769Y25780D01*
X-113130Y27172D01*
X-115703Y29745D01*
X-117095Y33106D01*
X-117095Y36744D01*
X-115703Y40105D01*
X-113130Y42678D01*
X-109769Y44070D01*
X-106131Y44070D01*
X-102770Y42678D01*
X-100197Y40105D01*
X-98805Y36744D01*
X-98805Y33106D01*
X-99599Y31191D01*
X-99625Y31077D01*
X-99654Y30963D01*
X-99653Y30957D01*
X-99655Y30951D01*
X-99644Y30835D01*
X-99635Y30718D01*
X-99632Y30713D01*
X-99632Y30706D01*
X-99584Y30599D01*
X-99538Y30492D01*
X-99534Y30486D01*
X-99532Y30482D01*
X-99519Y30468D01*
X-99434Y30361D01*
X-94315Y25243D01*
X-94241Y25190D01*
X-94172Y25130D01*
X-94142Y25118D01*
X-94116Y25099D01*
X-94029Y25072D01*
X-93944Y25038D01*
X-93903Y25034D01*
X-93881Y25027D01*
X-93848Y25028D01*
X-93777Y25020D01*
X-86360Y25020D01*
X-86264Y25035D01*
X-86167Y25045D01*
X-86143Y25055D01*
X-86117Y25059D01*
X-86031Y25105D01*
X-85942Y25145D01*
X-85923Y25162D01*
X-85900Y25175D01*
X-85833Y25245D01*
X-85761Y25311D01*
X-85748Y25334D01*
X-85730Y25353D01*
X-85689Y25441D01*
X-85642Y25527D01*
X-85638Y25552D01*
X-85627Y25576D01*
X-85616Y25673D01*
X-85599Y25769D01*
X-85603Y25795D01*
X-85600Y25820D01*
X-85620Y25916D01*
X-85635Y26012D01*
X-85646Y26035D01*
X-85652Y26061D01*
X-85702Y26144D01*
X-85746Y26231D01*
X-85765Y26250D01*
X-85778Y26272D01*
X-85852Y26335D01*
X-85922Y26403D01*
X-85950Y26419D01*
X-85965Y26432D01*
X-85996Y26444D01*
X-86069Y26484D01*
X-87730Y27172D01*
X-90303Y29745D01*
X-91695Y33106D01*
X-91695Y36744D01*
X-90303Y40105D01*
X-87730Y42678D01*
X-84369Y44070D01*
X-80731Y44070D01*
X-78562Y43171D01*
X-78448Y43144D01*
X-78334Y43116D01*
X-78328Y43116D01*
X-78322Y43115D01*
X-78206Y43126D01*
X-78089Y43135D01*
X-78084Y43137D01*
X-78077Y43138D01*
X-77970Y43186D01*
X-77863Y43231D01*
X-77857Y43236D01*
X-77853Y43238D01*
X-77839Y43251D01*
X-77732Y43336D01*
X-69439Y51629D01*
X-69386Y51703D01*
X-69326Y51773D01*
X-69314Y51803D01*
X-69295Y51829D01*
X-69268Y51916D01*
X-69234Y52001D01*
X-69230Y52042D01*
X-69223Y52064D01*
X-69224Y52096D01*
X-69216Y52168D01*
X-69216Y81407D01*
X-69219Y81427D01*
X-69217Y81446D01*
X-69239Y81548D01*
X-69255Y81650D01*
X-69265Y81667D01*
X-69269Y81687D01*
X-69322Y81776D01*
X-69371Y81867D01*
X-69385Y81881D01*
X-69395Y81898D01*
X-69474Y81965D01*
X-69549Y82037D01*
X-69567Y82045D01*
X-69582Y82058D01*
X-69678Y82097D01*
X-69772Y82140D01*
X-69792Y82142D01*
X-69810Y82150D01*
X-69977Y82168D01*
X-106161Y82168D01*
X-106252Y82154D01*
X-106342Y82146D01*
X-106372Y82134D01*
X-106404Y82129D01*
X-106485Y82086D01*
X-106569Y82050D01*
X-106601Y82024D01*
X-106622Y82013D01*
X-106644Y81990D01*
X-106700Y81945D01*
X-149918Y38727D01*
X-149986Y38633D01*
X-150056Y38538D01*
X-150058Y38532D01*
X-150062Y38527D01*
X-150096Y38416D01*
X-150132Y38304D01*
X-150132Y38298D01*
X-150134Y38292D01*
X-150131Y38175D01*
X-150130Y38059D01*
X-150128Y38051D01*
X-150128Y38046D01*
X-150121Y38029D01*
X-150083Y37897D01*
X-149605Y36744D01*
X-149605Y33106D01*
X-150997Y29745D01*
X-153570Y27172D01*
X-156931Y25780D01*
X-160569Y25780D01*
X-163930Y27172D01*
X-166503Y29745D01*
X-167895Y33106D01*
X-167895Y36744D01*
X-166503Y40105D01*
X-163930Y42678D01*
X-160569Y44070D01*
X-156931Y44070D01*
X-155778Y43592D01*
X-155664Y43565D01*
X-155550Y43537D01*
X-155544Y43537D01*
X-155538Y43536D01*
X-155422Y43547D01*
X-155305Y43556D01*
X-155300Y43558D01*
X-155293Y43559D01*
X-155186Y43607D01*
X-155079Y43652D01*
X-155073Y43657D01*
X-155069Y43659D01*
X-155055Y43672D01*
X-154948Y43757D01*
X-109423Y89282D01*
X-76915Y89282D01*
X-76844Y89293D01*
X-76772Y89295D01*
X-76724Y89313D01*
X-76672Y89321D01*
X-76609Y89355D01*
X-76541Y89380D01*
X-76501Y89412D01*
X-76455Y89437D01*
X-76405Y89489D01*
X-76349Y89533D01*
X-76321Y89577D01*
X-76285Y89615D01*
X-76255Y89680D01*
X-76216Y89740D01*
X-76204Y89791D01*
X-76182Y89838D01*
X-76174Y89909D01*
X-76156Y89979D01*
X-76160Y90031D01*
X-76155Y90082D01*
X-76170Y90153D01*
X-76176Y90224D01*
X-76196Y90272D01*
X-76207Y90323D01*
X-76244Y90384D01*
X-76272Y90450D01*
X-76317Y90506D01*
X-76333Y90534D01*
X-76351Y90549D01*
X-76377Y90581D01*
X-77574Y91778D01*
X-77574Y95547D01*
X-74909Y98211D01*
X-72385Y98211D01*
X-72295Y98226D01*
X-72204Y98233D01*
X-72174Y98246D01*
X-72142Y98251D01*
X-72061Y98294D01*
X-71977Y98329D01*
X-71945Y98355D01*
X-71925Y98366D01*
X-71902Y98389D01*
X-71846Y98434D01*
X-71026Y99254D01*
X-70973Y99328D01*
X-70914Y99398D01*
X-70901Y99428D01*
X-70883Y99454D01*
X-70856Y99541D01*
X-70822Y99626D01*
X-70817Y99667D01*
X-70810Y99689D01*
X-70811Y99721D01*
X-70803Y99793D01*
X-70803Y132318D01*
X-70818Y132407D01*
X-70825Y132499D01*
X-70838Y132528D01*
X-70843Y132560D01*
X-70886Y132641D01*
X-70921Y132725D01*
X-70947Y132757D01*
X-70958Y132778D01*
X-70981Y132800D01*
X-71026Y132856D01*
X-72811Y134641D01*
X-72811Y138409D01*
X-70147Y141074D01*
X-66378Y141074D01*
X-63714Y138409D01*
X-63714Y134641D01*
X-65499Y132856D01*
X-65552Y132782D01*
X-65611Y132712D01*
X-65624Y132682D01*
X-65642Y132656D01*
X-65669Y132569D01*
X-65703Y132484D01*
X-65708Y132443D01*
X-65715Y132421D01*
X-65714Y132389D01*
X-65722Y132318D01*
X-65722Y98309D01*
X-65710Y98238D01*
X-65708Y98166D01*
X-65690Y98117D01*
X-65682Y98066D01*
X-65649Y98003D01*
X-65624Y97935D01*
X-65591Y97894D01*
X-65567Y97848D01*
X-65515Y97799D01*
X-65470Y97743D01*
X-65426Y97715D01*
X-65389Y97679D01*
X-65324Y97649D01*
X-65263Y97610D01*
X-65213Y97597D01*
X-65166Y97575D01*
X-65094Y97568D01*
X-65025Y97550D01*
X-64973Y97554D01*
X-64921Y97548D01*
X-64851Y97564D01*
X-64780Y97569D01*
X-64732Y97589D01*
X-64681Y97601D01*
X-64619Y97637D01*
X-64553Y97665D01*
X-64497Y97710D01*
X-64470Y97727D01*
X-64454Y97745D01*
X-64422Y97770D01*
X-57546Y104647D01*
X-57493Y104721D01*
X-57433Y104790D01*
X-57421Y104820D01*
X-57402Y104847D01*
X-57375Y104934D01*
X-57341Y105018D01*
X-57337Y105059D01*
X-57330Y105082D01*
X-57331Y105114D01*
X-57323Y105185D01*
X-57323Y109795D01*
X-54233Y112885D01*
X-49863Y112885D01*
X-49314Y112336D01*
X-49240Y112283D01*
X-49171Y112224D01*
X-49140Y112211D01*
X-49114Y112193D01*
X-49027Y112166D01*
X-48942Y112132D01*
X-48902Y112127D01*
X-48879Y112120D01*
X-48847Y112121D01*
X-48776Y112113D01*
X-38173Y112113D01*
X-38083Y112128D01*
X-37992Y112135D01*
X-37962Y112148D01*
X-37930Y112153D01*
X-37850Y112196D01*
X-37766Y112231D01*
X-37734Y112257D01*
X-37713Y112268D01*
X-37691Y112291D01*
X-37635Y112336D01*
X-37003Y112968D01*
X-36991Y112984D01*
X-36976Y112997D01*
X-36920Y113084D01*
X-36860Y113168D01*
X-36854Y113187D01*
X-36843Y113204D01*
X-36818Y113304D01*
X-36787Y113403D01*
X-36788Y113423D01*
X-36783Y113442D01*
X-36791Y113545D01*
X-36794Y113649D01*
X-36800Y113667D01*
X-36802Y113687D01*
X-36842Y113782D01*
X-36878Y113880D01*
X-36890Y113895D01*
X-36898Y113914D01*
X-37003Y114045D01*
X-37635Y114676D01*
X-37709Y114730D01*
X-37778Y114789D01*
X-37808Y114801D01*
X-37835Y114820D01*
X-37922Y114847D01*
X-38006Y114881D01*
X-38047Y114885D01*
X-38070Y114892D01*
X-38102Y114891D01*
X-38173Y114899D01*
X-38967Y114899D01*
X-43189Y119121D01*
X-43263Y119174D01*
X-43332Y119234D01*
X-43362Y119246D01*
X-43388Y119265D01*
X-43475Y119291D01*
X-43560Y119326D01*
X-43601Y119330D01*
X-43623Y119337D01*
X-43656Y119336D01*
X-43727Y119344D01*
X-45841Y119344D01*
X-48931Y122434D01*
X-48931Y126804D01*
X-45841Y129893D01*
X-41471Y129893D01*
X-38382Y126804D01*
X-38382Y124689D01*
X-38367Y124599D01*
X-38360Y124508D01*
X-38347Y124479D01*
X-38342Y124447D01*
X-38299Y124366D01*
X-38263Y124282D01*
X-38238Y124250D01*
X-38227Y124229D01*
X-38203Y124207D01*
X-38159Y124151D01*
X-36243Y122236D01*
X-36233Y122228D01*
X-33934Y119929D01*
X-33934Y119139D01*
X-33919Y119048D01*
X-33912Y118958D01*
X-33899Y118928D01*
X-33894Y118896D01*
X-33851Y118815D01*
X-33816Y118731D01*
X-33790Y118699D01*
X-33779Y118678D01*
X-33756Y118656D01*
X-33711Y118600D01*
X-32866Y117755D01*
X-32866Y115975D01*
X-34796Y114045D01*
X-34808Y114028D01*
X-34823Y114016D01*
X-34879Y113929D01*
X-34940Y113845D01*
X-34946Y113826D01*
X-34956Y113809D01*
X-34982Y113709D01*
X-35012Y113610D01*
X-35012Y113590D01*
X-35016Y113570D01*
X-35008Y113467D01*
X-35006Y113364D01*
X-34999Y113345D01*
X-34997Y113325D01*
X-34957Y113230D01*
X-34921Y113133D01*
X-34909Y113117D01*
X-34901Y113099D01*
X-34796Y112968D01*
X-32866Y111038D01*
X-32866Y110407D01*
X-32863Y110387D01*
X-32865Y110367D01*
X-32843Y110266D01*
X-32826Y110164D01*
X-32817Y110146D01*
X-32813Y110127D01*
X-32760Y110038D01*
X-32711Y109947D01*
X-32697Y109933D01*
X-32687Y109916D01*
X-32608Y109848D01*
X-32533Y109777D01*
X-32515Y109769D01*
X-32500Y109756D01*
X-32404Y109717D01*
X-32310Y109674D01*
X-32290Y109671D01*
X-32272Y109664D01*
X-32105Y109645D01*
X-31474Y109645D01*
X-29331Y107502D01*
X-29331Y106871D01*
X-29327Y106851D01*
X-29330Y106832D01*
X-29308Y106730D01*
X-29291Y106628D01*
X-29282Y106611D01*
X-29277Y106591D01*
X-29224Y106502D01*
X-29176Y106411D01*
X-29161Y106397D01*
X-29151Y106380D01*
X-29072Y106313D01*
X-28997Y106242D01*
X-28979Y106233D01*
X-28964Y106220D01*
X-28868Y106182D01*
X-28774Y106138D01*
X-28755Y106136D01*
X-28736Y106128D01*
X-28569Y106110D01*
X-27938Y106110D01*
X-25795Y103967D01*
X-25795Y103336D01*
X-25792Y103316D01*
X-25794Y103296D01*
X-25772Y103195D01*
X-25755Y103093D01*
X-25746Y103075D01*
X-25742Y103056D01*
X-25689Y102967D01*
X-25640Y102876D01*
X-25626Y102862D01*
X-25616Y102845D01*
X-25537Y102777D01*
X-25462Y102706D01*
X-25444Y102698D01*
X-25429Y102685D01*
X-25332Y102646D01*
X-25239Y102603D01*
X-25219Y102600D01*
X-25201Y102593D01*
X-25034Y102574D01*
X-24403Y102574D01*
X-22260Y100431D01*
X-22260Y99800D01*
X-22256Y99780D01*
X-22258Y99761D01*
X-22236Y99659D01*
X-22220Y99557D01*
X-22210Y99540D01*
X-22206Y99520D01*
X-22153Y99431D01*
X-22105Y99340D01*
X-22090Y99326D01*
X-22080Y99309D01*
X-22001Y99242D01*
X-21926Y99171D01*
X-21908Y99162D01*
X-21893Y99149D01*
X-21797Y99110D01*
X-21703Y99067D01*
X-21684Y99065D01*
X-21665Y99057D01*
X-21498Y99039D01*
X-20867Y99039D01*
X-18724Y96896D01*
X-18724Y96265D01*
X-18721Y96245D01*
X-18723Y96225D01*
X-18701Y96124D01*
X-18684Y96022D01*
X-18675Y96004D01*
X-18671Y95985D01*
X-18617Y95896D01*
X-18569Y95804D01*
X-18555Y95791D01*
X-18544Y95774D01*
X-18466Y95706D01*
X-18391Y95635D01*
X-18373Y95627D01*
X-18358Y95614D01*
X-18261Y95575D01*
X-18168Y95531D01*
X-18148Y95529D01*
X-18129Y95522D01*
X-17963Y95503D01*
X-17331Y95503D01*
X-15188Y93360D01*
X-15188Y92729D01*
X-15185Y92709D01*
X-15187Y92690D01*
X-15165Y92588D01*
X-15149Y92486D01*
X-15139Y92469D01*
X-15135Y92449D01*
X-15082Y92360D01*
X-15034Y92269D01*
X-15019Y92255D01*
X-15009Y92238D01*
X-14930Y92171D01*
X-14855Y92100D01*
X-14837Y92091D01*
X-14822Y92078D01*
X-14726Y92039D01*
X-14632Y91996D01*
X-14612Y91994D01*
X-14594Y91986D01*
X-14427Y91968D01*
X-13796Y91968D01*
X-11653Y89825D01*
X-11653Y89194D01*
X-11650Y89174D01*
X-11652Y89154D01*
X-11630Y89053D01*
X-11613Y88951D01*
X-11604Y88933D01*
X-11600Y88914D01*
X-11546Y88825D01*
X-11498Y88733D01*
X-11484Y88720D01*
X-11473Y88703D01*
X-11395Y88635D01*
X-11320Y88564D01*
X-11302Y88556D01*
X-11287Y88543D01*
X-11190Y88504D01*
X-11097Y88460D01*
X-11077Y88458D01*
X-11058Y88451D01*
X-10892Y88432D01*
X-10260Y88432D01*
X-8117Y86289D01*
X-8117Y85658D01*
X-8114Y85638D01*
X-8116Y85618D01*
X-8094Y85517D01*
X-8078Y85415D01*
X-8068Y85398D01*
X-8064Y85378D01*
X-8011Y85289D01*
X-7963Y85198D01*
X-7948Y85184D01*
X-7938Y85167D01*
X-7859Y85100D01*
X-7784Y85028D01*
X-7766Y85020D01*
X-7751Y85007D01*
X-7655Y84968D01*
X-7561Y84925D01*
X-7541Y84923D01*
X-7523Y84915D01*
X-7356Y84897D01*
X-6725Y84897D01*
X-4582Y82754D01*
X-4582Y82122D01*
X-4579Y82103D01*
X-4581Y82083D01*
X-4559Y81982D01*
X-4542Y81880D01*
X-4533Y81862D01*
X-4529Y81843D01*
X-4475Y81754D01*
X-4427Y81662D01*
X-4413Y81649D01*
X-4402Y81631D01*
X-4324Y81564D01*
X-4249Y81493D01*
X-4231Y81485D01*
X-4215Y81472D01*
X-4119Y81433D01*
X-4026Y81389D01*
X-4006Y81387D01*
X-3987Y81380D01*
X-3821Y81361D01*
X-3189Y81361D01*
X-1046Y79218D01*
X-1046Y78587D01*
X-1043Y78567D01*
X-1045Y78547D01*
X-1023Y78446D01*
X-1007Y78344D01*
X-997Y78327D01*
X-993Y78307D01*
X-940Y78218D01*
X-891Y78127D01*
X-877Y78113D01*
X-867Y78096D01*
X-788Y78029D01*
X-713Y77957D01*
X-695Y77949D01*
X-680Y77936D01*
X-584Y77897D01*
X-490Y77854D01*
X-470Y77852D01*
X-452Y77844D01*
X-285Y77826D01*
X346Y77826D01*
X2489Y75683D01*
X2489Y75051D01*
X2492Y75032D01*
X2490Y75012D01*
X2512Y74911D01*
X2529Y74809D01*
X2538Y74791D01*
X2543Y74772D01*
X2596Y74683D01*
X2644Y74591D01*
X2658Y74578D01*
X2669Y74560D01*
X2747Y74493D01*
X2822Y74422D01*
X2840Y74413D01*
X2856Y74401D01*
X2952Y74362D01*
X3045Y74318D01*
X3065Y74316D01*
X3084Y74309D01*
X3250Y74290D01*
X3882Y74290D01*
X5812Y72360D01*
X5828Y72348D01*
X5840Y72333D01*
X5928Y72277D01*
X6011Y72217D01*
X6030Y72211D01*
X6047Y72200D01*
X6148Y72175D01*
X6247Y72144D01*
X6266Y72145D01*
X6286Y72140D01*
X6389Y72148D01*
X6492Y72151D01*
X6511Y72157D01*
X6531Y72159D01*
X6626Y72199D01*
X6723Y72235D01*
X6739Y72247D01*
X6757Y72255D01*
X6888Y72360D01*
X8818Y74290D01*
X9450Y74290D01*
X9469Y74293D01*
X9489Y74291D01*
X9590Y74313D01*
X9692Y74330D01*
X9710Y74339D01*
X9729Y74343D01*
X9818Y74397D01*
X9910Y74445D01*
X9923Y74459D01*
X9940Y74470D01*
X10008Y74548D01*
X10079Y74623D01*
X10087Y74641D01*
X10100Y74656D01*
X10139Y74753D01*
X10183Y74846D01*
X10185Y74866D01*
X10192Y74885D01*
X10211Y75051D01*
X10211Y75683D01*
X12354Y77826D01*
X12985Y77826D01*
X13005Y77829D01*
X13025Y77827D01*
X13126Y77849D01*
X13228Y77865D01*
X13245Y77875D01*
X13265Y77879D01*
X13354Y77932D01*
X13445Y77980D01*
X13459Y77995D01*
X13476Y78005D01*
X13543Y78084D01*
X13615Y78159D01*
X13623Y78177D01*
X13636Y78192D01*
X13675Y78288D01*
X13718Y78382D01*
X13720Y78402D01*
X13728Y78420D01*
X13746Y78587D01*
X13746Y79218D01*
X15889Y81361D01*
X16521Y81361D01*
X16540Y81364D01*
X16560Y81362D01*
X16661Y81384D01*
X16763Y81401D01*
X16781Y81410D01*
X16800Y81414D01*
X16889Y81468D01*
X16981Y81516D01*
X16994Y81530D01*
X17012Y81541D01*
X17079Y81619D01*
X17150Y81694D01*
X17158Y81712D01*
X17171Y81728D01*
X17210Y81824D01*
X17254Y81917D01*
X17256Y81937D01*
X17263Y81956D01*
X17282Y82122D01*
X17282Y82754D01*
X19425Y84897D01*
X20056Y84897D01*
X20076Y84900D01*
X20096Y84898D01*
X20197Y84920D01*
X20299Y84936D01*
X20316Y84946D01*
X20336Y84950D01*
X20425Y85003D01*
X20516Y85052D01*
X20530Y85066D01*
X20547Y85076D01*
X20614Y85155D01*
X20686Y85230D01*
X20694Y85248D01*
X20707Y85263D01*
X20746Y85359D01*
X20789Y85453D01*
X20791Y85473D01*
X20799Y85491D01*
X20817Y85658D01*
X20817Y86289D01*
X22960Y88432D01*
X23592Y88432D01*
X23611Y88435D01*
X23631Y88433D01*
X23732Y88455D01*
X23834Y88472D01*
X23852Y88481D01*
X23871Y88486D01*
X23960Y88539D01*
X24052Y88587D01*
X24065Y88602D01*
X24083Y88612D01*
X24150Y88690D01*
X24221Y88765D01*
X24230Y88783D01*
X24242Y88799D01*
X24281Y88895D01*
X24325Y88989D01*
X24327Y89008D01*
X24334Y89027D01*
X24353Y89194D01*
X24353Y89825D01*
X26496Y91968D01*
X27127Y91968D01*
X27147Y91971D01*
X27167Y91969D01*
X27268Y91991D01*
X27370Y92008D01*
X27387Y92017D01*
X27407Y92021D01*
X27496Y92074D01*
X27587Y92123D01*
X27601Y92137D01*
X27618Y92147D01*
X27685Y92226D01*
X27757Y92301D01*
X27765Y92319D01*
X27778Y92334D01*
X27817Y92430D01*
X27860Y92524D01*
X27862Y92544D01*
X27870Y92562D01*
X27888Y92729D01*
X27888Y93360D01*
X30031Y95503D01*
X30663Y95503D01*
X30682Y95507D01*
X30702Y95504D01*
X30803Y95526D01*
X30905Y95543D01*
X30923Y95552D01*
X30943Y95557D01*
X31032Y95610D01*
X31123Y95658D01*
X31137Y95673D01*
X31154Y95683D01*
X31221Y95762D01*
X31292Y95837D01*
X31301Y95855D01*
X31314Y95870D01*
X31352Y95966D01*
X31396Y96060D01*
X31398Y96079D01*
X31405Y96098D01*
X31424Y96265D01*
X31424Y96896D01*
X33567Y99039D01*
X34198Y99039D01*
X34218Y99042D01*
X34238Y99040D01*
X34339Y99062D01*
X34441Y99079D01*
X34459Y99088D01*
X34478Y99092D01*
X34567Y99145D01*
X34658Y99194D01*
X34672Y99208D01*
X34689Y99218D01*
X34757Y99297D01*
X34828Y99372D01*
X34836Y99390D01*
X34849Y99405D01*
X34888Y99501D01*
X34931Y99595D01*
X34934Y99615D01*
X34941Y99633D01*
X34960Y99800D01*
X34960Y100431D01*
X37103Y102574D01*
X37734Y102574D01*
X37753Y102578D01*
X37773Y102575D01*
X37875Y102597D01*
X37977Y102614D01*
X37994Y102623D01*
X38014Y102628D01*
X38103Y102681D01*
X38194Y102729D01*
X38208Y102744D01*
X38225Y102754D01*
X38292Y102833D01*
X38363Y102908D01*
X38372Y102926D01*
X38385Y102941D01*
X38423Y103037D01*
X38467Y103131D01*
X38469Y103150D01*
X38477Y103169D01*
X38495Y103336D01*
X38495Y103967D01*
X40638Y106110D01*
X42419Y106110D01*
X47340Y101189D01*
X47414Y101136D01*
X47484Y101076D01*
X47514Y101064D01*
X47540Y101045D01*
X47627Y101018D01*
X47712Y100984D01*
X47753Y100980D01*
X47775Y100973D01*
X47807Y100974D01*
X47879Y100966D01*
X51020Y100966D01*
X51110Y100980D01*
X51201Y100988D01*
X51231Y101000D01*
X51263Y101005D01*
X51343Y101048D01*
X51427Y101084D01*
X51459Y101110D01*
X51480Y101121D01*
X51502Y101144D01*
X51558Y101189D01*
X53002Y102632D01*
X53044Y102691D01*
X53093Y102743D01*
X53115Y102790D01*
X53145Y102832D01*
X53166Y102901D01*
X53197Y102966D01*
X53202Y103017D01*
X53218Y103067D01*
X53216Y103139D01*
X53224Y103210D01*
X53213Y103261D01*
X53211Y103313D01*
X53187Y103380D01*
X53171Y103450D01*
X53145Y103495D01*
X53127Y103544D01*
X53082Y103600D01*
X53045Y103662D01*
X53006Y103695D01*
X52973Y103736D01*
X52913Y103775D01*
X52858Y103821D01*
X52810Y103841D01*
X52766Y103869D01*
X52697Y103887D01*
X52630Y103913D01*
X52559Y103921D01*
X52528Y103929D01*
X52504Y103927D01*
X52463Y103932D01*
X50891Y103932D01*
X50046Y104777D01*
X49972Y104830D01*
X49903Y104889D01*
X49873Y104901D01*
X49847Y104920D01*
X49760Y104947D01*
X49675Y104981D01*
X49634Y104986D01*
X49612Y104993D01*
X49579Y104992D01*
X49508Y105000D01*
X48717Y105000D01*
X46634Y107083D01*
X46634Y107874D01*
X46619Y107964D01*
X46612Y108055D01*
X46599Y108085D01*
X46594Y108117D01*
X46551Y108197D01*
X46516Y108281D01*
X46490Y108313D01*
X46479Y108334D01*
X46456Y108356D01*
X46411Y108412D01*
X45566Y109257D01*
X45566Y111038D01*
X47496Y112968D01*
X47508Y112984D01*
X47523Y112997D01*
X47579Y113084D01*
X47640Y113168D01*
X47646Y113187D01*
X47656Y113203D01*
X47682Y113304D01*
X47712Y113403D01*
X47712Y113423D01*
X47716Y113442D01*
X47708Y113545D01*
X47706Y113649D01*
X47699Y113667D01*
X47697Y113687D01*
X47657Y113782D01*
X47621Y113880D01*
X47609Y113895D01*
X47601Y113914D01*
X47496Y114045D01*
X45566Y115975D01*
X45566Y116606D01*
X45563Y116625D01*
X45565Y116645D01*
X45543Y116746D01*
X45526Y116849D01*
X45517Y116866D01*
X45513Y116886D01*
X45460Y116975D01*
X45411Y117066D01*
X45397Y117080D01*
X45387Y117097D01*
X45308Y117164D01*
X45233Y117235D01*
X45215Y117244D01*
X45200Y117257D01*
X45104Y117295D01*
X45010Y117339D01*
X44990Y117341D01*
X44972Y117349D01*
X44805Y117367D01*
X44174Y117367D01*
X42031Y119510D01*
X42031Y120141D01*
X42027Y120161D01*
X42030Y120181D01*
X42008Y120282D01*
X41991Y120384D01*
X41982Y120402D01*
X41977Y120421D01*
X41924Y120510D01*
X41876Y120601D01*
X41861Y120615D01*
X41851Y120632D01*
X41772Y120700D01*
X41697Y120771D01*
X41679Y120779D01*
X41664Y120792D01*
X41568Y120831D01*
X41474Y120874D01*
X41455Y120877D01*
X41436Y120884D01*
X41269Y120903D01*
X40638Y120903D01*
X38495Y123046D01*
X38495Y123677D01*
X38492Y123697D01*
X38494Y123716D01*
X38472Y123818D01*
X38455Y123920D01*
X38446Y123937D01*
X38442Y123957D01*
X38389Y124046D01*
X38340Y124137D01*
X38326Y124151D01*
X38316Y124168D01*
X38237Y124235D01*
X38162Y124306D01*
X38144Y124315D01*
X38129Y124328D01*
X38032Y124366D01*
X37939Y124410D01*
X37919Y124412D01*
X37901Y124420D01*
X37734Y124438D01*
X37103Y124438D01*
X34960Y126581D01*
X34960Y127212D01*
X34956Y127232D01*
X34958Y127252D01*
X34936Y127353D01*
X34920Y127455D01*
X34910Y127473D01*
X34906Y127492D01*
X34853Y127581D01*
X34805Y127672D01*
X34790Y127686D01*
X34780Y127703D01*
X34701Y127771D01*
X34626Y127842D01*
X34608Y127850D01*
X34593Y127863D01*
X34497Y127902D01*
X34403Y127945D01*
X34384Y127948D01*
X34365Y127955D01*
X34198Y127974D01*
X33567Y127974D01*
X31424Y130117D01*
X31424Y130748D01*
X31421Y130768D01*
X31423Y130787D01*
X31401Y130889D01*
X31384Y130991D01*
X31375Y131008D01*
X31371Y131028D01*
X31317Y131117D01*
X31269Y131208D01*
X31255Y131222D01*
X31244Y131239D01*
X31166Y131306D01*
X31091Y131377D01*
X31073Y131386D01*
X31058Y131399D01*
X30961Y131438D01*
X30868Y131481D01*
X30848Y131483D01*
X30829Y131491D01*
X30663Y131509D01*
X30031Y131509D01*
X27888Y133652D01*
X27888Y134283D01*
X27885Y134303D01*
X27887Y134323D01*
X27865Y134424D01*
X27849Y134526D01*
X27839Y134544D01*
X27835Y134563D01*
X27782Y134652D01*
X27734Y134744D01*
X27719Y134757D01*
X27709Y134774D01*
X27630Y134842D01*
X27555Y134913D01*
X27537Y134921D01*
X27522Y134934D01*
X27426Y134973D01*
X27332Y135017D01*
X27312Y135019D01*
X27294Y135026D01*
X27127Y135045D01*
X26496Y135045D01*
X24353Y137188D01*
X24353Y137819D01*
X24350Y137839D01*
X24352Y137858D01*
X24330Y137960D01*
X24313Y138062D01*
X24304Y138079D01*
X24300Y138099D01*
X24246Y138188D01*
X24198Y138279D01*
X24184Y138293D01*
X24173Y138310D01*
X24095Y138377D01*
X24020Y138448D01*
X24002Y138457D01*
X23987Y138470D01*
X23890Y138509D01*
X23797Y138552D01*
X23777Y138554D01*
X23758Y138562D01*
X23592Y138580D01*
X22960Y138580D01*
X20817Y140723D01*
X20817Y141355D01*
X20814Y141374D01*
X20816Y141394D01*
X20794Y141495D01*
X20778Y141597D01*
X20768Y141615D01*
X20764Y141634D01*
X20711Y141723D01*
X20663Y141815D01*
X20648Y141828D01*
X20638Y141845D01*
X20559Y141913D01*
X20484Y141984D01*
X20466Y141992D01*
X20451Y142005D01*
X20355Y142044D01*
X20261Y142088D01*
X20241Y142090D01*
X20223Y142097D01*
X20056Y142116D01*
X19425Y142116D01*
X17282Y144259D01*
X17282Y144890D01*
X17279Y144910D01*
X17281Y144930D01*
X17259Y145031D01*
X17242Y145133D01*
X17233Y145150D01*
X17229Y145170D01*
X17175Y145259D01*
X17127Y145350D01*
X17113Y145364D01*
X17102Y145381D01*
X17024Y145448D01*
X16949Y145520D01*
X16931Y145528D01*
X16915Y145541D01*
X16819Y145580D01*
X16726Y145623D01*
X16706Y145625D01*
X16687Y145633D01*
X16521Y145651D01*
X15889Y145651D01*
X13746Y147794D01*
X13746Y149575D01*
X19071Y154900D01*
X19087Y154900D01*
X19177Y154915D01*
X19268Y154922D01*
X19298Y154935D01*
X19330Y154940D01*
X19410Y154983D01*
X19494Y155019D01*
X19526Y155044D01*
X19547Y155055D01*
X19569Y155079D01*
X19625Y155123D01*
X22983Y158481D01*
X25955Y158481D01*
X26045Y158496D01*
X26136Y158503D01*
X26166Y158516D01*
X26198Y158521D01*
X26278Y158564D01*
X26362Y158599D01*
X26394Y158625D01*
X26415Y158636D01*
X26437Y158659D01*
X26493Y158704D01*
X26977Y159188D01*
X26989Y159204D01*
X27005Y159217D01*
X27061Y159304D01*
X27121Y159388D01*
X27127Y159407D01*
X27138Y159424D01*
X27163Y159524D01*
X27193Y159623D01*
X27193Y159643D01*
X27198Y159662D01*
X27190Y159765D01*
X27187Y159869D01*
X27180Y159888D01*
X27178Y159908D01*
X27138Y160002D01*
X27102Y160100D01*
X27090Y160116D01*
X27082Y160134D01*
X26977Y160265D01*
X26493Y160749D01*
X26419Y160802D01*
X26350Y160861D01*
X26320Y160874D01*
X26294Y160892D01*
X26207Y160919D01*
X26122Y160953D01*
X26081Y160958D01*
X26059Y160965D01*
X26026Y160964D01*
X25955Y160972D01*
X25306Y160972D01*
X24037Y162241D01*
X23979Y162282D01*
X23927Y162332D01*
X23879Y162354D01*
X23837Y162384D01*
X23769Y162405D01*
X23703Y162435D01*
X23652Y162441D01*
X23602Y162456D01*
X23530Y162455D01*
X23459Y162462D01*
X23408Y162451D01*
X23356Y162450D01*
X23289Y162425D01*
X23219Y162410D01*
X23174Y162384D01*
X23125Y162366D01*
X23069Y162321D01*
X23008Y162284D01*
X22974Y162244D01*
X22933Y162212D01*
X22894Y162152D01*
X22848Y162097D01*
X22828Y162049D01*
X22800Y162005D01*
X22783Y161936D01*
X22756Y161869D01*
X22748Y161798D01*
X22740Y161766D01*
X22742Y161743D01*
X22737Y161702D01*
X22737Y161328D01*
X19647Y158238D01*
X17536Y158238D01*
X17446Y158223D01*
X17355Y158216D01*
X17325Y158203D01*
X17293Y158198D01*
X17213Y158155D01*
X17129Y158120D01*
X17097Y158094D01*
X17076Y158083D01*
X17054Y158060D01*
X16998Y158015D01*
X12773Y153790D01*
X11982Y153790D01*
X11892Y153775D01*
X11801Y153768D01*
X11772Y153756D01*
X11740Y153750D01*
X11659Y153708D01*
X11575Y153672D01*
X11543Y153646D01*
X11522Y153635D01*
X11500Y153612D01*
X11444Y153567D01*
X10599Y152722D01*
X8818Y152722D01*
X6888Y154652D01*
X6872Y154664D01*
X6860Y154680D01*
X6772Y154736D01*
X6689Y154796D01*
X6670Y154802D01*
X6653Y154813D01*
X6552Y154838D01*
X6453Y154868D01*
X6434Y154868D01*
X6414Y154873D01*
X6311Y154865D01*
X6208Y154862D01*
X6189Y154855D01*
X6169Y154854D01*
X6074Y154813D01*
X5977Y154778D01*
X5961Y154765D01*
X5943Y154757D01*
X5812Y154652D01*
X3882Y152722D01*
X3250Y152722D01*
X3231Y152719D01*
X3211Y152721D01*
X3110Y152699D01*
X3008Y152683D01*
X2990Y152673D01*
X2971Y152669D01*
X2882Y152616D01*
X2790Y152568D01*
X2777Y152553D01*
X2760Y152543D01*
X2692Y152464D01*
X2621Y152389D01*
X2613Y152371D01*
X2600Y152356D01*
X2561Y152260D01*
X2517Y152166D01*
X2515Y152146D01*
X2508Y152128D01*
X2489Y151961D01*
X2489Y151330D01*
X346Y149187D01*
X-285Y149187D01*
X-305Y149184D01*
X-325Y149186D01*
X-426Y149164D01*
X-528Y149147D01*
X-545Y149138D01*
X-565Y149134D01*
X-654Y149080D01*
X-745Y149032D01*
X-759Y149018D01*
X-776Y149007D01*
X-843Y148929D01*
X-915Y148854D01*
X-923Y148836D01*
X-936Y148820D01*
X-975Y148724D01*
X-1018Y148631D01*
X-1020Y148611D01*
X-1028Y148592D01*
X-1046Y148426D01*
X-1046Y147794D01*
X-3189Y145651D01*
X-3821Y145651D01*
X-3840Y145648D01*
X-3860Y145650D01*
X-3961Y145628D01*
X-4063Y145612D01*
X-4081Y145602D01*
X-4100Y145598D01*
X-4189Y145545D01*
X-4281Y145496D01*
X-4294Y145482D01*
X-4312Y145472D01*
X-4379Y145393D01*
X-4450Y145318D01*
X-4458Y145300D01*
X-4471Y145285D01*
X-4510Y145189D01*
X-4554Y145095D01*
X-4556Y145075D01*
X-4563Y145057D01*
X-4582Y144890D01*
X-4582Y144259D01*
X-6725Y142116D01*
X-7356Y142116D01*
X-7376Y142113D01*
X-7396Y142115D01*
X-7497Y142093D01*
X-7599Y142076D01*
X-7616Y142067D01*
X-7636Y142062D01*
X-7725Y142009D01*
X-7816Y141961D01*
X-7830Y141947D01*
X-7847Y141936D01*
X-7914Y141858D01*
X-7986Y141783D01*
X-7994Y141765D01*
X-8007Y141749D01*
X-8046Y141653D01*
X-8089Y141560D01*
X-8091Y141540D01*
X-8099Y141521D01*
X-8117Y141355D01*
X-8117Y140723D01*
X-10260Y138580D01*
X-10892Y138580D01*
X-10911Y138577D01*
X-10931Y138579D01*
X-11032Y138557D01*
X-11134Y138540D01*
X-11152Y138531D01*
X-11171Y138527D01*
X-11260Y138474D01*
X-11352Y138425D01*
X-11365Y138411D01*
X-11383Y138401D01*
X-11450Y138322D01*
X-11521Y138247D01*
X-11530Y138229D01*
X-11542Y138214D01*
X-11581Y138118D01*
X-11625Y138024D01*
X-11627Y138004D01*
X-11634Y137986D01*
X-11653Y137819D01*
X-11653Y137188D01*
X-13796Y135045D01*
X-14427Y135045D01*
X-14447Y135041D01*
X-14467Y135044D01*
X-14568Y135022D01*
X-14670Y135005D01*
X-14687Y134996D01*
X-14707Y134991D01*
X-14796Y134938D01*
X-14887Y134890D01*
X-14901Y134875D01*
X-14918Y134865D01*
X-14985Y134786D01*
X-15057Y134711D01*
X-15065Y134693D01*
X-15078Y134678D01*
X-15117Y134582D01*
X-15160Y134488D01*
X-15162Y134469D01*
X-15170Y134450D01*
X-15188Y134283D01*
X-15188Y133652D01*
X-17331Y131509D01*
X-17963Y131509D01*
X-17982Y131506D01*
X-18002Y131508D01*
X-18103Y131486D01*
X-18205Y131469D01*
X-18223Y131460D01*
X-18243Y131456D01*
X-18332Y131403D01*
X-18423Y131354D01*
X-18437Y131340D01*
X-18454Y131330D01*
X-18521Y131251D01*
X-18592Y131176D01*
X-18601Y131158D01*
X-18614Y131143D01*
X-18652Y131047D01*
X-18696Y130953D01*
X-18698Y130933D01*
X-18705Y130915D01*
X-18724Y130748D01*
X-18724Y130117D01*
X-20867Y127974D01*
X-21498Y127974D01*
X-21518Y127970D01*
X-21538Y127973D01*
X-21639Y127951D01*
X-21741Y127934D01*
X-21759Y127925D01*
X-21778Y127920D01*
X-21867Y127867D01*
X-21958Y127819D01*
X-21972Y127804D01*
X-21989Y127794D01*
X-22057Y127715D01*
X-22128Y127640D01*
X-22136Y127622D01*
X-22149Y127607D01*
X-22188Y127511D01*
X-22231Y127417D01*
X-22234Y127398D01*
X-22241Y127379D01*
X-22260Y127212D01*
X-22260Y126581D01*
X-24403Y124438D01*
X-25034Y124438D01*
X-25053Y124435D01*
X-25073Y124437D01*
X-25175Y124415D01*
X-25277Y124398D01*
X-25294Y124389D01*
X-25314Y124385D01*
X-25403Y124332D01*
X-25494Y124283D01*
X-25508Y124269D01*
X-25525Y124259D01*
X-25592Y124180D01*
X-25663Y124105D01*
X-25672Y124087D01*
X-25685Y124072D01*
X-25723Y123975D01*
X-25767Y123882D01*
X-25769Y123862D01*
X-25777Y123844D01*
X-25795Y123677D01*
X-25795Y123046D01*
X-27938Y120903D01*
X-29719Y120903D01*
X-35044Y126228D01*
X-35044Y126243D01*
X-35059Y126333D01*
X-35066Y126424D01*
X-35079Y126454D01*
X-35084Y126486D01*
X-35127Y126567D01*
X-35162Y126650D01*
X-35188Y126683D01*
X-35199Y126703D01*
X-35222Y126725D01*
X-35267Y126781D01*
X-51772Y143286D01*
X-51846Y143339D01*
X-51915Y143399D01*
X-51946Y143411D01*
X-51972Y143430D01*
X-52059Y143457D01*
X-52144Y143491D01*
X-52184Y143495D01*
X-52207Y143502D01*
X-52239Y143501D01*
X-52310Y143509D01*
X-177074Y143509D01*
X-177145Y143498D01*
X-177217Y143496D01*
X-177266Y143478D01*
X-177317Y143470D01*
X-177380Y143436D01*
X-177448Y143411D01*
X-177489Y143379D01*
X-177534Y143354D01*
X-177584Y143302D01*
X-177640Y143258D01*
X-177668Y143214D01*
X-177704Y143176D01*
X-177734Y143111D01*
X-177773Y143051D01*
X-177786Y143000D01*
X-177807Y142953D01*
X-177815Y142882D01*
X-177833Y142812D01*
X-177829Y142760D01*
X-177835Y142709D01*
X-177819Y142638D01*
X-177814Y142567D01*
X-177793Y142519D01*
X-177782Y142468D01*
X-177746Y142407D01*
X-177717Y142341D01*
X-177673Y142285D01*
X-177656Y142257D01*
X-177638Y142242D01*
X-177613Y142210D01*
X-177288Y141885D01*
X-177288Y137515D01*
X-180370Y134433D01*
X-180423Y134359D01*
X-180483Y134289D01*
X-180495Y134259D01*
X-180514Y134233D01*
X-180541Y134146D01*
X-180575Y134061D01*
X-180579Y134020D01*
X-180586Y133998D01*
X-180585Y133966D01*
X-180593Y133894D01*
X-180593Y97930D01*
X-180579Y97840D01*
X-180571Y97749D01*
X-180559Y97719D01*
X-180554Y97687D01*
X-180511Y97607D01*
X-180475Y97523D01*
X-180449Y97491D01*
X-180438Y97470D01*
X-180415Y97448D01*
X-180370Y97392D01*
X-174013Y91035D01*
X-174013Y75065D01*
X-179951Y69127D01*
X-195402Y69127D01*
X-195493Y69113D01*
X-195583Y69105D01*
X-195613Y69093D01*
X-195645Y69088D01*
X-195726Y69045D01*
X-195810Y69009D01*
X-195842Y68983D01*
X-195863Y68972D01*
X-195885Y68949D01*
X-195941Y68904D01*
X-226118Y38727D01*
X-226186Y38633D01*
X-226256Y38538D01*
X-226258Y38532D01*
X-226262Y38527D01*
X-226296Y38416D01*
X-226332Y38304D01*
X-226332Y38298D01*
X-226334Y38292D01*
X-226331Y38175D01*
X-226330Y38059D01*
X-226328Y38051D01*
X-226328Y38046D01*
X-226321Y38029D01*
X-226283Y37897D01*
X-225805Y36744D01*
X-225805Y33106D01*
X-227197Y29745D01*
X-229770Y27172D01*
X-233131Y25780D01*
X-236769Y25780D01*
X-240130Y27172D01*
X-242703Y29745D01*
X-244095Y33106D01*
X-244095Y36744D01*
X-242703Y40105D01*
X-240130Y42678D01*
X-236769Y44070D01*
X-233131Y44070D01*
X-231978Y43592D01*
X-231864Y43565D01*
X-231750Y43537D01*
X-231744Y43537D01*
X-231738Y43536D01*
X-231622Y43547D01*
X-231505Y43556D01*
X-231500Y43558D01*
X-231493Y43559D01*
X-231386Y43607D01*
X-231279Y43652D01*
X-231273Y43657D01*
X-231269Y43659D01*
X-231255Y43672D01*
X-231148Y43757D01*
X-200971Y73934D01*
X-198664Y76241D01*
X-189397Y76241D01*
X-189327Y76252D01*
X-189255Y76254D01*
X-189206Y76272D01*
X-189155Y76280D01*
X-189091Y76314D01*
X-189024Y76339D01*
X-188983Y76371D01*
X-188937Y76396D01*
X-188888Y76448D01*
X-188832Y76492D01*
X-188804Y76536D01*
X-188768Y76574D01*
X-188738Y76639D01*
X-188699Y76699D01*
X-188686Y76750D01*
X-188664Y76797D01*
X-188656Y76868D01*
X-188639Y76938D01*
X-188643Y76990D01*
X-188637Y77041D01*
X-188652Y77112D01*
X-188658Y77183D01*
X-188678Y77231D01*
X-188689Y77282D01*
X-188699Y77297D01*
X-188699Y79608D01*
X-188713Y79698D01*
X-188721Y79789D01*
X-188733Y79818D01*
X-188738Y79850D01*
X-188781Y79931D01*
X-188817Y80015D01*
X-188843Y80047D01*
X-188854Y80068D01*
X-188877Y80090D01*
X-188922Y80146D01*
X-192258Y83483D01*
X-192269Y83550D01*
X-192277Y83641D01*
X-192289Y83671D01*
X-192294Y83703D01*
X-192337Y83784D01*
X-192373Y83868D01*
X-192399Y83900D01*
X-192410Y83920D01*
X-192433Y83943D01*
X-192478Y83999D01*
X-195151Y86671D01*
X-195164Y86697D01*
X-195216Y86746D01*
X-195261Y86802D01*
X-195305Y86830D01*
X-195342Y86866D01*
X-195407Y86897D01*
X-195468Y86935D01*
X-195518Y86948D01*
X-195565Y86970D01*
X-195637Y86978D01*
X-195706Y86995D01*
X-195758Y86991D01*
X-195810Y86997D01*
X-195880Y86982D01*
X-195952Y86976D01*
X-195999Y86956D01*
X-196050Y86945D01*
X-196112Y86908D01*
X-196178Y86880D01*
X-196234Y86835D01*
X-196261Y86819D01*
X-196277Y86801D01*
X-196309Y86775D01*
X-196757Y86327D01*
X-220347Y62737D01*
X-243203Y62737D01*
X-243650Y63184D01*
X-243650Y165416D01*
X-243203Y165863D01*
X-220347Y165863D01*
X-219677Y165193D01*
X-196757Y142273D01*
X-196087Y141603D01*
X-196087Y134623D01*
X-196084Y134604D01*
X-196086Y134584D01*
X-196064Y134483D01*
X-196048Y134381D01*
X-196038Y134363D01*
X-196034Y134344D01*
X-195981Y134255D01*
X-195932Y134163D01*
X-195918Y134150D01*
X-195908Y134133D01*
X-195829Y134065D01*
X-195754Y133994D01*
X-195736Y133986D01*
X-195721Y133973D01*
X-195625Y133934D01*
X-195531Y133890D01*
X-195511Y133888D01*
X-195493Y133881D01*
X-195326Y133862D01*
X-193078Y133862D01*
X-189988Y130772D01*
X-189988Y126403D01*
X-193078Y123313D01*
X-194196Y123313D01*
X-194267Y123301D01*
X-194339Y123299D01*
X-194388Y123281D01*
X-194439Y123273D01*
X-194502Y123240D01*
X-194570Y123215D01*
X-194610Y123182D01*
X-194656Y123158D01*
X-194706Y123106D01*
X-194762Y123061D01*
X-194790Y123017D01*
X-194826Y122980D01*
X-194856Y122915D01*
X-194895Y122854D01*
X-194907Y122804D01*
X-194929Y122757D01*
X-194937Y122685D01*
X-194955Y122616D01*
X-194951Y122564D01*
X-194956Y122512D01*
X-194941Y122442D01*
X-194936Y122370D01*
X-194915Y122323D01*
X-194904Y122272D01*
X-194867Y122210D01*
X-194839Y122144D01*
X-194795Y122088D01*
X-194778Y122061D01*
X-194768Y122052D01*
X-194766Y122049D01*
X-194756Y122040D01*
X-194734Y122013D01*
X-194351Y121630D01*
X-194351Y121629D01*
X-189006Y116285D01*
X-188948Y116243D01*
X-188896Y116194D01*
X-188849Y116172D01*
X-188807Y116141D01*
X-188738Y116120D01*
X-188673Y116090D01*
X-188621Y116084D01*
X-188571Y116069D01*
X-188500Y116071D01*
X-188429Y116063D01*
X-188378Y116074D01*
X-188326Y116075D01*
X-188258Y116100D01*
X-188188Y116115D01*
X-188144Y116142D01*
X-188095Y116160D01*
X-188039Y116205D01*
X-187977Y116241D01*
X-187943Y116281D01*
X-187903Y116314D01*
X-187864Y116374D01*
X-187817Y116428D01*
X-187798Y116477D01*
X-187770Y116521D01*
X-187752Y116590D01*
X-187725Y116657D01*
X-187717Y116728D01*
X-187709Y116759D01*
X-187711Y116782D01*
X-187707Y116823D01*
X-187707Y137069D01*
X-187721Y137159D01*
X-187729Y137250D01*
X-187741Y137280D01*
X-187746Y137312D01*
X-187789Y137393D01*
X-187825Y137477D01*
X-187837Y137492D01*
X-187837Y141885D01*
X-184747Y144975D01*
X-183743Y144975D01*
X-183672Y144986D01*
X-183601Y144988D01*
X-183552Y145006D01*
X-183500Y145014D01*
X-183437Y145048D01*
X-183370Y145073D01*
X-183329Y145105D01*
X-183283Y145130D01*
X-183234Y145181D01*
X-183178Y145226D01*
X-183150Y145270D01*
X-183114Y145308D01*
X-183083Y145373D01*
X-183045Y145433D01*
X-183032Y145484D01*
X-183010Y145531D01*
X-183002Y145602D01*
X-182985Y145672D01*
X-182989Y145724D01*
X-182983Y145775D01*
X-182998Y145846D01*
X-183004Y145917D01*
X-183024Y145965D01*
X-183035Y146016D01*
X-183072Y146077D01*
X-183100Y146143D01*
X-183145Y146199D01*
X-183161Y146227D01*
X-183179Y146242D01*
X-183205Y146274D01*
X-225408Y188477D01*
X-225445Y188504D01*
X-225476Y188538D01*
X-225545Y188575D01*
X-225608Y188621D01*
X-225651Y188634D01*
X-225692Y188656D01*
X-225768Y188670D01*
X-225843Y188693D01*
X-225889Y188692D01*
X-225934Y188700D01*
X-226011Y188689D01*
X-226089Y188687D01*
X-226132Y188671D01*
X-226177Y188664D01*
X-226246Y188629D01*
X-226320Y188602D01*
X-226355Y188574D01*
X-226396Y188553D01*
X-226451Y188497D01*
X-226512Y188449D01*
X-226536Y188410D01*
X-226569Y188377D01*
X-226635Y188257D01*
X-226645Y188242D01*
X-226646Y188237D01*
X-226650Y188230D01*
X-227197Y186907D01*
X-229770Y184335D01*
X-233131Y182943D01*
X-236769Y182943D01*
X-240130Y184335D01*
X-242703Y186907D01*
X-244095Y190269D01*
X-244095Y193906D01*
X-242703Y197268D01*
X-240130Y199840D01*
X-236769Y201232D01*
X-233131Y201232D01*
X-229770Y199840D01*
X-227197Y197268D01*
X-226299Y195098D01*
X-226237Y194999D01*
X-226177Y194899D01*
X-226173Y194894D01*
X-226169Y194889D01*
X-226079Y194815D01*
X-225990Y194739D01*
X-225985Y194736D01*
X-225980Y194732D01*
X-225871Y194691D01*
X-225762Y194647D01*
X-225755Y194646D01*
X-225750Y194644D01*
X-225732Y194643D01*
X-225596Y194628D01*
X-224373Y194628D01*
X-222661Y192917D01*
X-219994Y190250D01*
X-219936Y190208D01*
X-219884Y190159D01*
X-219837Y190137D01*
X-219795Y190106D01*
X-219726Y190085D01*
X-219661Y190055D01*
X-219609Y190049D01*
X-219559Y190034D01*
X-219488Y190036D01*
X-219417Y190028D01*
X-219366Y190039D01*
X-219314Y190040D01*
X-219246Y190065D01*
X-219176Y190080D01*
X-219131Y190107D01*
X-219083Y190125D01*
X-219027Y190170D01*
X-218965Y190206D01*
X-218931Y190246D01*
X-218891Y190279D01*
X-218852Y190339D01*
X-218805Y190393D01*
X-218786Y190442D01*
X-218758Y190485D01*
X-218740Y190555D01*
X-218713Y190621D01*
X-218705Y190693D01*
X-218697Y190724D01*
X-218699Y190747D01*
X-218695Y190788D01*
X-218695Y193906D01*
X-217303Y197268D01*
X-214730Y199840D01*
X-211369Y201232D01*
X-207731Y201232D01*
X-204370Y199840D01*
X-201797Y197268D01*
X-200405Y193906D01*
X-200405Y190269D01*
X-201304Y188099D01*
X-201331Y187986D01*
X-201359Y187872D01*
X-201359Y187866D01*
X-201360Y187860D01*
X-201349Y187743D01*
X-201340Y187627D01*
X-201338Y187621D01*
X-201337Y187615D01*
X-201289Y187507D01*
X-201244Y187400D01*
X-201239Y187395D01*
X-201237Y187390D01*
X-201224Y187376D01*
X-201139Y187269D01*
X-167446Y153576D01*
X-167372Y153523D01*
X-167302Y153464D01*
X-167272Y153451D01*
X-167246Y153433D01*
X-167159Y153406D01*
X-167074Y153372D01*
X-167033Y153367D01*
X-167011Y153360D01*
X-166979Y153361D01*
X-166907Y153353D01*
X-150847Y153353D01*
X-150776Y153365D01*
X-150704Y153367D01*
X-150655Y153385D01*
X-150604Y153393D01*
X-150541Y153427D01*
X-150473Y153451D01*
X-150432Y153484D01*
X-150387Y153508D01*
X-150337Y153560D01*
X-150281Y153605D01*
X-150253Y153649D01*
X-150217Y153686D01*
X-150187Y153752D01*
X-150148Y153812D01*
X-150135Y153862D01*
X-150114Y153909D01*
X-150106Y153981D01*
X-150088Y154050D01*
X-150092Y154102D01*
X-150086Y154154D01*
X-150102Y154224D01*
X-150107Y154296D01*
X-150128Y154343D01*
X-150139Y154394D01*
X-150176Y154456D01*
X-150204Y154522D01*
X-150248Y154578D01*
X-150265Y154605D01*
X-150283Y154621D01*
X-150308Y154653D01*
X-150401Y154746D01*
X-179332Y183676D01*
X-179426Y183744D01*
X-179521Y183814D01*
X-179527Y183816D01*
X-179532Y183820D01*
X-179643Y183854D01*
X-179755Y183890D01*
X-179761Y183890D01*
X-179767Y183892D01*
X-179884Y183889D01*
X-180000Y183888D01*
X-180008Y183886D01*
X-180013Y183886D01*
X-180030Y183880D01*
X-180162Y183841D01*
X-182331Y182943D01*
X-185969Y182943D01*
X-189330Y184335D01*
X-191903Y186907D01*
X-193295Y190269D01*
X-193295Y193906D01*
X-191903Y197268D01*
X-189330Y199840D01*
X-185969Y201232D01*
X-182331Y201232D01*
X-178970Y199840D01*
X-176397Y197268D01*
X-175005Y193906D01*
X-175005Y190269D01*
X-175904Y188099D01*
X-175931Y187986D01*
X-175959Y187872D01*
X-175959Y187866D01*
X-175960Y187860D01*
X-175949Y187743D01*
X-175940Y187627D01*
X-175938Y187621D01*
X-175937Y187615D01*
X-175889Y187507D01*
X-175844Y187400D01*
X-175839Y187395D01*
X-175837Y187390D01*
X-175824Y187376D01*
X-175739Y187269D01*
X-146808Y158339D01*
X-146734Y158286D01*
X-146665Y158226D01*
X-146634Y158214D01*
X-146608Y158195D01*
X-146521Y158168D01*
X-146436Y158134D01*
X-146396Y158130D01*
X-146373Y158123D01*
X-146341Y158124D01*
X-146270Y158116D01*
X-130209Y158116D01*
X-130138Y158127D01*
X-130067Y158129D01*
X-130018Y158147D01*
X-129966Y158155D01*
X-129903Y158189D01*
X-129836Y158214D01*
X-129795Y158246D01*
X-129749Y158271D01*
X-129700Y158323D01*
X-129644Y158367D01*
X-129615Y158411D01*
X-129580Y158449D01*
X-129549Y158514D01*
X-129511Y158574D01*
X-129498Y158625D01*
X-129476Y158672D01*
X-129468Y158743D01*
X-129451Y158813D01*
X-129455Y158865D01*
X-129449Y158916D01*
X-129464Y158987D01*
X-129470Y159058D01*
X-129490Y159106D01*
X-129501Y159157D01*
X-129538Y159218D01*
X-129566Y159284D01*
X-129611Y159340D01*
X-129627Y159368D01*
X-129645Y159383D01*
X-129671Y159415D01*
X-129764Y159508D01*
X-153932Y183676D01*
X-154026Y183744D01*
X-154121Y183814D01*
X-154127Y183816D01*
X-154132Y183820D01*
X-154243Y183854D01*
X-154355Y183890D01*
X-154361Y183890D01*
X-154367Y183892D01*
X-154484Y183889D01*
X-154600Y183888D01*
X-154608Y183886D01*
X-154613Y183886D01*
X-154630Y183879D01*
X-154762Y183841D01*
X-156931Y182943D01*
X-160569Y182943D01*
X-163930Y184335D01*
X-166503Y186907D01*
X-167895Y190269D01*
X-167895Y193906D01*
X-166503Y197268D01*
X-163930Y199840D01*
X-160569Y201232D01*
X-156931Y201232D01*
X-153570Y199840D01*
X-150997Y197268D01*
X-149605Y193906D01*
X-149605Y190269D01*
X-150504Y188099D01*
X-150531Y187986D01*
X-150559Y187872D01*
X-150559Y187866D01*
X-150560Y187860D01*
X-150549Y187743D01*
X-150540Y187627D01*
X-150538Y187621D01*
X-150537Y187615D01*
X-150489Y187507D01*
X-150444Y187400D01*
X-150439Y187395D01*
X-150437Y187390D01*
X-150424Y187376D01*
X-150339Y187269D01*
X-126171Y163101D01*
X-126097Y163048D01*
X-126027Y162989D01*
X-125997Y162976D01*
X-125971Y162958D01*
X-125884Y162931D01*
X-125799Y162897D01*
X-125758Y162892D01*
X-125736Y162885D01*
X-125704Y162886D01*
X-125632Y162878D01*
X-109572Y162878D01*
X-109501Y162890D01*
X-109429Y162892D01*
X-109380Y162910D01*
X-109329Y162918D01*
X-109266Y162952D01*
X-109198Y162976D01*
X-109157Y163009D01*
X-109112Y163033D01*
X-109062Y163085D01*
X-109006Y163130D01*
X-108978Y163174D01*
X-108942Y163211D01*
X-108912Y163277D01*
X-108873Y163337D01*
X-108860Y163387D01*
X-108839Y163434D01*
X-108831Y163506D01*
X-108813Y163575D01*
X-108817Y163627D01*
X-108811Y163679D01*
X-108827Y163749D01*
X-108832Y163821D01*
X-108853Y163868D01*
X-108864Y163919D01*
X-108901Y163981D01*
X-108929Y164047D01*
X-108973Y164103D01*
X-108990Y164130D01*
X-108996Y164136D01*
X-108997Y164138D01*
X-109010Y164149D01*
X-109033Y164178D01*
X-109126Y164271D01*
X-128532Y183676D01*
X-128626Y183744D01*
X-128721Y183814D01*
X-128727Y183816D01*
X-128732Y183820D01*
X-128843Y183854D01*
X-128955Y183890D01*
X-128961Y183890D01*
X-128967Y183892D01*
X-129084Y183889D01*
X-129200Y183888D01*
X-129208Y183886D01*
X-129213Y183886D01*
X-129230Y183880D01*
X-129362Y183841D01*
X-131531Y182943D01*
X-135169Y182943D01*
X-138530Y184335D01*
X-141103Y186907D01*
X-142495Y190269D01*
X-142495Y193906D01*
X-141103Y197268D01*
X-138530Y199840D01*
X-135169Y201232D01*
X-131531Y201232D01*
X-128170Y199840D01*
X-125597Y197268D01*
X-124205Y193906D01*
X-124205Y190269D01*
X-125104Y188099D01*
X-125131Y187986D01*
X-125159Y187872D01*
X-125159Y187866D01*
X-125160Y187860D01*
X-125149Y187743D01*
X-125140Y187627D01*
X-125138Y187621D01*
X-125137Y187615D01*
X-125089Y187507D01*
X-125044Y187400D01*
X-125039Y187395D01*
X-125037Y187390D01*
X-125024Y187376D01*
X-124939Y187269D01*
X-105533Y167864D01*
X-105459Y167811D01*
X-105390Y167751D01*
X-105359Y167739D01*
X-105333Y167720D01*
X-105246Y167693D01*
X-105161Y167659D01*
X-105121Y167655D01*
X-105098Y167648D01*
X-105066Y167649D01*
X-104995Y167641D01*
X-88934Y167641D01*
X-88863Y167652D01*
X-88792Y167654D01*
X-88743Y167672D01*
X-88691Y167680D01*
X-88628Y167714D01*
X-88561Y167739D01*
X-88520Y167771D01*
X-88474Y167796D01*
X-88425Y167848D01*
X-88369Y167892D01*
X-88340Y167936D01*
X-88305Y167974D01*
X-88274Y168039D01*
X-88236Y168099D01*
X-88223Y168150D01*
X-88201Y168197D01*
X-88193Y168268D01*
X-88176Y168338D01*
X-88180Y168390D01*
X-88174Y168441D01*
X-88189Y168512D01*
X-88195Y168583D01*
X-88215Y168631D01*
X-88226Y168682D01*
X-88263Y168743D01*
X-88291Y168809D01*
X-88336Y168865D01*
X-88352Y168893D01*
X-88370Y168908D01*
X-88396Y168940D01*
X-88489Y169033D01*
X-103132Y183676D01*
X-103226Y183744D01*
X-103321Y183814D01*
X-103327Y183816D01*
X-103332Y183820D01*
X-103443Y183854D01*
X-103555Y183890D01*
X-103561Y183890D01*
X-103567Y183892D01*
X-103684Y183889D01*
X-103800Y183888D01*
X-103808Y183886D01*
X-103813Y183886D01*
X-103830Y183880D01*
X-103962Y183841D01*
X-106131Y182943D01*
X-109769Y182943D01*
X-113130Y184335D01*
X-115703Y186907D01*
X-117095Y190269D01*
X-117095Y193906D01*
X-115703Y197268D01*
X-113130Y199840D01*
X-109769Y201232D01*
X-106131Y201232D01*
X-102770Y199840D01*
X-100197Y197268D01*
X-98805Y193906D01*
X-98805Y190269D01*
X-99704Y188099D01*
X-99731Y187986D01*
X-99759Y187872D01*
X-99759Y187866D01*
X-99760Y187860D01*
X-99749Y187743D01*
X-99740Y187627D01*
X-99738Y187621D01*
X-99737Y187615D01*
X-99689Y187507D01*
X-99644Y187400D01*
X-99639Y187395D01*
X-99637Y187390D01*
X-99624Y187376D01*
X-99539Y187269D01*
X-84896Y172626D01*
X-84822Y172573D01*
X-84752Y172514D01*
X-84722Y172501D01*
X-84696Y172483D01*
X-84609Y172456D01*
X-84524Y172422D01*
X-84483Y172417D01*
X-84461Y172410D01*
X-84429Y172411D01*
X-84357Y172403D01*
X-68297Y172403D01*
X-68226Y172415D01*
X-68154Y172417D01*
X-68105Y172435D01*
X-68054Y172443D01*
X-67991Y172477D01*
X-67923Y172501D01*
X-67882Y172534D01*
X-67837Y172558D01*
X-67787Y172610D01*
X-67731Y172655D01*
X-67703Y172699D01*
X-67667Y172736D01*
X-67637Y172802D01*
X-67598Y172862D01*
X-67585Y172912D01*
X-67564Y172959D01*
X-67556Y173031D01*
X-67538Y173100D01*
X-67542Y173152D01*
X-67536Y173204D01*
X-67552Y173274D01*
X-67557Y173346D01*
X-67578Y173393D01*
X-67589Y173444D01*
X-67626Y173506D01*
X-67654Y173572D01*
X-67698Y173628D01*
X-67715Y173655D01*
X-67733Y173671D01*
X-67758Y173703D01*
X-67851Y173796D01*
X-77732Y183676D01*
X-77826Y183744D01*
X-77921Y183814D01*
X-77927Y183816D01*
X-77932Y183820D01*
X-78043Y183854D01*
X-78155Y183890D01*
X-78161Y183890D01*
X-78167Y183892D01*
X-78284Y183889D01*
X-78400Y183888D01*
X-78408Y183886D01*
X-78413Y183886D01*
X-78430Y183880D01*
X-78562Y183841D01*
X-80731Y182943D01*
X-84369Y182943D01*
X-87730Y184335D01*
X-90303Y186907D01*
X-91695Y190269D01*
X-91695Y193906D01*
X-90303Y197268D01*
X-87730Y199840D01*
X-84369Y201232D01*
X-80731Y201232D01*
X-77370Y199840D01*
X-74797Y197268D01*
X-73405Y193906D01*
X-73405Y190269D01*
X-74304Y188099D01*
X-74331Y187986D01*
X-74359Y187872D01*
X-74359Y187866D01*
X-74360Y187860D01*
X-74349Y187743D01*
X-74340Y187627D01*
X-74338Y187621D01*
X-74337Y187615D01*
X-74289Y187507D01*
X-74244Y187400D01*
X-74239Y187395D01*
X-74237Y187390D01*
X-74224Y187376D01*
X-74139Y187269D01*
X-64258Y177389D01*
X-64184Y177336D01*
X-64115Y177276D01*
X-64084Y177264D01*
X-64058Y177245D01*
X-63971Y177218D01*
X-63886Y177184D01*
X-63846Y177180D01*
X-63823Y177173D01*
X-63791Y177174D01*
X-63720Y177166D01*
X-47659Y177166D01*
X-47588Y177177D01*
X-47517Y177179D01*
X-47468Y177197D01*
X-47416Y177205D01*
X-47353Y177239D01*
X-47286Y177264D01*
X-47245Y177296D01*
X-47199Y177321D01*
X-47150Y177373D01*
X-47094Y177417D01*
X-47065Y177461D01*
X-47030Y177499D01*
X-46999Y177564D01*
X-46961Y177624D01*
X-46948Y177675D01*
X-46926Y177722D01*
X-46918Y177793D01*
X-46901Y177863D01*
X-46905Y177915D01*
X-46899Y177966D01*
X-46914Y178037D01*
X-46920Y178108D01*
X-46940Y178156D01*
X-46951Y178207D01*
X-46988Y178268D01*
X-47016Y178334D01*
X-47061Y178390D01*
X-47077Y178418D01*
X-47095Y178433D01*
X-47121Y178465D01*
X-47214Y178558D01*
X-52332Y183676D01*
X-52426Y183744D01*
X-52521Y183814D01*
X-52527Y183816D01*
X-52532Y183820D01*
X-52643Y183854D01*
X-52755Y183890D01*
X-52761Y183890D01*
X-52767Y183892D01*
X-52884Y183889D01*
X-53000Y183888D01*
X-53008Y183886D01*
X-53013Y183886D01*
X-53030Y183880D01*
X-53162Y183841D01*
X-55331Y182943D01*
X-58969Y182943D01*
X-62330Y184335D01*
X-64903Y186907D01*
X-66295Y190269D01*
X-66295Y193906D01*
X-64903Y197268D01*
X-62330Y199840D01*
X-58969Y201232D01*
X-55331Y201232D01*
X-51970Y199840D01*
X-49397Y197268D01*
X-48005Y193906D01*
X-48005Y190269D01*
X-48904Y188099D01*
X-48931Y187986D01*
X-48959Y187872D01*
X-48959Y187866D01*
X-48960Y187860D01*
X-48949Y187743D01*
X-48940Y187627D01*
X-48938Y187621D01*
X-48937Y187615D01*
X-48889Y187507D01*
X-48844Y187400D01*
X-48839Y187395D01*
X-48837Y187390D01*
X-48824Y187376D01*
X-48739Y187269D01*
X-43621Y182151D01*
X-43547Y182098D01*
X-43477Y182039D01*
X-43447Y182026D01*
X-43421Y182008D01*
X-43334Y181981D01*
X-43249Y181947D01*
X-43208Y181942D01*
X-43186Y181935D01*
X-43154Y181936D01*
X-43082Y181928D01*
X-34947Y181928D01*
X-34851Y181944D01*
X-34754Y181953D01*
X-34730Y181964D01*
X-34704Y181968D01*
X-34618Y182013D01*
X-34529Y182053D01*
X-34510Y182071D01*
X-34487Y182083D01*
X-34420Y182154D01*
X-34348Y182220D01*
X-34335Y182242D01*
X-34317Y182261D01*
X-34276Y182350D01*
X-34229Y182435D01*
X-34225Y182461D01*
X-34214Y182484D01*
X-34203Y182581D01*
X-34186Y182677D01*
X-34189Y182703D01*
X-34186Y182729D01*
X-34207Y182824D01*
X-34221Y182920D01*
X-34233Y182944D01*
X-34239Y182969D01*
X-34289Y183053D01*
X-34333Y183140D01*
X-34352Y183158D01*
X-34365Y183180D01*
X-34439Y183244D01*
X-34508Y183312D01*
X-34537Y183328D01*
X-34552Y183340D01*
X-34583Y183353D01*
X-34655Y183393D01*
X-36930Y184335D01*
X-39503Y186907D01*
X-40895Y190269D01*
X-40895Y193906D01*
X-39503Y197268D01*
X-36930Y199840D01*
X-33569Y201232D01*
X-29931Y201232D01*
X-26570Y199840D01*
X-23997Y197268D01*
X-22605Y193906D01*
X-22605Y190269D01*
X-23504Y188099D01*
X-23531Y187986D01*
X-23559Y187872D01*
X-23559Y187866D01*
X-23560Y187860D01*
X-23549Y187743D01*
X-23540Y187627D01*
X-23538Y187621D01*
X-23537Y187615D01*
X-23489Y187507D01*
X-23444Y187400D01*
X-23439Y187395D01*
X-23437Y187390D01*
X-23424Y187376D01*
X-23339Y187269D01*
X-12192Y176122D01*
X-12118Y176069D01*
X-12048Y176010D01*
X-12018Y175997D01*
X-11992Y175979D01*
X-11905Y175952D01*
X-11820Y175918D01*
X-11779Y175913D01*
X-11757Y175906D01*
X-11725Y175907D01*
X-11653Y175899D01*
X4407Y175899D01*
X4478Y175911D01*
X4550Y175913D01*
X4599Y175931D01*
X4650Y175939D01*
X4713Y175972D01*
X4781Y175997D01*
X4822Y176030D01*
X4867Y176054D01*
X4917Y176106D01*
X4973Y176151D01*
X5001Y176195D01*
X5037Y176232D01*
X5067Y176297D01*
X5106Y176358D01*
X5119Y176408D01*
X5140Y176455D01*
X5148Y176527D01*
X5166Y176596D01*
X5162Y176648D01*
X5168Y176700D01*
X5152Y176770D01*
X5147Y176841D01*
X5126Y176889D01*
X5115Y176940D01*
X5078Y177002D01*
X5050Y177068D01*
X5006Y177124D01*
X4989Y177151D01*
X4971Y177167D01*
X4946Y177199D01*
X-1532Y183676D01*
X-1626Y183744D01*
X-1721Y183814D01*
X-1727Y183816D01*
X-1732Y183820D01*
X-1843Y183854D01*
X-1955Y183890D01*
X-1961Y183890D01*
X-1967Y183892D01*
X-2084Y183889D01*
X-2200Y183888D01*
X-2208Y183886D01*
X-2213Y183886D01*
X-2230Y183880D01*
X-2362Y183841D01*
X-4531Y182943D01*
X-8169Y182943D01*
X-11530Y184335D01*
X-14103Y186907D01*
X-15495Y190269D01*
X-15495Y193906D01*
X-14103Y197268D01*
X-11530Y199840D01*
X-8169Y201232D01*
X-4531Y201232D01*
X-1170Y199840D01*
X1403Y197268D01*
X2795Y193906D01*
X2795Y190269D01*
X1896Y188099D01*
X1869Y187986D01*
X1841Y187872D01*
X1841Y187866D01*
X1840Y187860D01*
X1851Y187743D01*
X1860Y187627D01*
X1862Y187621D01*
X1863Y187615D01*
X1911Y187507D01*
X1956Y187400D01*
X1961Y187395D01*
X1963Y187390D01*
X1976Y187376D01*
X2061Y187269D01*
X8767Y180564D01*
X8841Y180511D01*
X8910Y180451D01*
X8941Y180439D01*
X8967Y180420D01*
X9054Y180393D01*
X9139Y180359D01*
X9179Y180355D01*
X9202Y180348D01*
X9234Y180349D01*
X9305Y180341D01*
X29825Y180341D01*
X31536Y178629D01*
X39403Y170763D01*
X39461Y170721D01*
X39513Y170671D01*
X39561Y170649D01*
X39603Y170619D01*
X39671Y170598D01*
X39737Y170568D01*
X39788Y170562D01*
X39838Y170547D01*
X39910Y170549D01*
X39981Y170541D01*
X40032Y170552D01*
X40084Y170553D01*
X40151Y170578D01*
X40221Y170593D01*
X40266Y170620D01*
X40315Y170637D01*
X40371Y170682D01*
X40432Y170719D01*
X40466Y170759D01*
X40507Y170791D01*
X40546Y170851D01*
X40592Y170906D01*
X40612Y170954D01*
X40640Y170998D01*
X40657Y171068D01*
X40684Y171134D01*
X40692Y171205D01*
X40700Y171237D01*
X40698Y171260D01*
X40703Y171301D01*
X40703Y172876D01*
X40688Y172966D01*
X40681Y173057D01*
X40668Y173087D01*
X40663Y173119D01*
X40620Y173200D01*
X40585Y173284D01*
X40559Y173316D01*
X40548Y173336D01*
X40525Y173359D01*
X40480Y173415D01*
X27433Y186461D01*
X27417Y186473D01*
X27404Y186489D01*
X27317Y186545D01*
X27233Y186605D01*
X27214Y186611D01*
X27197Y186622D01*
X27097Y186647D01*
X26998Y186677D01*
X26978Y186677D01*
X26959Y186682D01*
X26856Y186674D01*
X26752Y186671D01*
X26734Y186664D01*
X26714Y186662D01*
X26619Y186622D01*
X26521Y186586D01*
X26506Y186574D01*
X26487Y186566D01*
X26356Y186461D01*
X24230Y184335D01*
X20869Y182943D01*
X17231Y182943D01*
X13870Y184335D01*
X11297Y186907D01*
X9905Y190269D01*
X9905Y193906D01*
X11297Y197268D01*
X13870Y199840D01*
X17231Y201232D01*
X20869Y201232D01*
X24230Y199840D01*
X26803Y197268D01*
X28195Y193906D01*
X28195Y193201D01*
X28209Y193111D01*
X28217Y193020D01*
X28229Y192990D01*
X28234Y192958D01*
X28277Y192878D01*
X28313Y192794D01*
X28339Y192762D01*
X28350Y192741D01*
X28373Y192719D01*
X28418Y192663D01*
X44073Y177008D01*
X45784Y175296D01*
X45784Y154037D01*
X45796Y153967D01*
X45798Y153895D01*
X45816Y153846D01*
X45824Y153795D01*
X45858Y153731D01*
X45882Y153664D01*
X45915Y153623D01*
X45939Y153577D01*
X45991Y153528D01*
X46036Y153472D01*
X46080Y153444D01*
X46117Y153408D01*
X46182Y153378D01*
X46243Y153339D01*
X46293Y153326D01*
X46340Y153304D01*
X46412Y153296D01*
X46481Y153279D01*
X46533Y153283D01*
X46585Y153277D01*
X46655Y153292D01*
X46727Y153298D01*
X46774Y153318D01*
X46825Y153330D01*
X46887Y153366D01*
X46953Y153394D01*
X47009Y153439D01*
X47036Y153456D01*
X47052Y153473D01*
X47084Y153499D01*
X47211Y153626D01*
X47264Y153700D01*
X47323Y153770D01*
X47335Y153800D01*
X47354Y153826D01*
X47381Y153913D01*
X47415Y153998D01*
X47420Y154039D01*
X47427Y154061D01*
X47426Y154093D01*
X47434Y154165D01*
X47434Y182286D01*
X47426Y182331D01*
X47428Y182377D01*
X47407Y182452D01*
X47394Y182529D01*
X47373Y182569D01*
X47360Y182613D01*
X47315Y182677D01*
X47279Y182746D01*
X47246Y182778D01*
X47219Y182815D01*
X47157Y182862D01*
X47101Y182915D01*
X47059Y182935D01*
X47022Y182962D01*
X46948Y182986D01*
X46878Y183019D01*
X46832Y183024D01*
X46788Y183038D01*
X46710Y183038D01*
X46633Y183046D01*
X46588Y183036D01*
X46542Y183036D01*
X46411Y182998D01*
X46393Y182994D01*
X46388Y182991D01*
X46381Y182989D01*
X46269Y182943D01*
X42631Y182943D01*
X39270Y184335D01*
X36697Y186907D01*
X35305Y190269D01*
X35305Y193906D01*
X36697Y197268D01*
X39270Y199840D01*
X42631Y201232D01*
X46269Y201232D01*
X49630Y199840D01*
X52203Y197268D01*
X53595Y193906D01*
X53595Y190269D01*
X52573Y187802D01*
X52558Y187739D01*
X52534Y187678D01*
X52525Y187595D01*
X52517Y187563D01*
X52519Y187543D01*
X52515Y187511D01*
X52515Y154496D01*
X52517Y154483D01*
X52516Y154473D01*
X52527Y154424D01*
X52529Y154353D01*
X52547Y154304D01*
X52555Y154253D01*
X52589Y154190D01*
X52613Y154122D01*
X52646Y154082D01*
X52670Y154036D01*
X52722Y153986D01*
X52767Y153930D01*
X52811Y153902D01*
X52848Y153866D01*
X52913Y153836D01*
X52974Y153797D01*
X53024Y153785D01*
X53071Y153763D01*
X53143Y153755D01*
X53212Y153737D01*
X53264Y153741D01*
X53316Y153736D01*
X53386Y153751D01*
X53457Y153756D01*
X53505Y153777D01*
X53556Y153788D01*
X53618Y153825D01*
X53684Y153853D01*
X53740Y153897D01*
X53767Y153914D01*
X53783Y153932D01*
X53815Y153958D01*
X67086Y167229D01*
X67139Y167303D01*
X67199Y167373D01*
X67211Y167403D01*
X67230Y167429D01*
X67257Y167516D01*
X67291Y167601D01*
X67295Y167642D01*
X67302Y167664D01*
X67301Y167696D01*
X67309Y167767D01*
X67309Y182733D01*
X67290Y182848D01*
X67273Y182964D01*
X67271Y182970D01*
X67270Y182976D01*
X67215Y183078D01*
X67162Y183183D01*
X67157Y183188D01*
X67154Y183193D01*
X67070Y183273D01*
X66986Y183356D01*
X66980Y183359D01*
X66976Y183363D01*
X66959Y183370D01*
X66839Y183436D01*
X64670Y184335D01*
X62097Y186907D01*
X60705Y190269D01*
X60705Y193906D01*
X62097Y197268D01*
X64670Y199840D01*
X68031Y201232D01*
X71669Y201232D01*
X75030Y199840D01*
X77603Y197268D01*
X78995Y193906D01*
X78995Y190269D01*
X77603Y186907D01*
X75030Y184335D01*
X72861Y183436D01*
X72761Y183375D01*
X72661Y183315D01*
X72657Y183310D01*
X72652Y183307D01*
X72577Y183217D01*
X72501Y183128D01*
X72499Y183122D01*
X72495Y183117D01*
X72453Y183008D01*
X72409Y182900D01*
X72408Y182892D01*
X72407Y182888D01*
X72406Y182869D01*
X72391Y182733D01*
X72391Y167300D01*
X72402Y167230D01*
X72404Y167158D01*
X72422Y167109D01*
X72430Y167057D01*
X72464Y166994D01*
X72489Y166927D01*
X72521Y166886D01*
X72546Y166840D01*
X72597Y166791D01*
X72642Y166735D01*
X72686Y166707D01*
X72724Y166671D01*
X72789Y166641D01*
X72849Y166602D01*
X72900Y166589D01*
X72947Y166567D01*
X73018Y166559D01*
X73088Y166542D01*
X73140Y166546D01*
X73191Y166540D01*
X73262Y166555D01*
X73333Y166561D01*
X73381Y166581D01*
X73432Y166592D01*
X73493Y166629D01*
X73559Y166657D01*
X73615Y166702D01*
X73643Y166718D01*
X73658Y166736D01*
X73690Y166762D01*
X90128Y183200D01*
X90140Y183216D01*
X90156Y183229D01*
X90212Y183316D01*
X90272Y183400D01*
X90278Y183419D01*
X90289Y183436D01*
X90314Y183536D01*
X90344Y183635D01*
X90344Y183655D01*
X90349Y183674D01*
X90341Y183777D01*
X90338Y183881D01*
X90331Y183900D01*
X90329Y183919D01*
X90289Y184014D01*
X90253Y184112D01*
X90241Y184127D01*
X90233Y184146D01*
X90128Y184277D01*
X87497Y186907D01*
X86105Y190269D01*
X86105Y193906D01*
X87497Y197268D01*
X90070Y199840D01*
X93431Y201232D01*
X97069Y201232D01*
X100430Y199840D01*
X103003Y197268D01*
X104395Y193906D01*
X104395Y190269D01*
X103003Y186907D01*
X100430Y184335D01*
X98155Y183393D01*
X98072Y183341D01*
X97987Y183296D01*
X97969Y183277D01*
X97946Y183263D01*
X97884Y183188D01*
X97817Y183118D01*
X97806Y183094D01*
X97790Y183074D01*
X97755Y182983D01*
X97714Y182894D01*
X97711Y182868D01*
X97701Y182844D01*
X97697Y182747D01*
X97686Y182650D01*
X97692Y182625D01*
X97691Y182598D01*
X97718Y182505D01*
X97739Y182410D01*
X97752Y182387D01*
X97759Y182362D01*
X97815Y182282D01*
X97865Y182199D01*
X97885Y182182D01*
X97900Y182160D01*
X97978Y182102D01*
X98052Y182039D01*
X98076Y182029D01*
X98097Y182013D01*
X98190Y181983D01*
X98280Y181947D01*
X98312Y181943D01*
X98331Y181937D01*
X98364Y181937D01*
X98447Y181928D01*
X100232Y181928D01*
X100322Y181943D01*
X100413Y181950D01*
X100443Y181963D01*
X100475Y181968D01*
X100556Y182011D01*
X100640Y182046D01*
X100672Y182072D01*
X100692Y182083D01*
X100715Y182106D01*
X100771Y182151D01*
X111282Y192663D01*
X111335Y192737D01*
X111395Y192806D01*
X111407Y192837D01*
X111426Y192863D01*
X111453Y192950D01*
X111487Y193035D01*
X111491Y193075D01*
X111498Y193098D01*
X111497Y193130D01*
X111505Y193201D01*
X111505Y193906D01*
X112897Y197268D01*
X115470Y199840D01*
X118831Y201232D01*
X122469Y201232D01*
X125830Y199840D01*
X128403Y197268D01*
X129795Y193906D01*
X129795Y190269D01*
X128403Y186907D01*
X125830Y184335D01*
X122469Y182943D01*
X118831Y182943D01*
X115470Y184335D01*
X113344Y186461D01*
X113327Y186473D01*
X113315Y186489D01*
X113228Y186545D01*
X113144Y186605D01*
X113125Y186611D01*
X113108Y186622D01*
X113008Y186647D01*
X112909Y186677D01*
X112889Y186677D01*
X112869Y186682D01*
X112767Y186674D01*
X112663Y186671D01*
X112644Y186664D01*
X112624Y186662D01*
X112529Y186622D01*
X112432Y186586D01*
X112416Y186574D01*
X112398Y186566D01*
X112267Y186461D01*
X102652Y176847D01*
X98348Y176847D01*
X98258Y176832D01*
X98167Y176825D01*
X98137Y176812D01*
X98105Y176807D01*
X98024Y176764D01*
X97940Y176729D01*
X97908Y176703D01*
X97888Y176692D01*
X97865Y176669D01*
X97809Y176624D01*
X50192Y129007D01*
X50151Y128949D01*
X50101Y128897D01*
X50079Y128849D01*
X50049Y128807D01*
X50028Y128739D01*
X49998Y128674D01*
X49992Y128622D01*
X49977Y128572D01*
X49978Y128500D01*
X49971Y128429D01*
X49982Y128378D01*
X49983Y128326D01*
X50008Y128259D01*
X50023Y128189D01*
X50049Y128144D01*
X50067Y128095D01*
X50112Y128039D01*
X50149Y127978D01*
X50189Y127944D01*
X50221Y127903D01*
X50281Y127864D01*
X50336Y127818D01*
X50384Y127798D01*
X50428Y127770D01*
X50497Y127753D01*
X50564Y127726D01*
X50635Y127718D01*
X50667Y127710D01*
X50690Y127712D01*
X50731Y127707D01*
X64337Y127707D01*
X64427Y127722D01*
X64518Y127729D01*
X64548Y127742D01*
X64580Y127747D01*
X64661Y127790D01*
X64745Y127825D01*
X64777Y127851D01*
X64798Y127862D01*
X64820Y127885D01*
X64876Y127930D01*
X87000Y150054D01*
X87000Y150055D01*
X88711Y151766D01*
X108170Y151766D01*
X108260Y151780D01*
X108351Y151788D01*
X108381Y151800D01*
X108413Y151805D01*
X108493Y151848D01*
X108577Y151884D01*
X108609Y151910D01*
X108630Y151921D01*
X108652Y151944D01*
X108708Y151989D01*
X116387Y159668D01*
X116444Y159747D01*
X116506Y159822D01*
X116516Y159846D01*
X116531Y159868D01*
X116560Y159961D01*
X116594Y160052D01*
X116596Y160078D01*
X116603Y160103D01*
X116601Y160200D01*
X116605Y160297D01*
X116598Y160323D01*
X116597Y160349D01*
X116563Y160440D01*
X116536Y160534D01*
X116521Y160555D01*
X116512Y160580D01*
X116452Y160656D01*
X116396Y160736D01*
X116375Y160751D01*
X116359Y160772D01*
X116277Y160824D01*
X116199Y160882D01*
X116174Y160891D01*
X116152Y160905D01*
X116057Y160928D01*
X115965Y160959D01*
X115939Y160958D01*
X115913Y160965D01*
X115816Y160957D01*
X115719Y160956D01*
X115687Y160947D01*
X115668Y160946D01*
X115638Y160933D01*
X115558Y160910D01*
X112182Y159511D01*
X108544Y159511D01*
X105183Y160903D01*
X102610Y163476D01*
X101218Y166837D01*
X101218Y170475D01*
X102610Y173836D01*
X105183Y176409D01*
X108544Y177801D01*
X112182Y177801D01*
X115543Y176409D01*
X118116Y173836D01*
X119508Y170475D01*
X119508Y166837D01*
X118109Y163461D01*
X118087Y163366D01*
X118059Y163273D01*
X118059Y163247D01*
X118053Y163222D01*
X118062Y163125D01*
X118065Y163028D01*
X118074Y163003D01*
X118076Y162977D01*
X118116Y162888D01*
X118149Y162797D01*
X118166Y162776D01*
X118176Y162752D01*
X118242Y162681D01*
X118303Y162604D01*
X118325Y162590D01*
X118343Y162571D01*
X118428Y162524D01*
X118510Y162471D01*
X118535Y162465D01*
X118558Y162452D01*
X118654Y162435D01*
X118749Y162411D01*
X118775Y162413D01*
X118800Y162409D01*
X118897Y162423D01*
X118994Y162431D01*
X119018Y162441D01*
X119044Y162445D01*
X119131Y162489D01*
X119220Y162527D01*
X119245Y162547D01*
X119263Y162556D01*
X119286Y162580D01*
X119351Y162632D01*
X140424Y183704D01*
X140435Y183721D01*
X140451Y183733D01*
X140507Y183820D01*
X140567Y183904D01*
X140573Y183923D01*
X140584Y183940D01*
X140609Y184041D01*
X140640Y184139D01*
X140639Y184159D01*
X140644Y184179D01*
X140636Y184282D01*
X140633Y184385D01*
X140627Y184404D01*
X140625Y184424D01*
X140585Y184519D01*
X140549Y184616D01*
X140536Y184632D01*
X140529Y184650D01*
X140424Y184781D01*
X138297Y186907D01*
X136905Y190269D01*
X136905Y193906D01*
X138297Y197268D01*
X140870Y199840D01*
X144231Y201232D01*
X147869Y201232D01*
X151230Y199840D01*
X153803Y197268D01*
X155195Y193906D01*
X155195Y190269D01*
X153803Y186907D01*
X151230Y184335D01*
X147869Y182943D01*
X147164Y182943D01*
X147074Y182928D01*
X146983Y182921D01*
X146953Y182908D01*
X146921Y182903D01*
X146840Y182860D01*
X146756Y182825D01*
X146724Y182799D01*
X146704Y182788D01*
X146681Y182765D01*
X146625Y182720D01*
X112301Y148396D01*
X112208Y148303D01*
X112167Y148245D01*
X112117Y148193D01*
X112095Y148145D01*
X112065Y148103D01*
X112044Y148035D01*
X112014Y147969D01*
X112008Y147918D01*
X111993Y147868D01*
X111994Y147796D01*
X111986Y147725D01*
X111997Y147674D01*
X111999Y147622D01*
X112023Y147555D01*
X112039Y147485D01*
X112065Y147440D01*
X112083Y147391D01*
X112128Y147335D01*
X112165Y147274D01*
X112204Y147240D01*
X112237Y147199D01*
X112297Y147160D01*
X112352Y147114D01*
X112400Y147094D01*
X112444Y147066D01*
X112513Y147049D01*
X112580Y147022D01*
X112651Y147014D01*
X112682Y147006D01*
X112706Y147008D01*
X112747Y147003D01*
X122457Y147003D01*
X122547Y147018D01*
X122638Y147025D01*
X122668Y147038D01*
X122700Y147043D01*
X122781Y147086D01*
X122865Y147121D01*
X122897Y147147D01*
X122917Y147158D01*
X122940Y147181D01*
X122996Y147226D01*
X163039Y187269D01*
X163106Y187363D01*
X163177Y187458D01*
X163179Y187464D01*
X163182Y187469D01*
X163217Y187580D01*
X163253Y187692D01*
X163253Y187698D01*
X163255Y187704D01*
X163252Y187821D01*
X163251Y187938D01*
X163249Y187945D01*
X163248Y187950D01*
X163242Y187967D01*
X163204Y188099D01*
X162305Y190269D01*
X162305Y193906D01*
X163697Y197268D01*
X166270Y199840D01*
X169631Y201232D01*
X173269Y201232D01*
X176630Y199840D01*
X179203Y197268D01*
X180595Y193906D01*
X180595Y190269D01*
X179203Y186907D01*
X176630Y184335D01*
X176272Y184187D01*
X176189Y184135D01*
X176103Y184090D01*
X176085Y184071D01*
X176063Y184057D01*
X176001Y183982D01*
X175933Y183911D01*
X175922Y183888D01*
X175906Y183867D01*
X175871Y183777D01*
X175830Y183688D01*
X175827Y183662D01*
X175818Y183638D01*
X175813Y183541D01*
X175803Y183444D01*
X175808Y183418D01*
X175807Y183392D01*
X175834Y183299D01*
X175855Y183203D01*
X175868Y183181D01*
X175876Y183156D01*
X175931Y183076D01*
X175981Y182992D01*
X176001Y182975D01*
X176016Y182954D01*
X176094Y182896D01*
X176168Y182832D01*
X176192Y182823D01*
X176213Y182807D01*
X176306Y182777D01*
X176396Y182740D01*
X176429Y182737D01*
X176447Y182731D01*
X176480Y182731D01*
X176563Y182722D01*
X177226Y182722D01*
X177316Y182737D01*
X177407Y182744D01*
X177437Y182756D01*
X177469Y182762D01*
X177549Y182804D01*
X177633Y182840D01*
X177665Y182866D01*
X177686Y182877D01*
X177708Y182900D01*
X177764Y182945D01*
X187482Y192663D01*
X187535Y192737D01*
X187595Y192806D01*
X187607Y192836D01*
X187626Y192863D01*
X187653Y192950D01*
X187687Y193034D01*
X187691Y193075D01*
X187698Y193098D01*
X187697Y193130D01*
X187705Y193201D01*
X187705Y193906D01*
X189097Y197268D01*
X191670Y199840D01*
X195031Y201232D01*
X198669Y201232D01*
X202030Y199840D01*
X204603Y197268D01*
X205995Y193906D01*
X205995Y190269D01*
X204603Y186907D01*
X202030Y184335D01*
X198669Y182943D01*
X195031Y182943D01*
X191670Y184335D01*
X189544Y186461D01*
X189527Y186473D01*
X189515Y186489D01*
X189428Y186545D01*
X189344Y186605D01*
X189325Y186611D01*
X189308Y186622D01*
X189208Y186647D01*
X189109Y186677D01*
X189089Y186677D01*
X189069Y186682D01*
X188967Y186674D01*
X188863Y186671D01*
X188844Y186664D01*
X188824Y186662D01*
X188729Y186622D01*
X188632Y186586D01*
X188616Y186574D01*
X188598Y186566D01*
X188467Y186461D01*
X179850Y177845D01*
X179824Y177807D01*
X179790Y177776D01*
X179752Y177708D01*
X179707Y177645D01*
X179693Y177601D01*
X179671Y177561D01*
X179657Y177484D01*
X179634Y177410D01*
X179636Y177364D01*
X179627Y177319D01*
X179639Y177242D01*
X179641Y177164D01*
X179657Y177121D01*
X179663Y177075D01*
X179698Y177006D01*
X179725Y176933D01*
X179754Y176897D01*
X179775Y176856D01*
X179830Y176802D01*
X179879Y176741D01*
X179918Y176716D01*
X179950Y176684D01*
X180070Y176618D01*
X180086Y176608D01*
X180091Y176607D01*
X180097Y176603D01*
X180567Y176409D01*
X183140Y173836D01*
X184532Y170475D01*
X184532Y166837D01*
X183140Y163476D01*
X180567Y160903D01*
X177206Y159511D01*
X173568Y159511D01*
X170207Y160903D01*
X167634Y163476D01*
X166242Y166837D01*
X166242Y170336D01*
X166231Y170407D01*
X166229Y170479D01*
X166211Y170528D01*
X166203Y170579D01*
X166169Y170642D01*
X166144Y170710D01*
X166112Y170751D01*
X166087Y170796D01*
X166036Y170846D01*
X165991Y170902D01*
X165947Y170930D01*
X165909Y170966D01*
X165844Y170996D01*
X165784Y171035D01*
X165733Y171048D01*
X165686Y171069D01*
X165615Y171077D01*
X165545Y171095D01*
X165493Y171091D01*
X165442Y171097D01*
X165371Y171081D01*
X165300Y171076D01*
X165252Y171055D01*
X165201Y171044D01*
X165140Y171007D01*
X165074Y170979D01*
X165018Y170935D01*
X164990Y170918D01*
X164975Y170900D01*
X164943Y170875D01*
X132939Y138871D01*
X132939Y138870D01*
X132846Y138778D01*
X132804Y138720D01*
X132755Y138668D01*
X132733Y138620D01*
X132702Y138578D01*
X132681Y138510D01*
X132651Y138444D01*
X132645Y138393D01*
X132630Y138343D01*
X132632Y138271D01*
X132624Y138200D01*
X132635Y138149D01*
X132636Y138097D01*
X132661Y138030D01*
X132676Y137960D01*
X132703Y137915D01*
X132721Y137866D01*
X132766Y137810D01*
X132802Y137749D01*
X132842Y137715D01*
X132874Y137674D01*
X132935Y137635D01*
X132989Y137589D01*
X133038Y137569D01*
X133081Y137541D01*
X133151Y137524D01*
X133217Y137497D01*
X133289Y137489D01*
X133320Y137481D01*
X133343Y137483D01*
X133384Y137478D01*
X163732Y137478D01*
X163822Y137493D01*
X163913Y137500D01*
X163943Y137513D01*
X163975Y137518D01*
X164056Y137561D01*
X164140Y137596D01*
X164172Y137622D01*
X164192Y137633D01*
X164215Y137656D01*
X164271Y137701D01*
X213839Y187269D01*
X213906Y187363D01*
X213977Y187458D01*
X213979Y187464D01*
X213982Y187469D01*
X214017Y187580D01*
X214053Y187692D01*
X214053Y187698D01*
X214055Y187704D01*
X214052Y187821D01*
X214051Y187938D01*
X214049Y187945D01*
X214048Y187950D01*
X214042Y187967D01*
X214004Y188099D01*
X213105Y190269D01*
X213105Y193906D01*
X214497Y197268D01*
X217070Y199840D01*
X220431Y201232D01*
X224069Y201232D01*
X227430Y199840D01*
X230003Y197268D01*
X231395Y193906D01*
X231395Y190269D01*
X230003Y186907D01*
X227430Y184335D01*
X224069Y182943D01*
X220431Y182943D01*
X218262Y183841D01*
X218148Y183868D01*
X218034Y183897D01*
X218028Y183896D01*
X218022Y183898D01*
X217906Y183887D01*
X217789Y183877D01*
X217784Y183875D01*
X217777Y183874D01*
X217670Y183827D01*
X217563Y183781D01*
X217557Y183777D01*
X217553Y183774D01*
X217539Y183762D01*
X217432Y183676D01*
X167864Y134108D01*
X166152Y132397D01*
X116181Y132397D01*
X116110Y132385D01*
X116038Y132383D01*
X115989Y132365D01*
X115938Y132357D01*
X115875Y132323D01*
X115807Y132299D01*
X115767Y132266D01*
X115721Y132242D01*
X115671Y132190D01*
X115615Y132145D01*
X115587Y132101D01*
X115551Y132064D01*
X115521Y131999D01*
X115482Y131938D01*
X115469Y131888D01*
X115448Y131841D01*
X115440Y131769D01*
X115422Y131700D01*
X115426Y131648D01*
X115420Y131596D01*
X115436Y131526D01*
X115441Y131455D01*
X115462Y131407D01*
X115473Y131356D01*
X115509Y131294D01*
X115538Y131228D01*
X115582Y131172D01*
X115599Y131145D01*
X115617Y131129D01*
X115642Y131097D01*
X118116Y128624D01*
X119508Y125263D01*
X119508Y121625D01*
X118116Y118264D01*
X115543Y115691D01*
X112182Y114299D01*
X108544Y114299D01*
X105183Y115691D01*
X102610Y118264D01*
X101218Y121625D01*
X101218Y125263D01*
X102610Y128624D01*
X105084Y131097D01*
X105125Y131155D01*
X105175Y131207D01*
X105197Y131255D01*
X105227Y131297D01*
X105248Y131365D01*
X105278Y131431D01*
X105284Y131482D01*
X105300Y131532D01*
X105298Y131604D01*
X105306Y131675D01*
X105295Y131726D01*
X105293Y131778D01*
X105269Y131845D01*
X105253Y131915D01*
X105227Y131960D01*
X105209Y132009D01*
X105164Y132065D01*
X105127Y132126D01*
X105088Y132160D01*
X105055Y132201D01*
X104995Y132240D01*
X104940Y132286D01*
X104892Y132306D01*
X104848Y132334D01*
X104779Y132351D01*
X104712Y132378D01*
X104641Y132386D01*
X104610Y132394D01*
X104586Y132392D01*
X104545Y132397D01*
X95297Y132397D01*
X95207Y132382D01*
X95116Y132375D01*
X95086Y132362D01*
X95054Y132357D01*
X94973Y132314D01*
X94889Y132279D01*
X94857Y132253D01*
X94837Y132242D01*
X94814Y132219D01*
X94758Y132174D01*
X67758Y105174D01*
X67717Y105116D01*
X67667Y105064D01*
X67645Y105016D01*
X67615Y104974D01*
X67594Y104906D01*
X67564Y104840D01*
X67558Y104789D01*
X67542Y104739D01*
X67544Y104667D01*
X67536Y104596D01*
X67548Y104545D01*
X67549Y104493D01*
X67573Y104426D01*
X67589Y104356D01*
X67615Y104311D01*
X67633Y104262D01*
X67678Y104206D01*
X67715Y104145D01*
X67754Y104111D01*
X67787Y104070D01*
X67847Y104031D01*
X67902Y103985D01*
X67950Y103965D01*
X67994Y103937D01*
X68063Y103920D01*
X68130Y103893D01*
X68201Y103885D01*
X68232Y103877D01*
X68256Y103879D01*
X68297Y103874D01*
X80694Y103874D01*
X97667Y86901D01*
X97741Y86848D01*
X97810Y86789D01*
X97841Y86776D01*
X97867Y86758D01*
X97954Y86731D01*
X98039Y86697D01*
X98079Y86692D01*
X98102Y86685D01*
X98134Y86686D01*
X98205Y86678D01*
X174090Y86678D01*
X175801Y84967D01*
X217432Y43336D01*
X217526Y43269D01*
X217621Y43198D01*
X217627Y43196D01*
X217632Y43193D01*
X217743Y43158D01*
X217855Y43122D01*
X217861Y43122D01*
X217867Y43120D01*
X217984Y43123D01*
X218100Y43124D01*
X218108Y43126D01*
X218113Y43127D01*
X218130Y43133D01*
X218262Y43171D01*
X220431Y44070D01*
X224069Y44070D01*
X227430Y42678D01*
X230003Y40105D01*
X231395Y36744D01*
X231395Y33106D01*
X230003Y29745D01*
X227430Y27172D01*
X224069Y25780D01*
X220431Y25780D01*
X217070Y27172D01*
X214497Y29745D01*
X213105Y33106D01*
X213105Y36744D01*
X214004Y38913D01*
X214031Y39027D01*
X214059Y39141D01*
X214059Y39147D01*
X214060Y39153D01*
X214049Y39269D01*
X214040Y39386D01*
X214038Y39391D01*
X214037Y39398D01*
X213989Y39505D01*
X213944Y39612D01*
X213939Y39618D01*
X213937Y39622D01*
X213924Y39636D01*
X213839Y39743D01*
X172208Y81374D01*
X172134Y81427D01*
X172065Y81486D01*
X172034Y81499D01*
X172008Y81517D01*
X171921Y81544D01*
X171836Y81578D01*
X171796Y81583D01*
X171773Y81590D01*
X171741Y81589D01*
X171670Y81597D01*
X136559Y81597D01*
X136488Y81585D01*
X136417Y81583D01*
X136368Y81565D01*
X136316Y81557D01*
X136253Y81523D01*
X136186Y81499D01*
X136145Y81466D01*
X136099Y81442D01*
X136050Y81390D01*
X135994Y81345D01*
X135966Y81301D01*
X135930Y81264D01*
X135899Y81199D01*
X135861Y81138D01*
X135848Y81088D01*
X135826Y81041D01*
X135818Y80969D01*
X135801Y80900D01*
X135805Y80848D01*
X135799Y80796D01*
X135814Y80726D01*
X135820Y80655D01*
X135840Y80607D01*
X135851Y80556D01*
X135888Y80494D01*
X135916Y80428D01*
X135961Y80372D01*
X135977Y80345D01*
X135995Y80329D01*
X136021Y80297D01*
X166723Y49595D01*
X166797Y49542D01*
X166867Y49482D01*
X166897Y49470D01*
X166923Y49451D01*
X167010Y49425D01*
X167095Y49390D01*
X167136Y49386D01*
X167158Y49379D01*
X167190Y49380D01*
X167261Y49372D01*
X169601Y49372D01*
X169672Y49384D01*
X169744Y49385D01*
X169793Y49403D01*
X169844Y49412D01*
X169907Y49445D01*
X169975Y49470D01*
X170015Y49502D01*
X170061Y49527D01*
X170111Y49579D01*
X170167Y49624D01*
X170195Y49667D01*
X170231Y49705D01*
X170261Y49770D01*
X170300Y49830D01*
X170312Y49881D01*
X170334Y49928D01*
X170342Y49999D01*
X170360Y50069D01*
X170356Y50121D01*
X170361Y50173D01*
X170346Y50243D01*
X170341Y50314D01*
X170320Y50362D01*
X170309Y50413D01*
X170272Y50475D01*
X170244Y50541D01*
X170199Y50597D01*
X170183Y50624D01*
X170165Y50639D01*
X170139Y50672D01*
X167634Y53176D01*
X166242Y56538D01*
X166242Y60175D01*
X167634Y63537D01*
X170207Y66109D01*
X173568Y67501D01*
X177206Y67501D01*
X180567Y66109D01*
X183140Y63537D01*
X184532Y60175D01*
X184532Y56538D01*
X183140Y53176D01*
X180567Y50604D01*
X180097Y50409D01*
X180058Y50385D01*
X180015Y50369D01*
X179954Y50321D01*
X179888Y50280D01*
X179859Y50244D01*
X179823Y50216D01*
X179781Y50150D01*
X179731Y50090D01*
X179715Y50047D01*
X179690Y50009D01*
X179671Y49933D01*
X179643Y49861D01*
X179641Y49815D01*
X179630Y49770D01*
X179636Y49693D01*
X179633Y49615D01*
X179646Y49571D01*
X179649Y49525D01*
X179680Y49454D01*
X179701Y49379D01*
X179728Y49341D01*
X179746Y49299D01*
X179831Y49192D01*
X179842Y49177D01*
X179846Y49174D01*
X179850Y49168D01*
X188467Y40551D01*
X188483Y40540D01*
X188496Y40524D01*
X188583Y40468D01*
X188667Y40408D01*
X188686Y40402D01*
X188703Y40391D01*
X188803Y40366D01*
X188902Y40335D01*
X188922Y40336D01*
X188941Y40331D01*
X189044Y40339D01*
X189148Y40342D01*
X189166Y40348D01*
X189186Y40350D01*
X189281Y40390D01*
X189379Y40426D01*
X189394Y40439D01*
X189413Y40446D01*
X189544Y40551D01*
X191670Y42678D01*
X195031Y44070D01*
X198669Y44070D01*
X202030Y42678D01*
X204603Y40105D01*
X205995Y36744D01*
X205995Y33106D01*
X204603Y29745D01*
X202030Y27172D01*
X198669Y25780D01*
X195031Y25780D01*
X191670Y27172D01*
X189097Y29745D01*
X187705Y33106D01*
X187705Y33811D01*
X187691Y33901D01*
X187683Y33992D01*
X187671Y34022D01*
X187666Y34054D01*
X187623Y34135D01*
X187587Y34219D01*
X187561Y34251D01*
X187550Y34271D01*
X187527Y34294D01*
X187482Y34350D01*
X177764Y44068D01*
X177690Y44121D01*
X177621Y44180D01*
X177591Y44192D01*
X177565Y44211D01*
X177478Y44238D01*
X177393Y44272D01*
X177352Y44277D01*
X177329Y44283D01*
X177297Y44283D01*
X177226Y44291D01*
X176563Y44291D01*
X176467Y44275D01*
X176370Y44266D01*
X176346Y44255D01*
X176320Y44251D01*
X176234Y44205D01*
X176145Y44166D01*
X176126Y44148D01*
X176103Y44136D01*
X176036Y44065D01*
X175964Y43999D01*
X175952Y43976D01*
X175934Y43957D01*
X175892Y43869D01*
X175846Y43784D01*
X175841Y43758D01*
X175830Y43734D01*
X175819Y43638D01*
X175802Y43542D01*
X175806Y43516D01*
X175803Y43490D01*
X175823Y43395D01*
X175838Y43298D01*
X175849Y43275D01*
X175855Y43249D01*
X175905Y43166D01*
X175949Y43079D01*
X175968Y43061D01*
X175981Y43038D01*
X176055Y42975D01*
X176125Y42907D01*
X176153Y42891D01*
X176168Y42878D01*
X176199Y42866D01*
X176272Y42826D01*
X176630Y42678D01*
X179203Y40105D01*
X180595Y36744D01*
X180595Y33106D01*
X179203Y29745D01*
X176630Y27172D01*
X173269Y25780D01*
X169631Y25780D01*
X166270Y27172D01*
X163697Y29745D01*
X162305Y33106D01*
X162305Y33811D01*
X162291Y33901D01*
X162283Y33992D01*
X162271Y34022D01*
X162266Y34054D01*
X162223Y34135D01*
X162187Y34219D01*
X162161Y34251D01*
X162150Y34271D01*
X162127Y34294D01*
X162082Y34350D01*
X124583Y71849D01*
X124509Y71902D01*
X124440Y71961D01*
X124409Y71974D01*
X124383Y71992D01*
X124296Y72019D01*
X124211Y72053D01*
X124171Y72058D01*
X124148Y72065D01*
X124116Y72064D01*
X124045Y72072D01*
X120684Y72072D01*
X120613Y72060D01*
X120542Y72058D01*
X120493Y72040D01*
X120441Y72032D01*
X120378Y71999D01*
X120311Y71974D01*
X120270Y71941D01*
X120224Y71917D01*
X120175Y71865D01*
X120119Y71820D01*
X120091Y71776D01*
X120055Y71739D01*
X120024Y71674D01*
X119986Y71613D01*
X119973Y71563D01*
X119951Y71516D01*
X119943Y71444D01*
X119926Y71375D01*
X119930Y71323D01*
X119924Y71271D01*
X119939Y71201D01*
X119945Y71130D01*
X119965Y71082D01*
X119976Y71031D01*
X120013Y70969D01*
X120041Y70903D01*
X120086Y70847D01*
X120102Y70820D01*
X120120Y70804D01*
X120146Y70772D01*
X146625Y44293D01*
X146699Y44240D01*
X146769Y44180D01*
X146799Y44168D01*
X146825Y44149D01*
X146912Y44122D01*
X146997Y44088D01*
X147038Y44084D01*
X147060Y44077D01*
X147092Y44078D01*
X147164Y44070D01*
X147869Y44070D01*
X151230Y42678D01*
X153803Y40105D01*
X155195Y36744D01*
X155195Y33106D01*
X153803Y29745D01*
X151230Y27172D01*
X147869Y25780D01*
X144231Y25780D01*
X140870Y27172D01*
X138297Y29745D01*
X136905Y33106D01*
X136905Y36744D01*
X138297Y40105D01*
X140424Y42231D01*
X140435Y42248D01*
X140451Y42260D01*
X140507Y42347D01*
X140567Y42431D01*
X140573Y42450D01*
X140584Y42467D01*
X140609Y42567D01*
X140640Y42666D01*
X140639Y42686D01*
X140644Y42706D01*
X140636Y42808D01*
X140633Y42912D01*
X140627Y42931D01*
X140625Y42951D01*
X140585Y43046D01*
X140549Y43143D01*
X140536Y43159D01*
X140529Y43177D01*
X140424Y43308D01*
X119351Y64381D01*
X119272Y64438D01*
X119197Y64500D01*
X119172Y64509D01*
X119151Y64524D01*
X119058Y64553D01*
X118967Y64588D01*
X118941Y64589D01*
X118916Y64597D01*
X118819Y64594D01*
X118722Y64598D01*
X118696Y64591D01*
X118670Y64590D01*
X118579Y64557D01*
X118485Y64530D01*
X118464Y64515D01*
X118439Y64506D01*
X118363Y64445D01*
X118283Y64390D01*
X118268Y64369D01*
X118247Y64352D01*
X118195Y64270D01*
X118137Y64192D01*
X118128Y64167D01*
X118114Y64145D01*
X118091Y64051D01*
X118060Y63958D01*
X118061Y63932D01*
X118054Y63907D01*
X118062Y63810D01*
X118063Y63712D01*
X118072Y63681D01*
X118073Y63662D01*
X118086Y63631D01*
X118109Y63551D01*
X119508Y60175D01*
X119508Y56538D01*
X118116Y53176D01*
X115543Y50604D01*
X112182Y49212D01*
X108544Y49212D01*
X105183Y50604D01*
X102610Y53176D01*
X101218Y56538D01*
X101218Y60175D01*
X102610Y63537D01*
X105084Y66010D01*
X105125Y66068D01*
X105175Y66120D01*
X105197Y66167D01*
X105227Y66209D01*
X105248Y66278D01*
X105278Y66343D01*
X105284Y66395D01*
X105300Y66445D01*
X105298Y66516D01*
X105306Y66587D01*
X105295Y66638D01*
X105293Y66690D01*
X105269Y66758D01*
X105253Y66828D01*
X105227Y66873D01*
X105209Y66921D01*
X105164Y66977D01*
X105127Y67039D01*
X105088Y67073D01*
X105055Y67113D01*
X104995Y67152D01*
X104940Y67199D01*
X104892Y67218D01*
X104848Y67246D01*
X104779Y67264D01*
X104712Y67291D01*
X104641Y67299D01*
X104610Y67307D01*
X104586Y67305D01*
X104545Y67309D01*
X101380Y67309D01*
X101290Y67295D01*
X101199Y67287D01*
X101169Y67275D01*
X101137Y67270D01*
X101057Y67227D01*
X100973Y67191D01*
X100941Y67165D01*
X100920Y67154D01*
X100898Y67131D01*
X100842Y67086D01*
X93825Y60070D01*
X93814Y60053D01*
X93798Y60041D01*
X93742Y59954D01*
X93682Y59870D01*
X93676Y59851D01*
X93665Y59834D01*
X93640Y59733D01*
X93609Y59635D01*
X93610Y59615D01*
X93605Y59595D01*
X93613Y59492D01*
X93616Y59389D01*
X93623Y59370D01*
X93624Y59350D01*
X93664Y59255D01*
X93700Y59158D01*
X93713Y59142D01*
X93720Y59124D01*
X93825Y58993D01*
X112267Y40551D01*
X112283Y40540D01*
X112296Y40524D01*
X112383Y40468D01*
X112467Y40408D01*
X112486Y40402D01*
X112503Y40391D01*
X112603Y40366D01*
X112702Y40335D01*
X112722Y40336D01*
X112741Y40331D01*
X112844Y40339D01*
X112948Y40342D01*
X112966Y40348D01*
X112986Y40350D01*
X113081Y40390D01*
X113179Y40426D01*
X113194Y40439D01*
X113213Y40446D01*
X113344Y40551D01*
X115470Y42678D01*
X118831Y44070D01*
X122469Y44070D01*
X125830Y42678D01*
X128403Y40105D01*
X129795Y36744D01*
X129795Y33106D01*
X128403Y29745D01*
X125830Y27172D01*
X122469Y25780D01*
X118831Y25780D01*
X115470Y27172D01*
X112897Y29745D01*
X111505Y33106D01*
X111505Y33811D01*
X111491Y33901D01*
X111483Y33992D01*
X111471Y34022D01*
X111466Y34054D01*
X111423Y34135D01*
X111387Y34219D01*
X111361Y34251D01*
X111350Y34271D01*
X111327Y34294D01*
X111282Y34350D01*
X91246Y54386D01*
X91172Y54439D01*
X91102Y54499D01*
X91072Y54511D01*
X91046Y54530D01*
X90959Y54557D01*
X90874Y54591D01*
X90833Y54595D01*
X90811Y54602D01*
X90779Y54601D01*
X90707Y54609D01*
X80997Y54609D01*
X80926Y54598D01*
X80854Y54596D01*
X80805Y54578D01*
X80754Y54570D01*
X80691Y54536D01*
X80623Y54511D01*
X80582Y54479D01*
X80537Y54454D01*
X80487Y54402D01*
X80431Y54358D01*
X80403Y54314D01*
X80367Y54276D01*
X80337Y54211D01*
X80298Y54151D01*
X80285Y54100D01*
X80264Y54053D01*
X80256Y53982D01*
X80238Y53912D01*
X80242Y53860D01*
X80236Y53809D01*
X80252Y53738D01*
X80257Y53667D01*
X80278Y53619D01*
X80289Y53568D01*
X80326Y53507D01*
X80354Y53441D01*
X80398Y53385D01*
X80415Y53357D01*
X80433Y53342D01*
X80458Y53310D01*
X80551Y53217D01*
X90432Y43336D01*
X90526Y43268D01*
X90621Y43198D01*
X90627Y43196D01*
X90632Y43193D01*
X90743Y43158D01*
X90855Y43122D01*
X90861Y43122D01*
X90867Y43120D01*
X90984Y43123D01*
X91100Y43124D01*
X91108Y43126D01*
X91113Y43127D01*
X91130Y43133D01*
X91262Y43171D01*
X93431Y44070D01*
X97069Y44070D01*
X100430Y42678D01*
X103003Y40105D01*
X104395Y36744D01*
X104395Y33106D01*
X103003Y29745D01*
X100430Y27172D01*
X97069Y25780D01*
X93431Y25780D01*
X90070Y27172D01*
X87497Y29745D01*
X86105Y33106D01*
X86105Y36744D01*
X87004Y38913D01*
X87031Y39027D01*
X87059Y39141D01*
X87059Y39147D01*
X87060Y39153D01*
X87049Y39269D01*
X87040Y39386D01*
X87038Y39391D01*
X87037Y39398D01*
X86989Y39505D01*
X86944Y39612D01*
X86939Y39618D01*
X86937Y39622D01*
X86924Y39636D01*
X86839Y39743D01*
X76958Y49624D01*
X76884Y49677D01*
X76815Y49736D01*
X76784Y49749D01*
X76758Y49767D01*
X76671Y49794D01*
X76586Y49828D01*
X76546Y49833D01*
X76523Y49840D01*
X76491Y49839D01*
X76420Y49847D01*
X60359Y49847D01*
X60288Y49835D01*
X60217Y49833D01*
X60168Y49815D01*
X60116Y49807D01*
X60053Y49773D01*
X59986Y49749D01*
X59945Y49716D01*
X59899Y49692D01*
X59850Y49640D01*
X59794Y49595D01*
X59765Y49551D01*
X59730Y49514D01*
X59699Y49448D01*
X59661Y49388D01*
X59648Y49338D01*
X59626Y49291D01*
X59618Y49219D01*
X59601Y49150D01*
X59605Y49098D01*
X59599Y49046D01*
X59614Y48976D01*
X59620Y48904D01*
X59640Y48857D01*
X59651Y48806D01*
X59688Y48744D01*
X59716Y48678D01*
X59761Y48622D01*
X59777Y48595D01*
X59795Y48579D01*
X59821Y48547D01*
X59914Y48454D01*
X65032Y43336D01*
X65126Y43268D01*
X65221Y43198D01*
X65227Y43196D01*
X65232Y43193D01*
X65343Y43158D01*
X65455Y43122D01*
X65461Y43122D01*
X65467Y43120D01*
X65584Y43123D01*
X65700Y43124D01*
X65708Y43126D01*
X65713Y43127D01*
X65730Y43133D01*
X65862Y43171D01*
X68031Y44070D01*
X71669Y44070D01*
X75030Y42678D01*
X77603Y40105D01*
X78995Y36744D01*
X78995Y33106D01*
X77603Y29745D01*
X75030Y27172D01*
X71669Y25780D01*
X68031Y25780D01*
X64670Y27172D01*
X62097Y29745D01*
X60705Y33106D01*
X60705Y36744D01*
X61604Y38913D01*
X61631Y39027D01*
X61659Y39141D01*
X61659Y39147D01*
X61660Y39153D01*
X61649Y39269D01*
X61640Y39386D01*
X61638Y39391D01*
X61637Y39398D01*
X61589Y39505D01*
X61544Y39612D01*
X61539Y39618D01*
X61537Y39622D01*
X61524Y39636D01*
X61439Y39743D01*
X56321Y44861D01*
X56247Y44914D01*
X56177Y44974D01*
X56147Y44986D01*
X56121Y45005D01*
X56034Y45032D01*
X55949Y45066D01*
X55908Y45070D01*
X55886Y45077D01*
X55854Y45076D01*
X55782Y45084D01*
X47647Y45084D01*
X47551Y45069D01*
X47454Y45059D01*
X47430Y45049D01*
X47404Y45045D01*
X47318Y44999D01*
X47229Y44959D01*
X47210Y44942D01*
X47187Y44929D01*
X47120Y44859D01*
X47048Y44793D01*
X47035Y44770D01*
X47017Y44751D01*
X46976Y44663D01*
X46929Y44577D01*
X46925Y44552D01*
X46914Y44528D01*
X46903Y44431D01*
X46886Y44335D01*
X46889Y44309D01*
X46886Y44284D01*
X46907Y44188D01*
X46921Y44092D01*
X46933Y44069D01*
X46939Y44043D01*
X46989Y43960D01*
X47033Y43873D01*
X47052Y43854D01*
X47065Y43832D01*
X47139Y43769D01*
X47208Y43701D01*
X47237Y43685D01*
X47252Y43672D01*
X47283Y43660D01*
X47355Y43620D01*
X49630Y42678D01*
X52203Y40105D01*
X53595Y36744D01*
X53595Y33106D01*
X52203Y29745D01*
X49630Y27172D01*
X46269Y25780D01*
X42631Y25780D01*
X39270Y27172D01*
X36697Y29745D01*
X35305Y33106D01*
X35305Y33440D01*
X35291Y33530D01*
X35283Y33621D01*
X35271Y33650D01*
X35266Y33682D01*
X35223Y33763D01*
X35187Y33847D01*
X35161Y33879D01*
X35150Y33900D01*
X35127Y33922D01*
X35082Y33978D01*
X27987Y41074D01*
X27908Y41130D01*
X27833Y41192D01*
X27808Y41202D01*
X27787Y41217D01*
X27694Y41246D01*
X27603Y41281D01*
X27577Y41282D01*
X27552Y41289D01*
X27454Y41287D01*
X27357Y41291D01*
X27332Y41284D01*
X27306Y41283D01*
X27214Y41250D01*
X27121Y41222D01*
X27100Y41208D01*
X27075Y41199D01*
X26999Y41138D01*
X26919Y41082D01*
X26903Y41061D01*
X26883Y41045D01*
X26830Y40963D01*
X26772Y40885D01*
X26764Y40860D01*
X26750Y40838D01*
X26726Y40744D01*
X26696Y40651D01*
X26696Y40625D01*
X26690Y40599D01*
X26697Y40503D01*
X26698Y40405D01*
X26707Y40374D01*
X26709Y40354D01*
X26722Y40324D01*
X26745Y40244D01*
X28195Y36744D01*
X28195Y33106D01*
X26803Y29745D01*
X24230Y27172D01*
X20869Y25780D01*
X17231Y25780D01*
X13870Y27172D01*
X11297Y29745D01*
X9905Y33106D01*
X9905Y36744D01*
X11297Y40105D01*
X13870Y42678D01*
X14503Y42940D01*
X14542Y42964D01*
X14585Y42980D01*
X14646Y43028D01*
X14712Y43069D01*
X14741Y43105D01*
X14777Y43133D01*
X14819Y43199D01*
X14868Y43259D01*
X14885Y43302D01*
X14910Y43340D01*
X14929Y43416D01*
X14957Y43488D01*
X14959Y43534D01*
X14970Y43579D01*
X14964Y43656D01*
X14967Y43734D01*
X14954Y43778D01*
X14951Y43824D01*
X14920Y43895D01*
X14899Y43970D01*
X14872Y44008D01*
X14854Y44050D01*
X14769Y44157D01*
X14758Y44172D01*
X14754Y44175D01*
X14750Y44181D01*
X-2502Y61433D01*
X-2560Y61475D01*
X-2612Y61524D01*
X-2659Y61546D01*
X-2702Y61576D01*
X-2770Y61597D01*
X-2835Y61628D01*
X-2887Y61633D01*
X-2937Y61649D01*
X-3009Y61647D01*
X-3080Y61655D01*
X-3131Y61644D01*
X-3183Y61642D01*
X-3250Y61618D01*
X-3320Y61602D01*
X-3365Y61576D01*
X-3414Y61558D01*
X-3470Y61513D01*
X-3531Y61476D01*
X-3565Y61437D01*
X-3606Y61404D01*
X-3644Y61344D01*
X-3691Y61289D01*
X-3711Y61241D01*
X-3739Y61197D01*
X-3756Y61128D01*
X-3783Y61061D01*
X-3791Y60990D01*
X-3799Y60959D01*
X-3797Y60935D01*
X-3802Y60894D01*
X-3802Y44276D01*
X-3783Y44161D01*
X-3766Y44045D01*
X-3763Y44040D01*
X-3762Y44033D01*
X-3707Y43931D01*
X-3654Y43826D01*
X-3650Y43822D01*
X-3647Y43816D01*
X-3563Y43736D01*
X-3479Y43654D01*
X-3472Y43650D01*
X-3468Y43647D01*
X-3452Y43639D01*
X-3332Y43573D01*
X-1170Y42678D01*
X1403Y40105D01*
X2795Y36744D01*
X2795Y33106D01*
X1403Y29745D01*
X-1170Y27172D01*
X-4531Y25780D01*
X-8169Y25780D01*
X-11530Y27172D01*
X-12670Y28312D01*
X-12728Y28354D01*
X-12780Y28403D01*
X-12827Y28425D01*
X-12869Y28456D01*
X-12938Y28477D01*
X-13003Y28507D01*
X-13055Y28513D01*
X-13105Y28528D01*
X-13176Y28526D01*
X-13247Y28534D01*
X-13298Y28523D01*
X-13350Y28522D01*
X-13418Y28497D01*
X-13488Y28482D01*
X-13533Y28455D01*
X-13581Y28437D01*
X-13637Y28392D01*
X-13699Y28356D01*
X-13733Y28316D01*
X-13773Y28284D01*
X-13812Y28223D01*
X-13859Y28169D01*
X-13878Y28120D01*
X-13906Y28077D01*
X-13924Y28007D01*
X-13951Y27941D01*
X-13959Y27869D01*
X-13967Y27838D01*
X-13965Y27815D01*
X-13969Y27774D01*
X-13969Y23353D01*
X-21956Y15366D01*
X-117744Y15366D01*
G37*
%LPD*%
%LPC*%
G36*
X173568Y114299D02*
X173568Y114299D01*
X170207Y115691D01*
X167634Y118264D01*
X166242Y121625D01*
X166242Y125263D01*
X167634Y128624D01*
X170207Y131197D01*
X173568Y132589D01*
X177206Y132589D01*
X178359Y132111D01*
X178473Y132084D01*
X178587Y132056D01*
X178593Y132056D01*
X178599Y132055D01*
X178715Y132066D01*
X178832Y132075D01*
X178837Y132077D01*
X178844Y132078D01*
X178951Y132126D01*
X179058Y132171D01*
X179064Y132176D01*
X179068Y132178D01*
X179082Y132191D01*
X179189Y132276D01*
X215570Y168657D01*
X224746Y168657D01*
X224861Y168676D01*
X224977Y168693D01*
X224983Y168695D01*
X224989Y168696D01*
X225092Y168751D01*
X225197Y168804D01*
X225201Y168809D01*
X225207Y168812D01*
X225286Y168896D01*
X225369Y168980D01*
X225372Y168986D01*
X225376Y168990D01*
X225384Y169007D01*
X225450Y169127D01*
X225927Y170280D01*
X228500Y172853D01*
X231861Y174245D01*
X250739Y174245D01*
X254100Y172853D01*
X256673Y170280D01*
X258065Y166919D01*
X258065Y163281D01*
X256673Y159920D01*
X254100Y157347D01*
X250739Y155955D01*
X231861Y155955D01*
X228500Y157347D01*
X225927Y159920D01*
X225450Y161073D01*
X225388Y161173D01*
X225328Y161273D01*
X225323Y161277D01*
X225320Y161282D01*
X225230Y161357D01*
X225141Y161433D01*
X225135Y161435D01*
X225131Y161439D01*
X225022Y161481D01*
X224913Y161525D01*
X224906Y161526D01*
X224901Y161527D01*
X224883Y161528D01*
X224746Y161543D01*
X218832Y161543D01*
X218741Y161529D01*
X218651Y161521D01*
X218621Y161509D01*
X218589Y161504D01*
X218508Y161461D01*
X218424Y161425D01*
X218392Y161399D01*
X218371Y161388D01*
X218349Y161365D01*
X218293Y161320D01*
X184219Y127246D01*
X184151Y127152D01*
X184081Y127057D01*
X184079Y127051D01*
X184075Y127046D01*
X184041Y126935D01*
X184005Y126823D01*
X184005Y126817D01*
X184003Y126811D01*
X184006Y126694D01*
X184007Y126578D01*
X184009Y126570D01*
X184009Y126565D01*
X184016Y126548D01*
X184054Y126416D01*
X184532Y125263D01*
X184532Y121625D01*
X183140Y118264D01*
X180567Y115691D01*
X177206Y114299D01*
X173568Y114299D01*
G37*
%LPD*%
%LPC*%
G36*
X-185969Y25780D02*
X-185969Y25780D01*
X-189330Y27172D01*
X-191903Y29745D01*
X-193295Y33106D01*
X-193295Y36744D01*
X-191903Y40105D01*
X-189330Y42678D01*
X-185969Y44070D01*
X-182331Y44070D01*
X-181178Y43592D01*
X-181064Y43565D01*
X-180950Y43537D01*
X-180944Y43537D01*
X-180938Y43536D01*
X-180822Y43547D01*
X-180705Y43556D01*
X-180700Y43558D01*
X-180693Y43559D01*
X-180586Y43607D01*
X-180479Y43652D01*
X-180473Y43657D01*
X-180469Y43659D01*
X-180455Y43672D01*
X-180348Y43757D01*
X-152211Y71894D01*
X-152158Y71968D01*
X-152098Y72037D01*
X-152086Y72068D01*
X-152067Y72094D01*
X-152041Y72181D01*
X-152006Y72266D01*
X-152002Y72307D01*
X-151995Y72329D01*
X-151996Y72361D01*
X-151988Y72432D01*
X-151988Y100788D01*
X-152003Y100878D01*
X-152010Y100969D01*
X-152022Y100999D01*
X-152028Y101031D01*
X-152070Y101111D01*
X-152106Y101195D01*
X-152132Y101227D01*
X-152143Y101248D01*
X-152166Y101270D01*
X-152211Y101326D01*
X-153706Y102821D01*
X-153706Y107191D01*
X-150616Y110281D01*
X-146246Y110281D01*
X-143157Y107191D01*
X-143157Y102821D01*
X-144652Y101326D01*
X-144705Y101252D01*
X-144764Y101183D01*
X-144776Y101153D01*
X-144795Y101127D01*
X-144822Y101040D01*
X-144856Y100955D01*
X-144861Y100914D01*
X-144867Y100892D01*
X-144867Y100859D01*
X-144875Y100788D01*
X-144875Y69170D01*
X-147181Y66864D01*
X-175318Y38727D01*
X-175386Y38633D01*
X-175456Y38538D01*
X-175458Y38532D01*
X-175462Y38527D01*
X-175496Y38416D01*
X-175532Y38304D01*
X-175532Y38298D01*
X-175534Y38292D01*
X-175531Y38175D01*
X-175530Y38059D01*
X-175528Y38051D01*
X-175528Y38046D01*
X-175521Y38029D01*
X-175483Y37897D01*
X-175005Y36744D01*
X-175005Y33106D01*
X-176397Y29745D01*
X-178970Y27172D01*
X-182331Y25780D01*
X-185969Y25780D01*
G37*
%LPD*%
G36*
X-39556Y40339D02*
X-39556Y40339D01*
X-39452Y40342D01*
X-39434Y40348D01*
X-39414Y40350D01*
X-39319Y40390D01*
X-39221Y40426D01*
X-39206Y40439D01*
X-39187Y40446D01*
X-39056Y40551D01*
X-36930Y42678D01*
X-33569Y44070D01*
X-29931Y44070D01*
X-26570Y42678D01*
X-25430Y41538D01*
X-25372Y41496D01*
X-25320Y41447D01*
X-25273Y41425D01*
X-25231Y41394D01*
X-25162Y41373D01*
X-25097Y41343D01*
X-25045Y41337D01*
X-24995Y41322D01*
X-24924Y41324D01*
X-24853Y41316D01*
X-24802Y41327D01*
X-24750Y41328D01*
X-24682Y41353D01*
X-24612Y41368D01*
X-24567Y41395D01*
X-24519Y41413D01*
X-24463Y41458D01*
X-24401Y41494D01*
X-24367Y41534D01*
X-24327Y41566D01*
X-24288Y41627D01*
X-24241Y41681D01*
X-24222Y41730D01*
X-24194Y41773D01*
X-24176Y41843D01*
X-24149Y41909D01*
X-24141Y41981D01*
X-24133Y42012D01*
X-24135Y42035D01*
X-24131Y42076D01*
X-24131Y55015D01*
X-24134Y55035D01*
X-24132Y55054D01*
X-24154Y55156D01*
X-24170Y55258D01*
X-24180Y55275D01*
X-24184Y55295D01*
X-24237Y55384D01*
X-24286Y55475D01*
X-24300Y55489D01*
X-24310Y55506D01*
X-24389Y55573D01*
X-24464Y55645D01*
X-24482Y55653D01*
X-24497Y55666D01*
X-24593Y55705D01*
X-24687Y55748D01*
X-24707Y55750D01*
X-24725Y55758D01*
X-24892Y55776D01*
X-27284Y55776D01*
X-29949Y58441D01*
X-29949Y60558D01*
X-29960Y60629D01*
X-29962Y60701D01*
X-29980Y60750D01*
X-29988Y60801D01*
X-30022Y60864D01*
X-30047Y60932D01*
X-30079Y60972D01*
X-30104Y61018D01*
X-30156Y61068D01*
X-30200Y61124D01*
X-30244Y61152D01*
X-30282Y61188D01*
X-30347Y61218D01*
X-30407Y61257D01*
X-30458Y61269D01*
X-30505Y61291D01*
X-30576Y61299D01*
X-30646Y61317D01*
X-30698Y61313D01*
X-30749Y61318D01*
X-30820Y61303D01*
X-30891Y61298D01*
X-30939Y61277D01*
X-30990Y61266D01*
X-31051Y61229D01*
X-31117Y61201D01*
X-31173Y61156D01*
X-31201Y61140D01*
X-31216Y61122D01*
X-31248Y61096D01*
X-34106Y58239D01*
X-35369Y58239D01*
X-39091Y61960D01*
X-39091Y63223D01*
X-33547Y68767D01*
X-33494Y68841D01*
X-33435Y68910D01*
X-33423Y68940D01*
X-33404Y68967D01*
X-33377Y69054D01*
X-33343Y69138D01*
X-33338Y69179D01*
X-33331Y69202D01*
X-33332Y69234D01*
X-33324Y69305D01*
X-33324Y80214D01*
X-33327Y80234D01*
X-33325Y80254D01*
X-33347Y80355D01*
X-33364Y80457D01*
X-33373Y80475D01*
X-33378Y80494D01*
X-33431Y80583D01*
X-33479Y80675D01*
X-33494Y80688D01*
X-33504Y80705D01*
X-33582Y80773D01*
X-33657Y80844D01*
X-33675Y80852D01*
X-33691Y80865D01*
X-33787Y80904D01*
X-33881Y80948D01*
X-33900Y80950D01*
X-33919Y80957D01*
X-34086Y80976D01*
X-44995Y80976D01*
X-45085Y80961D01*
X-45176Y80954D01*
X-45206Y80941D01*
X-45237Y80936D01*
X-45318Y80893D01*
X-45402Y80858D01*
X-45434Y80832D01*
X-45455Y80821D01*
X-45477Y80798D01*
X-45533Y80753D01*
X-51077Y75209D01*
X-52340Y75209D01*
X-54897Y77767D01*
X-54955Y77808D01*
X-55007Y77858D01*
X-55055Y77880D01*
X-55097Y77910D01*
X-55165Y77931D01*
X-55231Y77961D01*
X-55282Y77967D01*
X-55332Y77982D01*
X-55404Y77981D01*
X-55475Y77988D01*
X-55526Y77977D01*
X-55578Y77976D01*
X-55645Y77951D01*
X-55715Y77936D01*
X-55760Y77909D01*
X-55809Y77892D01*
X-55865Y77847D01*
X-55926Y77810D01*
X-55960Y77770D01*
X-56001Y77738D01*
X-56040Y77678D01*
X-56086Y77623D01*
X-56106Y77575D01*
X-56134Y77531D01*
X-56151Y77462D01*
X-56178Y77395D01*
X-56186Y77324D01*
X-56194Y77292D01*
X-56192Y77269D01*
X-56197Y77228D01*
X-56197Y56930D01*
X-56182Y56840D01*
X-56175Y56749D01*
X-56162Y56719D01*
X-56157Y56687D01*
X-56114Y56607D01*
X-56079Y56523D01*
X-56053Y56491D01*
X-56042Y56470D01*
X-56019Y56448D01*
X-55974Y56392D01*
X-40133Y40551D01*
X-40117Y40540D01*
X-40104Y40524D01*
X-40017Y40468D01*
X-39933Y40408D01*
X-39914Y40402D01*
X-39897Y40391D01*
X-39797Y40366D01*
X-39698Y40335D01*
X-39678Y40336D01*
X-39659Y40331D01*
X-39556Y40339D01*
G37*
G36*
X66759Y69219D02*
X66759Y69219D01*
X66778Y69217D01*
X66880Y69239D01*
X66982Y69255D01*
X66999Y69265D01*
X67019Y69269D01*
X67108Y69322D01*
X67199Y69371D01*
X67213Y69385D01*
X67230Y69395D01*
X67297Y69474D01*
X67369Y69549D01*
X67377Y69567D01*
X67390Y69582D01*
X67429Y69678D01*
X67472Y69772D01*
X67474Y69792D01*
X67482Y69810D01*
X67500Y69977D01*
X67500Y78094D01*
X68393Y78987D01*
X77657Y78987D01*
X78550Y78094D01*
X78550Y69977D01*
X78553Y69957D01*
X78551Y69938D01*
X78573Y69836D01*
X78589Y69734D01*
X78599Y69717D01*
X78603Y69697D01*
X78656Y69608D01*
X78705Y69517D01*
X78719Y69503D01*
X78729Y69486D01*
X78808Y69419D01*
X78883Y69347D01*
X78901Y69339D01*
X78916Y69326D01*
X79012Y69287D01*
X79106Y69244D01*
X79126Y69242D01*
X79144Y69234D01*
X79311Y69216D01*
X89120Y69216D01*
X89210Y69230D01*
X89301Y69238D01*
X89331Y69250D01*
X89363Y69255D01*
X89443Y69298D01*
X89527Y69334D01*
X89559Y69360D01*
X89580Y69371D01*
X89602Y69394D01*
X89658Y69439D01*
X95661Y75442D01*
X95754Y75535D01*
X95796Y75593D01*
X95845Y75645D01*
X95867Y75692D01*
X95898Y75734D01*
X95919Y75803D01*
X95949Y75868D01*
X95955Y75920D01*
X95970Y75969D01*
X95968Y76041D01*
X95976Y76112D01*
X95965Y76163D01*
X95964Y76215D01*
X95939Y76283D01*
X95924Y76353D01*
X95897Y76397D01*
X95879Y76446D01*
X95834Y76502D01*
X95798Y76564D01*
X95758Y76598D01*
X95726Y76638D01*
X95665Y76677D01*
X95611Y76724D01*
X95562Y76743D01*
X95519Y76771D01*
X95449Y76789D01*
X95383Y76816D01*
X95311Y76824D01*
X95280Y76832D01*
X95257Y76830D01*
X95216Y76834D01*
X94198Y76834D01*
X76958Y94074D01*
X76884Y94127D01*
X76815Y94186D01*
X76784Y94199D01*
X76758Y94217D01*
X76671Y94244D01*
X76586Y94278D01*
X76546Y94283D01*
X76523Y94290D01*
X76491Y94289D01*
X76420Y94297D01*
X69630Y94297D01*
X69540Y94282D01*
X69449Y94275D01*
X69419Y94262D01*
X69387Y94257D01*
X69307Y94214D01*
X69223Y94179D01*
X69191Y94153D01*
X69170Y94142D01*
X69148Y94119D01*
X69092Y94074D01*
X59790Y84772D01*
X36980Y84772D01*
X36909Y84760D01*
X36837Y84758D01*
X36788Y84740D01*
X36737Y84732D01*
X36674Y84698D01*
X36606Y84674D01*
X36566Y84641D01*
X36520Y84617D01*
X36470Y84565D01*
X36414Y84520D01*
X36386Y84476D01*
X36350Y84439D01*
X36320Y84374D01*
X36281Y84313D01*
X36269Y84263D01*
X36247Y84216D01*
X36239Y84144D01*
X36221Y84075D01*
X36225Y84023D01*
X36220Y83971D01*
X36235Y83901D01*
X36240Y83830D01*
X36261Y83782D01*
X36272Y83731D01*
X36309Y83669D01*
X36337Y83603D01*
X36382Y83547D01*
X36398Y83520D01*
X36416Y83504D01*
X36442Y83472D01*
X44125Y75789D01*
X44199Y75736D01*
X44269Y75676D01*
X44299Y75664D01*
X44325Y75645D01*
X44412Y75618D01*
X44497Y75584D01*
X44538Y75580D01*
X44560Y75573D01*
X44592Y75574D01*
X44663Y75566D01*
X51586Y75566D01*
X51676Y75580D01*
X51767Y75588D01*
X51797Y75600D01*
X51829Y75605D01*
X51910Y75648D01*
X51994Y75684D01*
X52026Y75710D01*
X52046Y75721D01*
X52069Y75744D01*
X52125Y75789D01*
X53910Y77574D01*
X57678Y77574D01*
X60342Y74909D01*
X60342Y71141D01*
X59717Y70515D01*
X59675Y70457D01*
X59626Y70405D01*
X59604Y70358D01*
X59573Y70316D01*
X59552Y70247D01*
X59522Y70182D01*
X59516Y70130D01*
X59501Y70080D01*
X59503Y70009D01*
X59495Y69938D01*
X59506Y69887D01*
X59507Y69835D01*
X59532Y69767D01*
X59547Y69697D01*
X59574Y69652D01*
X59592Y69604D01*
X59637Y69548D01*
X59673Y69486D01*
X59713Y69452D01*
X59746Y69412D01*
X59806Y69373D01*
X59860Y69326D01*
X59909Y69307D01*
X59952Y69279D01*
X60022Y69261D01*
X60088Y69234D01*
X60160Y69226D01*
X60191Y69218D01*
X60214Y69220D01*
X60255Y69216D01*
X66739Y69216D01*
X66759Y69219D01*
G37*
%LPC*%
G36*
X231861Y130555D02*
X231861Y130555D01*
X228500Y131947D01*
X225927Y134520D01*
X224535Y137881D01*
X224535Y141519D01*
X225927Y144880D01*
X228500Y147453D01*
X231861Y148845D01*
X250739Y148845D01*
X254100Y147453D01*
X256673Y144880D01*
X258065Y141519D01*
X258065Y137881D01*
X256673Y134520D01*
X254100Y131947D01*
X250739Y130555D01*
X231861Y130555D01*
G37*
%LPD*%
%LPC*%
G36*
X231861Y105155D02*
X231861Y105155D01*
X228500Y106547D01*
X225927Y109120D01*
X224535Y112481D01*
X224535Y116119D01*
X225927Y119480D01*
X228500Y122053D01*
X231861Y123445D01*
X250739Y123445D01*
X254100Y122053D01*
X256673Y119480D01*
X258065Y116119D01*
X258065Y112481D01*
X256673Y109120D01*
X254100Y106547D01*
X250739Y105155D01*
X231861Y105155D01*
G37*
%LPD*%
%LPC*%
G36*
X231861Y79755D02*
X231861Y79755D01*
X228500Y81147D01*
X225927Y83720D01*
X224535Y87081D01*
X224535Y90719D01*
X225927Y94080D01*
X228500Y96653D01*
X231861Y98045D01*
X250739Y98045D01*
X254100Y96653D01*
X256673Y94080D01*
X258065Y90719D01*
X258065Y87081D01*
X256673Y83720D01*
X254100Y81147D01*
X250739Y79755D01*
X231861Y79755D01*
G37*
%LPD*%
%LPC*%
G36*
X245831Y182943D02*
X245831Y182943D01*
X242470Y184335D01*
X239897Y186907D01*
X238505Y190269D01*
X238505Y193906D01*
X239897Y197268D01*
X242470Y199840D01*
X245831Y201232D01*
X249469Y201232D01*
X252830Y199840D01*
X255403Y197268D01*
X256795Y193906D01*
X256795Y190269D01*
X255403Y186907D01*
X252830Y184335D01*
X249469Y182943D01*
X245831Y182943D01*
G37*
%LPD*%
D10*
X-39081Y106082D02*
X-39965Y106966D01*
X-35901Y111030D01*
X-35017Y110146D01*
X-39081Y106082D01*
X-39662Y107269D02*
X-37894Y107269D01*
X-38475Y108456D02*
X-36707Y108456D01*
X-37288Y109643D02*
X-35520Y109643D01*
X-35701Y110830D02*
X-36101Y110830D01*
X-36429Y103431D02*
X-35545Y102547D01*
X-36429Y103431D02*
X-32365Y107495D01*
X-31481Y106611D01*
X-35545Y102547D01*
X-36126Y103734D02*
X-34358Y103734D01*
X-34939Y104921D02*
X-33171Y104921D01*
X-33752Y106108D02*
X-31984Y106108D01*
X-32165Y107295D02*
X-32565Y107295D01*
X-32894Y99895D02*
X-32010Y99011D01*
X-32894Y99895D02*
X-28830Y103959D01*
X-27946Y103075D01*
X-32010Y99011D01*
X-32591Y100198D02*
X-30823Y100198D01*
X-31404Y101385D02*
X-29636Y101385D01*
X-30217Y102572D02*
X-28449Y102572D01*
X-28630Y103759D02*
X-29030Y103759D01*
X-29358Y96360D02*
X-28474Y95476D01*
X-29358Y96360D02*
X-25294Y100424D01*
X-24410Y99540D01*
X-28474Y95476D01*
X-29055Y96663D02*
X-27287Y96663D01*
X-27868Y97850D02*
X-26100Y97850D01*
X-26681Y99037D02*
X-24913Y99037D01*
X-25094Y100224D02*
X-25494Y100224D01*
X-25823Y92824D02*
X-24939Y91940D01*
X-25823Y92824D02*
X-21759Y96888D01*
X-20875Y96004D01*
X-24939Y91940D01*
X-25520Y93127D02*
X-23752Y93127D01*
X-24333Y94314D02*
X-22565Y94314D01*
X-23146Y95501D02*
X-21378Y95501D01*
X-21559Y96688D02*
X-21959Y96688D01*
X-22287Y89289D02*
X-21403Y88405D01*
X-22287Y89289D02*
X-18223Y93353D01*
X-17339Y92469D01*
X-21403Y88405D01*
X-21984Y89592D02*
X-20216Y89592D01*
X-20797Y90779D02*
X-19029Y90779D01*
X-19610Y91966D02*
X-17842Y91966D01*
X-18023Y93153D02*
X-18423Y93153D01*
X-18751Y85753D02*
X-17867Y84869D01*
X-18751Y85753D02*
X-14687Y89817D01*
X-13803Y88933D01*
X-17867Y84869D01*
X-18448Y86056D02*
X-16680Y86056D01*
X-17261Y87243D02*
X-15493Y87243D01*
X-16074Y88430D02*
X-14306Y88430D01*
X-14487Y89617D02*
X-14887Y89617D01*
X-15216Y82218D02*
X-14332Y81334D01*
X-15216Y82218D02*
X-11152Y86282D01*
X-10268Y85398D01*
X-14332Y81334D01*
X-14913Y82521D02*
X-13145Y82521D01*
X-13726Y83708D02*
X-11958Y83708D01*
X-12539Y84895D02*
X-10771Y84895D01*
X-10952Y86082D02*
X-11352Y86082D01*
X-11680Y78682D02*
X-10796Y77798D01*
X-11680Y78682D02*
X-7616Y82746D01*
X-6732Y81862D01*
X-10796Y77798D01*
X-11377Y78985D02*
X-9609Y78985D01*
X-10190Y80172D02*
X-8422Y80172D01*
X-9003Y81359D02*
X-7235Y81359D01*
X-7416Y82546D02*
X-7816Y82546D01*
X-8145Y75147D02*
X-7261Y74263D01*
X-8145Y75147D02*
X-4081Y79211D01*
X-3197Y78327D01*
X-7261Y74263D01*
X-7842Y75450D02*
X-6074Y75450D01*
X-6655Y76637D02*
X-4887Y76637D01*
X-5468Y77824D02*
X-3700Y77824D01*
X-3881Y79011D02*
X-4281Y79011D01*
X-4609Y71611D02*
X-3725Y70727D01*
X-4609Y71611D02*
X-545Y75675D01*
X339Y74791D01*
X-3725Y70727D01*
X-4306Y71914D02*
X-2538Y71914D01*
X-3119Y73101D02*
X-1351Y73101D01*
X-1932Y74288D02*
X-164Y74288D01*
X-345Y75475D02*
X-745Y75475D01*
X-1074Y68076D02*
X-190Y67192D01*
X-1074Y68076D02*
X2990Y72140D01*
X3874Y71256D01*
X-190Y67192D01*
X-771Y68379D02*
X997Y68379D01*
X416Y69566D02*
X2184Y69566D01*
X1603Y70753D02*
X3371Y70753D01*
X3190Y71940D02*
X2790Y71940D01*
X12890Y67192D02*
X13774Y68076D01*
X12890Y67192D02*
X8826Y71256D01*
X9710Y72140D01*
X13774Y68076D01*
X13471Y68379D02*
X11703Y68379D01*
X12284Y69566D02*
X10516Y69566D01*
X11097Y70753D02*
X9329Y70753D01*
X9510Y71940D02*
X9910Y71940D01*
X16425Y70727D02*
X17309Y71611D01*
X16425Y70727D02*
X12361Y74791D01*
X13245Y75675D01*
X17309Y71611D01*
X17006Y71914D02*
X15238Y71914D01*
X15819Y73101D02*
X14051Y73101D01*
X14632Y74288D02*
X12864Y74288D01*
X13045Y75475D02*
X13445Y75475D01*
X19961Y74263D02*
X20845Y75147D01*
X19961Y74263D02*
X15897Y78327D01*
X16781Y79211D01*
X20845Y75147D01*
X20542Y75450D02*
X18774Y75450D01*
X19355Y76637D02*
X17587Y76637D01*
X18168Y77824D02*
X16400Y77824D01*
X16581Y79011D02*
X16981Y79011D01*
X23496Y77798D02*
X24380Y78682D01*
X23496Y77798D02*
X19432Y81862D01*
X20316Y82746D01*
X24380Y78682D01*
X24077Y78985D02*
X22309Y78985D01*
X22890Y80172D02*
X21122Y80172D01*
X21703Y81359D02*
X19935Y81359D01*
X20116Y82546D02*
X20516Y82546D01*
X27032Y81334D02*
X27916Y82218D01*
X27032Y81334D02*
X22968Y85398D01*
X23852Y86282D01*
X27916Y82218D01*
X27613Y82521D02*
X25845Y82521D01*
X26426Y83708D02*
X24658Y83708D01*
X25239Y84895D02*
X23471Y84895D01*
X23652Y86082D02*
X24052Y86082D01*
X30567Y84869D02*
X31451Y85753D01*
X30567Y84869D02*
X26503Y88933D01*
X27387Y89817D01*
X31451Y85753D01*
X31148Y86056D02*
X29380Y86056D01*
X29961Y87243D02*
X28193Y87243D01*
X28774Y88430D02*
X27006Y88430D01*
X27187Y89617D02*
X27587Y89617D01*
X34103Y88405D02*
X34987Y89289D01*
X34103Y88405D02*
X30039Y92469D01*
X30923Y93353D01*
X34987Y89289D01*
X34684Y89592D02*
X32916Y89592D01*
X33497Y90779D02*
X31729Y90779D01*
X32310Y91966D02*
X30542Y91966D01*
X30723Y93153D02*
X31123Y93153D01*
X37639Y91940D02*
X38523Y92824D01*
X37639Y91940D02*
X33575Y96004D01*
X34459Y96888D01*
X38523Y92824D01*
X38220Y93127D02*
X36452Y93127D01*
X37033Y94314D02*
X35265Y94314D01*
X35846Y95501D02*
X34078Y95501D01*
X34259Y96688D02*
X34659Y96688D01*
X41174Y95476D02*
X42058Y96360D01*
X41174Y95476D02*
X37110Y99540D01*
X37994Y100424D01*
X42058Y96360D01*
X41755Y96663D02*
X39987Y96663D01*
X40568Y97850D02*
X38800Y97850D01*
X39381Y99037D02*
X37613Y99037D01*
X37794Y100224D02*
X38194Y100224D01*
X44710Y99011D02*
X45594Y99895D01*
X44710Y99011D02*
X40646Y103075D01*
X41530Y103959D01*
X45594Y99895D01*
X45291Y100198D02*
X43523Y100198D01*
X44104Y101385D02*
X42336Y101385D01*
X42917Y102572D02*
X41149Y102572D01*
X41330Y103759D02*
X41730Y103759D01*
X48245Y102547D02*
X49129Y103431D01*
X48245Y102547D02*
X44181Y106611D01*
X45065Y107495D01*
X49129Y103431D01*
X48826Y103734D02*
X47058Y103734D01*
X47639Y104921D02*
X45871Y104921D01*
X46452Y106108D02*
X44684Y106108D01*
X44865Y107295D02*
X45265Y107295D01*
X51781Y106082D02*
X52665Y106966D01*
X51781Y106082D02*
X47717Y110146D01*
X48601Y111030D01*
X52665Y106966D01*
X52362Y107269D02*
X50594Y107269D01*
X51175Y108456D02*
X49407Y108456D01*
X49988Y109643D02*
X48220Y109643D01*
X48401Y110830D02*
X48801Y110830D01*
X52665Y120046D02*
X51781Y120930D01*
X52665Y120046D02*
X48601Y115982D01*
X47717Y116866D01*
X51781Y120930D01*
X49788Y117169D02*
X48020Y117169D01*
X49207Y118356D02*
X50975Y118356D01*
X50394Y119543D02*
X52162Y119543D01*
X51981Y120730D02*
X51581Y120730D01*
X49129Y123582D02*
X48245Y124466D01*
X49129Y123582D02*
X45065Y119518D01*
X44181Y120402D01*
X48245Y124466D01*
X46252Y120705D02*
X44484Y120705D01*
X45671Y121892D02*
X47439Y121892D01*
X46858Y123079D02*
X48626Y123079D01*
X48445Y124266D02*
X48045Y124266D01*
X45594Y127117D02*
X44710Y128001D01*
X45594Y127117D02*
X41530Y123053D01*
X40646Y123937D01*
X44710Y128001D01*
X42717Y124240D02*
X40949Y124240D01*
X42136Y125427D02*
X43904Y125427D01*
X43323Y126614D02*
X45091Y126614D01*
X44910Y127801D02*
X44510Y127801D01*
X42058Y130653D02*
X41174Y131537D01*
X42058Y130653D02*
X37994Y126589D01*
X37110Y127473D01*
X41174Y131537D01*
X39181Y127776D02*
X37413Y127776D01*
X38600Y128963D02*
X40368Y128963D01*
X39787Y130150D02*
X41555Y130150D01*
X41374Y131337D02*
X40974Y131337D01*
X38523Y134188D02*
X37639Y135072D01*
X38523Y134188D02*
X34459Y130124D01*
X33575Y131008D01*
X37639Y135072D01*
X35646Y131311D02*
X33878Y131311D01*
X35065Y132498D02*
X36833Y132498D01*
X36252Y133685D02*
X38020Y133685D01*
X37839Y134872D02*
X37439Y134872D01*
X34987Y137724D02*
X34103Y138608D01*
X34987Y137724D02*
X30923Y133660D01*
X30039Y134544D01*
X34103Y138608D01*
X32110Y134847D02*
X30342Y134847D01*
X31529Y136034D02*
X33297Y136034D01*
X32716Y137221D02*
X34484Y137221D01*
X34303Y138408D02*
X33903Y138408D01*
X31451Y141259D02*
X30567Y142143D01*
X31451Y141259D02*
X27387Y137195D01*
X26503Y138079D01*
X30567Y142143D01*
X28574Y138382D02*
X26806Y138382D01*
X27993Y139569D02*
X29761Y139569D01*
X29180Y140756D02*
X30948Y140756D01*
X30767Y141943D02*
X30367Y141943D01*
X27916Y144795D02*
X27032Y145679D01*
X27916Y144795D02*
X23852Y140731D01*
X22968Y141615D01*
X27032Y145679D01*
X25039Y141918D02*
X23271Y141918D01*
X24458Y143105D02*
X26226Y143105D01*
X25645Y144292D02*
X27413Y144292D01*
X27232Y145479D02*
X26832Y145479D01*
X24380Y148330D02*
X23496Y149214D01*
X24380Y148330D02*
X20316Y144266D01*
X19432Y145150D01*
X23496Y149214D01*
X21503Y145453D02*
X19735Y145453D01*
X20922Y146640D02*
X22690Y146640D01*
X22109Y147827D02*
X23877Y147827D01*
X23696Y149014D02*
X23296Y149014D01*
X20845Y151866D02*
X19961Y152750D01*
X20845Y151866D02*
X16781Y147802D01*
X15897Y148686D01*
X19961Y152750D01*
X17968Y148989D02*
X16200Y148989D01*
X17387Y150176D02*
X19155Y150176D01*
X18574Y151363D02*
X20342Y151363D01*
X20161Y152550D02*
X19761Y152550D01*
X17309Y155401D02*
X16425Y156285D01*
X17309Y155401D02*
X13245Y151337D01*
X12361Y152221D01*
X16425Y156285D01*
X14432Y152524D02*
X12664Y152524D01*
X13851Y153711D02*
X15619Y153711D01*
X15038Y154898D02*
X16806Y154898D01*
X16625Y156085D02*
X16225Y156085D01*
X13774Y158937D02*
X12890Y159821D01*
X13774Y158937D02*
X9710Y154873D01*
X8826Y155757D01*
X12890Y159821D01*
X10897Y156060D02*
X9129Y156060D01*
X10316Y157247D02*
X12084Y157247D01*
X11503Y158434D02*
X13271Y158434D01*
X13090Y159621D02*
X12690Y159621D01*
X-190Y159821D02*
X-1074Y158937D01*
X-190Y159821D02*
X3874Y155757D01*
X2990Y154873D01*
X-1074Y158937D01*
X1803Y156060D02*
X3571Y156060D01*
X2384Y157247D02*
X616Y157247D01*
X1197Y158434D02*
X-571Y158434D01*
X-390Y159621D02*
X10Y159621D01*
X-3725Y156285D02*
X-4609Y155401D01*
X-3725Y156285D02*
X339Y152221D01*
X-545Y151337D01*
X-4609Y155401D01*
X-1732Y152524D02*
X36Y152524D01*
X-1151Y153711D02*
X-2919Y153711D01*
X-2338Y154898D02*
X-4106Y154898D01*
X-3925Y156085D02*
X-3525Y156085D01*
X-7261Y152750D02*
X-8145Y151866D01*
X-7261Y152750D02*
X-3197Y148686D01*
X-4081Y147802D01*
X-8145Y151866D01*
X-5268Y148989D02*
X-3500Y148989D01*
X-4687Y150176D02*
X-6455Y150176D01*
X-5874Y151363D02*
X-7642Y151363D01*
X-7461Y152550D02*
X-7061Y152550D01*
X-10796Y149214D02*
X-11680Y148330D01*
X-10796Y149214D02*
X-6732Y145150D01*
X-7616Y144266D01*
X-11680Y148330D01*
X-8803Y145453D02*
X-7035Y145453D01*
X-8222Y146640D02*
X-9990Y146640D01*
X-9409Y147827D02*
X-11177Y147827D01*
X-10996Y149014D02*
X-10596Y149014D01*
X-14332Y145679D02*
X-15216Y144795D01*
X-14332Y145679D02*
X-10268Y141615D01*
X-11152Y140731D01*
X-15216Y144795D01*
X-12339Y141918D02*
X-10571Y141918D01*
X-11758Y143105D02*
X-13526Y143105D01*
X-12945Y144292D02*
X-14713Y144292D01*
X-14532Y145479D02*
X-14132Y145479D01*
X-17867Y142143D02*
X-18751Y141259D01*
X-17867Y142143D02*
X-13803Y138079D01*
X-14687Y137195D01*
X-18751Y141259D01*
X-15874Y138382D02*
X-14106Y138382D01*
X-15293Y139569D02*
X-17061Y139569D01*
X-16480Y140756D02*
X-18248Y140756D01*
X-18067Y141943D02*
X-17667Y141943D01*
X-21403Y138608D02*
X-22287Y137724D01*
X-21403Y138608D02*
X-17339Y134544D01*
X-18223Y133660D01*
X-22287Y137724D01*
X-19410Y134847D02*
X-17642Y134847D01*
X-18829Y136034D02*
X-20597Y136034D01*
X-20016Y137221D02*
X-21784Y137221D01*
X-21603Y138408D02*
X-21203Y138408D01*
X-24939Y135072D02*
X-25823Y134188D01*
X-24939Y135072D02*
X-20875Y131008D01*
X-21759Y130124D01*
X-25823Y134188D01*
X-22946Y131311D02*
X-21178Y131311D01*
X-22365Y132498D02*
X-24133Y132498D01*
X-23552Y133685D02*
X-25320Y133685D01*
X-25139Y134872D02*
X-24739Y134872D01*
X-28474Y131537D02*
X-29358Y130653D01*
X-28474Y131537D02*
X-24410Y127473D01*
X-25294Y126589D01*
X-29358Y130653D01*
X-26481Y127776D02*
X-24713Y127776D01*
X-25900Y128963D02*
X-27668Y128963D01*
X-27087Y130150D02*
X-28855Y130150D01*
X-28674Y131337D02*
X-28274Y131337D01*
X-32010Y128001D02*
X-32894Y127117D01*
X-32010Y128001D02*
X-27946Y123937D01*
X-28830Y123053D01*
X-32894Y127117D01*
X-30017Y124240D02*
X-28249Y124240D01*
X-29436Y125427D02*
X-31204Y125427D01*
X-30623Y126614D02*
X-32391Y126614D01*
X-32210Y127801D02*
X-31810Y127801D01*
X-35545Y124466D02*
X-36429Y123582D01*
X-35545Y124466D02*
X-31481Y120402D01*
X-32365Y119518D01*
X-36429Y123582D01*
X-33552Y120705D02*
X-31784Y120705D01*
X-32971Y121892D02*
X-34739Y121892D01*
X-34158Y123079D02*
X-35926Y123079D01*
X-35745Y124266D02*
X-35345Y124266D01*
X-39081Y120930D02*
X-39965Y120046D01*
X-39081Y120930D02*
X-35017Y116866D01*
X-35901Y115982D01*
X-39965Y120046D01*
X-37088Y117169D02*
X-35320Y117169D01*
X-36507Y118356D02*
X-38275Y118356D01*
X-37694Y119543D02*
X-39462Y119543D01*
X-39281Y120730D02*
X-38881Y120730D01*
D11*
G36*
X6350Y73201D02*
X-33955Y113506D01*
X6350Y153811D01*
X46655Y113506D01*
X6350Y73201D01*
G37*
D12*
G36*
X-41810Y86633D02*
X-51708Y76735D01*
X-54536Y79563D01*
X-44638Y89461D01*
X-41810Y86633D01*
G37*
G36*
X-33325Y78148D02*
X-43223Y68250D01*
X-46051Y71078D01*
X-36153Y80976D01*
X-33325Y78148D01*
G37*
G36*
X-24839Y69662D02*
X-34737Y59764D01*
X-37565Y62592D01*
X-27667Y72490D01*
X-24839Y69662D01*
G37*
D13*
X-205025Y114300D03*
X-205025Y107800D03*
X-205025Y120800D03*
X-205025Y127300D03*
X-205025Y101300D03*
D14*
X-231775Y74300D03*
D15*
X-231775Y102300D03*
X-231775Y126300D03*
D14*
X-231775Y154300D03*
D16*
X110363Y103569D03*
X110363Y58357D03*
X175387Y103569D03*
X175387Y58357D03*
X110363Y168656D03*
X110363Y123444D03*
X175387Y168656D03*
X175387Y123444D03*
D17*
X233680Y165100D02*
X248920Y165100D01*
X248920Y139700D02*
X233680Y139700D01*
X233680Y114300D02*
X248920Y114300D01*
X248920Y88900D02*
X233680Y88900D01*
X233680Y63500D02*
X248920Y63500D01*
D16*
X-234950Y192088D03*
X-209550Y192088D03*
X-184150Y192088D03*
X-158750Y192088D03*
X-133350Y192088D03*
X-107950Y192088D03*
X-82550Y192088D03*
X-57150Y192088D03*
X-31750Y192088D03*
X-6350Y192088D03*
X19050Y192088D03*
X44450Y192088D03*
X69850Y192088D03*
X95250Y192088D03*
X120650Y192088D03*
X146050Y192088D03*
X171450Y192088D03*
X196850Y192088D03*
X222250Y192088D03*
X247650Y192088D03*
X-234950Y34925D03*
X-209550Y34925D03*
X-184150Y34925D03*
X-158750Y34925D03*
X-133350Y34925D03*
X-107950Y34925D03*
X-82550Y34925D03*
X-57150Y34925D03*
X-31750Y34925D03*
X-6350Y34925D03*
X19050Y34925D03*
X44450Y34925D03*
X69850Y34925D03*
X95250Y34925D03*
X120650Y34925D03*
X146050Y34925D03*
X171450Y34925D03*
X196850Y34925D03*
X222250Y34925D03*
X247650Y34925D03*
D18*
X73025Y73463D03*
X73025Y88463D03*
D19*
X-39688Y74613D03*
X-21431Y113506D03*
X34131Y113506D03*
X794Y138113D03*
X73025Y88900D03*
D20*
X-231775Y154300D02*
X-231775Y174625D01*
X-231775Y154300D02*
X-231775Y126300D01*
X-231775Y102300D01*
X-231775Y74300D01*
X-205025Y101300D02*
X-205025Y107800D01*
X-230775Y101300D02*
X-231775Y102300D01*
X-230775Y101300D02*
X-205025Y101300D01*
D19*
X-115094Y113506D03*
X-88106Y113506D03*
X-101600Y60325D03*
X158750Y212725D03*
X57150Y212725D03*
X-44450Y212725D03*
X-146050Y212725D03*
X-146050Y14288D03*
X-44450Y9525D03*
X57150Y14288D03*
X158750Y14288D03*
X-53975Y136525D03*
D20*
X-231775Y74300D02*
X-231775Y55563D01*
D19*
X77788Y149225D03*
X-231775Y158750D03*
X-231775Y125413D03*
X-231775Y101600D03*
X-231775Y74613D03*
D20*
X-37494Y118456D02*
X-37491Y118456D01*
X-37494Y118456D02*
X-43656Y124619D01*
D19*
X-43656Y124619D03*
D20*
X11300Y157347D02*
X17463Y163510D01*
X17463Y163513D01*
D19*
X17463Y163513D03*
D20*
X217043Y165100D02*
X241300Y165100D01*
X217043Y165100D02*
X175387Y123444D01*
D19*
X55563Y111125D03*
D20*
X52759Y111125D01*
X50191Y108556D01*
X-148431Y70644D02*
X-184150Y34925D01*
X-148431Y70644D02*
X-148431Y105006D01*
D19*
X-148431Y105006D03*
D21*
X-12700Y76779D02*
X-9206Y80272D01*
X-12700Y76779D02*
X-12700Y61119D01*
X-11906Y60325D01*
D22*
X-11906Y60325D03*
D21*
X-13494Y58738D01*
X-13494Y56796D01*
X-16764Y53526D01*
X-16764Y24511D01*
X-23114Y18161D01*
X-116586Y18161D02*
X-133350Y34925D01*
X-116586Y18161D02*
X-23114Y18161D01*
X-33992Y83770D02*
X-47500Y83770D01*
X-48173Y83098D01*
X-33992Y83770D02*
X-23349Y94414D01*
X-30530Y80162D02*
X-30530Y66800D01*
X-31202Y66127D01*
X-30530Y80162D02*
X-19813Y90879D01*
X-12742Y83808D02*
X-18518Y78032D01*
X-18518Y76200D01*
D22*
X-18518Y76200D03*
D21*
X-18518Y72323D01*
X-18488Y72293D01*
X-18488Y57712D01*
X-21336Y54864D01*
X-21336Y26289D02*
X-25400Y22225D01*
X-21336Y26289D02*
X-21336Y54864D01*
X-25400Y22225D02*
X-95250Y22225D01*
X-107950Y34925D01*
D19*
X-182563Y139700D03*
D20*
X-184150Y138113D01*
X-177570Y76538D02*
X-181424Y72684D01*
X-177570Y89562D02*
X-184150Y96142D01*
X-177570Y89562D02*
X-177570Y76538D01*
X-197191Y72684D02*
X-234950Y34925D01*
X-197191Y72684D02*
X-181424Y72684D01*
X-184150Y96142D02*
X-184150Y138113D01*
D23*
X-25400Y78221D02*
X-16277Y87343D01*
D22*
X-25400Y60325D03*
D23*
X-22298Y70715D02*
X-25400Y73817D01*
X-22298Y70715D02*
X-22298Y63427D01*
X-25400Y60325D01*
X-25400Y73817D02*
X-25400Y78221D01*
X-23349Y132598D02*
X-37760Y147010D01*
X-37760Y147977D01*
D22*
X-37760Y147977D03*
D23*
X18371Y150276D02*
X24036Y155941D01*
X30163Y155941D01*
D22*
X30163Y155941D03*
D23*
X19050Y43474D02*
X19050Y34925D01*
X19050Y43474D02*
X-4240Y66764D01*
X-2135Y73077D02*
X-2135Y73201D01*
X-2135Y73077D02*
X-4240Y70973D01*
X-4240Y66764D01*
X37728Y34925D02*
X44450Y34925D01*
X37728Y34925D02*
X2194Y70459D01*
X1400Y69666D01*
X11300Y69666D02*
X33340Y47625D01*
X57150Y47625D02*
X69850Y34925D01*
X57150Y47625D02*
X33340Y47625D01*
X35649Y52388D02*
X14835Y73201D01*
X77788Y52388D02*
X95250Y34925D01*
X77788Y52388D02*
X35649Y52388D01*
X37957Y57150D02*
X18371Y76737D01*
X114300Y34925D02*
X120650Y34925D01*
X92075Y57150D02*
X37957Y57150D01*
X92075Y57150D02*
X114300Y34925D01*
X40266Y61913D02*
X21906Y80272D01*
X92075Y61913D02*
X100013Y69850D01*
X117475Y69850D01*
X146050Y41275D01*
X146050Y34925D01*
X92075Y61913D02*
X40266Y61913D01*
X42575Y66675D02*
X25442Y83808D01*
X90488Y66675D02*
X98425Y74613D01*
X125413Y74613D02*
X165100Y34925D01*
X171450Y34925D01*
X90488Y66675D02*
X42575Y66675D01*
X98425Y74613D02*
X125413Y74613D01*
X39150Y91313D02*
X36049Y94414D01*
X55334Y91313D02*
X65354Y101334D01*
X55334Y91313D02*
X39150Y91313D01*
X65354Y101334D02*
X79642Y101334D01*
X173038Y84138D02*
X222250Y34925D01*
X96838Y84138D02*
X79642Y101334D01*
X96838Y84138D02*
X173038Y84138D01*
X42665Y94869D02*
X39584Y97950D01*
X42665Y94869D02*
X53861Y94869D01*
X93929Y134938D01*
X165100Y134938D02*
X222250Y192088D01*
X165100Y134938D02*
X93929Y134938D01*
X46180Y98425D02*
X43120Y101485D01*
X46180Y98425D02*
X52388Y98425D01*
X130175Y139700D02*
X170656Y180181D01*
X178594Y180181D01*
X190500Y192088D01*
X196850Y192088D01*
X93663Y139700D02*
X52388Y98425D01*
X93663Y139700D02*
X130175Y139700D01*
X92072Y144463D02*
X66066Y118456D01*
X50191Y118456D01*
X123825Y144463D02*
X171450Y192088D01*
X123825Y144463D02*
X92072Y144463D01*
X89764Y149225D02*
X65705Y125167D01*
X49830Y125167D01*
X46655Y121992D01*
X109538Y149225D02*
X146050Y185738D01*
X146050Y192088D01*
X109538Y149225D02*
X89764Y149225D01*
X96980Y179388D02*
X43120Y125527D01*
X96980Y179388D02*
X101600Y179388D01*
X114300Y192088D01*
X120650Y192088D01*
X95250Y184729D02*
X39584Y129063D01*
X95250Y184729D02*
X95250Y192088D01*
X-2135Y153811D02*
X-27711Y179388D01*
X-44450Y179388D02*
X-57150Y192088D01*
X-44450Y179388D02*
X-27711Y179388D01*
X-30020Y174625D02*
X-5671Y150276D01*
X-65088Y174625D02*
X-82550Y192088D01*
X-65088Y174625D02*
X-30020Y174625D01*
X-32329Y169863D02*
X-9206Y146740D01*
X-85725Y169863D02*
X-107950Y192088D01*
X-85725Y169863D02*
X-32329Y169863D01*
X-34637Y165100D02*
X-12742Y143205D01*
X-106363Y165100D02*
X-133350Y192088D01*
X-106363Y165100D02*
X-34637Y165100D01*
X-36946Y160338D02*
X-16277Y139669D01*
X-127000Y160338D02*
X-158750Y192088D01*
X-127000Y160338D02*
X-36946Y160338D01*
X-32196Y148517D02*
X-19813Y136134D01*
X-32196Y148517D02*
X-32196Y150282D01*
X-37490Y155575D01*
X-147638Y155575D02*
X-184150Y192088D01*
X-147638Y155575D02*
X-37490Y155575D01*
X-27463Y129063D02*
X-26884Y129063D01*
X-168275Y150813D02*
X-209550Y192088D01*
X-49213Y150813D02*
X-27463Y129063D01*
X-49213Y150813D02*
X-168275Y150813D01*
X-50943Y146050D02*
X-30420Y125527D01*
X-179388Y146050D02*
X-225425Y192088D01*
X-234950Y192088D01*
X-179388Y146050D02*
X-50943Y146050D01*
X-30420Y101485D02*
X-33861Y98044D01*
X-62294Y40069D02*
X-57150Y34925D01*
X-45891Y98044D02*
X-33861Y98044D01*
X-45891Y98044D02*
X-62294Y81642D01*
X-62294Y40069D01*
D22*
X73025Y73463D03*
X55794Y73025D03*
D23*
X43296Y73025D02*
X28977Y87343D01*
X43296Y73025D02*
X55794Y73025D01*
D22*
X-184150Y79264D03*
D23*
X-192469Y87583D02*
X-192469Y111125D01*
X-186158Y81272D02*
X-184150Y79264D01*
X-186158Y81272D02*
X-186455Y81272D01*
X-189714Y84531D01*
X-189714Y84828D01*
X-192469Y87583D01*
X-195644Y114300D02*
X-205025Y114300D01*
X-195644Y114300D02*
X-192469Y111125D01*
D22*
X-184150Y86836D03*
D23*
X-188913Y91599D01*
X-197114Y120800D02*
X-205025Y120800D01*
X-197114Y120800D02*
X-188913Y112598D01*
X-188913Y91599D01*
D22*
X30163Y163513D03*
D23*
X26358Y163513D01*
X20068Y169803D01*
X13856Y169803D02*
X1400Y157347D01*
X13856Y169803D02*
X20068Y169803D01*
X29058Y146821D02*
X25442Y143205D01*
X29058Y146821D02*
X33940Y146821D01*
X39688Y152568D01*
X39688Y166885D02*
X28773Y177800D01*
X7938Y177800D02*
X-6350Y192088D01*
X39688Y166885D02*
X39688Y152568D01*
X28773Y177800D02*
X7938Y177800D01*
X32467Y150377D02*
X35727Y153636D01*
X25543Y150377D02*
X21906Y146740D01*
X25543Y150377D02*
X32467Y150377D01*
X35727Y165817D02*
X28185Y173359D01*
X-13021Y173359D02*
X-31750Y192088D01*
X35727Y165817D02*
X35727Y153636D01*
X28185Y173359D02*
X-13021Y173359D01*
D20*
X-195263Y128588D02*
X-196550Y127300D01*
X-205025Y127300D01*
D19*
X-195263Y128588D03*
D22*
X-73025Y93663D03*
D23*
X-68263Y98425D02*
X-68263Y136525D01*
X-68263Y98425D02*
X-73025Y93663D01*
D22*
X-68263Y136525D03*
D23*
X32513Y136134D02*
X36088Y139709D01*
X36886Y139709D01*
X49975Y152797D01*
X49975Y186563D02*
X44450Y192088D01*
X49975Y186563D02*
X49975Y152797D01*
X32573Y143265D02*
X28977Y139669D01*
X32573Y143265D02*
X35413Y143265D01*
X43244Y151095D01*
X43244Y174244D02*
X25400Y192088D01*
X19050Y192088D01*
X43244Y174244D02*
X43244Y151095D01*
X36049Y132598D02*
X69850Y166400D01*
X69850Y192088D01*
X-33955Y105021D02*
X-36582Y102394D01*
X-46831Y102394D01*
X-66675Y82550D02*
X-66675Y50800D01*
X-82550Y34925D01*
X-66675Y82550D02*
X-46831Y102394D01*
X-31171Y93663D02*
X-26884Y97950D01*
X-31171Y93663D02*
X-44450Y93663D01*
X-58738Y79375D01*
X-58738Y55563D01*
X-38100Y34925D01*
X-31750Y34925D01*
D20*
X-37491Y108556D02*
X-51102Y108556D01*
X-52048Y107610D01*
D19*
X-52048Y107610D03*
D20*
X-52048Y105115D01*
X-71438Y85725D01*
X-107950Y85725D01*
X-158750Y34925D01*
D23*
X-5671Y76613D02*
X-5671Y76737D01*
X-5671Y76613D02*
X-8569Y73715D01*
X-8569Y65537D01*
X-6342Y63310D01*
X-6342Y34933D01*
X-6350Y34925D01*
X58738Y87313D02*
X68263Y96838D01*
X77788Y96838D01*
X95250Y79375D01*
X133350Y79375D02*
X165894Y46831D01*
X178594Y46831D01*
X190500Y34925D01*
X196850Y34925D01*
X133350Y79375D02*
X95250Y79375D01*
X36079Y87313D02*
X32513Y90879D01*
X36079Y87313D02*
X58738Y87313D01*
M02*
