G04 EAGLE Gerber RS-274X export*
G75*
%MOMM*%
%FSLAX34Y34*%
%LPD*%
%INTop Copper*%
%IPPOS*%
%AMOC8*
5,1,8,0,0,1.08239X$1,22.5*%
G01*
%ADD10R,0.800000X0.800000*%
%ADD11R,1.000000X1.100000*%
%ADD12R,1.100000X1.000000*%
%ADD13C,0.499997*%
%ADD14C,1.000000*%
%ADD15R,1.500000X1.300000*%
%ADD16R,2.200000X1.100000*%
%ADD17R,1.530000X1.530000*%
%ADD18C,1.530000*%
%ADD19R,1.600200X0.838200*%
%ADD20R,1.600200X3.098800*%
%ADD21R,0.400000X1.350000*%
%ADD22R,1.600000X1.400000*%
%ADD23R,1.450000X1.300000*%
%ADD24R,1.900000X1.900000*%
%ADD25C,0.756400*%
%ADD26C,0.254000*%
%ADD27C,1.270000*%
%ADD28C,0.812800*%
%ADD29C,0.304800*%

G36*
X278630Y195708D02*
X278630Y195708D01*
X278658Y195706D01*
X278726Y195728D01*
X278797Y195742D01*
X278820Y195758D01*
X278847Y195767D01*
X278902Y195814D01*
X278961Y195855D01*
X278976Y195879D01*
X278998Y195897D01*
X279029Y195962D01*
X279068Y196022D01*
X279073Y196050D01*
X279085Y196076D01*
X279094Y196177D01*
X279101Y196219D01*
X279099Y196229D01*
X279100Y196242D01*
X278982Y197719D01*
X413422Y197719D01*
X413304Y196242D01*
X413308Y196213D01*
X413303Y196185D01*
X413320Y196116D01*
X413328Y196044D01*
X413343Y196020D01*
X413349Y195992D01*
X413392Y195934D01*
X413428Y195872D01*
X413450Y195855D01*
X413467Y195832D01*
X413529Y195795D01*
X413586Y195752D01*
X413614Y195745D01*
X413638Y195730D01*
X413738Y195714D01*
X413779Y195703D01*
X413789Y195705D01*
X413802Y195703D01*
X432802Y195703D01*
X432878Y195718D01*
X432956Y195727D01*
X432975Y195738D01*
X432997Y195742D01*
X433061Y195786D01*
X433129Y195825D01*
X433145Y195844D01*
X433161Y195855D01*
X433185Y195893D01*
X433235Y195953D01*
X442735Y212453D01*
X442744Y212480D01*
X442760Y212504D01*
X442775Y212574D01*
X442798Y212642D01*
X442795Y212670D01*
X442801Y212698D01*
X442788Y212769D01*
X442782Y212840D01*
X442769Y212865D01*
X442763Y212893D01*
X442723Y212953D01*
X442690Y213016D01*
X442668Y213034D01*
X442652Y213058D01*
X442569Y213116D01*
X442537Y213143D01*
X442526Y213146D01*
X442516Y213153D01*
X441197Y213777D01*
X460088Y246497D01*
X460115Y246579D01*
X460147Y246660D01*
X460147Y246674D01*
X460152Y246687D01*
X460145Y246774D01*
X460144Y246860D01*
X460138Y246873D01*
X460137Y246887D01*
X460098Y246964D01*
X460062Y247044D01*
X460052Y247054D01*
X460046Y247066D01*
X460003Y247101D01*
X459934Y247170D01*
X458814Y247933D01*
X458749Y247960D01*
X458687Y247995D01*
X458655Y248000D01*
X458629Y248011D01*
X458577Y248011D01*
X458509Y248021D01*
X458503Y248020D01*
X458028Y248462D01*
X457998Y248480D01*
X457968Y248509D01*
X457432Y248874D01*
X457431Y248880D01*
X457404Y248945D01*
X457386Y249013D01*
X457366Y249039D01*
X457356Y249065D01*
X457319Y249102D01*
X457278Y249157D01*
X455539Y250770D01*
X455479Y250806D01*
X455423Y250850D01*
X455392Y250860D01*
X455368Y250874D01*
X455317Y250882D01*
X455250Y250902D01*
X455245Y250902D01*
X454840Y251410D01*
X454814Y251432D01*
X454789Y251465D01*
X454313Y251906D01*
X454313Y251912D01*
X454296Y251980D01*
X454288Y252051D01*
X454272Y252079D01*
X454266Y252107D01*
X454235Y252148D01*
X454202Y252209D01*
X452723Y254063D01*
X452669Y254108D01*
X452621Y254159D01*
X452591Y254173D01*
X452570Y254191D01*
X452520Y254207D01*
X452458Y254236D01*
X452452Y254238D01*
X452128Y254800D01*
X452105Y254826D01*
X452085Y254862D01*
X451680Y255369D01*
X451681Y255375D01*
X451675Y255445D01*
X451677Y255516D01*
X451666Y255547D01*
X451664Y255575D01*
X451640Y255620D01*
X451616Y255685D01*
X450430Y257739D01*
X450383Y257792D01*
X450343Y257850D01*
X450316Y257868D01*
X450297Y257889D01*
X450251Y257911D01*
X450193Y257950D01*
X450188Y257952D01*
X449951Y258556D01*
X449932Y258585D01*
X449918Y258624D01*
X449593Y259186D01*
X449595Y259191D01*
X449599Y259262D01*
X449612Y259331D01*
X449606Y259363D01*
X449607Y259391D01*
X449590Y259440D01*
X449577Y259508D01*
X448710Y261715D01*
X448672Y261774D01*
X448641Y261838D01*
X448616Y261860D01*
X448601Y261884D01*
X448559Y261913D01*
X448507Y261959D01*
X448503Y261962D01*
X448358Y262595D01*
X448344Y262626D01*
X448336Y262667D01*
X448099Y263271D01*
X448101Y263276D01*
X448116Y263345D01*
X448139Y263412D01*
X448137Y263445D01*
X448143Y263472D01*
X448133Y263523D01*
X448130Y263592D01*
X447602Y265904D01*
X447573Y265968D01*
X447552Y266035D01*
X447531Y266061D01*
X447519Y266086D01*
X447482Y266121D01*
X447438Y266175D01*
X447434Y266179D01*
X447385Y266826D01*
X447376Y266859D01*
X447374Y266901D01*
X447229Y267533D01*
X447232Y267538D01*
X447257Y267604D01*
X447290Y267667D01*
X447293Y267699D01*
X447303Y267726D01*
X447301Y267777D01*
X447308Y267846D01*
X447131Y270211D01*
X447111Y270278D01*
X447101Y270348D01*
X447084Y270377D01*
X447076Y270404D01*
X447044Y270444D01*
X447009Y270504D01*
X447005Y270508D01*
X447054Y271155D01*
X447049Y271189D01*
X447054Y271231D01*
X447005Y271878D01*
X447009Y271882D01*
X447043Y271943D01*
X447085Y272000D01*
X447093Y272032D01*
X447107Y272057D01*
X447113Y272108D01*
X447130Y272175D01*
X447306Y274540D01*
X447298Y274610D01*
X447297Y274680D01*
X447285Y274711D01*
X447281Y274739D01*
X447256Y274783D01*
X447230Y274847D01*
X447227Y274852D01*
X447371Y275485D01*
X447372Y275519D01*
X447382Y275560D01*
X447431Y276207D01*
X447435Y276210D01*
X447478Y276266D01*
X447528Y276316D01*
X447541Y276346D01*
X447558Y276369D01*
X447571Y276419D01*
X447598Y276482D01*
X448125Y278794D01*
X448127Y278864D01*
X448132Y278889D01*
X448131Y278891D01*
X448137Y278935D01*
X448130Y278966D01*
X448130Y278994D01*
X448112Y279043D01*
X448096Y279110D01*
X448093Y279115D01*
X448330Y279719D01*
X448336Y279753D01*
X448353Y279791D01*
X448497Y280424D01*
X448502Y280427D01*
X448553Y280476D01*
X448609Y280518D01*
X448626Y280546D01*
X448647Y280565D01*
X448667Y280612D01*
X448704Y280671D01*
X449569Y282879D01*
X449582Y282949D01*
X449602Y283016D01*
X449599Y283049D01*
X449604Y283076D01*
X449593Y283127D01*
X449587Y283196D01*
X449586Y283201D01*
X449910Y283763D01*
X449921Y283796D01*
X449943Y283831D01*
X450180Y284435D01*
X450185Y284438D01*
X450243Y284478D01*
X450305Y284511D01*
X450326Y284536D01*
X450349Y284553D01*
X450376Y284596D01*
X450421Y284649D01*
X451606Y286703D01*
X451629Y286770D01*
X451659Y286834D01*
X451661Y286866D01*
X451670Y286893D01*
X451666Y286944D01*
X451671Y287014D01*
X451670Y287019D01*
X452075Y287526D01*
X452091Y287557D01*
X452117Y287589D01*
X452442Y288151D01*
X452447Y288153D01*
X452510Y288184D01*
X452577Y288208D01*
X452601Y288229D01*
X452626Y288242D01*
X452660Y288281D01*
X452712Y288326D01*
X454190Y290181D01*
X454222Y290244D01*
X454262Y290302D01*
X454269Y290334D01*
X454282Y290359D01*
X454286Y290411D01*
X454300Y290478D01*
X454300Y290484D01*
X454776Y290925D01*
X454796Y290953D01*
X454828Y290981D01*
X455232Y291488D01*
X455237Y291489D01*
X455305Y291510D01*
X455374Y291524D01*
X455402Y291542D01*
X455428Y291550D01*
X455467Y291584D01*
X455526Y291621D01*
X457263Y293235D01*
X457305Y293292D01*
X457352Y293344D01*
X457364Y293375D01*
X457380Y293397D01*
X457392Y293448D01*
X457417Y293512D01*
X457418Y293518D01*
X457954Y293883D01*
X457978Y293908D01*
X458013Y293931D01*
X458489Y294372D01*
X458494Y294372D01*
X458564Y294383D01*
X458634Y294386D01*
X458664Y294400D01*
X458692Y294404D01*
X458736Y294432D01*
X458799Y294460D01*
X460758Y295796D01*
X460807Y295847D01*
X460862Y295891D01*
X460878Y295920D01*
X460898Y295940D01*
X460917Y295988D01*
X460951Y296048D01*
X460952Y296053D01*
X461537Y296335D01*
X461565Y296356D01*
X461603Y296373D01*
X462139Y296739D01*
X462144Y296738D01*
X462215Y296738D01*
X462285Y296731D01*
X462316Y296740D01*
X462344Y296740D01*
X462392Y296761D01*
X462458Y296779D01*
X464595Y297809D01*
X464651Y297851D01*
X464712Y297887D01*
X464732Y297913D01*
X464754Y297930D01*
X464780Y297974D01*
X464823Y298029D01*
X464825Y298034D01*
X465446Y298225D01*
X465476Y298242D01*
X465516Y298253D01*
X466101Y298534D01*
X466106Y298533D01*
X466176Y298523D01*
X466244Y298505D01*
X466277Y298509D01*
X466304Y298505D01*
X466354Y298518D01*
X466423Y298527D01*
X468689Y299226D01*
X468751Y299260D01*
X468816Y299286D01*
X468840Y299309D01*
X468865Y299322D01*
X468897Y299363D01*
X468947Y299410D01*
X468950Y299415D01*
X469592Y299511D01*
X469625Y299523D01*
X469666Y299528D01*
X470286Y299720D01*
X470291Y299717D01*
X470313Y299711D01*
X470317Y299708D01*
X470330Y299706D01*
X470359Y299697D01*
X470423Y299669D01*
X470456Y299668D01*
X470483Y299660D01*
X470534Y299666D01*
X470604Y299664D01*
X472948Y300018D01*
X473015Y300043D01*
X473083Y300059D01*
X473110Y300077D01*
X473137Y300087D01*
X473175Y300122D01*
X473231Y300161D01*
X473235Y300165D01*
X473884Y300165D01*
X473918Y300172D01*
X473960Y300171D01*
X474294Y300222D01*
X474358Y300245D01*
X474424Y300260D01*
X474451Y300279D01*
X474482Y300290D01*
X474532Y300336D01*
X474587Y300376D01*
X474605Y300404D01*
X474629Y300426D01*
X474657Y300488D01*
X474693Y300546D01*
X474700Y300581D01*
X474712Y300609D01*
X474714Y300659D01*
X474725Y300723D01*
X474725Y301023D01*
X474724Y301031D01*
X474725Y301038D01*
X474704Y301128D01*
X474686Y301219D01*
X474681Y301226D01*
X474679Y301233D01*
X474577Y301381D01*
X472213Y303745D01*
X472213Y308141D01*
X475322Y311250D01*
X479718Y311250D01*
X482827Y308141D01*
X482827Y303745D01*
X480463Y301381D01*
X480459Y301375D01*
X480453Y301370D01*
X480404Y301292D01*
X480352Y301214D01*
X480351Y301207D01*
X480347Y301200D01*
X480315Y301023D01*
X480315Y300295D01*
X480328Y300228D01*
X480333Y300160D01*
X480348Y300131D01*
X480354Y300099D01*
X480393Y300042D01*
X480423Y299981D01*
X480448Y299960D01*
X480467Y299933D01*
X480524Y299896D01*
X480576Y299851D01*
X480610Y299840D01*
X480635Y299823D01*
X480684Y299815D01*
X480747Y299793D01*
X481582Y299668D01*
X481653Y299671D01*
X481723Y299666D01*
X481754Y299676D01*
X481782Y299678D01*
X481829Y299700D01*
X481874Y299714D01*
X481880Y299716D01*
X481883Y299717D01*
X481895Y299721D01*
X481900Y299724D01*
X482520Y299532D01*
X482554Y299529D01*
X482594Y299516D01*
X483235Y299419D01*
X483239Y299415D01*
X483291Y299367D01*
X483337Y299314D01*
X483366Y299299D01*
X483387Y299280D01*
X483436Y299263D01*
X483497Y299231D01*
X485764Y298533D01*
X485834Y298526D01*
X485903Y298511D01*
X485935Y298516D01*
X485963Y298513D01*
X486012Y298528D01*
X486081Y298539D01*
X486086Y298541D01*
X486671Y298259D01*
X486704Y298251D01*
X486741Y298232D01*
X487361Y298041D01*
X487364Y298036D01*
X487409Y297981D01*
X487446Y297922D01*
X487473Y297902D01*
X487491Y297881D01*
X487536Y297857D01*
X487592Y297816D01*
X488830Y297220D01*
X488914Y297199D01*
X488997Y297173D01*
X489011Y297174D01*
X489024Y297171D01*
X489110Y297184D01*
X489196Y297192D01*
X489209Y297198D01*
X489223Y297200D01*
X489297Y297245D01*
X489373Y297286D01*
X489383Y297298D01*
X489394Y297305D01*
X489427Y297349D01*
X489489Y297424D01*
X508381Y330145D01*
X509618Y329291D01*
X509645Y329280D01*
X509667Y329261D01*
X509736Y329241D01*
X509801Y329213D01*
X509830Y329213D01*
X509858Y329205D01*
X509929Y329213D01*
X510000Y329213D01*
X510027Y329224D01*
X510056Y329227D01*
X510118Y329262D01*
X510183Y329290D01*
X510204Y329310D01*
X510229Y329325D01*
X510292Y329402D01*
X510322Y329432D01*
X510326Y329442D01*
X510335Y329453D01*
X519835Y345953D01*
X519845Y345985D01*
X519854Y345998D01*
X519858Y346022D01*
X519859Y346026D01*
X519890Y346096D01*
X519890Y346120D01*
X519898Y346142D01*
X519892Y346218D01*
X519893Y346295D01*
X519883Y346319D01*
X519882Y346340D01*
X519861Y346379D01*
X519835Y346451D01*
X510335Y362951D01*
X510316Y362973D01*
X510303Y362999D01*
X510250Y363047D01*
X510203Y363100D01*
X510177Y363113D01*
X510156Y363132D01*
X510088Y363155D01*
X510024Y363186D01*
X509995Y363188D01*
X509968Y363197D01*
X509896Y363192D01*
X509825Y363195D01*
X509798Y363185D01*
X509769Y363183D01*
X509679Y363141D01*
X509639Y363126D01*
X509631Y363119D01*
X509618Y363113D01*
X508381Y362259D01*
X489489Y394980D01*
X489432Y395045D01*
X489378Y395113D01*
X489366Y395120D01*
X489357Y395131D01*
X489279Y395168D01*
X489203Y395210D01*
X489189Y395212D01*
X489176Y395218D01*
X489090Y395222D01*
X489004Y395232D01*
X488989Y395228D01*
X488976Y395228D01*
X488924Y395210D01*
X488830Y395184D01*
X487592Y394588D01*
X487536Y394545D01*
X487475Y394510D01*
X487455Y394484D01*
X487432Y394467D01*
X487406Y394422D01*
X487364Y394368D01*
X487361Y394363D01*
X486741Y394172D01*
X486711Y394156D01*
X486671Y394145D01*
X486086Y393863D01*
X486081Y393865D01*
X486011Y393875D01*
X485942Y393893D01*
X485910Y393889D01*
X485882Y393893D01*
X485832Y393879D01*
X485764Y393871D01*
X483497Y393173D01*
X483435Y393139D01*
X483370Y393113D01*
X483346Y393090D01*
X483321Y393077D01*
X483289Y393037D01*
X483239Y392989D01*
X483235Y392985D01*
X482594Y392888D01*
X482561Y392877D01*
X482520Y392872D01*
X481900Y392680D01*
X481895Y392683D01*
X481827Y392703D01*
X481762Y392731D01*
X481730Y392732D01*
X481703Y392740D01*
X481651Y392734D01*
X481582Y392736D01*
X479237Y392384D01*
X479171Y392360D01*
X479102Y392343D01*
X479075Y392325D01*
X479049Y392315D01*
X479011Y392280D01*
X478954Y392241D01*
X478950Y392237D01*
X478301Y392237D01*
X478267Y392230D01*
X478226Y392231D01*
X477584Y392135D01*
X477580Y392138D01*
X477516Y392168D01*
X477456Y392205D01*
X477423Y392211D01*
X477398Y392223D01*
X477346Y392225D01*
X477278Y392237D01*
X474907Y392238D01*
X474838Y392224D01*
X474767Y392219D01*
X474738Y392204D01*
X474711Y392199D01*
X474668Y392170D01*
X474606Y392139D01*
X474601Y392136D01*
X473960Y392233D01*
X473925Y392231D01*
X473884Y392239D01*
X473235Y392239D01*
X473231Y392243D01*
X473173Y392282D01*
X473119Y392327D01*
X473088Y392338D01*
X473064Y392354D01*
X473014Y392363D01*
X472948Y392386D01*
X472488Y392455D01*
X472444Y392453D01*
X472402Y392461D01*
X472345Y392448D01*
X472288Y392445D01*
X472248Y392427D01*
X472206Y392417D01*
X472159Y392384D01*
X472107Y392359D01*
X472078Y392326D01*
X472043Y392301D01*
X472012Y392252D01*
X471974Y392209D01*
X471960Y392168D01*
X471937Y392131D01*
X471925Y392066D01*
X471909Y392019D01*
X471911Y391989D01*
X471905Y391954D01*
X471905Y387565D01*
X468796Y384456D01*
X464400Y384456D01*
X462036Y386820D01*
X462030Y386824D01*
X462025Y386830D01*
X461947Y386879D01*
X461869Y386931D01*
X461862Y386932D01*
X461855Y386936D01*
X461678Y386968D01*
X454644Y386968D01*
X454636Y386967D01*
X454628Y386968D01*
X454538Y386947D01*
X454447Y386929D01*
X454441Y386924D01*
X454433Y386922D01*
X454285Y386820D01*
X428780Y361314D01*
X386682Y361314D01*
X386674Y361313D01*
X386667Y361314D01*
X386577Y361293D01*
X386486Y361275D01*
X386479Y361270D01*
X386472Y361268D01*
X386324Y361166D01*
X383960Y358802D01*
X379564Y358802D01*
X376455Y361911D01*
X376455Y366307D01*
X377963Y367814D01*
X377964Y367817D01*
X377966Y367818D01*
X378019Y367899D01*
X378073Y367981D01*
X378074Y367984D01*
X378075Y367986D01*
X378093Y368082D01*
X378111Y368178D01*
X378111Y368181D01*
X378111Y368183D01*
X378090Y368280D01*
X378069Y368374D01*
X378068Y368376D01*
X378067Y368379D01*
X378011Y368459D01*
X377955Y368539D01*
X377953Y368540D01*
X377951Y368542D01*
X377867Y368595D01*
X377786Y368646D01*
X377783Y368647D01*
X377781Y368648D01*
X377604Y368680D01*
X373111Y368680D01*
X371962Y369830D01*
X371955Y369834D01*
X371951Y369840D01*
X371872Y369889D01*
X371795Y369941D01*
X371787Y369942D01*
X371781Y369946D01*
X371603Y369978D01*
X368261Y369978D01*
X365152Y373087D01*
X365152Y377483D01*
X368261Y380592D01*
X372657Y380592D01*
X375766Y377483D01*
X375766Y374777D01*
X375767Y374772D01*
X375766Y374767D01*
X375787Y374674D01*
X375805Y374580D01*
X375808Y374576D01*
X375809Y374571D01*
X375865Y374493D01*
X375918Y374415D01*
X375922Y374412D01*
X375925Y374408D01*
X376007Y374357D01*
X376086Y374305D01*
X376091Y374305D01*
X376096Y374302D01*
X376273Y374270D01*
X422507Y374270D01*
X422515Y374271D01*
X422523Y374270D01*
X422613Y374291D01*
X422704Y374309D01*
X422710Y374314D01*
X422718Y374316D01*
X422866Y374418D01*
X452261Y403813D01*
X452262Y403814D01*
X452274Y403833D01*
X452283Y403847D01*
X452313Y403874D01*
X452338Y403929D01*
X452372Y403980D01*
X452380Y404020D01*
X452396Y404056D01*
X452398Y404117D01*
X452410Y404177D01*
X452401Y404216D01*
X452403Y404256D01*
X452379Y404322D01*
X452368Y404373D01*
X452353Y404396D01*
X452342Y404426D01*
X452117Y404815D01*
X452094Y404841D01*
X452075Y404878D01*
X451670Y405385D01*
X451671Y405390D01*
X451665Y405461D01*
X451667Y405531D01*
X451656Y405562D01*
X451654Y405590D01*
X451630Y405636D01*
X451606Y405701D01*
X450421Y407755D01*
X450374Y407808D01*
X450334Y407866D01*
X450307Y407884D01*
X450289Y407905D01*
X450242Y407928D01*
X450185Y407966D01*
X450180Y407969D01*
X449943Y408573D01*
X449924Y408602D01*
X449910Y408641D01*
X449586Y409203D01*
X449587Y409208D01*
X449592Y409279D01*
X449604Y409348D01*
X449598Y409380D01*
X449600Y409408D01*
X449583Y409457D01*
X449569Y409525D01*
X448704Y411733D01*
X448666Y411792D01*
X448635Y411855D01*
X448610Y411878D01*
X448595Y411901D01*
X448553Y411930D01*
X448502Y411977D01*
X448497Y411980D01*
X448353Y412613D01*
X448338Y412644D01*
X448330Y412685D01*
X448093Y413289D01*
X448096Y413294D01*
X448111Y413363D01*
X448134Y413430D01*
X448132Y413463D01*
X448138Y413490D01*
X448129Y413541D01*
X448125Y413610D01*
X447598Y415922D01*
X447570Y415986D01*
X447548Y416054D01*
X447528Y416079D01*
X447516Y416105D01*
X447478Y416140D01*
X447435Y416194D01*
X447431Y416197D01*
X447382Y416844D01*
X447373Y416878D01*
X447371Y416919D01*
X447227Y417552D01*
X447230Y417557D01*
X447255Y417623D01*
X447288Y417685D01*
X447291Y417718D01*
X447301Y417744D01*
X447299Y417796D01*
X447306Y417864D01*
X447130Y420229D01*
X447111Y420297D01*
X447100Y420367D01*
X447083Y420395D01*
X447076Y420422D01*
X447044Y420462D01*
X447009Y420522D01*
X447005Y420526D01*
X447054Y421173D01*
X447049Y421208D01*
X447054Y421249D01*
X447005Y421896D01*
X447009Y421900D01*
X447044Y421962D01*
X447085Y422019D01*
X447094Y422051D01*
X447107Y422075D01*
X447113Y422127D01*
X447131Y422193D01*
X447308Y424558D01*
X447300Y424628D01*
X447299Y424699D01*
X447287Y424729D01*
X447284Y424757D01*
X447258Y424802D01*
X447232Y424866D01*
X447229Y424871D01*
X447374Y425503D01*
X447375Y425538D01*
X447385Y425578D01*
X447434Y426225D01*
X447438Y426229D01*
X447482Y426285D01*
X447531Y426335D01*
X447544Y426365D01*
X447561Y426387D01*
X447575Y426437D01*
X447602Y426500D01*
X448130Y428812D01*
X448132Y428883D01*
X448142Y428953D01*
X448135Y428984D01*
X448135Y429012D01*
X448117Y429061D01*
X448101Y429128D01*
X448099Y429133D01*
X448336Y429737D01*
X448342Y429771D01*
X448358Y429809D01*
X448503Y430442D01*
X448507Y430445D01*
X448559Y430493D01*
X448615Y430536D01*
X448632Y430563D01*
X448653Y430583D01*
X448674Y430630D01*
X448710Y430689D01*
X449577Y432896D01*
X449589Y432966D01*
X449610Y433033D01*
X449607Y433066D01*
X449612Y433093D01*
X449601Y433144D01*
X449595Y433213D01*
X449593Y433218D01*
X449918Y433780D01*
X449929Y433813D01*
X449951Y433848D01*
X450188Y434452D01*
X450193Y434454D01*
X450251Y434495D01*
X450313Y434528D01*
X450335Y434553D01*
X450358Y434569D01*
X450385Y434613D01*
X450430Y434665D01*
X451616Y436719D01*
X451639Y436786D01*
X451669Y436849D01*
X451671Y436882D01*
X451680Y436909D01*
X451676Y436960D01*
X451681Y437029D01*
X451680Y437035D01*
X452085Y437542D01*
X452101Y437573D01*
X452128Y437604D01*
X452452Y438166D01*
X452458Y438168D01*
X452502Y438190D01*
X452527Y438195D01*
X452547Y438208D01*
X452588Y438223D01*
X452612Y438244D01*
X452637Y438257D01*
X452665Y438288D01*
X452693Y438307D01*
X452704Y438324D01*
X452723Y438341D01*
X454202Y440195D01*
X454234Y440258D01*
X454274Y440316D01*
X454281Y440348D01*
X454294Y440373D01*
X454298Y440425D01*
X454313Y440492D01*
X454313Y440498D01*
X454789Y440939D01*
X454809Y440967D01*
X454840Y440994D01*
X455245Y441502D01*
X455250Y441502D01*
X455318Y441524D01*
X455387Y441537D01*
X455415Y441555D01*
X455441Y441564D01*
X455481Y441597D01*
X455539Y441634D01*
X457278Y443247D01*
X457319Y443304D01*
X457367Y443356D01*
X457378Y443387D01*
X457395Y443409D01*
X457406Y443460D01*
X457431Y443524D01*
X457432Y443530D01*
X457968Y443895D01*
X457993Y443920D01*
X458028Y443942D01*
X458503Y444384D01*
X458509Y444383D01*
X458579Y444395D01*
X458649Y444398D01*
X458679Y444411D01*
X458707Y444415D01*
X458751Y444443D01*
X458814Y444471D01*
X459934Y445234D01*
X459994Y445296D01*
X460058Y445355D01*
X460064Y445368D01*
X460074Y445378D01*
X460106Y445458D01*
X460142Y445537D01*
X460143Y445551D01*
X460148Y445564D01*
X460146Y445651D01*
X460149Y445737D01*
X460144Y445751D01*
X460143Y445764D01*
X460121Y445815D01*
X460088Y445907D01*
X441197Y478627D01*
X442516Y479251D01*
X442538Y479268D01*
X442565Y479278D01*
X442617Y479327D01*
X442675Y479370D01*
X442689Y479395D01*
X442710Y479414D01*
X442739Y479480D01*
X442775Y479542D01*
X442778Y479570D01*
X442790Y479596D01*
X442791Y479668D01*
X442800Y479739D01*
X442792Y479766D01*
X442793Y479795D01*
X442757Y479890D01*
X442746Y479930D01*
X442739Y479939D01*
X442735Y479951D01*
X433235Y496451D01*
X433183Y496510D01*
X433137Y496572D01*
X433118Y496583D01*
X433103Y496600D01*
X433033Y496634D01*
X432966Y496674D01*
X432942Y496678D01*
X432924Y496686D01*
X432879Y496688D01*
X432802Y496701D01*
X413802Y496701D01*
X413774Y496696D01*
X413746Y496698D01*
X413678Y496676D01*
X413607Y496662D01*
X413584Y496646D01*
X413557Y496637D01*
X413502Y496590D01*
X413443Y496549D01*
X413428Y496525D01*
X413407Y496507D01*
X413375Y496442D01*
X413336Y496382D01*
X413331Y496354D01*
X413319Y496328D01*
X413310Y496227D01*
X413303Y496185D01*
X413305Y496175D01*
X413304Y496162D01*
X413422Y494685D01*
X375589Y494685D01*
X375504Y494668D01*
X375419Y494656D01*
X375407Y494648D01*
X375393Y494646D01*
X375321Y494597D01*
X375247Y494552D01*
X375239Y494541D01*
X375227Y494533D01*
X375180Y494461D01*
X375129Y494390D01*
X375125Y494376D01*
X375118Y494365D01*
X375108Y494310D01*
X375084Y494216D01*
X374982Y492857D01*
X374991Y492787D01*
X374991Y492717D01*
X375003Y492686D01*
X375007Y492658D01*
X375032Y492614D01*
X375058Y492550D01*
X375061Y492545D01*
X374917Y491912D01*
X374916Y491878D01*
X374905Y491837D01*
X374857Y491190D01*
X374853Y491187D01*
X374809Y491131D01*
X374760Y491081D01*
X374747Y491051D01*
X374730Y491029D01*
X374716Y490979D01*
X374689Y490915D01*
X374162Y488605D01*
X374160Y488535D01*
X374150Y488465D01*
X374157Y488433D01*
X374157Y488405D01*
X374175Y488357D01*
X374191Y488290D01*
X374194Y488285D01*
X373957Y487681D01*
X373950Y487646D01*
X373934Y487608D01*
X373790Y486975D01*
X373785Y486973D01*
X373734Y486924D01*
X373677Y486882D01*
X373660Y486854D01*
X373640Y486834D01*
X373619Y486787D01*
X373583Y486728D01*
X372717Y484523D01*
X372705Y484453D01*
X372685Y484386D01*
X372687Y484353D01*
X372682Y484326D01*
X372694Y484275D01*
X372700Y484206D01*
X372701Y484201D01*
X372377Y483639D01*
X372365Y483606D01*
X372344Y483571D01*
X372107Y482967D01*
X372101Y482965D01*
X372044Y482924D01*
X371981Y482891D01*
X371960Y482866D01*
X371937Y482850D01*
X371910Y482806D01*
X371865Y482753D01*
X370680Y480702D01*
X370658Y480635D01*
X370628Y480571D01*
X370625Y480538D01*
X370617Y480512D01*
X370620Y480460D01*
X370616Y480391D01*
X370616Y480386D01*
X370212Y479878D01*
X370196Y479847D01*
X370169Y479816D01*
X369845Y479254D01*
X369839Y479252D01*
X369776Y479221D01*
X369710Y479197D01*
X369685Y479176D01*
X369660Y479163D01*
X369626Y479124D01*
X369590Y479092D01*
X369587Y479090D01*
X369586Y479089D01*
X369574Y479079D01*
X368097Y477226D01*
X368065Y477164D01*
X368025Y477105D01*
X368018Y477073D01*
X368005Y477048D01*
X368001Y476997D01*
X367987Y476929D01*
X367986Y476924D01*
X367511Y476482D01*
X367490Y476454D01*
X367459Y476427D01*
X367055Y475919D01*
X367049Y475919D01*
X366982Y475897D01*
X366913Y475884D01*
X366885Y475866D01*
X366858Y475857D01*
X366819Y475824D01*
X366761Y475786D01*
X365024Y474175D01*
X364983Y474118D01*
X364935Y474066D01*
X364923Y474035D01*
X364907Y474012D01*
X364895Y473962D01*
X364871Y473897D01*
X364870Y473892D01*
X364334Y473527D01*
X364309Y473502D01*
X364274Y473479D01*
X363799Y473038D01*
X363793Y473038D01*
X363724Y473027D01*
X363653Y473024D01*
X363623Y473010D01*
X363595Y473006D01*
X363552Y472979D01*
X363488Y472950D01*
X361531Y471616D01*
X361482Y471565D01*
X361427Y471521D01*
X361410Y471492D01*
X361391Y471472D01*
X361372Y471424D01*
X361338Y471364D01*
X361336Y471359D01*
X360751Y471077D01*
X360724Y471056D01*
X360686Y471039D01*
X360150Y470674D01*
X360144Y470675D01*
X360074Y470674D01*
X360003Y470682D01*
X359972Y470673D01*
X359944Y470673D01*
X359897Y470652D01*
X359830Y470634D01*
X357695Y469606D01*
X357639Y469563D01*
X357578Y469527D01*
X357558Y469502D01*
X357536Y469485D01*
X357510Y469440D01*
X357467Y469386D01*
X357464Y469381D01*
X356844Y469190D01*
X356814Y469173D01*
X356774Y469162D01*
X356189Y468880D01*
X356184Y468882D01*
X356114Y468892D01*
X356046Y468910D01*
X356013Y468906D01*
X355985Y468910D01*
X355935Y468896D01*
X355867Y468888D01*
X353603Y468190D01*
X353541Y468156D01*
X353475Y468130D01*
X353452Y468107D01*
X353427Y468094D01*
X353395Y468054D01*
X353344Y468006D01*
X353341Y468002D01*
X352700Y467905D01*
X352667Y467893D01*
X352626Y467888D01*
X352005Y467697D01*
X352001Y467700D01*
X351933Y467720D01*
X351868Y467747D01*
X351835Y467748D01*
X351808Y467756D01*
X351757Y467751D01*
X351688Y467753D01*
X349345Y467400D01*
X349279Y467375D01*
X349210Y467359D01*
X349183Y467341D01*
X349157Y467331D01*
X349119Y467296D01*
X349062Y467257D01*
X349058Y467253D01*
X348409Y467253D01*
X348375Y467246D01*
X348334Y467247D01*
X347692Y467150D01*
X347688Y467154D01*
X347624Y467183D01*
X347564Y467221D01*
X347532Y467227D01*
X347506Y467238D01*
X347455Y467240D01*
X347387Y467253D01*
X345017Y467253D01*
X344948Y467239D01*
X344878Y467233D01*
X344848Y467219D01*
X344821Y467213D01*
X344778Y467184D01*
X344716Y467154D01*
X344712Y467150D01*
X344070Y467247D01*
X344035Y467245D01*
X343995Y467253D01*
X343346Y467253D01*
X343342Y467257D01*
X343283Y467296D01*
X343229Y467342D01*
X343198Y467352D01*
X343175Y467368D01*
X343124Y467377D01*
X343059Y467400D01*
X340716Y467753D01*
X340645Y467749D01*
X340575Y467754D01*
X340544Y467744D01*
X340516Y467743D01*
X340469Y467720D01*
X340403Y467700D01*
X340399Y467697D01*
X339778Y467888D01*
X339744Y467892D01*
X339704Y467905D01*
X339063Y468002D01*
X339060Y468006D01*
X339007Y468054D01*
X338961Y468107D01*
X338932Y468122D01*
X338911Y468141D01*
X338862Y468158D01*
X338801Y468190D01*
X337727Y468521D01*
X337644Y468529D01*
X337562Y468543D01*
X337545Y468539D01*
X337528Y468541D01*
X337448Y468517D01*
X337367Y468498D01*
X337352Y468487D01*
X337336Y468482D01*
X337293Y468446D01*
X337219Y468395D01*
X337052Y468228D01*
X337048Y468221D01*
X337042Y468217D01*
X336993Y468138D01*
X336941Y468061D01*
X336940Y468053D01*
X336936Y468047D01*
X336904Y467869D01*
X336904Y464527D01*
X333795Y461418D01*
X329399Y461418D01*
X326290Y464527D01*
X326290Y468923D01*
X329316Y471949D01*
X329346Y471993D01*
X329382Y472031D01*
X329400Y472076D01*
X329427Y472116D01*
X329437Y472168D01*
X329457Y472217D01*
X329456Y472265D01*
X329465Y472313D01*
X329454Y472365D01*
X329453Y472417D01*
X329433Y472462D01*
X329423Y472509D01*
X329393Y472552D01*
X329372Y472601D01*
X329334Y472638D01*
X329309Y472674D01*
X329276Y472694D01*
X329243Y472727D01*
X328916Y472950D01*
X328851Y472978D01*
X328789Y473013D01*
X328757Y473017D01*
X328731Y473028D01*
X328679Y473028D01*
X328611Y473038D01*
X328605Y473038D01*
X328130Y473479D01*
X328100Y473497D01*
X328070Y473527D01*
X327534Y473892D01*
X327533Y473897D01*
X327507Y473963D01*
X327488Y474031D01*
X327468Y474057D01*
X327458Y474083D01*
X327421Y474120D01*
X327380Y474175D01*
X325643Y475786D01*
X325583Y475823D01*
X325528Y475867D01*
X325496Y475876D01*
X325472Y475891D01*
X325421Y475899D01*
X325355Y475919D01*
X325349Y475919D01*
X324945Y476427D01*
X324918Y476449D01*
X324893Y476482D01*
X324418Y476924D01*
X324417Y476929D01*
X324401Y476998D01*
X324393Y477068D01*
X324377Y477097D01*
X324371Y477124D01*
X324340Y477165D01*
X324307Y477226D01*
X322830Y479079D01*
X322808Y479097D01*
X322803Y479105D01*
X322788Y479113D01*
X322776Y479124D01*
X322728Y479175D01*
X322698Y479189D01*
X322677Y479207D01*
X322627Y479223D01*
X322565Y479252D01*
X322559Y479254D01*
X322235Y479816D01*
X322212Y479842D01*
X322192Y479878D01*
X321788Y480386D01*
X321788Y480391D01*
X321782Y480462D01*
X321784Y480532D01*
X321773Y480563D01*
X321771Y480591D01*
X321747Y480637D01*
X321724Y480702D01*
X320539Y482753D01*
X320492Y482806D01*
X320452Y482864D01*
X320425Y482883D01*
X320406Y482904D01*
X320360Y482926D01*
X320303Y482965D01*
X320297Y482967D01*
X320060Y483571D01*
X320042Y483600D01*
X320027Y483639D01*
X319703Y484201D01*
X319704Y484206D01*
X319709Y484277D01*
X319722Y484346D01*
X319715Y484378D01*
X319717Y484406D01*
X319700Y484455D01*
X319687Y484523D01*
X318821Y486728D01*
X318783Y486788D01*
X318752Y486851D01*
X318728Y486873D01*
X318713Y486897D01*
X318670Y486926D01*
X318619Y486973D01*
X318614Y486975D01*
X318470Y487608D01*
X318456Y487640D01*
X318447Y487681D01*
X318210Y488285D01*
X318213Y488290D01*
X318227Y488359D01*
X318250Y488425D01*
X318249Y488458D01*
X318255Y488486D01*
X318245Y488536D01*
X318242Y488605D01*
X317715Y490915D01*
X317686Y490979D01*
X317665Y491047D01*
X317644Y491072D01*
X317633Y491098D01*
X317595Y491133D01*
X317551Y491187D01*
X317547Y491190D01*
X317499Y491837D01*
X317489Y491871D01*
X317487Y491912D01*
X317343Y492545D01*
X317346Y492550D01*
X317371Y492616D01*
X317404Y492678D01*
X317407Y492711D01*
X317417Y492737D01*
X317415Y492789D01*
X317422Y492857D01*
X317320Y494216D01*
X317297Y494299D01*
X317278Y494384D01*
X317270Y494395D01*
X317266Y494409D01*
X317213Y494476D01*
X317162Y494547D01*
X317150Y494555D01*
X317142Y494566D01*
X317066Y494607D01*
X316992Y494653D01*
X316977Y494656D01*
X316966Y494662D01*
X316910Y494668D01*
X316815Y494685D01*
X278982Y494685D01*
X279100Y496162D01*
X279096Y496191D01*
X279101Y496219D01*
X279084Y496288D01*
X279076Y496360D01*
X279062Y496384D01*
X279055Y496412D01*
X279012Y496470D01*
X278977Y496532D01*
X278954Y496549D01*
X278937Y496572D01*
X278875Y496609D01*
X278818Y496652D01*
X278790Y496659D01*
X278766Y496674D01*
X278666Y496690D01*
X278625Y496701D01*
X278615Y496699D01*
X278602Y496701D01*
X259602Y496701D01*
X259526Y496686D01*
X259448Y496677D01*
X259429Y496666D01*
X259407Y496662D01*
X259343Y496618D01*
X259275Y496579D01*
X259259Y496560D01*
X259243Y496549D01*
X259219Y496511D01*
X259169Y496451D01*
X249669Y479951D01*
X249660Y479924D01*
X249644Y479900D01*
X249629Y479830D01*
X249606Y479762D01*
X249609Y479734D01*
X249603Y479706D01*
X249617Y479636D01*
X249622Y479564D01*
X249635Y479539D01*
X249641Y479511D01*
X249681Y479451D01*
X249714Y479388D01*
X249736Y479370D01*
X249752Y479346D01*
X249835Y479288D01*
X249867Y479261D01*
X249878Y479258D01*
X249889Y479251D01*
X251207Y478627D01*
X238820Y457172D01*
X238808Y457138D01*
X238791Y457110D01*
X238788Y457105D01*
X238776Y457042D01*
X238756Y456982D01*
X238759Y456944D01*
X238752Y456908D01*
X238766Y456845D01*
X238770Y456782D01*
X238787Y456749D01*
X238796Y456712D01*
X238833Y456660D01*
X238861Y456603D01*
X238890Y456579D01*
X238912Y456549D01*
X238966Y456515D01*
X239014Y456474D01*
X239050Y456462D01*
X239082Y456443D01*
X239155Y456430D01*
X239206Y456414D01*
X239231Y456416D01*
X239259Y456411D01*
X241936Y456411D01*
X241944Y456412D01*
X241952Y456411D01*
X242042Y456432D01*
X242133Y456450D01*
X242139Y456455D01*
X242147Y456457D01*
X242295Y456559D01*
X250549Y464813D01*
X252334Y466599D01*
X316880Y466599D01*
X318665Y464813D01*
X345941Y437537D01*
X345948Y437533D01*
X345952Y437527D01*
X346031Y437478D01*
X346108Y437426D01*
X346116Y437425D01*
X346122Y437421D01*
X346300Y437389D01*
X372506Y437389D01*
X390800Y419094D01*
X390800Y381895D01*
X390519Y381614D01*
X390515Y381607D01*
X390509Y381603D01*
X390460Y381524D01*
X390408Y381447D01*
X390407Y381439D01*
X390403Y381433D01*
X390371Y381255D01*
X390371Y378652D01*
X387262Y375544D01*
X382866Y375544D01*
X379757Y378652D01*
X379757Y383048D01*
X379839Y383131D01*
X379841Y383133D01*
X379843Y383134D01*
X379896Y383216D01*
X379950Y383298D01*
X379951Y383300D01*
X379952Y383302D01*
X379970Y383399D01*
X379988Y383495D01*
X379988Y383497D01*
X379988Y383500D01*
X379966Y383597D01*
X379946Y383691D01*
X379945Y383693D01*
X379944Y383695D01*
X379888Y383775D01*
X379832Y383855D01*
X379830Y383857D01*
X379828Y383859D01*
X379745Y383911D01*
X379663Y383963D01*
X379660Y383963D01*
X379658Y383965D01*
X379481Y383997D01*
X379231Y383997D01*
X376533Y386695D01*
X376530Y386697D01*
X376529Y386699D01*
X376448Y386751D01*
X376366Y386806D01*
X376363Y386807D01*
X376361Y386808D01*
X376265Y386825D01*
X376169Y386844D01*
X376166Y386843D01*
X376164Y386844D01*
X376067Y386822D01*
X375973Y386802D01*
X375971Y386801D01*
X375968Y386800D01*
X375888Y386744D01*
X375808Y386688D01*
X375807Y386686D01*
X375805Y386684D01*
X375753Y386601D01*
X375701Y386519D01*
X375700Y386516D01*
X375699Y386514D01*
X375667Y386337D01*
X375667Y384559D01*
X374774Y383666D01*
X357508Y383666D01*
X356615Y384559D01*
X356615Y392303D01*
X356614Y392308D01*
X356615Y392313D01*
X356594Y392406D01*
X356576Y392500D01*
X356573Y392504D01*
X356572Y392509D01*
X356516Y392587D01*
X356463Y392665D01*
X356459Y392668D01*
X356456Y392672D01*
X356374Y392723D01*
X356295Y392775D01*
X356290Y392775D01*
X356285Y392778D01*
X356108Y392810D01*
X342825Y392810D01*
X339931Y394009D01*
X337716Y396224D01*
X336517Y399119D01*
X336517Y400446D01*
X336515Y400454D01*
X336517Y400461D01*
X336496Y400551D01*
X336477Y400642D01*
X336473Y400649D01*
X336471Y400657D01*
X336368Y400805D01*
X313242Y423931D01*
X312996Y424526D01*
X312990Y424534D01*
X312988Y424543D01*
X312886Y424691D01*
X312673Y424903D01*
X312673Y425203D01*
X312663Y425255D01*
X312658Y425326D01*
X312641Y425362D01*
X312638Y425381D01*
X312634Y425400D01*
X312599Y425451D01*
X312572Y425507D01*
X312543Y425533D01*
X312521Y425566D01*
X312469Y425600D01*
X312423Y425641D01*
X312386Y425654D01*
X312353Y425675D01*
X312292Y425686D01*
X312233Y425706D01*
X312194Y425704D01*
X312156Y425711D01*
X312095Y425697D01*
X312033Y425693D01*
X311998Y425675D01*
X311960Y425667D01*
X311909Y425631D01*
X311854Y425603D01*
X311828Y425574D01*
X311797Y425551D01*
X311764Y425498D01*
X311723Y425451D01*
X311711Y425414D01*
X311691Y425381D01*
X311678Y425310D01*
X311662Y425260D01*
X311664Y425232D01*
X311659Y425203D01*
X311659Y418976D01*
X310766Y418083D01*
X294103Y418083D01*
X294100Y418083D01*
X294097Y418083D01*
X294003Y418063D01*
X293906Y418044D01*
X293904Y418042D01*
X293901Y418042D01*
X293822Y417986D01*
X293740Y417931D01*
X293739Y417929D01*
X293737Y417927D01*
X293685Y417845D01*
X293631Y417763D01*
X293631Y417760D01*
X293629Y417758D01*
X293613Y417663D01*
X293596Y417566D01*
X293596Y417563D01*
X293596Y417560D01*
X293618Y417467D01*
X293639Y417370D01*
X293641Y417368D01*
X293641Y417365D01*
X293744Y417217D01*
X293871Y417090D01*
X293878Y417086D01*
X293882Y417080D01*
X293961Y417030D01*
X294038Y416979D01*
X294046Y416978D01*
X294052Y416974D01*
X294230Y416942D01*
X313610Y416942D01*
X386613Y343938D01*
X386620Y343934D01*
X386625Y343928D01*
X386703Y343879D01*
X386780Y343827D01*
X386788Y343826D01*
X386795Y343822D01*
X386972Y343790D01*
X392826Y343790D01*
X393086Y343529D01*
X393093Y343525D01*
X393097Y343519D01*
X393176Y343470D01*
X393253Y343418D01*
X393261Y343417D01*
X393267Y343413D01*
X393445Y343381D01*
X396787Y343381D01*
X399896Y340272D01*
X399896Y335876D01*
X396787Y332767D01*
X392391Y332767D01*
X389282Y335876D01*
X389282Y337693D01*
X389281Y337698D01*
X389282Y337703D01*
X389261Y337796D01*
X389243Y337890D01*
X389240Y337894D01*
X389239Y337899D01*
X389183Y337977D01*
X389130Y338055D01*
X389126Y338058D01*
X389123Y338062D01*
X389041Y338113D01*
X388962Y338165D01*
X388957Y338165D01*
X388952Y338168D01*
X388775Y338200D01*
X384447Y338200D01*
X322561Y400086D01*
X322559Y400087D01*
X322557Y400090D01*
X322477Y400142D01*
X322394Y400197D01*
X322392Y400197D01*
X322389Y400199D01*
X322293Y400216D01*
X322197Y400234D01*
X322195Y400234D01*
X322192Y400234D01*
X322096Y400213D01*
X322001Y400193D01*
X321999Y400191D01*
X321997Y400191D01*
X321917Y400134D01*
X321837Y400079D01*
X321835Y400076D01*
X321833Y400075D01*
X321782Y399992D01*
X321729Y399909D01*
X321729Y399907D01*
X321727Y399905D01*
X321695Y399727D01*
X321695Y397951D01*
X320760Y397015D01*
X320757Y397011D01*
X320752Y397008D01*
X320701Y396927D01*
X320649Y396848D01*
X320648Y396843D01*
X320645Y396839D01*
X320629Y396745D01*
X320611Y396651D01*
X320612Y396646D01*
X320611Y396641D01*
X320633Y396548D01*
X320653Y396455D01*
X320656Y396451D01*
X320657Y396446D01*
X320760Y396298D01*
X322475Y394582D01*
X352807Y364251D01*
X352807Y355698D01*
X352808Y355690D01*
X352807Y355682D01*
X352828Y355592D01*
X352846Y355501D01*
X352851Y355495D01*
X352853Y355487D01*
X352955Y355339D01*
X363114Y345180D01*
X363121Y345176D01*
X363125Y345170D01*
X363204Y345121D01*
X363281Y345069D01*
X363289Y345068D01*
X363295Y345064D01*
X363473Y345032D01*
X366815Y345032D01*
X369924Y341923D01*
X369924Y337527D01*
X366815Y334418D01*
X362419Y334418D01*
X359310Y337527D01*
X359310Y340869D01*
X359309Y340877D01*
X359310Y340885D01*
X359289Y340975D01*
X359271Y341066D01*
X359266Y341072D01*
X359264Y341080D01*
X359162Y341228D01*
X347217Y353172D01*
X347217Y357284D01*
X347217Y357286D01*
X347217Y357289D01*
X347197Y357384D01*
X347178Y357480D01*
X347176Y357483D01*
X347176Y357485D01*
X347120Y357566D01*
X347065Y357646D01*
X347063Y357648D01*
X347061Y357650D01*
X346978Y357703D01*
X346897Y357755D01*
X346894Y357756D01*
X346892Y357757D01*
X346796Y357774D01*
X346700Y357791D01*
X346697Y357790D01*
X346695Y357791D01*
X346600Y357769D01*
X346504Y357747D01*
X346502Y357746D01*
X346499Y357745D01*
X346351Y357643D01*
X345335Y356626D01*
X345331Y356620D01*
X345325Y356615D01*
X345276Y356537D01*
X345224Y356459D01*
X345223Y356452D01*
X345219Y356445D01*
X345187Y356268D01*
X345187Y338807D01*
X345188Y338799D01*
X345187Y338791D01*
X345208Y338701D01*
X345226Y338610D01*
X345231Y338604D01*
X345233Y338596D01*
X345335Y338448D01*
X352737Y331046D01*
X352744Y331042D01*
X352748Y331035D01*
X352827Y330987D01*
X352904Y330935D01*
X352912Y330934D01*
X352918Y330930D01*
X353096Y330898D01*
X357158Y330898D01*
X360112Y327944D01*
X360117Y327941D01*
X360120Y327937D01*
X360200Y327886D01*
X360279Y327833D01*
X360284Y327832D01*
X360289Y327829D01*
X360382Y327813D01*
X360476Y327795D01*
X360481Y327796D01*
X360486Y327796D01*
X360579Y327817D01*
X360672Y327837D01*
X360677Y327840D01*
X360682Y327841D01*
X360830Y327944D01*
X360950Y328065D01*
X373213Y328065D01*
X374107Y327171D01*
X374107Y315908D01*
X373213Y315015D01*
X360950Y315015D01*
X360057Y315908D01*
X360057Y319884D01*
X360056Y319892D01*
X360057Y319900D01*
X360036Y319989D01*
X360017Y320081D01*
X360013Y320087D01*
X360011Y320095D01*
X359909Y320243D01*
X358942Y321210D01*
X358939Y321211D01*
X358938Y321213D01*
X358858Y321265D01*
X358775Y321321D01*
X358772Y321321D01*
X358770Y321323D01*
X358674Y321340D01*
X358578Y321358D01*
X358575Y321358D01*
X358573Y321358D01*
X358476Y321337D01*
X358382Y321317D01*
X358380Y321315D01*
X358377Y321315D01*
X358297Y321258D01*
X358217Y321202D01*
X358216Y321200D01*
X358213Y321199D01*
X358162Y321116D01*
X358110Y321033D01*
X358109Y321031D01*
X358108Y321028D01*
X358076Y320851D01*
X358076Y319202D01*
X355475Y316601D01*
X355472Y316596D01*
X355467Y316593D01*
X355416Y316513D01*
X355364Y316434D01*
X355363Y316429D01*
X355360Y316424D01*
X355344Y316330D01*
X355326Y316237D01*
X355327Y316232D01*
X355326Y316227D01*
X355348Y316134D01*
X355368Y316041D01*
X355371Y316036D01*
X355372Y316031D01*
X355475Y315883D01*
X356843Y314515D01*
X356843Y310119D01*
X353734Y307010D01*
X349338Y307010D01*
X346229Y310119D01*
X346229Y313461D01*
X346228Y313469D01*
X346229Y313477D01*
X346208Y313567D01*
X346190Y313658D01*
X346185Y313664D01*
X346183Y313672D01*
X346081Y313820D01*
X327532Y332368D01*
X327532Y360332D01*
X327532Y360334D01*
X327532Y360337D01*
X327512Y360432D01*
X327493Y360528D01*
X327491Y360531D01*
X327491Y360533D01*
X327435Y360614D01*
X327380Y360694D01*
X327378Y360696D01*
X327376Y360698D01*
X327293Y360751D01*
X327212Y360803D01*
X327209Y360804D01*
X327207Y360805D01*
X327111Y360822D01*
X327015Y360839D01*
X327012Y360838D01*
X327010Y360839D01*
X326916Y360817D01*
X326819Y360795D01*
X326817Y360794D01*
X326814Y360793D01*
X326666Y360691D01*
X326412Y360436D01*
X326408Y360430D01*
X326402Y360425D01*
X326353Y360347D01*
X326301Y360270D01*
X326300Y360262D01*
X326296Y360255D01*
X326264Y360078D01*
X326264Y310881D01*
X318284Y302902D01*
X316858Y301476D01*
X316857Y301473D01*
X316854Y301472D01*
X316802Y301391D01*
X316747Y301309D01*
X316747Y301306D01*
X316745Y301304D01*
X316727Y301206D01*
X316709Y301112D01*
X316710Y301109D01*
X316710Y301107D01*
X316731Y301010D01*
X316751Y300916D01*
X316753Y300914D01*
X316753Y300911D01*
X316810Y300831D01*
X316865Y300751D01*
X316868Y300750D01*
X316869Y300748D01*
X316953Y300695D01*
X317035Y300644D01*
X317037Y300643D01*
X317039Y300642D01*
X317217Y300610D01*
X344203Y300610D01*
X344211Y300611D01*
X344218Y300610D01*
X344308Y300631D01*
X344399Y300649D01*
X344406Y300654D01*
X344413Y300656D01*
X344561Y300758D01*
X344893Y301090D01*
X349289Y301090D01*
X352398Y297981D01*
X352398Y293585D01*
X349289Y290476D01*
X344893Y290476D01*
X341784Y293585D01*
X341784Y294513D01*
X341783Y294518D01*
X341784Y294523D01*
X341763Y294616D01*
X341745Y294710D01*
X341742Y294714D01*
X341741Y294719D01*
X341685Y294797D01*
X341632Y294875D01*
X341628Y294878D01*
X341625Y294882D01*
X341543Y294933D01*
X341464Y294985D01*
X341459Y294985D01*
X341454Y294988D01*
X341277Y295020D01*
X296389Y295020D01*
X296381Y295019D01*
X296373Y295020D01*
X296283Y294999D01*
X296192Y294981D01*
X296186Y294976D01*
X296178Y294974D01*
X296030Y294872D01*
X292249Y291091D01*
X292245Y291084D01*
X292239Y291080D01*
X292190Y291001D01*
X292138Y290924D01*
X292137Y290916D01*
X292133Y290910D01*
X292101Y290732D01*
X292101Y262579D01*
X292102Y262574D01*
X292101Y262569D01*
X292122Y262476D01*
X292140Y262382D01*
X292143Y262378D01*
X292144Y262373D01*
X292200Y262295D01*
X292253Y262217D01*
X292257Y262214D01*
X292260Y262210D01*
X292342Y262159D01*
X292421Y262107D01*
X292426Y262107D01*
X292431Y262104D01*
X292608Y262072D01*
X293938Y262072D01*
X294831Y261179D01*
X294831Y251915D01*
X293938Y251022D01*
X284674Y251022D01*
X283781Y251915D01*
X283781Y261179D01*
X284674Y262072D01*
X286004Y262072D01*
X286009Y262073D01*
X286014Y262072D01*
X286107Y262093D01*
X286201Y262111D01*
X286205Y262114D01*
X286210Y262115D01*
X286288Y262171D01*
X286366Y262224D01*
X286369Y262228D01*
X286373Y262231D01*
X286424Y262313D01*
X286476Y262392D01*
X286476Y262397D01*
X286479Y262402D01*
X286511Y262579D01*
X286511Y293258D01*
X293504Y300250D01*
X293505Y300253D01*
X293508Y300254D01*
X293560Y300335D01*
X293615Y300417D01*
X293615Y300420D01*
X293617Y300422D01*
X293634Y300516D01*
X293653Y300614D01*
X293652Y300617D01*
X293652Y300619D01*
X293631Y300714D01*
X293611Y300810D01*
X293609Y300812D01*
X293609Y300815D01*
X293552Y300895D01*
X293497Y300975D01*
X293494Y300976D01*
X293493Y300978D01*
X293411Y301030D01*
X293327Y301082D01*
X293325Y301083D01*
X293323Y301084D01*
X293145Y301116D01*
X274291Y301116D01*
X274283Y301115D01*
X274275Y301116D01*
X274185Y301095D01*
X274094Y301077D01*
X274088Y301072D01*
X274080Y301070D01*
X273932Y300968D01*
X245474Y272510D01*
X245426Y272438D01*
X245374Y272368D01*
X245371Y272355D01*
X245363Y272343D01*
X245347Y272258D01*
X245326Y272174D01*
X245328Y272160D01*
X245326Y272146D01*
X245344Y272061D01*
X245357Y271976D01*
X245364Y271963D01*
X245367Y271950D01*
X245399Y271904D01*
X245401Y271901D01*
X245350Y271231D01*
X245355Y271196D01*
X245350Y271155D01*
X245399Y270508D01*
X245395Y270504D01*
X245360Y270442D01*
X245319Y270385D01*
X245310Y270353D01*
X245297Y270329D01*
X245291Y270277D01*
X245273Y270211D01*
X245096Y267846D01*
X245104Y267776D01*
X245105Y267705D01*
X245117Y267675D01*
X245120Y267647D01*
X245146Y267602D01*
X245172Y267538D01*
X245175Y267533D01*
X245030Y266901D01*
X245029Y266866D01*
X245019Y266826D01*
X244970Y266179D01*
X244966Y266175D01*
X244922Y266119D01*
X244873Y266069D01*
X244860Y266039D01*
X244843Y266017D01*
X244829Y265967D01*
X244802Y265904D01*
X244274Y263592D01*
X244272Y263521D01*
X244262Y263451D01*
X244269Y263420D01*
X244269Y263392D01*
X244287Y263343D01*
X244303Y263276D01*
X244305Y263271D01*
X244068Y262667D01*
X244062Y262633D01*
X244046Y262595D01*
X243901Y261962D01*
X243897Y261959D01*
X243845Y261911D01*
X243789Y261868D01*
X243772Y261841D01*
X243751Y261821D01*
X243730Y261774D01*
X243694Y261715D01*
X242827Y259508D01*
X242815Y259438D01*
X242794Y259371D01*
X242797Y259338D01*
X242792Y259311D01*
X242803Y259260D01*
X242809Y259191D01*
X242811Y259186D01*
X242486Y258624D01*
X242475Y258591D01*
X242453Y258556D01*
X242216Y257952D01*
X242211Y257950D01*
X242153Y257909D01*
X242091Y257876D01*
X242069Y257851D01*
X242046Y257835D01*
X242019Y257791D01*
X241974Y257739D01*
X240788Y255685D01*
X240765Y255618D01*
X240735Y255555D01*
X240733Y255522D01*
X240724Y255495D01*
X240728Y255444D01*
X240723Y255375D01*
X240724Y255369D01*
X240319Y254862D01*
X240303Y254831D01*
X240276Y254800D01*
X239952Y254238D01*
X239946Y254236D01*
X239883Y254205D01*
X239816Y254181D01*
X239792Y254160D01*
X239767Y254147D01*
X239733Y254108D01*
X239681Y254063D01*
X238202Y252209D01*
X238170Y252146D01*
X238130Y252088D01*
X238123Y252056D01*
X238110Y252031D01*
X238106Y251979D01*
X238091Y251912D01*
X238091Y251906D01*
X237615Y251465D01*
X237595Y251437D01*
X237564Y251410D01*
X237159Y250902D01*
X237154Y250902D01*
X237086Y250880D01*
X237017Y250867D01*
X236989Y250849D01*
X236963Y250840D01*
X236923Y250807D01*
X236865Y250770D01*
X235126Y249157D01*
X235085Y249100D01*
X235037Y249048D01*
X235026Y249017D01*
X235009Y248995D01*
X234998Y248944D01*
X234973Y248880D01*
X234972Y248874D01*
X234436Y248509D01*
X234411Y248484D01*
X234376Y248462D01*
X233901Y248020D01*
X233895Y248021D01*
X233825Y248009D01*
X233755Y248006D01*
X233725Y247993D01*
X233697Y247989D01*
X233653Y247961D01*
X233590Y247933D01*
X232470Y247170D01*
X232410Y247108D01*
X232346Y247049D01*
X232340Y247036D01*
X232330Y247026D01*
X232298Y246946D01*
X232262Y246867D01*
X232261Y246853D01*
X232256Y246840D01*
X232258Y246753D01*
X232255Y246667D01*
X232260Y246653D01*
X232261Y246640D01*
X232283Y246589D01*
X232316Y246497D01*
X251207Y213777D01*
X249889Y213153D01*
X249866Y213136D01*
X249839Y213126D01*
X249787Y213077D01*
X249729Y213034D01*
X249715Y213009D01*
X249694Y212990D01*
X249665Y212924D01*
X249629Y212862D01*
X249626Y212834D01*
X249614Y212808D01*
X249613Y212736D01*
X249604Y212665D01*
X249612Y212638D01*
X249612Y212609D01*
X249647Y212514D01*
X249658Y212474D01*
X249665Y212465D01*
X249669Y212453D01*
X259169Y195953D01*
X259221Y195895D01*
X259267Y195832D01*
X259286Y195821D01*
X259301Y195804D01*
X259371Y195770D01*
X259438Y195730D01*
X259463Y195726D01*
X259480Y195718D01*
X259525Y195716D01*
X259602Y195703D01*
X278602Y195703D01*
X278630Y195708D01*
G37*
G36*
X240735Y287400D02*
X240735Y287400D01*
X240767Y287398D01*
X240832Y287421D01*
X240899Y287436D01*
X240925Y287455D01*
X240955Y287466D01*
X241006Y287512D01*
X241062Y287552D01*
X241079Y287580D01*
X241103Y287601D01*
X241132Y287664D01*
X241168Y287723D01*
X241174Y287757D01*
X241187Y287783D01*
X241188Y287834D01*
X241200Y287900D01*
X241200Y289853D01*
X244309Y292962D01*
X248705Y292962D01*
X249830Y291837D01*
X249834Y291834D01*
X249837Y291830D01*
X249917Y291779D01*
X249996Y291726D01*
X250002Y291725D01*
X250006Y291723D01*
X250100Y291707D01*
X250193Y291689D01*
X250199Y291690D01*
X250204Y291689D01*
X250296Y291711D01*
X250389Y291730D01*
X250394Y291733D01*
X250399Y291735D01*
X250547Y291837D01*
X267694Y308984D01*
X269344Y310634D01*
X269345Y310637D01*
X269348Y310638D01*
X269400Y310719D01*
X269455Y310801D01*
X269455Y310804D01*
X269457Y310806D01*
X269474Y310902D01*
X269493Y310998D01*
X269492Y311001D01*
X269492Y311003D01*
X269471Y311100D01*
X269451Y311194D01*
X269449Y311196D01*
X269449Y311199D01*
X269393Y311278D01*
X269337Y311359D01*
X269334Y311360D01*
X269333Y311362D01*
X269249Y311415D01*
X269167Y311466D01*
X269165Y311467D01*
X269163Y311468D01*
X268985Y311500D01*
X262990Y311500D01*
X262097Y312393D01*
X262097Y328957D01*
X262990Y329850D01*
X279554Y329850D01*
X280447Y328957D01*
X280447Y312393D01*
X279689Y311636D01*
X279687Y311633D01*
X279685Y311632D01*
X279633Y311551D01*
X279578Y311469D01*
X279577Y311466D01*
X279576Y311464D01*
X279559Y311368D01*
X279540Y311272D01*
X279541Y311269D01*
X279540Y311267D01*
X279562Y311170D01*
X279582Y311076D01*
X279583Y311074D01*
X279584Y311071D01*
X279641Y310991D01*
X279696Y310911D01*
X279699Y310910D01*
X279700Y310908D01*
X279783Y310856D01*
X279865Y310804D01*
X279868Y310803D01*
X279870Y310802D01*
X280048Y310770D01*
X294061Y310770D01*
X294062Y310770D01*
X294063Y310770D01*
X294159Y310789D01*
X294257Y310809D01*
X294258Y310810D01*
X294259Y310810D01*
X294340Y310866D01*
X294423Y310922D01*
X294424Y310923D01*
X294425Y310924D01*
X294479Y311008D01*
X294532Y311090D01*
X294532Y311091D01*
X294533Y311092D01*
X294550Y311191D01*
X294568Y311287D01*
X294567Y311289D01*
X294568Y311290D01*
X294546Y311385D01*
X294524Y311483D01*
X294523Y311484D01*
X294523Y311485D01*
X294466Y311565D01*
X294408Y311646D01*
X294407Y311647D01*
X294406Y311648D01*
X294255Y311746D01*
X291475Y312897D01*
X288894Y315478D01*
X287497Y318850D01*
X287497Y322500D01*
X288894Y325872D01*
X291475Y328453D01*
X291899Y328629D01*
X291900Y328629D01*
X293124Y329136D01*
X293564Y329318D01*
X293570Y329322D01*
X293576Y329323D01*
X293653Y329378D01*
X293731Y329430D01*
X293734Y329436D01*
X293739Y329439D01*
X293789Y329519D01*
X293841Y329598D01*
X293842Y329604D01*
X293845Y329610D01*
X293877Y329787D01*
X293877Y335496D01*
X293876Y335501D01*
X293877Y335506D01*
X293856Y335599D01*
X293838Y335693D01*
X293835Y335697D01*
X293834Y335702D01*
X293778Y335780D01*
X293725Y335858D01*
X293721Y335861D01*
X293718Y335865D01*
X293636Y335916D01*
X293557Y335968D01*
X293552Y335968D01*
X293547Y335971D01*
X293370Y336003D01*
X290921Y336003D01*
X290028Y336896D01*
X290028Y348160D01*
X290921Y349053D01*
X303185Y349053D01*
X304078Y348160D01*
X304078Y336896D01*
X303185Y336003D01*
X299974Y336003D01*
X299969Y336002D01*
X299964Y336003D01*
X299871Y335982D01*
X299777Y335964D01*
X299773Y335961D01*
X299768Y335960D01*
X299690Y335904D01*
X299612Y335851D01*
X299609Y335847D01*
X299605Y335844D01*
X299554Y335762D01*
X299502Y335683D01*
X299502Y335678D01*
X299499Y335673D01*
X299467Y335496D01*
X299467Y329787D01*
X299468Y329781D01*
X299467Y329774D01*
X299488Y329683D01*
X299506Y329590D01*
X299510Y329585D01*
X299511Y329579D01*
X299566Y329502D01*
X299619Y329425D01*
X299624Y329421D01*
X299628Y329416D01*
X299780Y329318D01*
X301869Y328453D01*
X304450Y325872D01*
X305847Y322500D01*
X305847Y318850D01*
X304450Y315478D01*
X301869Y312897D01*
X301695Y312825D01*
X300470Y312318D01*
X299246Y311810D01*
X299089Y311746D01*
X299088Y311745D01*
X299087Y311745D01*
X299004Y311688D01*
X298923Y311634D01*
X298922Y311633D01*
X298921Y311632D01*
X298867Y311549D01*
X298813Y311466D01*
X298813Y311465D01*
X298812Y311464D01*
X298794Y311366D01*
X298776Y311269D01*
X298777Y311268D01*
X298776Y311267D01*
X298798Y311168D01*
X298819Y311073D01*
X298820Y311072D01*
X298820Y311071D01*
X298877Y310990D01*
X298934Y310909D01*
X298935Y310909D01*
X298936Y310908D01*
X299021Y310855D01*
X299104Y310803D01*
X299105Y310802D01*
X299106Y310802D01*
X299283Y310770D01*
X310163Y310770D01*
X310171Y310771D01*
X310179Y310770D01*
X310269Y310791D01*
X310360Y310809D01*
X310366Y310814D01*
X310374Y310816D01*
X310522Y310918D01*
X312162Y312558D01*
X312166Y312565D01*
X312173Y312570D01*
X312222Y312648D01*
X312273Y312725D01*
X312274Y312733D01*
X312279Y312740D01*
X312311Y312917D01*
X312311Y355125D01*
X312309Y355133D01*
X312310Y355140D01*
X312289Y355230D01*
X312271Y355321D01*
X312267Y355328D01*
X312265Y355335D01*
X312162Y355483D01*
X309799Y357847D01*
X309799Y362243D01*
X312907Y365352D01*
X317305Y365352D01*
X317382Y365302D01*
X317463Y365248D01*
X317466Y365247D01*
X317468Y365246D01*
X317564Y365229D01*
X317660Y365210D01*
X317663Y365211D01*
X317665Y365210D01*
X317761Y365232D01*
X317856Y365252D01*
X317858Y365253D01*
X317861Y365254D01*
X317941Y365311D01*
X318021Y365366D01*
X318022Y365368D01*
X318024Y365370D01*
X318076Y365453D01*
X318128Y365535D01*
X318129Y365538D01*
X318130Y365540D01*
X318162Y365718D01*
X318162Y367196D01*
X321271Y370305D01*
X323018Y370305D01*
X323021Y370305D01*
X323023Y370305D01*
X323118Y370325D01*
X323215Y370344D01*
X323217Y370346D01*
X323220Y370346D01*
X323300Y370402D01*
X323381Y370457D01*
X323382Y370459D01*
X323384Y370461D01*
X323437Y370544D01*
X323490Y370625D01*
X323490Y370628D01*
X323492Y370630D01*
X323508Y370726D01*
X323525Y370822D01*
X323525Y370825D01*
X323525Y370827D01*
X323503Y370921D01*
X323482Y371018D01*
X323480Y371020D01*
X323480Y371023D01*
X323377Y371171D01*
X312681Y381867D01*
X312674Y381871D01*
X312670Y381877D01*
X312591Y381926D01*
X312514Y381978D01*
X312506Y381979D01*
X312500Y381983D01*
X312322Y382015D01*
X286243Y382015D01*
X275696Y392563D01*
X275689Y392567D01*
X275685Y392573D01*
X275606Y392622D01*
X275529Y392674D01*
X275521Y392675D01*
X275515Y392679D01*
X275337Y392711D01*
X271995Y392711D01*
X268886Y395820D01*
X268886Y400288D01*
X268901Y400368D01*
X268919Y400464D01*
X268918Y400467D01*
X268919Y400469D01*
X268897Y400566D01*
X268878Y400660D01*
X268876Y400662D01*
X268875Y400665D01*
X268819Y400745D01*
X268763Y400825D01*
X268761Y400826D01*
X268759Y400828D01*
X268677Y400880D01*
X268594Y400932D01*
X268591Y400933D01*
X268589Y400934D01*
X268412Y400966D01*
X267479Y400966D01*
X264370Y404075D01*
X264370Y408471D01*
X267479Y411580D01*
X271875Y411580D01*
X274239Y409216D01*
X274245Y409212D01*
X274250Y409206D01*
X274328Y409157D01*
X274405Y409105D01*
X274413Y409104D01*
X274420Y409100D01*
X274597Y409068D01*
X277637Y409068D01*
X282470Y404234D01*
X282476Y404230D01*
X282479Y404225D01*
X282559Y404175D01*
X282637Y404122D01*
X282643Y404121D01*
X282649Y404118D01*
X282741Y404102D01*
X282833Y404084D01*
X282840Y404085D01*
X282846Y404084D01*
X282937Y404105D01*
X283030Y404124D01*
X283035Y404128D01*
X283041Y404130D01*
X283189Y404232D01*
X285838Y406881D01*
X290234Y406881D01*
X291749Y405366D01*
X291753Y405363D01*
X291756Y405359D01*
X291836Y405308D01*
X291916Y405255D01*
X291921Y405254D01*
X291925Y405251D01*
X292019Y405236D01*
X292112Y405218D01*
X292118Y405219D01*
X292123Y405218D01*
X292215Y405240D01*
X292309Y405259D01*
X292313Y405262D01*
X292318Y405263D01*
X292466Y405366D01*
X293500Y406401D01*
X310766Y406401D01*
X311659Y405508D01*
X311659Y404149D01*
X311659Y404146D01*
X311659Y404144D01*
X311679Y404049D01*
X311698Y403952D01*
X311700Y403950D01*
X311700Y403947D01*
X311756Y403867D01*
X311811Y403786D01*
X311813Y403785D01*
X311815Y403783D01*
X311898Y403730D01*
X311979Y403677D01*
X311982Y403677D01*
X311984Y403675D01*
X312080Y403659D01*
X312176Y403642D01*
X312179Y403642D01*
X312181Y403642D01*
X312276Y403664D01*
X312372Y403685D01*
X312374Y403687D01*
X312377Y403687D01*
X312525Y403790D01*
X314190Y405456D01*
X315967Y405456D01*
X315969Y405456D01*
X315972Y405456D01*
X316067Y405476D01*
X316163Y405495D01*
X316165Y405497D01*
X316168Y405497D01*
X316249Y405553D01*
X316329Y405608D01*
X316330Y405610D01*
X316333Y405612D01*
X316386Y405695D01*
X316438Y405776D01*
X316439Y405779D01*
X316440Y405781D01*
X316457Y405877D01*
X316474Y405973D01*
X316473Y405976D01*
X316474Y405978D01*
X316452Y406072D01*
X316430Y406169D01*
X316429Y406171D01*
X316428Y406174D01*
X316325Y406322D01*
X311443Y411204D01*
X311437Y411208D01*
X311432Y411214D01*
X311354Y411263D01*
X311276Y411315D01*
X311269Y411316D01*
X311262Y411320D01*
X311085Y411352D01*
X291704Y411352D01*
X285348Y417709D01*
X285341Y417713D01*
X285337Y417719D01*
X285258Y417768D01*
X285181Y417820D01*
X285173Y417821D01*
X285167Y417825D01*
X284989Y417857D01*
X283806Y417857D01*
X280655Y421009D01*
X280652Y421010D01*
X280651Y421012D01*
X280570Y421065D01*
X280488Y421119D01*
X280485Y421120D01*
X280483Y421121D01*
X280387Y421139D01*
X280291Y421157D01*
X280288Y421157D01*
X280286Y421157D01*
X280189Y421136D01*
X280095Y421115D01*
X280093Y421114D01*
X280090Y421113D01*
X280010Y421057D01*
X279930Y421001D01*
X279929Y420999D01*
X279927Y420997D01*
X279875Y420915D01*
X279823Y420832D01*
X279822Y420829D01*
X279821Y420827D01*
X279789Y420650D01*
X279789Y413771D01*
X278896Y412878D01*
X262763Y412878D01*
X262755Y412877D01*
X262747Y412878D01*
X262657Y412857D01*
X262566Y412839D01*
X262560Y412834D01*
X262552Y412832D01*
X262404Y412730D01*
X259229Y409555D01*
X259225Y409548D01*
X259219Y409544D01*
X259170Y409465D01*
X259118Y409388D01*
X259117Y409380D01*
X259113Y409373D01*
X259081Y409196D01*
X259081Y367255D01*
X259082Y367247D01*
X259081Y367239D01*
X259102Y367149D01*
X259120Y367058D01*
X259125Y367052D01*
X259127Y367044D01*
X259229Y366896D01*
X263654Y362471D01*
X263661Y362467D01*
X263665Y362461D01*
X263744Y362412D01*
X263821Y362360D01*
X263829Y362359D01*
X263835Y362355D01*
X264013Y362323D01*
X289521Y362323D01*
X289526Y362324D01*
X289531Y362323D01*
X289624Y362344D01*
X289718Y362362D01*
X289722Y362365D01*
X289727Y362366D01*
X289805Y362422D01*
X289883Y362475D01*
X289886Y362479D01*
X289890Y362482D01*
X289941Y362564D01*
X289993Y362643D01*
X289993Y362648D01*
X289996Y362653D01*
X290028Y362830D01*
X290028Y365160D01*
X290921Y366053D01*
X303185Y366053D01*
X304078Y365160D01*
X304078Y353896D01*
X303185Y353003D01*
X290921Y353003D01*
X290028Y353896D01*
X290028Y356226D01*
X290027Y356231D01*
X290028Y356236D01*
X290007Y356329D01*
X289989Y356423D01*
X289986Y356427D01*
X289985Y356432D01*
X289929Y356510D01*
X289876Y356588D01*
X289872Y356591D01*
X289869Y356595D01*
X289787Y356646D01*
X289708Y356698D01*
X289703Y356698D01*
X289698Y356701D01*
X289521Y356733D01*
X261487Y356733D01*
X255277Y362944D01*
X253491Y364729D01*
X253491Y379505D01*
X253491Y379508D01*
X253491Y379510D01*
X253471Y379605D01*
X253452Y379702D01*
X253450Y379704D01*
X253450Y379707D01*
X253394Y379787D01*
X253339Y379868D01*
X253337Y379869D01*
X253335Y379871D01*
X253252Y379924D01*
X253171Y379977D01*
X253168Y379977D01*
X253166Y379979D01*
X253070Y379995D01*
X252974Y380012D01*
X252971Y380012D01*
X252969Y380012D01*
X252875Y379990D01*
X252778Y379969D01*
X252776Y379967D01*
X252773Y379967D01*
X252625Y379864D01*
X249930Y377169D01*
X249926Y377162D01*
X249920Y377158D01*
X249871Y377079D01*
X249819Y377002D01*
X249818Y376994D01*
X249814Y376988D01*
X249782Y376810D01*
X249782Y373468D01*
X246673Y370359D01*
X243331Y370359D01*
X243323Y370358D01*
X243315Y370359D01*
X243225Y370338D01*
X243134Y370320D01*
X243128Y370315D01*
X243120Y370313D01*
X242972Y370211D01*
X242864Y370103D01*
X240410Y370103D01*
X240405Y370102D01*
X240400Y370103D01*
X240307Y370082D01*
X240213Y370063D01*
X240209Y370060D01*
X240204Y370059D01*
X240126Y370004D01*
X240048Y369950D01*
X240045Y369946D01*
X240040Y369943D01*
X239990Y369862D01*
X239938Y369782D01*
X239937Y369777D01*
X239935Y369773D01*
X239903Y369595D01*
X239903Y368730D01*
X237545Y366373D01*
X223211Y366373D01*
X220853Y368730D01*
X220853Y377064D01*
X223211Y379422D01*
X237545Y379422D01*
X238777Y378190D01*
X238781Y378187D01*
X238784Y378183D01*
X238864Y378132D01*
X238944Y378079D01*
X238949Y378078D01*
X238954Y378075D01*
X239047Y378059D01*
X239141Y378042D01*
X239146Y378043D01*
X239151Y378042D01*
X239244Y378063D01*
X239337Y378083D01*
X239341Y378086D01*
X239346Y378087D01*
X239494Y378190D01*
X242277Y380973D01*
X245619Y380973D01*
X245627Y380974D01*
X245635Y380973D01*
X245725Y380994D01*
X245816Y381012D01*
X245822Y381017D01*
X245830Y381019D01*
X245978Y381121D01*
X249025Y384168D01*
X249029Y384175D01*
X249035Y384179D01*
X249084Y384258D01*
X249136Y384335D01*
X249137Y384343D01*
X249141Y384349D01*
X249173Y384527D01*
X249173Y444857D01*
X249173Y444860D01*
X249173Y444862D01*
X249153Y444957D01*
X249134Y445054D01*
X249132Y445056D01*
X249132Y445059D01*
X249076Y445139D01*
X249021Y445220D01*
X249019Y445221D01*
X249017Y445223D01*
X248934Y445276D01*
X248853Y445329D01*
X248850Y445329D01*
X248848Y445331D01*
X248752Y445347D01*
X248656Y445364D01*
X248653Y445364D01*
X248651Y445364D01*
X248557Y445342D01*
X248460Y445321D01*
X248458Y445319D01*
X248455Y445319D01*
X248307Y445216D01*
X240779Y437688D01*
X240736Y437623D01*
X240688Y437563D01*
X240681Y437540D01*
X240668Y437521D01*
X240654Y437445D01*
X240632Y437370D01*
X240635Y437347D01*
X240630Y437324D01*
X240647Y437248D01*
X240656Y437171D01*
X240668Y437149D01*
X240672Y437128D01*
X240703Y437083D01*
X240725Y437043D01*
X240723Y437029D01*
X240729Y436959D01*
X240727Y436888D01*
X240738Y436857D01*
X240740Y436829D01*
X240764Y436784D01*
X240788Y436719D01*
X241974Y434665D01*
X242021Y434612D01*
X242061Y434554D01*
X242088Y434536D01*
X242107Y434515D01*
X242153Y434493D01*
X242211Y434454D01*
X242216Y434452D01*
X242453Y433848D01*
X242472Y433819D01*
X242486Y433780D01*
X242811Y433218D01*
X242809Y433213D01*
X242805Y433142D01*
X242792Y433073D01*
X242798Y433041D01*
X242797Y433013D01*
X242814Y432964D01*
X242827Y432896D01*
X243694Y430689D01*
X243732Y430630D01*
X243763Y430566D01*
X243788Y430544D01*
X243803Y430520D01*
X243845Y430491D01*
X243897Y430445D01*
X243901Y430442D01*
X244046Y429809D01*
X244060Y429778D01*
X244068Y429737D01*
X244305Y429133D01*
X244303Y429128D01*
X244288Y429059D01*
X244265Y428992D01*
X244267Y428959D01*
X244261Y428932D01*
X244271Y428881D01*
X244274Y428812D01*
X244802Y426500D01*
X244831Y426436D01*
X244852Y426369D01*
X244873Y426343D01*
X244885Y426318D01*
X244922Y426283D01*
X244966Y426229D01*
X244970Y426225D01*
X245019Y425578D01*
X245028Y425545D01*
X245030Y425503D01*
X245175Y424871D01*
X245172Y424866D01*
X245147Y424800D01*
X245114Y424737D01*
X245111Y424705D01*
X245101Y424678D01*
X245103Y424627D01*
X245096Y424558D01*
X245273Y422193D01*
X245293Y422126D01*
X245303Y422056D01*
X245320Y422027D01*
X245328Y422000D01*
X245360Y421960D01*
X245395Y421900D01*
X245399Y421896D01*
X245350Y421249D01*
X245355Y421215D01*
X245350Y421173D01*
X245399Y420526D01*
X245395Y420522D01*
X245361Y420461D01*
X245319Y420404D01*
X245311Y420372D01*
X245297Y420347D01*
X245291Y420296D01*
X245274Y420229D01*
X245098Y417864D01*
X245106Y417794D01*
X245107Y417724D01*
X245119Y417693D01*
X245123Y417665D01*
X245148Y417621D01*
X245174Y417557D01*
X245177Y417552D01*
X245033Y416919D01*
X245032Y416885D01*
X245022Y416844D01*
X244973Y416197D01*
X244969Y416194D01*
X244926Y416138D01*
X244876Y416088D01*
X244863Y416058D01*
X244846Y416035D01*
X244833Y415985D01*
X244806Y415922D01*
X244279Y413610D01*
X244277Y413539D01*
X244267Y413469D01*
X244274Y413438D01*
X244274Y413410D01*
X244292Y413361D01*
X244308Y413294D01*
X244311Y413289D01*
X244074Y412685D01*
X244068Y412651D01*
X244051Y412613D01*
X243907Y411980D01*
X243902Y411977D01*
X243851Y411928D01*
X243795Y411886D01*
X243778Y411858D01*
X243757Y411839D01*
X243737Y411792D01*
X243700Y411733D01*
X242835Y409525D01*
X242822Y409455D01*
X242802Y409388D01*
X242805Y409355D01*
X242800Y409328D01*
X242811Y409277D01*
X242817Y409208D01*
X242818Y409203D01*
X242494Y408641D01*
X242483Y408608D01*
X242461Y408573D01*
X242224Y407969D01*
X242219Y407966D01*
X242161Y407926D01*
X242099Y407893D01*
X242078Y407868D01*
X242055Y407851D01*
X242028Y407808D01*
X241983Y407755D01*
X240798Y405701D01*
X240775Y405634D01*
X240745Y405570D01*
X240743Y405538D01*
X240734Y405511D01*
X240738Y405460D01*
X240733Y405390D01*
X240734Y405385D01*
X240329Y404878D01*
X240313Y404847D01*
X240287Y404815D01*
X239962Y404253D01*
X239957Y404251D01*
X239894Y404220D01*
X239827Y404196D01*
X239803Y404175D01*
X239778Y404162D01*
X239744Y404123D01*
X239692Y404078D01*
X238214Y402223D01*
X238182Y402160D01*
X238142Y402102D01*
X238135Y402070D01*
X238122Y402045D01*
X238118Y401993D01*
X238104Y401926D01*
X238104Y401920D01*
X237628Y401479D01*
X237608Y401451D01*
X237576Y401423D01*
X237172Y400916D01*
X237167Y400915D01*
X237099Y400893D01*
X237030Y400880D01*
X237002Y400862D01*
X236976Y400854D01*
X236937Y400820D01*
X236878Y400783D01*
X235141Y399169D01*
X235099Y399112D01*
X235052Y399060D01*
X235040Y399029D01*
X235024Y399007D01*
X235012Y398956D01*
X234987Y398892D01*
X234986Y398886D01*
X234450Y398521D01*
X234426Y398496D01*
X234391Y398473D01*
X233915Y398032D01*
X233910Y398032D01*
X233840Y398021D01*
X233770Y398018D01*
X233740Y398004D01*
X233712Y398000D01*
X233668Y397972D01*
X233605Y397944D01*
X231646Y396608D01*
X231597Y396557D01*
X231542Y396513D01*
X231526Y396484D01*
X231506Y396464D01*
X231487Y396416D01*
X231453Y396356D01*
X231452Y396351D01*
X230867Y396069D01*
X230839Y396048D01*
X230801Y396031D01*
X230265Y395665D01*
X230260Y395666D01*
X230189Y395666D01*
X230119Y395673D01*
X230088Y395664D01*
X230060Y395664D01*
X230012Y395643D01*
X229946Y395625D01*
X227809Y394595D01*
X227753Y394553D01*
X227692Y394517D01*
X227672Y394491D01*
X227650Y394474D01*
X227624Y394430D01*
X227581Y394375D01*
X227579Y394370D01*
X226958Y394179D01*
X226928Y394162D01*
X226888Y394151D01*
X226303Y393870D01*
X226298Y393871D01*
X226228Y393881D01*
X226160Y393899D01*
X226127Y393895D01*
X226100Y393899D01*
X226050Y393886D01*
X225981Y393877D01*
X223715Y393178D01*
X223653Y393144D01*
X223588Y393118D01*
X223564Y393095D01*
X223539Y393082D01*
X223507Y393041D01*
X223457Y392994D01*
X223454Y392989D01*
X222812Y392893D01*
X222779Y392881D01*
X222738Y392876D01*
X222118Y392684D01*
X222113Y392687D01*
X222045Y392707D01*
X221981Y392735D01*
X221948Y392736D01*
X221921Y392744D01*
X221870Y392738D01*
X221800Y392740D01*
X219456Y392386D01*
X219389Y392361D01*
X219321Y392345D01*
X219294Y392327D01*
X219267Y392317D01*
X219229Y392282D01*
X219173Y392243D01*
X219169Y392239D01*
X218520Y392239D01*
X218486Y392232D01*
X218444Y392233D01*
X217803Y392136D01*
X217798Y392139D01*
X217734Y392169D01*
X217674Y392206D01*
X217642Y392212D01*
X217617Y392224D01*
X217565Y392226D01*
X217497Y392238D01*
X215126Y392237D01*
X215056Y392223D01*
X214986Y392218D01*
X214957Y392203D01*
X214929Y392198D01*
X214886Y392169D01*
X214824Y392138D01*
X214820Y392135D01*
X214178Y392231D01*
X214144Y392230D01*
X214103Y392237D01*
X213454Y392237D01*
X213450Y392241D01*
X213391Y392280D01*
X213337Y392326D01*
X213306Y392336D01*
X213283Y392352D01*
X213232Y392361D01*
X213167Y392384D01*
X210822Y392736D01*
X210751Y392733D01*
X210681Y392738D01*
X210650Y392728D01*
X210622Y392726D01*
X210575Y392704D01*
X210509Y392683D01*
X210504Y392680D01*
X209884Y392872D01*
X209850Y392875D01*
X209810Y392888D01*
X209169Y392985D01*
X209165Y392989D01*
X209113Y393037D01*
X209067Y393090D01*
X209038Y393105D01*
X209017Y393124D01*
X208968Y393141D01*
X208907Y393173D01*
X206640Y393871D01*
X206570Y393878D01*
X206501Y393893D01*
X206469Y393888D01*
X206441Y393891D01*
X206392Y393876D01*
X206323Y393865D01*
X206318Y393863D01*
X205733Y394145D01*
X205700Y394153D01*
X205663Y394172D01*
X205043Y394363D01*
X205040Y394368D01*
X204996Y394423D01*
X204958Y394482D01*
X204931Y394502D01*
X204913Y394523D01*
X204868Y394547D01*
X204812Y394588D01*
X203574Y395184D01*
X203490Y395205D01*
X203407Y395231D01*
X203393Y395230D01*
X203380Y395233D01*
X203294Y395220D01*
X203208Y395212D01*
X203195Y395206D01*
X203181Y395204D01*
X203108Y395159D01*
X203031Y395118D01*
X203021Y395106D01*
X203010Y395099D01*
X202977Y395055D01*
X202915Y394980D01*
X184023Y362259D01*
X182786Y363113D01*
X182759Y363124D01*
X182737Y363143D01*
X182668Y363163D01*
X182603Y363191D01*
X182574Y363191D01*
X182546Y363199D01*
X182475Y363191D01*
X182404Y363192D01*
X182377Y363180D01*
X182348Y363177D01*
X182286Y363142D01*
X182221Y363114D01*
X182200Y363094D01*
X182175Y363079D01*
X182112Y363002D01*
X182082Y362972D01*
X182078Y362962D01*
X182069Y362951D01*
X172569Y346451D01*
X172545Y346378D01*
X172514Y346308D01*
X172514Y346284D01*
X172506Y346262D01*
X172513Y346186D01*
X172512Y346109D01*
X172521Y346085D01*
X172522Y346064D01*
X172543Y346025D01*
X172562Y345973D01*
X172563Y345967D01*
X172565Y345965D01*
X172569Y345953D01*
X182069Y329453D01*
X182088Y329431D01*
X182101Y329405D01*
X182154Y329357D01*
X182201Y329304D01*
X182227Y329291D01*
X182249Y329272D01*
X182316Y329249D01*
X182380Y329218D01*
X182409Y329217D01*
X182436Y329207D01*
X182508Y329212D01*
X182579Y329209D01*
X182606Y329219D01*
X182635Y329221D01*
X182725Y329263D01*
X182765Y329278D01*
X182773Y329285D01*
X182786Y329291D01*
X184023Y330145D01*
X202915Y297424D01*
X202972Y297359D01*
X203026Y297291D01*
X203038Y297284D01*
X203047Y297273D01*
X203125Y297236D01*
X203201Y297194D01*
X203215Y297192D01*
X203228Y297186D01*
X203314Y297182D01*
X203400Y297172D01*
X203415Y297176D01*
X203428Y297176D01*
X203480Y297194D01*
X203574Y297220D01*
X204812Y297816D01*
X204868Y297859D01*
X204929Y297894D01*
X204949Y297920D01*
X204972Y297937D01*
X204998Y297982D01*
X205040Y298036D01*
X205043Y298041D01*
X205663Y298232D01*
X205693Y298248D01*
X205733Y298259D01*
X206318Y298541D01*
X206323Y298539D01*
X206393Y298529D01*
X206462Y298511D01*
X206494Y298515D01*
X206522Y298511D01*
X206572Y298525D01*
X206640Y298533D01*
X208907Y299231D01*
X208969Y299265D01*
X209034Y299291D01*
X209058Y299314D01*
X209083Y299327D01*
X209115Y299367D01*
X209165Y299415D01*
X209169Y299419D01*
X209810Y299516D01*
X209843Y299527D01*
X209884Y299532D01*
X210504Y299724D01*
X210509Y299721D01*
X210533Y299714D01*
X210543Y299708D01*
X210569Y299703D01*
X210577Y299701D01*
X210642Y299673D01*
X210674Y299672D01*
X210701Y299664D01*
X210753Y299670D01*
X210822Y299668D01*
X213167Y300020D01*
X213233Y300044D01*
X213302Y300061D01*
X213329Y300079D01*
X213355Y300089D01*
X213393Y300124D01*
X213450Y300163D01*
X213454Y300167D01*
X214103Y300167D01*
X214137Y300174D01*
X214178Y300173D01*
X214820Y300269D01*
X214824Y300266D01*
X214888Y300236D01*
X214948Y300199D01*
X214981Y300193D01*
X215006Y300181D01*
X215058Y300179D01*
X215126Y300167D01*
X217497Y300166D01*
X217566Y300180D01*
X217637Y300185D01*
X217666Y300200D01*
X217693Y300205D01*
X217736Y300234D01*
X217798Y300265D01*
X217803Y300268D01*
X218444Y300171D01*
X218479Y300173D01*
X218520Y300165D01*
X219169Y300165D01*
X219173Y300161D01*
X219231Y300122D01*
X219285Y300077D01*
X219316Y300066D01*
X219340Y300050D01*
X219390Y300041D01*
X219456Y300018D01*
X221800Y299664D01*
X221871Y299668D01*
X221941Y299663D01*
X221973Y299673D01*
X222001Y299674D01*
X222047Y299696D01*
X222113Y299717D01*
X222118Y299720D01*
X222738Y299528D01*
X222772Y299525D01*
X222812Y299511D01*
X223454Y299415D01*
X223457Y299410D01*
X223509Y299363D01*
X223555Y299309D01*
X223585Y299294D01*
X223605Y299275D01*
X223654Y299258D01*
X223715Y299226D01*
X225981Y298527D01*
X226051Y298520D01*
X226120Y298504D01*
X226153Y298509D01*
X226181Y298507D01*
X226230Y298522D01*
X226298Y298533D01*
X226303Y298534D01*
X226888Y298253D01*
X226922Y298244D01*
X226958Y298225D01*
X227579Y298034D01*
X227581Y298029D01*
X227626Y297974D01*
X227664Y297914D01*
X227690Y297895D01*
X227708Y297873D01*
X227753Y297849D01*
X227809Y297809D01*
X229946Y296779D01*
X230014Y296762D01*
X230080Y296736D01*
X230113Y296736D01*
X230140Y296729D01*
X230191Y296737D01*
X230260Y296738D01*
X230265Y296739D01*
X230801Y296373D01*
X230833Y296359D01*
X230867Y296335D01*
X231452Y296053D01*
X231453Y296048D01*
X231489Y295987D01*
X231518Y295923D01*
X231541Y295900D01*
X231556Y295876D01*
X231597Y295845D01*
X231646Y295796D01*
X233605Y294460D01*
X233670Y294432D01*
X233732Y294397D01*
X233764Y294393D01*
X233790Y294382D01*
X233841Y294382D01*
X233910Y294372D01*
X233915Y294372D01*
X234391Y293931D01*
X234420Y293913D01*
X234450Y293883D01*
X234986Y293518D01*
X234987Y293512D01*
X235014Y293447D01*
X235032Y293379D01*
X235052Y293353D01*
X235063Y293327D01*
X235099Y293290D01*
X235141Y293235D01*
X236878Y291621D01*
X236938Y291584D01*
X236994Y291541D01*
X237025Y291531D01*
X237049Y291517D01*
X237100Y291509D01*
X237167Y291489D01*
X237172Y291488D01*
X237576Y290981D01*
X237603Y290958D01*
X237628Y290925D01*
X238104Y290484D01*
X238104Y290478D01*
X238120Y290409D01*
X238128Y290339D01*
X238144Y290311D01*
X238151Y290283D01*
X238181Y290242D01*
X238214Y290181D01*
X239692Y288326D01*
X239746Y288281D01*
X239794Y288229D01*
X239824Y288215D01*
X239845Y288197D01*
X239895Y288182D01*
X239957Y288153D01*
X239962Y288151D01*
X240254Y287646D01*
X240299Y287595D01*
X240338Y287538D01*
X240365Y287520D01*
X240386Y287496D01*
X240448Y287466D01*
X240506Y287428D01*
X240538Y287423D01*
X240567Y287409D01*
X240635Y287405D01*
X240703Y287393D01*
X240735Y287400D01*
G37*
%LPC*%
G36*
X286473Y200433D02*
X286473Y200433D01*
X283364Y203542D01*
X283364Y207938D01*
X286473Y211047D01*
X290869Y211047D01*
X293233Y208683D01*
X293239Y208679D01*
X293244Y208673D01*
X293322Y208624D01*
X293400Y208572D01*
X293407Y208571D01*
X293414Y208567D01*
X293591Y208535D01*
X309274Y208535D01*
X309282Y208536D01*
X309290Y208535D01*
X309380Y208556D01*
X309471Y208574D01*
X309477Y208579D01*
X309485Y208581D01*
X309633Y208683D01*
X312017Y211067D01*
X312021Y211074D01*
X312027Y211078D01*
X312076Y211157D01*
X312128Y211234D01*
X312129Y211242D01*
X312133Y211248D01*
X312165Y211426D01*
X312165Y219306D01*
X312164Y219311D01*
X312165Y219316D01*
X312144Y219409D01*
X312126Y219503D01*
X312123Y219507D01*
X312122Y219512D01*
X312066Y219590D01*
X312013Y219668D01*
X312009Y219671D01*
X312006Y219675D01*
X311924Y219726D01*
X311845Y219778D01*
X311840Y219778D01*
X311835Y219781D01*
X311658Y219813D01*
X306483Y219813D01*
X305590Y220706D01*
X305590Y234970D01*
X306483Y235863D01*
X311063Y235863D01*
X311068Y235864D01*
X311073Y235863D01*
X311166Y235884D01*
X311260Y235902D01*
X311264Y235905D01*
X311269Y235906D01*
X311347Y235962D01*
X311425Y236015D01*
X311428Y236019D01*
X311432Y236022D01*
X311483Y236104D01*
X311535Y236183D01*
X311535Y236188D01*
X311538Y236193D01*
X311570Y236370D01*
X311570Y243306D01*
X311569Y243311D01*
X311570Y243316D01*
X311549Y243409D01*
X311531Y243503D01*
X311528Y243507D01*
X311527Y243512D01*
X311471Y243590D01*
X311418Y243668D01*
X311414Y243671D01*
X311411Y243675D01*
X311329Y243726D01*
X311250Y243778D01*
X311245Y243778D01*
X311240Y243781D01*
X311063Y243813D01*
X307983Y243813D01*
X307090Y244706D01*
X307090Y259970D01*
X307983Y260863D01*
X325247Y260863D01*
X326140Y259970D01*
X326140Y244706D01*
X325247Y243813D01*
X317667Y243813D01*
X317662Y243812D01*
X317657Y243813D01*
X317564Y243792D01*
X317470Y243774D01*
X317466Y243771D01*
X317461Y243770D01*
X317383Y243714D01*
X317305Y243661D01*
X317302Y243657D01*
X317298Y243654D01*
X317247Y243572D01*
X317195Y243493D01*
X317195Y243488D01*
X317192Y243483D01*
X317160Y243306D01*
X317160Y236370D01*
X317161Y236365D01*
X317160Y236360D01*
X317181Y236267D01*
X317199Y236173D01*
X317202Y236169D01*
X317203Y236164D01*
X317259Y236086D01*
X317312Y236008D01*
X317316Y236005D01*
X317319Y236001D01*
X317401Y235950D01*
X317480Y235898D01*
X317485Y235898D01*
X317490Y235895D01*
X317667Y235863D01*
X322247Y235863D01*
X323140Y234970D01*
X323140Y231140D01*
X323141Y231135D01*
X323140Y231130D01*
X323161Y231037D01*
X323179Y230943D01*
X323182Y230939D01*
X323183Y230934D01*
X323239Y230856D01*
X323292Y230778D01*
X323296Y230775D01*
X323299Y230771D01*
X323381Y230720D01*
X323460Y230668D01*
X323465Y230668D01*
X323470Y230665D01*
X323647Y230633D01*
X325083Y230633D01*
X325088Y230634D01*
X325093Y230633D01*
X325186Y230654D01*
X325280Y230672D01*
X325284Y230675D01*
X325289Y230676D01*
X325367Y230732D01*
X325445Y230785D01*
X325448Y230789D01*
X325452Y230792D01*
X325503Y230874D01*
X325555Y230953D01*
X325555Y230958D01*
X325558Y230963D01*
X325590Y231140D01*
X325590Y237970D01*
X326483Y238863D01*
X346747Y238863D01*
X347640Y237970D01*
X347640Y231140D01*
X347641Y231135D01*
X347640Y231130D01*
X347661Y231037D01*
X347679Y230943D01*
X347682Y230939D01*
X347683Y230934D01*
X347739Y230856D01*
X347792Y230778D01*
X347796Y230775D01*
X347799Y230771D01*
X347881Y230720D01*
X347960Y230668D01*
X347965Y230668D01*
X347970Y230665D01*
X348147Y230633D01*
X349083Y230633D01*
X349088Y230634D01*
X349093Y230633D01*
X349186Y230654D01*
X349280Y230672D01*
X349284Y230675D01*
X349289Y230676D01*
X349367Y230732D01*
X349445Y230785D01*
X349448Y230789D01*
X349452Y230792D01*
X349503Y230874D01*
X349555Y230953D01*
X349555Y230958D01*
X349558Y230963D01*
X349590Y231140D01*
X349590Y238009D01*
X349623Y238059D01*
X349624Y238064D01*
X349627Y238068D01*
X349643Y238163D01*
X349661Y238256D01*
X349660Y238261D01*
X349661Y238266D01*
X349639Y238359D01*
X349619Y238452D01*
X349616Y238456D01*
X349615Y238461D01*
X349513Y238609D01*
X345820Y242301D01*
X345820Y246162D01*
X345820Y246165D01*
X345820Y246168D01*
X345800Y246262D01*
X345781Y246359D01*
X345779Y246361D01*
X345779Y246364D01*
X345723Y246444D01*
X345668Y246525D01*
X345666Y246526D01*
X345664Y246528D01*
X345581Y246581D01*
X345500Y246634D01*
X345497Y246634D01*
X345495Y246636D01*
X345399Y246652D01*
X345303Y246670D01*
X345300Y246669D01*
X345298Y246669D01*
X345205Y246648D01*
X345107Y246626D01*
X345105Y246624D01*
X345102Y246624D01*
X344954Y246521D01*
X344747Y246313D01*
X339483Y246313D01*
X339224Y246573D01*
X339219Y246576D01*
X339216Y246580D01*
X339136Y246631D01*
X339057Y246684D01*
X339052Y246685D01*
X339047Y246688D01*
X338953Y246704D01*
X338860Y246722D01*
X338855Y246720D01*
X338850Y246721D01*
X338757Y246700D01*
X338664Y246680D01*
X338660Y246677D01*
X338654Y246676D01*
X338506Y246573D01*
X338247Y246313D01*
X332983Y246313D01*
X332090Y247206D01*
X332090Y261970D01*
X332672Y262551D01*
X332676Y262558D01*
X332682Y262562D01*
X332731Y262641D01*
X332783Y262718D01*
X332784Y262726D01*
X332788Y262732D01*
X332820Y262910D01*
X332820Y276808D01*
X332819Y276816D01*
X332820Y276824D01*
X332799Y276914D01*
X332781Y277005D01*
X332776Y277011D01*
X332774Y277019D01*
X332672Y277167D01*
X327275Y282564D01*
X327268Y282568D01*
X327264Y282574D01*
X327185Y282623D01*
X327108Y282675D01*
X327100Y282676D01*
X327094Y282680D01*
X326916Y282712D01*
X325849Y282712D01*
X325841Y282711D01*
X325834Y282712D01*
X325744Y282691D01*
X325653Y282673D01*
X325646Y282668D01*
X325639Y282666D01*
X325491Y282564D01*
X323127Y280200D01*
X318731Y280200D01*
X315622Y283309D01*
X315622Y287705D01*
X318731Y290814D01*
X323127Y290814D01*
X325491Y288450D01*
X325497Y288446D01*
X325502Y288440D01*
X325580Y288391D01*
X325658Y288339D01*
X325665Y288338D01*
X325672Y288334D01*
X325849Y288302D01*
X329442Y288302D01*
X338410Y279334D01*
X338410Y270240D01*
X338410Y270238D01*
X338410Y270235D01*
X338430Y270140D01*
X338449Y270044D01*
X338451Y270041D01*
X338451Y270039D01*
X338507Y269958D01*
X338562Y269878D01*
X338564Y269876D01*
X338566Y269874D01*
X338649Y269821D01*
X338730Y269769D01*
X338733Y269768D01*
X338735Y269767D01*
X338831Y269750D01*
X338927Y269733D01*
X338930Y269734D01*
X338932Y269733D01*
X339027Y269755D01*
X339123Y269777D01*
X339125Y269778D01*
X339128Y269779D01*
X339276Y269881D01*
X339993Y270599D01*
X344389Y270599D01*
X347498Y267490D01*
X347498Y263370D01*
X347499Y263365D01*
X347498Y263360D01*
X347519Y263267D01*
X347537Y263173D01*
X347540Y263169D01*
X347541Y263164D01*
X347597Y263086D01*
X347650Y263008D01*
X347654Y263005D01*
X347657Y263001D01*
X347739Y262950D01*
X347818Y262898D01*
X347823Y262898D01*
X347828Y262895D01*
X348005Y262863D01*
X351247Y262863D01*
X351506Y262603D01*
X351511Y262600D01*
X351514Y262596D01*
X351594Y262545D01*
X351673Y262492D01*
X351678Y262491D01*
X351683Y262488D01*
X351777Y262472D01*
X351870Y262454D01*
X351875Y262456D01*
X351880Y262455D01*
X351973Y262476D01*
X352066Y262496D01*
X352070Y262499D01*
X352076Y262500D01*
X352224Y262603D01*
X352483Y262863D01*
X357747Y262863D01*
X358006Y262603D01*
X358011Y262600D01*
X358014Y262596D01*
X358094Y262545D01*
X358173Y262492D01*
X358178Y262491D01*
X358183Y262488D01*
X358277Y262472D01*
X358370Y262454D01*
X358375Y262456D01*
X358380Y262455D01*
X358473Y262476D01*
X358566Y262496D01*
X358570Y262499D01*
X358576Y262500D01*
X358724Y262603D01*
X359100Y262980D01*
X359146Y263011D01*
X359924Y263789D01*
X359928Y263796D01*
X359934Y263800D01*
X359983Y263879D01*
X360035Y263956D01*
X360036Y263964D01*
X360040Y263970D01*
X360072Y264148D01*
X360072Y267490D01*
X363181Y270599D01*
X367577Y270599D01*
X370686Y267490D01*
X370686Y263094D01*
X367577Y259985D01*
X365647Y259985D01*
X365642Y259984D01*
X365637Y259985D01*
X365544Y259964D01*
X365450Y259946D01*
X365446Y259943D01*
X365441Y259942D01*
X365363Y259886D01*
X365285Y259833D01*
X365282Y259829D01*
X365278Y259826D01*
X365227Y259744D01*
X365175Y259665D01*
X365175Y259660D01*
X365172Y259655D01*
X365140Y259478D01*
X365140Y257890D01*
X365141Y257885D01*
X365140Y257880D01*
X365161Y257787D01*
X365179Y257693D01*
X365182Y257689D01*
X365183Y257684D01*
X365239Y257606D01*
X365292Y257528D01*
X365296Y257525D01*
X365299Y257521D01*
X365381Y257470D01*
X365460Y257418D01*
X365465Y257418D01*
X365470Y257415D01*
X365647Y257383D01*
X370583Y257383D01*
X370588Y257384D01*
X370593Y257383D01*
X370686Y257404D01*
X370780Y257422D01*
X370784Y257425D01*
X370789Y257426D01*
X370867Y257482D01*
X370945Y257535D01*
X370948Y257539D01*
X370952Y257542D01*
X371003Y257624D01*
X371055Y257703D01*
X371055Y257708D01*
X371058Y257713D01*
X371090Y257890D01*
X371090Y259970D01*
X371983Y260863D01*
X384977Y260863D01*
X384985Y260864D01*
X384993Y260863D01*
X385083Y260884D01*
X385174Y260902D01*
X385180Y260907D01*
X385188Y260909D01*
X385336Y261011D01*
X385930Y261606D01*
X385935Y261612D01*
X385941Y261617D01*
X385990Y261695D01*
X386041Y261773D01*
X386043Y261780D01*
X386047Y261787D01*
X386079Y261964D01*
X386079Y298525D01*
X386078Y298530D01*
X386079Y298535D01*
X386058Y298628D01*
X386039Y298721D01*
X386036Y298726D01*
X386035Y298731D01*
X385980Y298809D01*
X385927Y298887D01*
X385922Y298890D01*
X385919Y298894D01*
X385838Y298945D01*
X385758Y298996D01*
X385753Y298997D01*
X385749Y299000D01*
X385572Y299032D01*
X377448Y299032D01*
X376555Y299925D01*
X376555Y301238D01*
X376554Y301243D01*
X376555Y301248D01*
X376534Y301341D01*
X376515Y301434D01*
X376512Y301439D01*
X376511Y301444D01*
X376456Y301522D01*
X376403Y301600D01*
X376398Y301603D01*
X376395Y301607D01*
X376314Y301658D01*
X376234Y301709D01*
X376229Y301710D01*
X376225Y301713D01*
X376048Y301745D01*
X374614Y301745D01*
X374609Y301744D01*
X374603Y301745D01*
X374510Y301724D01*
X374417Y301705D01*
X374413Y301703D01*
X374408Y301701D01*
X374330Y301646D01*
X374251Y301593D01*
X374249Y301588D01*
X374244Y301585D01*
X374194Y301504D01*
X374142Y301425D01*
X374141Y301420D01*
X374139Y301415D01*
X374107Y301238D01*
X374107Y298908D01*
X373213Y298015D01*
X360950Y298015D01*
X360057Y298908D01*
X360057Y310171D01*
X360950Y311065D01*
X373213Y311065D01*
X374107Y310171D01*
X374107Y307842D01*
X374108Y307837D01*
X374107Y307831D01*
X374127Y307738D01*
X374146Y307645D01*
X374149Y307641D01*
X374150Y307636D01*
X374205Y307558D01*
X374259Y307479D01*
X374263Y307477D01*
X374266Y307472D01*
X374348Y307422D01*
X374427Y307370D01*
X374432Y307369D01*
X374436Y307367D01*
X374614Y307335D01*
X376048Y307335D01*
X376053Y307336D01*
X376058Y307335D01*
X376151Y307355D01*
X376244Y307374D01*
X376248Y307377D01*
X376253Y307378D01*
X376331Y307433D01*
X376410Y307487D01*
X376413Y307491D01*
X376417Y307494D01*
X376468Y307576D01*
X376519Y307655D01*
X376520Y307660D01*
X376523Y307664D01*
X376555Y307842D01*
X376555Y309188D01*
X377448Y310082D01*
X383329Y310082D01*
X383332Y310082D01*
X383334Y310082D01*
X383429Y310102D01*
X383526Y310121D01*
X383528Y310123D01*
X383530Y310123D01*
X383611Y310179D01*
X383691Y310234D01*
X383693Y310236D01*
X383695Y310237D01*
X383748Y310321D01*
X383801Y310402D01*
X383801Y310404D01*
X383803Y310407D01*
X383819Y310503D01*
X383836Y310599D01*
X383836Y310602D01*
X383836Y310604D01*
X383814Y310698D01*
X383793Y310795D01*
X383791Y310797D01*
X383791Y310799D01*
X383688Y310947D01*
X380752Y313884D01*
X380745Y313888D01*
X380741Y313894D01*
X380662Y313943D01*
X380585Y313994D01*
X380577Y313996D01*
X380570Y314000D01*
X380393Y314032D01*
X377448Y314032D01*
X376555Y314925D01*
X376555Y324188D01*
X377448Y325082D01*
X386711Y325082D01*
X387604Y324188D01*
X387604Y315146D01*
X387606Y315138D01*
X387604Y315130D01*
X387625Y315041D01*
X387644Y314949D01*
X387648Y314943D01*
X387650Y314935D01*
X387753Y314787D01*
X391668Y310872D01*
X391668Y259439D01*
X390288Y258059D01*
X390284Y258052D01*
X390278Y258048D01*
X390229Y257969D01*
X390177Y257892D01*
X390176Y257884D01*
X390172Y257878D01*
X390140Y257700D01*
X390140Y244706D01*
X389759Y244326D01*
X389757Y244323D01*
X389755Y244322D01*
X389703Y244241D01*
X389648Y244159D01*
X389647Y244156D01*
X389646Y244154D01*
X389629Y244058D01*
X389610Y243962D01*
X389611Y243959D01*
X389610Y243957D01*
X389632Y243860D01*
X389652Y243766D01*
X389653Y243764D01*
X389654Y243761D01*
X389711Y243681D01*
X389766Y243601D01*
X389769Y243600D01*
X389770Y243598D01*
X389853Y243546D01*
X389935Y243494D01*
X389938Y243493D01*
X389940Y243492D01*
X390118Y243460D01*
X393743Y243460D01*
X395753Y241449D01*
X395760Y241445D01*
X395764Y241439D01*
X395843Y241390D01*
X395920Y241338D01*
X395928Y241337D01*
X395934Y241333D01*
X396112Y241301D01*
X399454Y241301D01*
X402563Y238192D01*
X402563Y233796D01*
X399454Y230687D01*
X395058Y230687D01*
X392506Y233240D01*
X392503Y233241D01*
X392502Y233243D01*
X392421Y233296D01*
X392339Y233350D01*
X392336Y233351D01*
X392334Y233352D01*
X392238Y233370D01*
X392142Y233388D01*
X392139Y233388D01*
X392137Y233388D01*
X392040Y233367D01*
X391946Y233346D01*
X391944Y233345D01*
X391941Y233344D01*
X391861Y233288D01*
X391781Y233232D01*
X391780Y233230D01*
X391778Y233228D01*
X391726Y233146D01*
X391674Y233063D01*
X391673Y233060D01*
X391672Y233058D01*
X391640Y232881D01*
X391640Y220706D01*
X390747Y219813D01*
X374983Y219813D01*
X374090Y220706D01*
X374090Y224536D01*
X374089Y224541D01*
X374090Y224546D01*
X374069Y224639D01*
X374051Y224733D01*
X374048Y224737D01*
X374047Y224742D01*
X373991Y224820D01*
X373938Y224898D01*
X373934Y224901D01*
X373931Y224905D01*
X373849Y224956D01*
X373770Y225008D01*
X373765Y225008D01*
X373760Y225011D01*
X373583Y225043D01*
X372147Y225043D01*
X372142Y225042D01*
X372137Y225043D01*
X372044Y225022D01*
X371950Y225004D01*
X371946Y225001D01*
X371941Y225000D01*
X371863Y224944D01*
X371785Y224891D01*
X371782Y224887D01*
X371778Y224884D01*
X371727Y224802D01*
X371675Y224723D01*
X371675Y224718D01*
X371672Y224713D01*
X371640Y224536D01*
X371640Y217706D01*
X370747Y216813D01*
X350483Y216813D01*
X349590Y217706D01*
X349590Y224536D01*
X349589Y224541D01*
X349590Y224546D01*
X349569Y224639D01*
X349551Y224733D01*
X349548Y224737D01*
X349547Y224742D01*
X349491Y224820D01*
X349438Y224898D01*
X349434Y224901D01*
X349431Y224905D01*
X349349Y224956D01*
X349270Y225008D01*
X349265Y225008D01*
X349260Y225011D01*
X349083Y225043D01*
X348147Y225043D01*
X348142Y225042D01*
X348137Y225043D01*
X348044Y225022D01*
X347950Y225004D01*
X347946Y225001D01*
X347941Y225000D01*
X347863Y224944D01*
X347785Y224891D01*
X347782Y224887D01*
X347778Y224884D01*
X347727Y224802D01*
X347675Y224723D01*
X347675Y224718D01*
X347672Y224713D01*
X347640Y224536D01*
X347640Y217706D01*
X346747Y216813D01*
X326483Y216813D01*
X325590Y217706D01*
X325590Y224536D01*
X325589Y224541D01*
X325590Y224546D01*
X325569Y224639D01*
X325551Y224733D01*
X325548Y224737D01*
X325547Y224742D01*
X325491Y224820D01*
X325438Y224898D01*
X325434Y224901D01*
X325431Y224905D01*
X325349Y224956D01*
X325270Y225008D01*
X325265Y225008D01*
X325260Y225011D01*
X325083Y225043D01*
X323647Y225043D01*
X323642Y225042D01*
X323637Y225043D01*
X323544Y225022D01*
X323450Y225004D01*
X323446Y225001D01*
X323441Y225000D01*
X323363Y224944D01*
X323285Y224891D01*
X323282Y224887D01*
X323278Y224884D01*
X323227Y224802D01*
X323175Y224723D01*
X323175Y224718D01*
X323172Y224713D01*
X323140Y224536D01*
X323140Y220706D01*
X322247Y219813D01*
X318262Y219813D01*
X318257Y219812D01*
X318252Y219813D01*
X318159Y219792D01*
X318065Y219774D01*
X318061Y219771D01*
X318056Y219770D01*
X317978Y219714D01*
X317900Y219661D01*
X317897Y219657D01*
X317893Y219654D01*
X317842Y219572D01*
X317790Y219493D01*
X317790Y219488D01*
X317787Y219483D01*
X317755Y219306D01*
X317755Y208900D01*
X315969Y207115D01*
X311800Y202945D01*
X293591Y202945D01*
X293583Y202944D01*
X293576Y202945D01*
X293486Y202924D01*
X293395Y202906D01*
X293388Y202901D01*
X293381Y202899D01*
X293233Y202797D01*
X290869Y200433D01*
X286473Y200433D01*
G37*
%LPD*%
G36*
X376187Y391764D02*
X376187Y391764D01*
X376189Y391763D01*
X376284Y391785D01*
X376380Y391807D01*
X376382Y391808D01*
X376385Y391809D01*
X376533Y391911D01*
X378486Y393865D01*
X378490Y393871D01*
X378497Y393876D01*
X378546Y393955D01*
X378597Y394032D01*
X378598Y394040D01*
X378603Y394046D01*
X378635Y394224D01*
X378635Y417176D01*
X378633Y417184D01*
X378634Y417191D01*
X378613Y417281D01*
X378595Y417372D01*
X378591Y417379D01*
X378589Y417387D01*
X378486Y417535D01*
X369069Y426952D01*
X369062Y426956D01*
X369058Y426962D01*
X368979Y427011D01*
X368902Y427063D01*
X368894Y427064D01*
X368888Y427068D01*
X368710Y427100D01*
X341234Y427100D01*
X311538Y456797D01*
X311531Y456801D01*
X311527Y456807D01*
X311448Y456856D01*
X311371Y456908D01*
X311363Y456909D01*
X311357Y456913D01*
X311179Y456945D01*
X296995Y456945D01*
X296992Y456945D01*
X296990Y456945D01*
X296894Y456925D01*
X296798Y456906D01*
X296796Y456904D01*
X296794Y456904D01*
X296714Y456848D01*
X296632Y456793D01*
X296631Y456791D01*
X296629Y456789D01*
X296576Y456706D01*
X296523Y456625D01*
X296523Y456622D01*
X296521Y456620D01*
X296505Y456524D01*
X296488Y456428D01*
X296488Y456425D01*
X296488Y456423D01*
X296510Y456328D01*
X296531Y456232D01*
X296533Y456230D01*
X296533Y456227D01*
X296636Y456079D01*
X297173Y455542D01*
X303183Y449532D01*
X303185Y449526D01*
X303203Y449435D01*
X303208Y449428D01*
X303209Y449421D01*
X303312Y449273D01*
X305676Y446909D01*
X305676Y442513D01*
X302567Y439405D01*
X298171Y439405D01*
X295062Y442513D01*
X295062Y446909D01*
X296123Y447970D01*
X296126Y447975D01*
X296130Y447978D01*
X296181Y448058D01*
X296234Y448137D01*
X296235Y448142D01*
X296238Y448147D01*
X296254Y448241D01*
X296272Y448334D01*
X296271Y448339D01*
X296271Y448344D01*
X296250Y448437D01*
X296230Y448530D01*
X296227Y448535D01*
X296226Y448540D01*
X296123Y448688D01*
X293221Y451590D01*
X293215Y451594D01*
X293210Y451600D01*
X293131Y451649D01*
X293054Y451701D01*
X293046Y451702D01*
X293040Y451706D01*
X292862Y451738D01*
X262226Y451738D01*
X262218Y451737D01*
X262210Y451738D01*
X262120Y451717D01*
X262029Y451699D01*
X262023Y451694D01*
X262015Y451692D01*
X261867Y451590D01*
X254911Y444634D01*
X254907Y444627D01*
X254901Y444623D01*
X254852Y444544D01*
X254800Y444467D01*
X254799Y444459D01*
X254795Y444453D01*
X254763Y444275D01*
X254763Y414218D01*
X254763Y414215D01*
X254763Y414212D01*
X254783Y414117D01*
X254802Y414021D01*
X254804Y414019D01*
X254804Y414016D01*
X254860Y413936D01*
X254915Y413855D01*
X254917Y413854D01*
X254919Y413852D01*
X255002Y413798D01*
X255083Y413746D01*
X255086Y413746D01*
X255088Y413744D01*
X255184Y413728D01*
X255280Y413710D01*
X255283Y413711D01*
X255285Y413711D01*
X255379Y413732D01*
X255476Y413754D01*
X255478Y413756D01*
X255481Y413756D01*
X255629Y413859D01*
X261591Y419821D01*
X261595Y419827D01*
X261601Y419832D01*
X261650Y419911D01*
X261702Y419988D01*
X261703Y419996D01*
X261707Y420002D01*
X261739Y420180D01*
X261739Y428035D01*
X262632Y428928D01*
X269419Y428928D01*
X269427Y428929D01*
X269435Y428928D01*
X269525Y428949D01*
X269616Y428967D01*
X269622Y428972D01*
X269630Y428974D01*
X269778Y429076D01*
X271714Y431012D01*
X271715Y431015D01*
X271718Y431016D01*
X271770Y431097D01*
X271825Y431179D01*
X271825Y431182D01*
X271827Y431184D01*
X271844Y431280D01*
X271863Y431376D01*
X271862Y431379D01*
X271862Y431381D01*
X271841Y431478D01*
X271821Y431572D01*
X271819Y431574D01*
X271819Y431577D01*
X271762Y431657D01*
X271707Y431737D01*
X271704Y431738D01*
X271703Y431740D01*
X271620Y431792D01*
X271537Y431844D01*
X271535Y431845D01*
X271533Y431846D01*
X271355Y431878D01*
X262632Y431878D01*
X261739Y432771D01*
X261739Y447035D01*
X262632Y447928D01*
X278896Y447928D01*
X279789Y447035D01*
X279789Y443205D01*
X279790Y443200D01*
X279789Y443195D01*
X279810Y443102D01*
X279828Y443008D01*
X279831Y443004D01*
X279832Y442999D01*
X279888Y442921D01*
X279941Y442843D01*
X279945Y442840D01*
X279948Y442836D01*
X280030Y442785D01*
X280109Y442733D01*
X280114Y442733D01*
X280119Y442730D01*
X280296Y442698D01*
X288838Y442698D01*
X295141Y436394D01*
X295148Y436390D01*
X295152Y436384D01*
X295231Y436335D01*
X295308Y436283D01*
X295316Y436282D01*
X295322Y436278D01*
X295500Y436246D01*
X312788Y436246D01*
X316261Y432773D01*
X316266Y432769D01*
X316270Y432764D01*
X316349Y432714D01*
X316428Y432662D01*
X316434Y432660D01*
X316440Y432657D01*
X316532Y432642D01*
X316625Y432624D01*
X316631Y432625D01*
X316638Y432624D01*
X316814Y432663D01*
X316868Y432685D01*
X319092Y432685D01*
X319669Y432446D01*
X319678Y432445D01*
X319686Y432440D01*
X319863Y432408D01*
X320178Y432408D01*
X320401Y432185D01*
X320409Y432180D01*
X320414Y432172D01*
X320566Y432075D01*
X321146Y431835D01*
X344272Y408708D01*
X344279Y408704D01*
X344283Y408698D01*
X344362Y408649D01*
X344439Y408597D01*
X344447Y408596D01*
X344453Y408592D01*
X344631Y408560D01*
X356108Y408560D01*
X356113Y408561D01*
X356118Y408560D01*
X356211Y408581D01*
X356305Y408599D01*
X356309Y408602D01*
X356314Y408603D01*
X356392Y408659D01*
X356470Y408712D01*
X356473Y408716D01*
X356477Y408719D01*
X356528Y408801D01*
X356580Y408880D01*
X356580Y408885D01*
X356583Y408890D01*
X356615Y409067D01*
X356615Y416811D01*
X357508Y417704D01*
X374774Y417704D01*
X375667Y416811D01*
X375667Y392270D01*
X375667Y392268D01*
X375667Y392265D01*
X375687Y392170D01*
X375706Y392074D01*
X375708Y392071D01*
X375708Y392069D01*
X375764Y391988D01*
X375819Y391908D01*
X375821Y391906D01*
X375823Y391904D01*
X375906Y391851D01*
X375987Y391799D01*
X375990Y391798D01*
X375992Y391797D01*
X376088Y391780D01*
X376184Y391763D01*
X376187Y391764D01*
G37*
G36*
X478143Y393769D02*
X478143Y393769D01*
X478186Y393768D01*
X482179Y394369D01*
X482209Y394380D01*
X482252Y394385D01*
X486111Y395574D01*
X486139Y395589D01*
X486180Y395601D01*
X489818Y397352D01*
X489840Y397369D01*
X489866Y397378D01*
X489919Y397428D01*
X489977Y397472D01*
X489990Y397496D01*
X490010Y397515D01*
X490040Y397581D01*
X490076Y397645D01*
X490079Y397672D01*
X490090Y397697D01*
X490091Y397770D01*
X490100Y397842D01*
X490092Y397868D01*
X490092Y397896D01*
X490056Y397994D01*
X490044Y398033D01*
X490038Y398041D01*
X490034Y398052D01*
X463034Y444852D01*
X463016Y444872D01*
X463005Y444897D01*
X462951Y444946D01*
X462903Y445001D01*
X462878Y445012D01*
X462858Y445031D01*
X462789Y445055D01*
X462723Y445086D01*
X462696Y445088D01*
X462671Y445097D01*
X462598Y445092D01*
X462525Y445095D01*
X462499Y445086D01*
X462472Y445084D01*
X462376Y445040D01*
X462338Y445026D01*
X462331Y445019D01*
X462321Y445015D01*
X458984Y442741D01*
X458962Y442718D01*
X458926Y442695D01*
X455965Y439949D01*
X455946Y439923D01*
X455914Y439895D01*
X453396Y436739D01*
X453381Y436710D01*
X453354Y436677D01*
X451334Y433181D01*
X451324Y433151D01*
X451301Y433114D01*
X449825Y429356D01*
X449820Y429324D01*
X449803Y429284D01*
X448903Y425348D01*
X448903Y425316D01*
X448892Y425274D01*
X448589Y421248D01*
X448592Y421225D01*
X448589Y421205D01*
X448591Y421195D01*
X448589Y421174D01*
X448890Y417147D01*
X448898Y417116D01*
X448901Y417073D01*
X449798Y413137D01*
X449811Y413108D01*
X449820Y413065D01*
X451294Y409306D01*
X451311Y409279D01*
X451326Y409239D01*
X453344Y405742D01*
X453365Y405718D01*
X453386Y405680D01*
X455902Y402522D01*
X455927Y402502D01*
X455953Y402468D01*
X458912Y399720D01*
X458939Y399704D01*
X458970Y399674D01*
X462306Y397398D01*
X462335Y397386D01*
X462370Y397361D01*
X466008Y395608D01*
X466038Y395600D01*
X466077Y395581D01*
X469935Y394389D01*
X469967Y394386D01*
X470008Y394373D01*
X474000Y393770D01*
X474032Y393771D01*
X474074Y393764D01*
X478112Y393763D01*
X478143Y393769D01*
G37*
G36*
X218330Y393764D02*
X218330Y393764D01*
X218361Y393770D01*
X218404Y393770D01*
X222396Y394373D01*
X222426Y394384D01*
X222469Y394389D01*
X226327Y395581D01*
X226355Y395596D01*
X226397Y395608D01*
X230034Y397361D01*
X230059Y397380D01*
X230098Y397398D01*
X233434Y399674D01*
X233456Y399697D01*
X233492Y399720D01*
X236451Y402468D01*
X236470Y402493D01*
X236502Y402522D01*
X239018Y405680D01*
X239033Y405708D01*
X239060Y405742D01*
X241078Y409239D01*
X241088Y409269D01*
X241110Y409306D01*
X242584Y413065D01*
X242590Y413097D01*
X242606Y413137D01*
X243503Y417073D01*
X243504Y417105D01*
X243514Y417147D01*
X243815Y421174D01*
X243811Y421205D01*
X243812Y421221D01*
X243815Y421238D01*
X243814Y421242D01*
X243815Y421248D01*
X243512Y425274D01*
X243503Y425305D01*
X243501Y425348D01*
X242601Y429284D01*
X242588Y429313D01*
X242579Y429356D01*
X241103Y433114D01*
X241085Y433141D01*
X241070Y433181D01*
X239050Y436677D01*
X239029Y436701D01*
X239008Y436739D01*
X236490Y439895D01*
X236465Y439915D01*
X236439Y439949D01*
X233478Y442695D01*
X233451Y442711D01*
X233420Y442741D01*
X230083Y445015D01*
X230058Y445025D01*
X230037Y445042D01*
X229967Y445063D01*
X229900Y445092D01*
X229872Y445092D01*
X229846Y445099D01*
X229774Y445091D01*
X229701Y445091D01*
X229676Y445080D01*
X229649Y445077D01*
X229585Y445041D01*
X229518Y445013D01*
X229499Y444993D01*
X229476Y444980D01*
X229409Y444899D01*
X229380Y444869D01*
X229377Y444860D01*
X229370Y444852D01*
X202370Y398052D01*
X202361Y398026D01*
X202345Y398003D01*
X202330Y397932D01*
X202306Y397863D01*
X202309Y397836D01*
X202303Y397809D01*
X202316Y397738D01*
X202322Y397665D01*
X202335Y397640D01*
X202340Y397614D01*
X202380Y397553D01*
X202414Y397488D01*
X202435Y397471D01*
X202450Y397448D01*
X202536Y397387D01*
X202567Y397362D01*
X202576Y397359D01*
X202586Y397352D01*
X206224Y395601D01*
X206255Y395594D01*
X206293Y395574D01*
X210152Y394385D01*
X210184Y394382D01*
X210225Y394369D01*
X214218Y393768D01*
X214249Y393770D01*
X214292Y393763D01*
X218330Y393764D01*
G37*
G36*
X462630Y247313D02*
X462630Y247313D01*
X462703Y247313D01*
X462728Y247324D01*
X462755Y247327D01*
X462819Y247363D01*
X462886Y247391D01*
X462905Y247411D01*
X462928Y247424D01*
X462996Y247505D01*
X463024Y247535D01*
X463027Y247544D01*
X463034Y247553D01*
X490034Y294353D01*
X490043Y294378D01*
X490059Y294401D01*
X490074Y294472D01*
X490098Y294541D01*
X490095Y294568D01*
X490101Y294595D01*
X490088Y294666D01*
X490082Y294739D01*
X490069Y294764D01*
X490064Y294790D01*
X490024Y294851D01*
X489990Y294916D01*
X489969Y294933D01*
X489954Y294956D01*
X489868Y295017D01*
X489837Y295042D01*
X489828Y295045D01*
X489818Y295052D01*
X486180Y296803D01*
X486149Y296810D01*
X486111Y296830D01*
X482252Y298019D01*
X482220Y298022D01*
X482179Y298035D01*
X478186Y298636D01*
X478155Y298634D01*
X478112Y298641D01*
X474074Y298640D01*
X474043Y298634D01*
X474000Y298634D01*
X470008Y298031D01*
X469978Y298020D01*
X469935Y298015D01*
X466077Y296823D01*
X466049Y296808D01*
X466008Y296796D01*
X462370Y295043D01*
X462345Y295024D01*
X462306Y295006D01*
X458970Y292730D01*
X458948Y292707D01*
X458912Y292684D01*
X455953Y289936D01*
X455934Y289911D01*
X455902Y289882D01*
X453386Y286724D01*
X453371Y286696D01*
X453344Y286662D01*
X451326Y283165D01*
X451316Y283135D01*
X451294Y283098D01*
X449820Y279339D01*
X449814Y279307D01*
X449798Y279267D01*
X448901Y275331D01*
X448900Y275299D01*
X448890Y275257D01*
X448589Y271231D01*
X448593Y271199D01*
X448589Y271156D01*
X448892Y267130D01*
X448901Y267099D01*
X448903Y267056D01*
X449803Y263120D01*
X449816Y263091D01*
X449825Y263048D01*
X451301Y259290D01*
X451319Y259263D01*
X451334Y259223D01*
X453354Y255727D01*
X453375Y255703D01*
X453396Y255665D01*
X455914Y252509D01*
X455939Y252489D01*
X455965Y252455D01*
X458926Y249709D01*
X458953Y249693D01*
X458984Y249663D01*
X462321Y247389D01*
X462346Y247379D01*
X462367Y247362D01*
X462437Y247341D01*
X462504Y247312D01*
X462532Y247313D01*
X462558Y247305D01*
X462630Y247313D01*
G37*
G36*
X229806Y247312D02*
X229806Y247312D01*
X229879Y247309D01*
X229905Y247318D01*
X229932Y247320D01*
X230028Y247364D01*
X230066Y247378D01*
X230073Y247385D01*
X230083Y247389D01*
X233420Y249663D01*
X233442Y249686D01*
X233478Y249709D01*
X236439Y252455D01*
X236458Y252481D01*
X236490Y252509D01*
X239008Y255665D01*
X239023Y255694D01*
X239050Y255727D01*
X241070Y259223D01*
X241080Y259253D01*
X241103Y259290D01*
X242579Y263048D01*
X242584Y263080D01*
X242601Y263120D01*
X243501Y267056D01*
X243501Y267088D01*
X243512Y267130D01*
X243815Y271156D01*
X243811Y271187D01*
X243815Y271231D01*
X243514Y275257D01*
X243506Y275288D01*
X243503Y275331D01*
X242606Y279267D01*
X242593Y279296D01*
X242584Y279339D01*
X241110Y283098D01*
X241093Y283125D01*
X241078Y283165D01*
X239060Y286662D01*
X239039Y286686D01*
X239018Y286724D01*
X236502Y289882D01*
X236477Y289902D01*
X236451Y289936D01*
X233492Y292684D01*
X233465Y292700D01*
X233434Y292730D01*
X230098Y295006D01*
X230069Y295018D01*
X230034Y295043D01*
X226397Y296796D01*
X226366Y296804D01*
X226327Y296823D01*
X222469Y298015D01*
X222437Y298018D01*
X222396Y298031D01*
X218404Y298634D01*
X218372Y298633D01*
X218330Y298640D01*
X214292Y298641D01*
X214261Y298635D01*
X214218Y298636D01*
X210225Y298035D01*
X210195Y298024D01*
X210152Y298019D01*
X206293Y296830D01*
X206265Y296815D01*
X206224Y296803D01*
X202586Y295052D01*
X202564Y295035D01*
X202538Y295026D01*
X202485Y294976D01*
X202427Y294932D01*
X202414Y294908D01*
X202394Y294889D01*
X202364Y294823D01*
X202328Y294759D01*
X202325Y294732D01*
X202314Y294707D01*
X202313Y294634D01*
X202304Y294562D01*
X202312Y294536D01*
X202312Y294508D01*
X202348Y294410D01*
X202360Y294371D01*
X202366Y294363D01*
X202370Y294353D01*
X229370Y247553D01*
X229388Y247532D01*
X229399Y247507D01*
X229453Y247458D01*
X229501Y247404D01*
X229526Y247392D01*
X229546Y247373D01*
X229615Y247349D01*
X229681Y247318D01*
X229708Y247317D01*
X229733Y247307D01*
X229806Y247312D01*
G37*
G36*
X348251Y468785D02*
X348251Y468785D01*
X348294Y468784D01*
X352284Y469385D01*
X352314Y469396D01*
X352357Y469402D01*
X356213Y470591D01*
X356241Y470607D01*
X356283Y470619D01*
X359919Y472370D01*
X359944Y472389D01*
X359983Y472407D01*
X363317Y474680D01*
X363340Y474703D01*
X363376Y474727D01*
X366334Y477471D01*
X366353Y477497D01*
X366385Y477526D01*
X368901Y480681D01*
X368915Y480709D01*
X368943Y480743D01*
X370961Y484238D01*
X370971Y484268D01*
X370993Y484305D01*
X372467Y488061D01*
X372468Y488068D01*
X372470Y488069D01*
X372474Y488096D01*
X372489Y488133D01*
X373387Y492067D01*
X373388Y492099D01*
X373398Y492141D01*
X373700Y496165D01*
X373696Y496192D01*
X373701Y496219D01*
X373684Y496289D01*
X373675Y496362D01*
X373661Y496386D01*
X373655Y496412D01*
X373612Y496471D01*
X373575Y496534D01*
X373553Y496550D01*
X373537Y496572D01*
X373474Y496609D01*
X373416Y496653D01*
X373389Y496660D01*
X373366Y496674D01*
X373262Y496691D01*
X373223Y496701D01*
X373213Y496699D01*
X373202Y496701D01*
X319202Y496701D01*
X319175Y496696D01*
X319148Y496698D01*
X319079Y496676D01*
X319007Y496662D01*
X318985Y496646D01*
X318959Y496638D01*
X318903Y496590D01*
X318843Y496549D01*
X318829Y496526D01*
X318808Y496508D01*
X318776Y496443D01*
X318736Y496382D01*
X318732Y496355D01*
X318720Y496330D01*
X318710Y496226D01*
X318703Y496185D01*
X318705Y496176D01*
X318704Y496165D01*
X319006Y492141D01*
X319014Y492110D01*
X319017Y492067D01*
X319915Y488133D01*
X319928Y488104D01*
X319937Y488061D01*
X321411Y484305D01*
X321428Y484278D01*
X321443Y484238D01*
X323461Y480743D01*
X323482Y480719D01*
X323503Y480681D01*
X326019Y477526D01*
X326044Y477506D01*
X326070Y477471D01*
X329028Y474727D01*
X329055Y474710D01*
X329087Y474680D01*
X332421Y472407D01*
X332450Y472394D01*
X332485Y472370D01*
X336121Y470619D01*
X336152Y470611D01*
X336191Y470591D01*
X340047Y469402D01*
X340078Y469399D01*
X340120Y469385D01*
X344110Y468784D01*
X344142Y468785D01*
X344184Y468778D01*
X348220Y468778D01*
X348251Y468785D01*
G37*
%LPC*%
G36*
X383704Y446485D02*
X383704Y446485D01*
X382810Y447378D01*
X382810Y450208D01*
X382809Y450213D01*
X382810Y450218D01*
X382790Y450311D01*
X382771Y450404D01*
X382768Y450408D01*
X382767Y450413D01*
X382711Y450491D01*
X382658Y450570D01*
X382654Y450573D01*
X382651Y450577D01*
X382569Y450628D01*
X382490Y450679D01*
X382485Y450680D01*
X382480Y450683D01*
X382303Y450715D01*
X379602Y450715D01*
X379597Y450714D01*
X379592Y450715D01*
X379499Y450694D01*
X379405Y450675D01*
X379401Y450672D01*
X379396Y450671D01*
X379318Y450616D01*
X379240Y450563D01*
X379237Y450558D01*
X379232Y450555D01*
X379182Y450474D01*
X379130Y450394D01*
X379129Y450389D01*
X379127Y450385D01*
X379095Y450208D01*
X379095Y449350D01*
X376737Y446992D01*
X362403Y446992D01*
X360676Y448720D01*
X360671Y448722D01*
X360668Y448727D01*
X360588Y448778D01*
X360509Y448830D01*
X360504Y448831D01*
X360499Y448834D01*
X360405Y448850D01*
X360312Y448868D01*
X360307Y448867D01*
X360302Y448868D01*
X360209Y448846D01*
X360116Y448826D01*
X360111Y448823D01*
X360106Y448822D01*
X359958Y448720D01*
X359449Y448210D01*
X355053Y448210D01*
X351944Y451319D01*
X351944Y455715D01*
X355053Y458824D01*
X359449Y458824D01*
X359958Y458314D01*
X359963Y458312D01*
X359966Y458307D01*
X360046Y458256D01*
X360125Y458204D01*
X360130Y458203D01*
X360135Y458200D01*
X360229Y458184D01*
X360322Y458166D01*
X360327Y458167D01*
X360333Y458166D01*
X360425Y458188D01*
X360518Y458208D01*
X360523Y458211D01*
X360528Y458212D01*
X360676Y458314D01*
X362403Y460042D01*
X376737Y460042D01*
X379095Y457684D01*
X379095Y456811D01*
X379096Y456806D01*
X379095Y456801D01*
X379116Y456708D01*
X379134Y456615D01*
X379137Y456611D01*
X379138Y456606D01*
X379194Y456528D01*
X379247Y456449D01*
X379251Y456446D01*
X379254Y456442D01*
X379336Y456391D01*
X379415Y456340D01*
X379420Y456339D01*
X379425Y456336D01*
X379602Y456304D01*
X382303Y456304D01*
X382308Y456305D01*
X382313Y456304D01*
X382407Y456325D01*
X382500Y456344D01*
X382504Y456347D01*
X382509Y456348D01*
X382587Y456403D01*
X382665Y456456D01*
X382668Y456461D01*
X382673Y456464D01*
X382723Y456545D01*
X382775Y456625D01*
X382776Y456630D01*
X382778Y456634D01*
X382810Y456811D01*
X382810Y459641D01*
X383704Y460534D01*
X394967Y460534D01*
X395860Y459641D01*
X395860Y447378D01*
X394967Y446485D01*
X383704Y446485D01*
G37*
%LPD*%
%LPC*%
G36*
X252437Y336323D02*
X252437Y336323D01*
X249328Y339432D01*
X249328Y343828D01*
X252437Y346937D01*
X255779Y346937D01*
X255787Y346938D01*
X255795Y346937D01*
X255885Y346958D01*
X255976Y346976D01*
X255982Y346981D01*
X255990Y346983D01*
X256138Y347085D01*
X257810Y348757D01*
X257840Y348778D01*
X257843Y348782D01*
X257847Y348785D01*
X257898Y348867D01*
X257950Y348946D01*
X257950Y348951D01*
X257953Y348956D01*
X257985Y349133D01*
X257985Y351963D01*
X258878Y352856D01*
X282142Y352856D01*
X283035Y351963D01*
X283035Y339699D01*
X282142Y338806D01*
X259526Y338806D01*
X259518Y338805D01*
X259511Y338806D01*
X259421Y338785D01*
X259330Y338767D01*
X259323Y338762D01*
X259316Y338760D01*
X259168Y338658D01*
X256833Y336323D01*
X252437Y336323D01*
G37*
%LPD*%
%LPC*%
G36*
X400704Y446485D02*
X400704Y446485D01*
X399810Y447378D01*
X399810Y459641D01*
X400704Y460534D01*
X403098Y460534D01*
X403103Y460535D01*
X403108Y460534D01*
X403201Y460555D01*
X403295Y460574D01*
X403299Y460577D01*
X403304Y460578D01*
X403382Y460633D01*
X403460Y460686D01*
X403463Y460691D01*
X403467Y460694D01*
X403518Y460775D01*
X403570Y460855D01*
X403570Y460860D01*
X403573Y460864D01*
X403605Y461041D01*
X403605Y464849D01*
X403604Y464857D01*
X403605Y464865D01*
X403584Y464955D01*
X403566Y465046D01*
X403561Y465052D01*
X403559Y465060D01*
X403457Y465208D01*
X401045Y467620D01*
X401038Y467624D01*
X401034Y467630D01*
X400955Y467679D01*
X400878Y467731D01*
X400870Y467732D01*
X400864Y467736D01*
X400686Y467768D01*
X397344Y467768D01*
X394235Y470877D01*
X394235Y475273D01*
X397344Y478382D01*
X401740Y478382D01*
X404849Y475273D01*
X404849Y471931D01*
X404850Y471923D01*
X404849Y471915D01*
X404870Y471825D01*
X404888Y471734D01*
X404893Y471728D01*
X404895Y471720D01*
X404997Y471572D01*
X409195Y467375D01*
X409195Y461041D01*
X409196Y461036D01*
X409195Y461031D01*
X409216Y460938D01*
X409234Y460845D01*
X409237Y460841D01*
X409238Y460836D01*
X409294Y460758D01*
X409347Y460679D01*
X409351Y460676D01*
X409354Y460672D01*
X409436Y460621D01*
X409515Y460570D01*
X409520Y460569D01*
X409525Y460566D01*
X409702Y460534D01*
X411967Y460534D01*
X412860Y459641D01*
X412860Y447378D01*
X411967Y446485D01*
X400704Y446485D01*
G37*
%LPD*%
%LPC*%
G36*
X223211Y340935D02*
X223211Y340935D01*
X220853Y343292D01*
X220853Y351626D01*
X223211Y353984D01*
X237545Y353984D01*
X238631Y352898D01*
X238635Y352895D01*
X238638Y352891D01*
X238718Y352840D01*
X238798Y352787D01*
X238803Y352786D01*
X238807Y352783D01*
X238901Y352767D01*
X238995Y352750D01*
X239000Y352751D01*
X239005Y352750D01*
X239098Y352771D01*
X239191Y352791D01*
X239195Y352794D01*
X239200Y352795D01*
X239348Y352898D01*
X242213Y355763D01*
X246610Y355763D01*
X249718Y352655D01*
X249718Y348258D01*
X246610Y345150D01*
X243267Y345150D01*
X243259Y345148D01*
X243252Y345150D01*
X243162Y345129D01*
X243071Y345110D01*
X243064Y345106D01*
X243057Y345104D01*
X242909Y345001D01*
X242572Y344665D01*
X240410Y344665D01*
X240405Y344664D01*
X240400Y344664D01*
X240307Y344644D01*
X240213Y344625D01*
X240209Y344622D01*
X240204Y344621D01*
X240126Y344566D01*
X240048Y344512D01*
X240045Y344508D01*
X240040Y344505D01*
X239990Y344424D01*
X239938Y344344D01*
X239937Y344339D01*
X239935Y344335D01*
X239903Y344157D01*
X239903Y343292D01*
X237545Y340935D01*
X223211Y340935D01*
G37*
%LPD*%
%LPC*%
G36*
X456159Y346230D02*
X456159Y346230D01*
X453802Y348588D01*
X453802Y356922D01*
X456159Y359280D01*
X457902Y359280D01*
X457905Y359280D01*
X457907Y359280D01*
X458003Y359300D01*
X458099Y359319D01*
X458101Y359321D01*
X458103Y359322D01*
X458183Y359377D01*
X458264Y359432D01*
X458266Y359434D01*
X458268Y359436D01*
X458321Y359519D01*
X458374Y359600D01*
X458374Y359603D01*
X458376Y359605D01*
X458392Y359701D01*
X458409Y359797D01*
X458409Y359800D01*
X458409Y359803D01*
X458388Y359895D01*
X458366Y359993D01*
X458364Y359995D01*
X458364Y359998D01*
X458261Y360146D01*
X458020Y360387D01*
X458020Y364783D01*
X461128Y367892D01*
X465525Y367892D01*
X468633Y364783D01*
X468633Y360387D01*
X468392Y360146D01*
X468391Y360144D01*
X468389Y360142D01*
X468336Y360061D01*
X468281Y359979D01*
X468281Y359976D01*
X468279Y359974D01*
X468262Y359877D01*
X468244Y359782D01*
X468244Y359779D01*
X468244Y359777D01*
X468265Y359680D01*
X468285Y359586D01*
X468287Y359584D01*
X468287Y359581D01*
X468345Y359500D01*
X468400Y359421D01*
X468402Y359420D01*
X468403Y359418D01*
X468488Y359365D01*
X468569Y359314D01*
X468571Y359313D01*
X468574Y359312D01*
X468751Y359280D01*
X470494Y359280D01*
X472851Y356922D01*
X472851Y348588D01*
X470494Y346230D01*
X456159Y346230D01*
G37*
%LPD*%
%LPC*%
G36*
X406086Y251911D02*
X406086Y251911D01*
X405193Y252804D01*
X405193Y262068D01*
X406086Y262961D01*
X408277Y262961D01*
X408285Y262962D01*
X408293Y262961D01*
X408383Y262982D01*
X408474Y263000D01*
X408480Y263005D01*
X408488Y263007D01*
X408636Y263109D01*
X409709Y264182D01*
X412989Y267463D01*
X422939Y267463D01*
X422947Y267464D01*
X422955Y267463D01*
X423045Y267484D01*
X423136Y267502D01*
X423142Y267507D01*
X423150Y267509D01*
X423298Y267611D01*
X424697Y269010D01*
X424700Y269014D01*
X424704Y269017D01*
X424755Y269097D01*
X424808Y269177D01*
X424809Y269182D01*
X424811Y269187D01*
X424827Y269280D01*
X424845Y269374D01*
X424844Y269379D01*
X424845Y269384D01*
X424823Y269477D01*
X424804Y269570D01*
X424801Y269574D01*
X424799Y269579D01*
X424697Y269727D01*
X423445Y270979D01*
X423445Y275375D01*
X426554Y278484D01*
X430950Y278484D01*
X434059Y275375D01*
X434059Y270979D01*
X431695Y268615D01*
X431691Y268609D01*
X431685Y268604D01*
X431636Y268526D01*
X431584Y268448D01*
X431583Y268441D01*
X431579Y268434D01*
X431547Y268257D01*
X431547Y267955D01*
X425465Y261873D01*
X416750Y261873D01*
X416745Y261872D01*
X416740Y261873D01*
X416647Y261852D01*
X416553Y261834D01*
X416549Y261831D01*
X416544Y261830D01*
X416466Y261774D01*
X416388Y261721D01*
X416385Y261717D01*
X416381Y261714D01*
X416330Y261632D01*
X416278Y261553D01*
X416278Y261548D01*
X416275Y261543D01*
X416243Y261366D01*
X416243Y252804D01*
X415350Y251911D01*
X406086Y251911D01*
G37*
%LPD*%
%LPC*%
G36*
X422998Y335763D02*
X422998Y335763D01*
X422105Y336657D01*
X422105Y339232D01*
X422104Y339237D01*
X422105Y339243D01*
X422084Y339336D01*
X422065Y339429D01*
X422062Y339433D01*
X422061Y339438D01*
X422006Y339516D01*
X421953Y339595D01*
X421948Y339597D01*
X421945Y339602D01*
X421864Y339652D01*
X421785Y339704D01*
X421779Y339705D01*
X421775Y339707D01*
X421598Y339739D01*
X418828Y339739D01*
X418821Y339738D01*
X418813Y339739D01*
X418723Y339718D01*
X418632Y339700D01*
X418625Y339695D01*
X418618Y339694D01*
X418470Y339591D01*
X417615Y338736D01*
X413219Y338736D01*
X410110Y341845D01*
X410110Y346241D01*
X413219Y349350D01*
X417615Y349350D01*
X420750Y346215D01*
X420763Y346148D01*
X420766Y346143D01*
X420767Y346138D01*
X420823Y346060D01*
X420876Y345982D01*
X420880Y345979D01*
X420883Y345975D01*
X420965Y345924D01*
X421044Y345873D01*
X421049Y345872D01*
X421054Y345869D01*
X421231Y345837D01*
X421598Y345837D01*
X421603Y345838D01*
X421608Y345837D01*
X421701Y345858D01*
X421794Y345877D01*
X421799Y345879D01*
X421804Y345881D01*
X421881Y345936D01*
X421960Y345989D01*
X421963Y345994D01*
X421967Y345997D01*
X422018Y346078D01*
X422069Y346157D01*
X422070Y346162D01*
X422073Y346167D01*
X422105Y346344D01*
X422105Y348920D01*
X422998Y349813D01*
X434261Y349813D01*
X435154Y348920D01*
X435154Y336657D01*
X434261Y335763D01*
X422998Y335763D01*
G37*
%LPD*%
D10*
X382080Y304557D03*
X382080Y319557D03*
D11*
X428630Y342788D03*
X445630Y342788D03*
D12*
X367082Y304540D03*
X367082Y321540D03*
D11*
X406335Y453510D03*
X389335Y453510D03*
D13*
X235878Y349959D02*
X224878Y349959D01*
X235878Y349959D02*
X235878Y344959D01*
X224878Y344959D01*
X224878Y349959D01*
X224878Y349709D02*
X235878Y349709D01*
X235878Y370397D02*
X224878Y370397D01*
X224878Y375397D01*
X235878Y375397D01*
X235878Y370397D01*
X235878Y375147D02*
X224878Y375147D01*
X364070Y451017D02*
X375070Y451017D01*
X364070Y451017D02*
X364070Y456017D01*
X375070Y456017D01*
X375070Y451017D01*
X375070Y455767D02*
X364070Y455767D01*
X457827Y350255D02*
X468827Y350255D01*
X457827Y350255D02*
X457827Y355255D01*
X468827Y355255D01*
X468827Y350255D01*
X468827Y355005D02*
X457827Y355005D01*
D14*
X428802Y489302D03*
X511402Y346202D03*
X428802Y203102D03*
X263602Y203102D03*
X181002Y346202D03*
X263602Y489302D03*
X470102Y417702D03*
X470102Y274702D03*
X222302Y274702D03*
X222302Y417702D03*
X346202Y489302D03*
D12*
X297053Y359528D03*
X297053Y342528D03*
D15*
X270764Y420903D03*
X270764Y439903D03*
D16*
X270510Y345831D03*
X270510Y378831D03*
D10*
X410718Y242436D03*
X410718Y257436D03*
X289306Y241547D03*
X289306Y256547D03*
D17*
X271272Y320675D03*
D18*
X296672Y320675D03*
D19*
X302133Y423799D03*
X302133Y400685D03*
X302133Y377571D03*
D20*
X366141Y400685D03*
D21*
X335615Y254588D03*
X342115Y254588D03*
X348615Y254588D03*
X355115Y254588D03*
X361615Y254588D03*
D22*
X316615Y252338D03*
X380615Y252338D03*
D23*
X382865Y227838D03*
X314365Y227838D03*
D24*
X336615Y227838D03*
X360615Y227838D03*
D25*
X288671Y205740D03*
D26*
X302133Y400685D02*
X315853Y400685D01*
X316389Y400149D01*
D25*
X316389Y400149D03*
D26*
X287680Y439903D02*
X270764Y439903D01*
X287680Y439903D02*
X294132Y433451D01*
X311630Y433451D01*
X317980Y427101D01*
D25*
X317980Y427101D03*
D26*
X270510Y345831D02*
X258836Y345831D01*
X254635Y341630D01*
D25*
X254635Y341630D03*
X399542Y473075D03*
D26*
X406400Y466217D01*
X406400Y453574D01*
X406335Y453510D01*
D27*
X366141Y400685D02*
X344392Y400685D01*
D28*
X317980Y427097D01*
D26*
X317980Y427101D01*
X361615Y254588D02*
X378365Y254588D01*
X380615Y252338D01*
X316615Y252338D02*
X314365Y250088D01*
X314365Y227838D01*
X336615Y227838D01*
X360615Y227838D01*
X382865Y227838D01*
X310642Y205740D02*
X288671Y205740D01*
X310642Y205740D02*
X314960Y210058D01*
X314960Y227243D01*
X314365Y227838D01*
X382080Y316508D02*
X382080Y319557D01*
X382080Y316508D02*
X388874Y309714D01*
X388874Y260597D01*
X380615Y252338D01*
X361615Y254588D02*
X361615Y261528D01*
X365379Y265292D01*
D25*
X365379Y265292D03*
X345440Y401320D03*
X356870Y401320D03*
D29*
X507988Y342788D02*
X511402Y346202D01*
X507988Y342788D02*
X445630Y342788D01*
D25*
X367754Y441668D03*
X254889Y471678D03*
X306516Y368801D03*
X258544Y430619D03*
X333248Y313436D03*
D26*
X405892Y242436D02*
X410718Y242436D01*
X405892Y242436D02*
X401955Y246373D01*
X401955Y279527D02*
X402209Y279781D01*
X401955Y279527D02*
X401955Y246373D01*
D25*
X402209Y279781D03*
D26*
X306516Y368801D02*
X302133Y373185D01*
X302133Y377571D01*
X271770Y377571D02*
X270510Y378831D01*
X271770Y377571D02*
X302133Y377571D01*
X382062Y304540D02*
X382080Y304557D01*
X382062Y304540D02*
X367082Y304540D01*
D25*
X415417Y344043D03*
D29*
X416672Y342788D02*
X428630Y342788D01*
X416672Y342788D02*
X415417Y344043D01*
X369570Y453517D02*
X357251Y453517D01*
D25*
X357251Y453517D03*
D26*
X369570Y453517D02*
X369578Y453510D01*
X389335Y453510D01*
X463327Y362585D02*
X463327Y352755D01*
D25*
X463327Y362585D03*
X300369Y444711D03*
D26*
X300369Y448394D01*
X294230Y454533D01*
X260858Y454533D02*
X251968Y445643D01*
X251968Y383159D01*
X241706Y372897D02*
X230378Y372897D01*
X260858Y454533D02*
X294230Y454533D01*
X251968Y383159D02*
X244475Y375666D01*
X241706Y372897D01*
D25*
X244475Y375666D03*
X370459Y375285D03*
D26*
X374269Y371475D02*
X423875Y371475D01*
X374269Y371475D02*
X370459Y375285D01*
X423875Y371475D02*
X470102Y417702D01*
X477520Y305943D02*
X477520Y282120D01*
X470102Y274702D01*
D25*
X477520Y305943D03*
X323469Y364998D03*
D26*
X243714Y274702D02*
X222302Y274702D01*
X315341Y303911D02*
X323469Y312039D01*
X323469Y364998D01*
X315341Y303911D02*
X272923Y303911D01*
X243714Y274702D01*
D25*
X381429Y389303D03*
D26*
X381429Y418544D01*
X370078Y429895D02*
X342392Y429895D01*
X312547Y459740D01*
X258879Y459740D02*
X222302Y423163D01*
X222302Y417702D01*
X370078Y429895D02*
X381429Y418544D01*
X312547Y459740D02*
X258879Y459740D01*
D25*
X331597Y466725D03*
D26*
X346202Y481330D01*
X346202Y489302D01*
D25*
X381762Y364109D03*
D26*
X427622Y364109D01*
X453276Y389763D01*
X466598Y389763D01*
D25*
X466598Y389763D03*
X315105Y360045D03*
D26*
X315105Y311549D01*
D25*
X246507Y287655D03*
D26*
X311531Y307975D02*
X315105Y311549D01*
X270637Y307975D02*
X250317Y287655D01*
X246507Y287655D01*
X270637Y307975D02*
X311531Y307975D01*
D25*
X385064Y380850D03*
D26*
X385803Y380850D01*
X388005Y383052D02*
X388005Y417937D01*
X388005Y383052D02*
X385803Y380850D01*
X371348Y434594D02*
X344932Y434594D01*
X315722Y463804D01*
X253492Y463804D02*
X240792Y451104D01*
D25*
X240792Y451104D03*
D26*
X371348Y434594D02*
X388005Y417937D01*
X315722Y463804D02*
X253492Y463804D01*
D25*
X342392Y361188D03*
D26*
X342392Y337439D01*
X362564Y321540D02*
X367082Y321540D01*
X356001Y328103D02*
X351728Y328103D01*
X356001Y328103D02*
X362564Y321540D01*
X351728Y328103D02*
X342392Y337439D01*
D25*
X269677Y406273D03*
D26*
X315976Y389382D02*
X335280Y370078D01*
X335280Y337693D01*
D25*
X352769Y321400D03*
D26*
X351573Y321400D01*
X335280Y337693D01*
X281460Y401292D02*
X276479Y406273D01*
X281460Y401292D02*
X281460Y396847D01*
X288925Y389382D01*
X315976Y389382D01*
X276479Y406273D02*
X269677Y406273D01*
D25*
X286004Y423164D03*
D26*
X286004Y421005D01*
X292862Y414147D02*
X312452Y414147D01*
X292862Y414147D02*
X286004Y421005D01*
D25*
X394589Y338074D03*
D26*
X391668Y340995D01*
X385604Y340995D01*
X312452Y414147D01*
X302133Y423799D02*
X296164Y423799D01*
X289941Y430022D01*
X274676Y430022D01*
X270764Y426110D01*
X270764Y420903D01*
X262645Y359528D02*
X297053Y359528D01*
X262645Y359528D02*
X256286Y365887D01*
X266625Y420903D02*
X270764Y420903D01*
X266625Y420903D02*
X256286Y410564D01*
X256286Y365887D01*
X342115Y265216D02*
X342115Y254588D01*
X342115Y265216D02*
X342191Y265292D01*
D25*
X342191Y265292D03*
D26*
X392585Y240665D02*
X397256Y235994D01*
D25*
X397256Y235994D03*
D26*
X348615Y243459D02*
X348615Y254588D01*
X351409Y240665D02*
X392585Y240665D01*
X351409Y240665D02*
X348615Y243459D01*
X428752Y269113D02*
X428752Y273177D01*
X428752Y269113D02*
X424307Y264668D01*
X414147Y264668D01*
X410718Y261239D01*
X410718Y257436D01*
D25*
X428752Y273177D03*
X347091Y295783D03*
D26*
X345059Y297815D01*
X295021Y297815D01*
X289306Y292100D02*
X289306Y256547D01*
X289306Y292100D02*
X295021Y297815D01*
D25*
X274193Y398018D03*
D26*
X287401Y384810D01*
X313690Y384810D01*
X330327Y368173D01*
X330327Y333526D02*
X351536Y312317D01*
D25*
X351536Y312317D03*
D26*
X330327Y333526D02*
X330327Y368173D01*
D25*
X288036Y401574D03*
X364617Y339725D03*
D26*
X350012Y354330D01*
X350012Y363093D01*
X319532Y393573D01*
X291338Y393573D01*
X288036Y396875D01*
X288036Y401574D01*
X335615Y278176D02*
X335615Y254588D01*
X328284Y285507D02*
X320929Y285507D01*
D25*
X320929Y285507D03*
D26*
X328284Y285507D02*
X335615Y278176D01*
X241414Y347459D02*
X230378Y347459D01*
X241414Y347459D02*
X244412Y350457D01*
D25*
X244412Y350457D03*
D26*
X296672Y342147D02*
X297053Y342528D01*
X296672Y342147D02*
X296672Y320675D01*
M02*
