G04 EAGLE Gerber RS-274X export*
G75*
%MOMM*%
%FSLAX34Y34*%
%LPD*%
%INBottom Copper*%
%IPPOS*%
%AMOC8*
5,1,8,0,0,1.08239X$1,22.5*%
G01*
%ADD10R,1.100000X1.000000*%
%ADD11R,1.500000X1.300000*%
%ADD12C,0.124994*%
%ADD13R,5.699988X5.699988*%
%ADD14R,1.399997X0.400000*%
%ADD15R,1.000000X1.100000*%
%ADD16C,0.499997*%
%ADD17C,1.000000*%
%ADD18C,0.262500*%
%ADD19R,2.150000X2.150000*%
%ADD20R,1.530000X1.530000*%
%ADD21C,1.530000*%
%ADD22C,0.756400*%
%ADD23C,0.254000*%
%ADD24C,0.304800*%

G36*
X278630Y195708D02*
X278630Y195708D01*
X278658Y195706D01*
X278726Y195728D01*
X278797Y195742D01*
X278820Y195758D01*
X278847Y195767D01*
X278902Y195814D01*
X278961Y195855D01*
X278976Y195879D01*
X278998Y195897D01*
X279029Y195962D01*
X279068Y196022D01*
X279073Y196050D01*
X279085Y196076D01*
X279094Y196177D01*
X279101Y196219D01*
X279099Y196229D01*
X279100Y196242D01*
X278982Y197719D01*
X413422Y197719D01*
X413304Y196242D01*
X413308Y196213D01*
X413303Y196185D01*
X413320Y196116D01*
X413328Y196044D01*
X413343Y196020D01*
X413349Y195992D01*
X413392Y195934D01*
X413428Y195872D01*
X413450Y195855D01*
X413467Y195832D01*
X413529Y195795D01*
X413586Y195752D01*
X413614Y195745D01*
X413638Y195730D01*
X413738Y195714D01*
X413779Y195703D01*
X413789Y195705D01*
X413802Y195703D01*
X432802Y195703D01*
X432878Y195718D01*
X432956Y195727D01*
X432975Y195738D01*
X432997Y195742D01*
X433061Y195786D01*
X433129Y195825D01*
X433145Y195844D01*
X433161Y195855D01*
X433185Y195893D01*
X433235Y195953D01*
X442735Y212453D01*
X442744Y212480D01*
X442760Y212504D01*
X442775Y212574D01*
X442798Y212642D01*
X442795Y212670D01*
X442801Y212698D01*
X442788Y212769D01*
X442782Y212840D01*
X442769Y212865D01*
X442763Y212893D01*
X442723Y212953D01*
X442690Y213016D01*
X442668Y213034D01*
X442652Y213058D01*
X442569Y213116D01*
X442537Y213143D01*
X442526Y213146D01*
X442516Y213153D01*
X441197Y213777D01*
X460088Y246497D01*
X460115Y246579D01*
X460147Y246660D01*
X460147Y246674D01*
X460152Y246687D01*
X460145Y246774D01*
X460144Y246860D01*
X460138Y246873D01*
X460137Y246887D01*
X460098Y246964D01*
X460062Y247044D01*
X460052Y247054D01*
X460046Y247066D01*
X460004Y247101D01*
X459934Y247170D01*
X458814Y247933D01*
X458749Y247961D01*
X458687Y247995D01*
X458655Y248000D01*
X458629Y248011D01*
X458577Y248011D01*
X458509Y248021D01*
X458503Y248020D01*
X458028Y248462D01*
X457998Y248480D01*
X457968Y248509D01*
X457432Y248874D01*
X457431Y248880D01*
X457404Y248945D01*
X457386Y249013D01*
X457366Y249039D01*
X457356Y249065D01*
X457319Y249102D01*
X457278Y249157D01*
X455539Y250770D01*
X455479Y250806D01*
X455423Y250850D01*
X455392Y250860D01*
X455368Y250874D01*
X455317Y250882D01*
X455250Y250902D01*
X455245Y250902D01*
X454840Y251410D01*
X454814Y251432D01*
X454789Y251465D01*
X454313Y251906D01*
X454313Y251912D01*
X454296Y251980D01*
X454288Y252051D01*
X454272Y252079D01*
X454266Y252107D01*
X454235Y252148D01*
X454202Y252209D01*
X452723Y254063D01*
X452669Y254108D01*
X452621Y254159D01*
X452591Y254173D01*
X452570Y254191D01*
X452520Y254207D01*
X452458Y254236D01*
X452452Y254238D01*
X452128Y254800D01*
X452105Y254826D01*
X452085Y254862D01*
X451680Y255369D01*
X451681Y255375D01*
X451675Y255445D01*
X451677Y255516D01*
X451666Y255547D01*
X451664Y255575D01*
X451640Y255620D01*
X451616Y255685D01*
X450430Y257739D01*
X450383Y257792D01*
X450343Y257850D01*
X450316Y257868D01*
X450297Y257889D01*
X450251Y257911D01*
X450193Y257950D01*
X450188Y257952D01*
X449951Y258556D01*
X449932Y258585D01*
X449918Y258624D01*
X449593Y259186D01*
X449595Y259191D01*
X449599Y259262D01*
X449612Y259331D01*
X449606Y259363D01*
X449607Y259391D01*
X449590Y259440D01*
X449577Y259508D01*
X448710Y261715D01*
X448672Y261774D01*
X448641Y261838D01*
X448616Y261860D01*
X448601Y261884D01*
X448559Y261913D01*
X448507Y261959D01*
X448503Y261962D01*
X448358Y262595D01*
X448344Y262626D01*
X448336Y262667D01*
X448099Y263271D01*
X448101Y263276D01*
X448116Y263345D01*
X448139Y263412D01*
X448137Y263445D01*
X448143Y263472D01*
X448133Y263523D01*
X448130Y263592D01*
X447602Y265904D01*
X447573Y265968D01*
X447552Y266035D01*
X447531Y266061D01*
X447519Y266086D01*
X447482Y266121D01*
X447438Y266175D01*
X447434Y266179D01*
X447385Y266826D01*
X447376Y266859D01*
X447374Y266901D01*
X447229Y267533D01*
X447232Y267538D01*
X447257Y267604D01*
X447290Y267667D01*
X447293Y267699D01*
X447303Y267726D01*
X447301Y267777D01*
X447308Y267846D01*
X447131Y270211D01*
X447111Y270278D01*
X447101Y270348D01*
X447084Y270377D01*
X447076Y270404D01*
X447044Y270444D01*
X447009Y270504D01*
X447005Y270508D01*
X447054Y271155D01*
X447049Y271189D01*
X447054Y271231D01*
X447005Y271878D01*
X447009Y271882D01*
X447043Y271943D01*
X447085Y272000D01*
X447093Y272032D01*
X447107Y272057D01*
X447113Y272108D01*
X447130Y272175D01*
X447306Y274540D01*
X447298Y274610D01*
X447297Y274680D01*
X447285Y274711D01*
X447281Y274739D01*
X447256Y274783D01*
X447230Y274847D01*
X447227Y274852D01*
X447371Y275485D01*
X447372Y275519D01*
X447382Y275560D01*
X447431Y276207D01*
X447435Y276210D01*
X447478Y276266D01*
X447528Y276316D01*
X447541Y276346D01*
X447558Y276369D01*
X447571Y276419D01*
X447598Y276482D01*
X448125Y278794D01*
X448127Y278864D01*
X448132Y278889D01*
X448131Y278891D01*
X448137Y278935D01*
X448130Y278966D01*
X448130Y278994D01*
X448112Y279043D01*
X448096Y279110D01*
X448093Y279115D01*
X448330Y279719D01*
X448336Y279753D01*
X448353Y279791D01*
X448497Y280424D01*
X448502Y280427D01*
X448553Y280476D01*
X448609Y280518D01*
X448626Y280546D01*
X448647Y280565D01*
X448667Y280612D01*
X448704Y280671D01*
X449569Y282879D01*
X449582Y282949D01*
X449602Y283016D01*
X449599Y283049D01*
X449604Y283076D01*
X449593Y283127D01*
X449587Y283196D01*
X449586Y283201D01*
X449910Y283763D01*
X449921Y283796D01*
X449943Y283831D01*
X450180Y284435D01*
X450185Y284438D01*
X450243Y284478D01*
X450305Y284511D01*
X450326Y284536D01*
X450349Y284553D01*
X450376Y284596D01*
X450421Y284649D01*
X451606Y286703D01*
X451629Y286770D01*
X451659Y286834D01*
X451661Y286866D01*
X451670Y286893D01*
X451666Y286944D01*
X451671Y287014D01*
X451670Y287019D01*
X452075Y287526D01*
X452091Y287557D01*
X452117Y287589D01*
X452442Y288151D01*
X452447Y288153D01*
X452510Y288184D01*
X452577Y288208D01*
X452601Y288229D01*
X452626Y288242D01*
X452660Y288281D01*
X452712Y288326D01*
X454190Y290181D01*
X454222Y290244D01*
X454262Y290302D01*
X454269Y290334D01*
X454282Y290359D01*
X454286Y290411D01*
X454300Y290478D01*
X454301Y290484D01*
X454776Y290925D01*
X454796Y290953D01*
X454828Y290981D01*
X455232Y291488D01*
X455238Y291489D01*
X455305Y291511D01*
X455374Y291524D01*
X455402Y291542D01*
X455428Y291550D01*
X455467Y291584D01*
X455526Y291621D01*
X457263Y293235D01*
X457305Y293292D01*
X457352Y293344D01*
X457364Y293375D01*
X457380Y293397D01*
X457392Y293448D01*
X457417Y293512D01*
X457418Y293518D01*
X457954Y293883D01*
X457978Y293908D01*
X458013Y293931D01*
X458489Y294372D01*
X458494Y294372D01*
X458564Y294383D01*
X458634Y294386D01*
X458664Y294400D01*
X458692Y294404D01*
X458736Y294432D01*
X458799Y294460D01*
X460758Y295796D01*
X460807Y295847D01*
X460862Y295891D01*
X460878Y295920D01*
X460898Y295940D01*
X460917Y295988D01*
X460951Y296048D01*
X460952Y296053D01*
X461537Y296335D01*
X461565Y296356D01*
X461603Y296373D01*
X462139Y296739D01*
X462144Y296738D01*
X462215Y296738D01*
X462285Y296731D01*
X462316Y296740D01*
X462344Y296740D01*
X462392Y296761D01*
X462458Y296779D01*
X464595Y297809D01*
X464651Y297851D01*
X464712Y297887D01*
X464732Y297913D01*
X464754Y297930D01*
X464780Y297974D01*
X464823Y298029D01*
X464825Y298034D01*
X465446Y298225D01*
X465476Y298242D01*
X465516Y298253D01*
X466101Y298534D01*
X466106Y298533D01*
X466176Y298523D01*
X466244Y298505D01*
X466277Y298509D01*
X466304Y298505D01*
X466354Y298518D01*
X466423Y298527D01*
X466950Y298689D01*
X466966Y298699D01*
X466979Y298701D01*
X466987Y298706D01*
X467006Y298711D01*
X467064Y298752D01*
X467126Y298785D01*
X467145Y298809D01*
X467169Y298827D01*
X467207Y298887D01*
X467251Y298942D01*
X467259Y298971D01*
X467275Y298997D01*
X467290Y299081D01*
X467306Y299135D01*
X467303Y299153D01*
X467307Y299174D01*
X467307Y306151D01*
X467306Y306159D01*
X467307Y306167D01*
X467286Y306257D01*
X467268Y306348D01*
X467263Y306354D01*
X467261Y306362D01*
X467159Y306510D01*
X447809Y325860D01*
X447802Y325864D01*
X447798Y325870D01*
X447719Y325919D01*
X447642Y325971D01*
X447634Y325972D01*
X447628Y325976D01*
X447450Y326008D01*
X412830Y326008D01*
X411044Y327794D01*
X400762Y338077D01*
X400759Y338078D01*
X400758Y338080D01*
X400677Y338133D01*
X400595Y338188D01*
X400592Y338188D01*
X400590Y338189D01*
X400494Y338207D01*
X400398Y338225D01*
X400395Y338225D01*
X400393Y338225D01*
X400296Y338204D01*
X400202Y338184D01*
X400200Y338182D01*
X400197Y338182D01*
X400117Y338125D01*
X400037Y338069D01*
X400036Y338067D01*
X400034Y338066D01*
X399982Y337983D01*
X399930Y337900D01*
X399929Y337897D01*
X399928Y337895D01*
X399896Y337718D01*
X399896Y335876D01*
X397840Y333820D01*
X397837Y333816D01*
X397833Y333813D01*
X397782Y333733D01*
X397729Y333653D01*
X397728Y333648D01*
X397725Y333643D01*
X397709Y333550D01*
X397691Y333456D01*
X397692Y333451D01*
X397691Y333446D01*
X397713Y333354D01*
X397733Y333260D01*
X397736Y333256D01*
X397737Y333251D01*
X397840Y333103D01*
X398089Y332854D01*
X398089Y325128D01*
X396427Y323466D01*
X393201Y323466D01*
X391539Y325128D01*
X391539Y332854D01*
X391563Y332878D01*
X391566Y332882D01*
X391570Y332885D01*
X391621Y332965D01*
X391674Y333045D01*
X391675Y333050D01*
X391678Y333054D01*
X391694Y333148D01*
X391712Y333241D01*
X391711Y333247D01*
X391712Y333252D01*
X391690Y333345D01*
X391670Y333438D01*
X391667Y333442D01*
X391666Y333447D01*
X391563Y333595D01*
X389282Y335876D01*
X389282Y340272D01*
X392391Y343381D01*
X394233Y343381D01*
X394236Y343381D01*
X394238Y343381D01*
X394333Y343401D01*
X394429Y343420D01*
X394432Y343422D01*
X394434Y343422D01*
X394515Y343478D01*
X394595Y343533D01*
X394597Y343535D01*
X394599Y343537D01*
X394652Y343620D01*
X394704Y343701D01*
X394705Y343704D01*
X394706Y343706D01*
X394723Y343802D01*
X394740Y343898D01*
X394740Y343901D01*
X394740Y343903D01*
X394718Y343997D01*
X394697Y344094D01*
X394695Y344096D01*
X394694Y344099D01*
X394592Y344247D01*
X390500Y348339D01*
X390493Y348343D01*
X390488Y348349D01*
X390410Y348398D01*
X390333Y348450D01*
X390325Y348451D01*
X390318Y348455D01*
X390141Y348487D01*
X363659Y348487D01*
X361874Y350273D01*
X361873Y350273D01*
X350735Y361412D01*
X350735Y364354D01*
X350734Y364356D01*
X350735Y364359D01*
X350714Y364454D01*
X350695Y364550D01*
X350693Y364552D01*
X350693Y364555D01*
X350637Y364636D01*
X350582Y364716D01*
X350580Y364717D01*
X350579Y364720D01*
X350495Y364773D01*
X350414Y364825D01*
X350412Y364826D01*
X350409Y364827D01*
X350313Y364843D01*
X350217Y364861D01*
X350214Y364860D01*
X350212Y364861D01*
X350118Y364839D01*
X350021Y364817D01*
X350019Y364816D01*
X350017Y364815D01*
X349869Y364712D01*
X347847Y362691D01*
X347843Y362684D01*
X347837Y362680D01*
X347788Y362601D01*
X347736Y362524D01*
X347735Y362516D01*
X347731Y362510D01*
X347699Y362332D01*
X347699Y358990D01*
X344590Y355881D01*
X340194Y355881D01*
X337085Y358990D01*
X337085Y363386D01*
X340194Y366495D01*
X343536Y366495D01*
X343544Y366496D01*
X343552Y366495D01*
X343642Y366516D01*
X343733Y366534D01*
X343739Y366539D01*
X343747Y366541D01*
X343895Y366643D01*
X345586Y368334D01*
X345590Y368341D01*
X345597Y368345D01*
X345646Y368424D01*
X345697Y368501D01*
X345698Y368509D01*
X345703Y368516D01*
X345735Y368693D01*
X345735Y368857D01*
X345734Y368862D01*
X345734Y368867D01*
X345714Y368961D01*
X345695Y369054D01*
X345692Y369058D01*
X345691Y369063D01*
X345636Y369141D01*
X345582Y369219D01*
X345578Y369222D01*
X345575Y369227D01*
X345493Y369277D01*
X345414Y369329D01*
X345409Y369330D01*
X345405Y369332D01*
X345227Y369364D01*
X342014Y369364D01*
X341388Y369990D01*
X341384Y369993D01*
X341381Y369998D01*
X341301Y370048D01*
X341221Y370101D01*
X341216Y370102D01*
X341211Y370105D01*
X341118Y370121D01*
X341024Y370139D01*
X341019Y370138D01*
X341014Y370139D01*
X340921Y370117D01*
X340828Y370097D01*
X340824Y370094D01*
X340819Y370093D01*
X340671Y369990D01*
X340045Y369364D01*
X337014Y369364D01*
X335755Y370624D01*
X335755Y378155D01*
X337014Y379414D01*
X340045Y379414D01*
X340671Y378788D01*
X340675Y378785D01*
X340678Y378781D01*
X340758Y378730D01*
X340838Y378677D01*
X340843Y378676D01*
X340847Y378673D01*
X340941Y378657D01*
X341034Y378639D01*
X341040Y378640D01*
X341045Y378640D01*
X341137Y378661D01*
X341231Y378681D01*
X341235Y378684D01*
X341240Y378685D01*
X341388Y378788D01*
X342014Y379414D01*
X345045Y379414D01*
X345671Y378788D01*
X345675Y378785D01*
X345678Y378781D01*
X345758Y378730D01*
X345838Y378677D01*
X345843Y378676D01*
X345847Y378673D01*
X345941Y378657D01*
X346034Y378639D01*
X346040Y378640D01*
X346045Y378640D01*
X346137Y378661D01*
X346231Y378681D01*
X346235Y378684D01*
X346240Y378685D01*
X346388Y378788D01*
X347014Y379414D01*
X350045Y379414D01*
X350671Y378788D01*
X350675Y378785D01*
X350678Y378781D01*
X350758Y378730D01*
X350838Y378677D01*
X350843Y378676D01*
X350847Y378673D01*
X350941Y378657D01*
X351034Y378639D01*
X351040Y378640D01*
X351045Y378640D01*
X351137Y378661D01*
X351231Y378681D01*
X351235Y378684D01*
X351240Y378685D01*
X351388Y378788D01*
X352014Y379414D01*
X355045Y379414D01*
X355671Y378788D01*
X355675Y378785D01*
X355678Y378781D01*
X355758Y378730D01*
X355838Y378677D01*
X355843Y378676D01*
X355847Y378673D01*
X355941Y378657D01*
X356034Y378639D01*
X356040Y378640D01*
X356045Y378640D01*
X356137Y378661D01*
X356231Y378681D01*
X356235Y378684D01*
X356240Y378685D01*
X356388Y378788D01*
X357014Y379414D01*
X360045Y379414D01*
X360671Y378788D01*
X360675Y378785D01*
X360678Y378781D01*
X360758Y378730D01*
X360838Y378677D01*
X360843Y378676D01*
X360847Y378673D01*
X360941Y378657D01*
X361034Y378639D01*
X361040Y378640D01*
X361045Y378640D01*
X361137Y378661D01*
X361231Y378681D01*
X361235Y378684D01*
X361240Y378685D01*
X361388Y378788D01*
X362014Y379414D01*
X364997Y379414D01*
X365002Y379415D01*
X365008Y379414D01*
X365101Y379435D01*
X365194Y379453D01*
X365198Y379456D01*
X365203Y379458D01*
X365281Y379513D01*
X365360Y379566D01*
X365363Y379570D01*
X365367Y379574D01*
X365417Y379655D01*
X365469Y379734D01*
X365470Y379739D01*
X365473Y379744D01*
X365505Y379921D01*
X365505Y382905D01*
X366131Y383531D01*
X366133Y383535D01*
X366138Y383538D01*
X366189Y383618D01*
X366241Y383697D01*
X366242Y383703D01*
X366245Y383707D01*
X366261Y383801D01*
X366279Y383894D01*
X366278Y383900D01*
X366279Y383905D01*
X366257Y383997D01*
X366237Y384090D01*
X366234Y384095D01*
X366233Y384100D01*
X366131Y384248D01*
X365505Y384874D01*
X365505Y387905D01*
X366131Y388531D01*
X366133Y388535D01*
X366138Y388538D01*
X366189Y388618D01*
X366241Y388697D01*
X366242Y388703D01*
X366245Y388707D01*
X366261Y388801D01*
X366279Y388894D01*
X366278Y388900D01*
X366279Y388905D01*
X366257Y388997D01*
X366237Y389090D01*
X366234Y389095D01*
X366233Y389100D01*
X366131Y389248D01*
X365505Y389874D01*
X365505Y392905D01*
X366131Y393531D01*
X366133Y393535D01*
X366138Y393538D01*
X366189Y393618D01*
X366241Y393697D01*
X366242Y393703D01*
X366245Y393707D01*
X366261Y393800D01*
X366279Y393894D01*
X366278Y393900D01*
X366279Y393905D01*
X366257Y393997D01*
X366237Y394090D01*
X366234Y394095D01*
X366233Y394100D01*
X366131Y394248D01*
X365505Y394874D01*
X365505Y397905D01*
X366131Y398531D01*
X366133Y398535D01*
X366138Y398538D01*
X366189Y398618D01*
X366241Y398697D01*
X366242Y398703D01*
X366245Y398707D01*
X366261Y398801D01*
X366279Y398894D01*
X366278Y398900D01*
X366279Y398905D01*
X366257Y398997D01*
X366237Y399090D01*
X366234Y399095D01*
X366233Y399100D01*
X366131Y399248D01*
X365505Y399874D01*
X365505Y402905D01*
X366131Y403531D01*
X366133Y403535D01*
X366138Y403538D01*
X366189Y403618D01*
X366241Y403697D01*
X366242Y403703D01*
X366245Y403707D01*
X366261Y403800D01*
X366279Y403894D01*
X366278Y403900D01*
X366279Y403905D01*
X366257Y403997D01*
X366237Y404090D01*
X366234Y404095D01*
X366233Y404100D01*
X366131Y404248D01*
X365505Y404874D01*
X365505Y407905D01*
X366131Y408531D01*
X366133Y408535D01*
X366138Y408538D01*
X366189Y408618D01*
X366241Y408697D01*
X366242Y408703D01*
X366245Y408707D01*
X366261Y408801D01*
X366279Y408894D01*
X366278Y408900D01*
X366279Y408905D01*
X366257Y408997D01*
X366237Y409090D01*
X366234Y409095D01*
X366233Y409100D01*
X366131Y409248D01*
X365505Y409874D01*
X365505Y412905D01*
X366131Y413531D01*
X366133Y413535D01*
X366138Y413538D01*
X366189Y413618D01*
X366241Y413697D01*
X366242Y413703D01*
X366245Y413707D01*
X366261Y413801D01*
X366279Y413894D01*
X366278Y413900D01*
X366279Y413905D01*
X366257Y413997D01*
X366237Y414090D01*
X366234Y414095D01*
X366233Y414100D01*
X366131Y414248D01*
X365505Y414874D01*
X365505Y417905D01*
X366131Y418531D01*
X366133Y418535D01*
X366138Y418538D01*
X366189Y418618D01*
X366241Y418697D01*
X366242Y418703D01*
X366245Y418707D01*
X366261Y418801D01*
X366279Y418894D01*
X366278Y418900D01*
X366279Y418905D01*
X366257Y418997D01*
X366237Y419090D01*
X366234Y419095D01*
X366233Y419100D01*
X366131Y419248D01*
X365505Y419874D01*
X365505Y422905D01*
X366764Y424164D01*
X374295Y424164D01*
X375554Y422905D01*
X375554Y419691D01*
X375555Y419686D01*
X375554Y419681D01*
X375575Y419588D01*
X375594Y419495D01*
X375597Y419490D01*
X375598Y419485D01*
X375653Y419407D01*
X375706Y419329D01*
X375711Y419326D01*
X375714Y419322D01*
X375795Y419271D01*
X375874Y419220D01*
X375880Y419219D01*
X375884Y419216D01*
X376061Y419184D01*
X386319Y419184D01*
X386327Y419185D01*
X386335Y419184D01*
X386425Y419205D01*
X386516Y419224D01*
X386522Y419228D01*
X386530Y419230D01*
X386678Y419332D01*
X395635Y428289D01*
X396399Y428289D01*
X396406Y428290D01*
X396414Y428289D01*
X396504Y428310D01*
X396595Y428329D01*
X396602Y428333D01*
X396609Y428335D01*
X396757Y428437D01*
X397339Y429019D01*
X412602Y429019D01*
X413495Y428126D01*
X413495Y422863D01*
X412602Y421969D01*
X397430Y421969D01*
X397422Y421968D01*
X397414Y421969D01*
X397325Y421948D01*
X397233Y421930D01*
X397227Y421925D01*
X397219Y421924D01*
X397071Y421821D01*
X389502Y414252D01*
X389499Y414247D01*
X389495Y414244D01*
X389444Y414164D01*
X389391Y414085D01*
X389390Y414080D01*
X389387Y414075D01*
X389371Y413981D01*
X389353Y413888D01*
X389355Y413883D01*
X389354Y413878D01*
X389375Y413785D01*
X389395Y413692D01*
X389398Y413687D01*
X389399Y413682D01*
X389502Y413534D01*
X397869Y405168D01*
X397875Y405163D01*
X397880Y405157D01*
X397959Y405108D01*
X398036Y405057D01*
X398043Y405055D01*
X398050Y405051D01*
X398227Y405019D01*
X412602Y405019D01*
X413495Y404126D01*
X413495Y398863D01*
X412602Y397970D01*
X399200Y397970D01*
X399197Y397969D01*
X399195Y397969D01*
X399100Y397949D01*
X399003Y397930D01*
X399001Y397928D01*
X398999Y397928D01*
X398918Y397872D01*
X398837Y397817D01*
X398836Y397815D01*
X398834Y397814D01*
X398780Y397729D01*
X398728Y397649D01*
X398728Y397647D01*
X398726Y397644D01*
X398710Y397548D01*
X398693Y397452D01*
X398693Y397449D01*
X398693Y397447D01*
X398715Y397353D01*
X398736Y397256D01*
X398738Y397254D01*
X398738Y397252D01*
X398841Y397104D01*
X401079Y394865D01*
X401086Y394861D01*
X401091Y394855D01*
X401169Y394806D01*
X401246Y394754D01*
X401254Y394753D01*
X401261Y394749D01*
X401438Y394717D01*
X448325Y394717D01*
X455169Y387873D01*
X455169Y381138D01*
X455170Y381133D01*
X455169Y381128D01*
X455190Y381034D01*
X455208Y380941D01*
X455211Y380937D01*
X455212Y380932D01*
X455268Y380854D01*
X455321Y380776D01*
X455325Y380773D01*
X455328Y380768D01*
X455410Y380718D01*
X455489Y380666D01*
X455494Y380665D01*
X455499Y380663D01*
X455676Y380631D01*
X467727Y380631D01*
X468620Y379737D01*
X468620Y368474D01*
X467727Y367581D01*
X467060Y367581D01*
X467057Y367581D01*
X467055Y367581D01*
X466960Y367561D01*
X466863Y367542D01*
X466861Y367540D01*
X466859Y367540D01*
X466778Y367484D01*
X466697Y367429D01*
X466696Y367427D01*
X466694Y367425D01*
X466641Y367341D01*
X466588Y367261D01*
X466588Y367258D01*
X466586Y367256D01*
X466570Y367160D01*
X466553Y367064D01*
X466553Y367061D01*
X466553Y367058D01*
X466575Y366964D01*
X466596Y366868D01*
X466598Y366866D01*
X466598Y366863D01*
X466701Y366715D01*
X468633Y364783D01*
X468633Y360387D01*
X468392Y360146D01*
X468391Y360144D01*
X468389Y360142D01*
X468336Y360061D01*
X468281Y359979D01*
X468281Y359976D01*
X468279Y359974D01*
X468262Y359878D01*
X468244Y359782D01*
X468244Y359779D01*
X468244Y359777D01*
X468265Y359680D01*
X468285Y359586D01*
X468287Y359584D01*
X468287Y359581D01*
X468345Y359500D01*
X468400Y359421D01*
X468402Y359420D01*
X468403Y359418D01*
X468488Y359365D01*
X468569Y359314D01*
X468571Y359313D01*
X468574Y359312D01*
X468751Y359280D01*
X470494Y359280D01*
X472851Y356922D01*
X472851Y348588D01*
X470494Y346230D01*
X456159Y346230D01*
X453802Y348588D01*
X453802Y356922D01*
X456159Y359280D01*
X457902Y359280D01*
X457905Y359280D01*
X457907Y359280D01*
X458003Y359300D01*
X458099Y359319D01*
X458101Y359321D01*
X458103Y359322D01*
X458183Y359377D01*
X458264Y359432D01*
X458266Y359434D01*
X458268Y359436D01*
X458321Y359519D01*
X458374Y359600D01*
X458374Y359603D01*
X458376Y359605D01*
X458392Y359701D01*
X458409Y359797D01*
X458409Y359800D01*
X458409Y359803D01*
X458388Y359895D01*
X458366Y359993D01*
X458364Y359995D01*
X458364Y359998D01*
X458261Y360146D01*
X458020Y360387D01*
X458020Y364783D01*
X459952Y366715D01*
X459953Y366717D01*
X459956Y366719D01*
X460008Y366800D01*
X460063Y366882D01*
X460063Y366885D01*
X460065Y366887D01*
X460082Y366983D01*
X460100Y367079D01*
X460100Y367082D01*
X460100Y367084D01*
X460079Y367180D01*
X460059Y367275D01*
X460057Y367277D01*
X460057Y367280D01*
X460000Y367360D01*
X459945Y367440D01*
X459942Y367441D01*
X459941Y367443D01*
X459858Y367495D01*
X459775Y367547D01*
X459773Y367548D01*
X459771Y367549D01*
X459593Y367581D01*
X455464Y367581D01*
X454571Y368474D01*
X454571Y370804D01*
X454570Y370809D01*
X454571Y370814D01*
X454550Y370907D01*
X454531Y371000D01*
X454528Y371005D01*
X454527Y371010D01*
X454472Y371088D01*
X454419Y371166D01*
X454414Y371169D01*
X454411Y371173D01*
X454330Y371224D01*
X454251Y371275D01*
X454245Y371276D01*
X454241Y371279D01*
X454064Y371311D01*
X452903Y371311D01*
X449579Y374635D01*
X449579Y385347D01*
X449578Y385355D01*
X449579Y385363D01*
X449558Y385453D01*
X449540Y385544D01*
X449535Y385550D01*
X449534Y385558D01*
X449431Y385706D01*
X449378Y385758D01*
X449376Y385760D01*
X449375Y385762D01*
X449293Y385815D01*
X449211Y385869D01*
X449209Y385870D01*
X449206Y385871D01*
X449110Y385889D01*
X449015Y385907D01*
X449012Y385906D01*
X449009Y385907D01*
X448913Y385885D01*
X448818Y385865D01*
X448816Y385864D01*
X448814Y385863D01*
X448733Y385806D01*
X448654Y385751D01*
X448652Y385749D01*
X448650Y385747D01*
X448599Y385665D01*
X448546Y385582D01*
X448546Y385579D01*
X448544Y385577D01*
X448512Y385400D01*
X448512Y376518D01*
X447619Y375624D01*
X439125Y375624D01*
X439117Y375623D01*
X439110Y375624D01*
X439020Y375603D01*
X438929Y375585D01*
X438922Y375580D01*
X438915Y375579D01*
X438767Y375476D01*
X438640Y375349D01*
X430292Y375349D01*
X430287Y375348D01*
X430282Y375349D01*
X430189Y375328D01*
X430096Y375310D01*
X430092Y375307D01*
X430086Y375306D01*
X430009Y375250D01*
X429930Y375197D01*
X429927Y375193D01*
X429923Y375190D01*
X429872Y375108D01*
X429821Y375029D01*
X429820Y375024D01*
X429817Y375019D01*
X429785Y374842D01*
X429785Y371012D01*
X428892Y370119D01*
X412629Y370119D01*
X411736Y371012D01*
X411736Y374842D01*
X411735Y374847D01*
X411736Y374852D01*
X411715Y374945D01*
X411696Y375038D01*
X411693Y375043D01*
X411692Y375048D01*
X411637Y375126D01*
X411583Y375204D01*
X411579Y375207D01*
X411576Y375211D01*
X411495Y375262D01*
X411415Y375314D01*
X411410Y375314D01*
X411406Y375317D01*
X411228Y375349D01*
X406193Y375349D01*
X406185Y375348D01*
X406178Y375349D01*
X406088Y375328D01*
X405997Y375310D01*
X405990Y375305D01*
X405982Y375303D01*
X405834Y375201D01*
X405786Y375152D01*
X395483Y375152D01*
X395480Y375151D01*
X395478Y375152D01*
X395383Y375132D01*
X395286Y375112D01*
X395284Y375111D01*
X395282Y375110D01*
X395201Y375054D01*
X395120Y375000D01*
X395119Y374998D01*
X395117Y374996D01*
X395064Y374912D01*
X395011Y374832D01*
X395011Y374829D01*
X395009Y374827D01*
X394993Y374730D01*
X394976Y374634D01*
X394976Y374632D01*
X394976Y374629D01*
X394998Y374535D01*
X395019Y374439D01*
X395021Y374437D01*
X395021Y374434D01*
X395124Y374286D01*
X397060Y372350D01*
X397067Y372346D01*
X397071Y372339D01*
X397150Y372290D01*
X397227Y372239D01*
X397235Y372238D01*
X397241Y372233D01*
X397419Y372201D01*
X405786Y372201D01*
X406679Y371308D01*
X406679Y368606D01*
X406680Y368601D01*
X406679Y368595D01*
X406700Y368502D01*
X406718Y368409D01*
X406721Y368405D01*
X406723Y368400D01*
X406778Y368322D01*
X406831Y368243D01*
X406835Y368241D01*
X406839Y368236D01*
X406920Y368186D01*
X406999Y368134D01*
X407004Y368133D01*
X407009Y368130D01*
X407186Y368098D01*
X415758Y368098D01*
X416539Y367317D01*
X416546Y367313D01*
X416551Y367306D01*
X416629Y367258D01*
X416706Y367206D01*
X416714Y367205D01*
X416721Y367201D01*
X416898Y367169D01*
X428892Y367169D01*
X429785Y366276D01*
X429785Y352012D01*
X428892Y351119D01*
X413518Y351119D01*
X413515Y351119D01*
X413513Y351119D01*
X413418Y351099D01*
X413321Y351080D01*
X413319Y351078D01*
X413316Y351078D01*
X413236Y351022D01*
X413155Y350967D01*
X413154Y350965D01*
X413152Y350963D01*
X413099Y350880D01*
X413046Y350799D01*
X413046Y350796D01*
X413044Y350794D01*
X413028Y350698D01*
X413011Y350602D01*
X413011Y350599D01*
X413011Y350596D01*
X413033Y350502D01*
X413054Y350406D01*
X413056Y350404D01*
X413056Y350401D01*
X413159Y350253D01*
X413914Y349498D01*
X413921Y349494D01*
X413925Y349488D01*
X414004Y349439D01*
X414081Y349387D01*
X414089Y349386D01*
X414095Y349382D01*
X414273Y349350D01*
X417615Y349350D01*
X420724Y346241D01*
X420724Y341845D01*
X417615Y338736D01*
X415614Y338736D01*
X415611Y338736D01*
X415609Y338736D01*
X415514Y338716D01*
X415417Y338697D01*
X415415Y338695D01*
X415412Y338695D01*
X415332Y338639D01*
X415251Y338584D01*
X415250Y338582D01*
X415248Y338580D01*
X415195Y338497D01*
X415142Y338416D01*
X415142Y338413D01*
X415140Y338411D01*
X415124Y338315D01*
X415107Y338219D01*
X415107Y338216D01*
X415107Y338214D01*
X415129Y338119D01*
X415150Y338023D01*
X415152Y338021D01*
X415152Y338018D01*
X415255Y337870D01*
X417315Y335810D01*
X417322Y335806D01*
X417326Y335800D01*
X417405Y335751D01*
X417482Y335699D01*
X417490Y335698D01*
X417496Y335694D01*
X417674Y335662D01*
X451754Y335662D01*
X476017Y311398D01*
X476024Y311394D01*
X476028Y311388D01*
X476107Y311339D01*
X476184Y311287D01*
X476192Y311286D01*
X476198Y311282D01*
X476376Y311250D01*
X479718Y311250D01*
X482827Y308141D01*
X482827Y303745D01*
X479831Y300749D01*
X479794Y300694D01*
X479751Y300645D01*
X479739Y300611D01*
X479720Y300582D01*
X479707Y300517D01*
X479686Y300455D01*
X479689Y300420D01*
X479682Y300385D01*
X479696Y300321D01*
X479700Y300255D01*
X479716Y300224D01*
X479724Y300189D01*
X479761Y300135D01*
X479791Y300076D01*
X479818Y300053D01*
X479838Y300024D01*
X479893Y299989D01*
X479943Y299947D01*
X479980Y299934D01*
X480007Y299917D01*
X480055Y299909D01*
X480114Y299889D01*
X481582Y299668D01*
X481653Y299671D01*
X481723Y299666D01*
X481754Y299676D01*
X481782Y299678D01*
X481829Y299700D01*
X481874Y299714D01*
X481880Y299716D01*
X481883Y299717D01*
X481895Y299721D01*
X481900Y299724D01*
X482520Y299532D01*
X482554Y299529D01*
X482594Y299516D01*
X483235Y299419D01*
X483239Y299415D01*
X483291Y299367D01*
X483337Y299314D01*
X483366Y299299D01*
X483387Y299280D01*
X483436Y299263D01*
X483497Y299231D01*
X485764Y298533D01*
X485834Y298526D01*
X485903Y298511D01*
X485935Y298516D01*
X485963Y298513D01*
X486012Y298528D01*
X486081Y298539D01*
X486086Y298541D01*
X486671Y298259D01*
X486704Y298251D01*
X486741Y298232D01*
X487361Y298041D01*
X487364Y298036D01*
X487408Y297981D01*
X487446Y297922D01*
X487473Y297902D01*
X487491Y297881D01*
X487536Y297857D01*
X487592Y297816D01*
X488830Y297220D01*
X488914Y297199D01*
X488997Y297173D01*
X489011Y297174D01*
X489024Y297171D01*
X489110Y297184D01*
X489196Y297192D01*
X489209Y297198D01*
X489223Y297200D01*
X489296Y297245D01*
X489373Y297286D01*
X489383Y297298D01*
X489394Y297305D01*
X489427Y297349D01*
X489489Y297424D01*
X508381Y330145D01*
X509618Y329291D01*
X509645Y329280D01*
X509667Y329261D01*
X509736Y329241D01*
X509801Y329213D01*
X509830Y329213D01*
X509858Y329205D01*
X509929Y329213D01*
X510000Y329213D01*
X510027Y329224D01*
X510056Y329227D01*
X510118Y329262D01*
X510183Y329290D01*
X510204Y329310D01*
X510229Y329325D01*
X510292Y329402D01*
X510322Y329432D01*
X510326Y329442D01*
X510335Y329453D01*
X519835Y345953D01*
X519845Y345985D01*
X519854Y345998D01*
X519858Y346022D01*
X519859Y346026D01*
X519890Y346096D01*
X519890Y346120D01*
X519898Y346142D01*
X519892Y346218D01*
X519893Y346295D01*
X519883Y346319D01*
X519882Y346340D01*
X519861Y346379D01*
X519835Y346451D01*
X510335Y362951D01*
X510316Y362973D01*
X510303Y362999D01*
X510250Y363047D01*
X510203Y363100D01*
X510177Y363113D01*
X510156Y363132D01*
X510088Y363155D01*
X510024Y363186D01*
X509995Y363188D01*
X509968Y363197D01*
X509896Y363192D01*
X509825Y363195D01*
X509798Y363185D01*
X509769Y363183D01*
X509679Y363141D01*
X509639Y363126D01*
X509631Y363119D01*
X509618Y363113D01*
X508381Y362259D01*
X489489Y394980D01*
X489432Y395045D01*
X489378Y395113D01*
X489366Y395120D01*
X489357Y395131D01*
X489279Y395168D01*
X489203Y395210D01*
X489189Y395212D01*
X489176Y395218D01*
X489090Y395222D01*
X489004Y395232D01*
X488989Y395228D01*
X488976Y395228D01*
X488924Y395210D01*
X488830Y395184D01*
X487592Y394588D01*
X487536Y394545D01*
X487475Y394510D01*
X487455Y394484D01*
X487432Y394467D01*
X487406Y394422D01*
X487364Y394368D01*
X487361Y394363D01*
X486741Y394172D01*
X486711Y394156D01*
X486671Y394145D01*
X486086Y393863D01*
X486081Y393865D01*
X486011Y393875D01*
X485942Y393893D01*
X485910Y393889D01*
X485882Y393893D01*
X485832Y393879D01*
X485764Y393871D01*
X483497Y393173D01*
X483435Y393139D01*
X483370Y393113D01*
X483346Y393090D01*
X483321Y393077D01*
X483289Y393037D01*
X483239Y392989D01*
X483235Y392985D01*
X482594Y392888D01*
X482561Y392877D01*
X482520Y392872D01*
X481900Y392680D01*
X481895Y392683D01*
X481827Y392703D01*
X481762Y392731D01*
X481730Y392732D01*
X481703Y392740D01*
X481651Y392734D01*
X481582Y392736D01*
X479237Y392384D01*
X479171Y392360D01*
X479102Y392343D01*
X479075Y392325D01*
X479049Y392315D01*
X479011Y392280D01*
X478954Y392241D01*
X478950Y392237D01*
X478301Y392237D01*
X478267Y392230D01*
X478226Y392231D01*
X477584Y392135D01*
X477580Y392138D01*
X477516Y392168D01*
X477456Y392205D01*
X477423Y392211D01*
X477398Y392223D01*
X477346Y392225D01*
X477278Y392237D01*
X474907Y392238D01*
X474838Y392224D01*
X474767Y392219D01*
X474738Y392204D01*
X474711Y392199D01*
X474668Y392170D01*
X474606Y392139D01*
X474601Y392136D01*
X473960Y392233D01*
X473925Y392231D01*
X473884Y392239D01*
X473236Y392239D01*
X473228Y392237D01*
X473221Y392238D01*
X473131Y392217D01*
X473040Y392199D01*
X473033Y392195D01*
X473025Y392193D01*
X472877Y392090D01*
X472053Y391266D01*
X472049Y391259D01*
X472043Y391255D01*
X471994Y391176D01*
X471942Y391099D01*
X471941Y391091D01*
X471937Y391085D01*
X471905Y390907D01*
X471905Y387565D01*
X468796Y384456D01*
X464400Y384456D01*
X461291Y387565D01*
X461291Y391961D01*
X463638Y394308D01*
X463688Y394383D01*
X463741Y394455D01*
X463743Y394466D01*
X463749Y394475D01*
X463766Y394563D01*
X463786Y394651D01*
X463784Y394661D01*
X463786Y394672D01*
X463768Y394760D01*
X463753Y394848D01*
X463747Y394857D01*
X463745Y394868D01*
X463693Y394942D01*
X463645Y395018D01*
X463636Y395024D01*
X463630Y395032D01*
X463585Y395061D01*
X463499Y395123D01*
X462458Y395625D01*
X462390Y395642D01*
X462324Y395668D01*
X462291Y395668D01*
X462264Y395675D01*
X462213Y395667D01*
X462144Y395666D01*
X462139Y395665D01*
X461603Y396031D01*
X461571Y396045D01*
X461537Y396069D01*
X460952Y396351D01*
X460951Y396356D01*
X460915Y396417D01*
X460886Y396481D01*
X460863Y396504D01*
X460848Y396528D01*
X460807Y396559D01*
X460758Y396608D01*
X458799Y397944D01*
X458734Y397972D01*
X458672Y398007D01*
X458640Y398011D01*
X458614Y398022D01*
X458563Y398022D01*
X458494Y398032D01*
X458489Y398032D01*
X458013Y398473D01*
X457984Y398491D01*
X457954Y398521D01*
X457418Y398886D01*
X457417Y398892D01*
X457390Y398957D01*
X457372Y399025D01*
X457352Y399052D01*
X457341Y399078D01*
X457305Y399114D01*
X457263Y399169D01*
X455526Y400783D01*
X455466Y400820D01*
X455410Y400863D01*
X455379Y400873D01*
X455355Y400887D01*
X455304Y400895D01*
X455237Y400915D01*
X455232Y400916D01*
X454828Y401423D01*
X454801Y401446D01*
X454776Y401479D01*
X454300Y401920D01*
X454300Y401926D01*
X454284Y401995D01*
X454276Y402065D01*
X454260Y402093D01*
X454253Y402121D01*
X454223Y402162D01*
X454190Y402223D01*
X452712Y404078D01*
X452658Y404123D01*
X452610Y404175D01*
X452580Y404189D01*
X452559Y404207D01*
X452509Y404222D01*
X452447Y404251D01*
X452442Y404253D01*
X452117Y404815D01*
X452094Y404841D01*
X452075Y404878D01*
X451670Y405385D01*
X451671Y405390D01*
X451665Y405461D01*
X451667Y405531D01*
X451656Y405562D01*
X451654Y405590D01*
X451630Y405636D01*
X451606Y405701D01*
X450421Y407755D01*
X450374Y407808D01*
X450334Y407866D01*
X450307Y407884D01*
X450289Y407905D01*
X450242Y407928D01*
X450185Y407966D01*
X450180Y407969D01*
X449943Y408573D01*
X449924Y408602D01*
X449910Y408641D01*
X449586Y409203D01*
X449587Y409208D01*
X449592Y409279D01*
X449604Y409348D01*
X449598Y409380D01*
X449600Y409408D01*
X449583Y409457D01*
X449569Y409525D01*
X448704Y411733D01*
X448666Y411792D01*
X448635Y411855D01*
X448610Y411878D01*
X448595Y411901D01*
X448553Y411930D01*
X448502Y411977D01*
X448497Y411980D01*
X448353Y412613D01*
X448338Y412644D01*
X448330Y412685D01*
X448093Y413289D01*
X448096Y413294D01*
X448111Y413363D01*
X448134Y413430D01*
X448132Y413463D01*
X448138Y413490D01*
X448129Y413541D01*
X448125Y413610D01*
X447598Y415922D01*
X447569Y415986D01*
X447548Y416054D01*
X447528Y416079D01*
X447516Y416105D01*
X447478Y416140D01*
X447435Y416194D01*
X447431Y416197D01*
X447382Y416844D01*
X447373Y416878D01*
X447371Y416919D01*
X447227Y417552D01*
X447230Y417557D01*
X447255Y417623D01*
X447288Y417685D01*
X447291Y417718D01*
X447301Y417744D01*
X447299Y417796D01*
X447306Y417864D01*
X447130Y420229D01*
X447111Y420297D01*
X447100Y420367D01*
X447083Y420395D01*
X447076Y420422D01*
X447044Y420463D01*
X447009Y420522D01*
X447005Y420526D01*
X447054Y421173D01*
X447049Y421208D01*
X447054Y421249D01*
X447005Y421896D01*
X447009Y421900D01*
X447044Y421962D01*
X447085Y422019D01*
X447094Y422051D01*
X447107Y422075D01*
X447113Y422127D01*
X447131Y422193D01*
X447308Y424558D01*
X447300Y424628D01*
X447299Y424699D01*
X447287Y424729D01*
X447284Y424757D01*
X447258Y424802D01*
X447232Y424866D01*
X447229Y424871D01*
X447374Y425503D01*
X447375Y425538D01*
X447385Y425578D01*
X447434Y426225D01*
X447438Y426229D01*
X447482Y426285D01*
X447531Y426335D01*
X447544Y426365D01*
X447561Y426387D01*
X447575Y426437D01*
X447602Y426500D01*
X448130Y428812D01*
X448132Y428883D01*
X448142Y428953D01*
X448135Y428984D01*
X448135Y429012D01*
X448117Y429061D01*
X448101Y429128D01*
X448099Y429133D01*
X448336Y429737D01*
X448342Y429771D01*
X448358Y429809D01*
X448503Y430442D01*
X448507Y430445D01*
X448559Y430493D01*
X448615Y430536D01*
X448632Y430563D01*
X448653Y430583D01*
X448674Y430630D01*
X448710Y430689D01*
X449577Y432896D01*
X449589Y432966D01*
X449610Y433033D01*
X449607Y433066D01*
X449612Y433093D01*
X449601Y433144D01*
X449595Y433213D01*
X449593Y433218D01*
X449918Y433780D01*
X449929Y433813D01*
X449951Y433848D01*
X450188Y434452D01*
X450193Y434454D01*
X450251Y434495D01*
X450313Y434528D01*
X450335Y434553D01*
X450358Y434569D01*
X450385Y434613D01*
X450430Y434665D01*
X451616Y436719D01*
X451639Y436786D01*
X451669Y436849D01*
X451671Y436882D01*
X451680Y436909D01*
X451676Y436960D01*
X451681Y437029D01*
X451680Y437035D01*
X452085Y437542D01*
X452101Y437573D01*
X452128Y437604D01*
X452452Y438166D01*
X452458Y438168D01*
X452502Y438190D01*
X452527Y438195D01*
X452547Y438208D01*
X452588Y438223D01*
X452612Y438244D01*
X452637Y438257D01*
X452665Y438288D01*
X452693Y438307D01*
X452704Y438324D01*
X452723Y438341D01*
X454202Y440195D01*
X454234Y440258D01*
X454274Y440316D01*
X454281Y440348D01*
X454294Y440373D01*
X454298Y440425D01*
X454313Y440492D01*
X454313Y440498D01*
X454789Y440939D01*
X454809Y440967D01*
X454840Y440994D01*
X455245Y441502D01*
X455250Y441502D01*
X455318Y441524D01*
X455387Y441537D01*
X455415Y441555D01*
X455441Y441564D01*
X455480Y441597D01*
X455539Y441634D01*
X457278Y443247D01*
X457319Y443304D01*
X457367Y443356D01*
X457378Y443387D01*
X457395Y443409D01*
X457406Y443460D01*
X457431Y443524D01*
X457432Y443530D01*
X457968Y443895D01*
X457993Y443920D01*
X458028Y443942D01*
X458503Y444383D01*
X458509Y444383D01*
X458579Y444395D01*
X458649Y444398D01*
X458679Y444411D01*
X458707Y444415D01*
X458751Y444443D01*
X458814Y444471D01*
X459934Y445234D01*
X459994Y445296D01*
X460058Y445355D01*
X460064Y445368D01*
X460074Y445378D01*
X460106Y445458D01*
X460142Y445537D01*
X460143Y445551D01*
X460148Y445564D01*
X460146Y445650D01*
X460149Y445737D01*
X460144Y445751D01*
X460143Y445764D01*
X460121Y445815D01*
X460088Y445907D01*
X441197Y478627D01*
X442516Y479251D01*
X442538Y479268D01*
X442565Y479278D01*
X442617Y479327D01*
X442675Y479370D01*
X442689Y479395D01*
X442710Y479414D01*
X442739Y479480D01*
X442775Y479542D01*
X442778Y479570D01*
X442790Y479596D01*
X442791Y479668D01*
X442800Y479739D01*
X442792Y479766D01*
X442793Y479795D01*
X442757Y479890D01*
X442746Y479930D01*
X442739Y479939D01*
X442735Y479951D01*
X433235Y496451D01*
X433183Y496510D01*
X433137Y496572D01*
X433118Y496583D01*
X433103Y496600D01*
X433033Y496634D01*
X432966Y496674D01*
X432942Y496678D01*
X432924Y496686D01*
X432879Y496688D01*
X432802Y496701D01*
X413802Y496701D01*
X413774Y496696D01*
X413746Y496698D01*
X413678Y496676D01*
X413607Y496662D01*
X413584Y496646D01*
X413557Y496637D01*
X413502Y496590D01*
X413443Y496549D01*
X413428Y496525D01*
X413407Y496507D01*
X413375Y496442D01*
X413336Y496382D01*
X413331Y496354D01*
X413319Y496328D01*
X413310Y496227D01*
X413303Y496185D01*
X413305Y496175D01*
X413304Y496162D01*
X413422Y494685D01*
X375589Y494685D01*
X375504Y494668D01*
X375419Y494656D01*
X375407Y494648D01*
X375393Y494646D01*
X375321Y494597D01*
X375247Y494552D01*
X375239Y494541D01*
X375227Y494533D01*
X375180Y494461D01*
X375129Y494390D01*
X375125Y494376D01*
X375118Y494365D01*
X375108Y494310D01*
X375084Y494216D01*
X374982Y492857D01*
X374991Y492787D01*
X374991Y492717D01*
X375003Y492686D01*
X375007Y492658D01*
X375032Y492614D01*
X375058Y492550D01*
X375061Y492545D01*
X374917Y491912D01*
X374916Y491878D01*
X374905Y491837D01*
X374857Y491190D01*
X374853Y491187D01*
X374809Y491131D01*
X374760Y491081D01*
X374747Y491051D01*
X374730Y491029D01*
X374716Y490979D01*
X374689Y490915D01*
X374162Y488605D01*
X374160Y488535D01*
X374150Y488465D01*
X374157Y488433D01*
X374157Y488405D01*
X374175Y488357D01*
X374191Y488290D01*
X374194Y488285D01*
X373957Y487681D01*
X373950Y487646D01*
X373934Y487608D01*
X373790Y486975D01*
X373785Y486973D01*
X373734Y486924D01*
X373677Y486882D01*
X373660Y486854D01*
X373640Y486834D01*
X373619Y486787D01*
X373583Y486728D01*
X372717Y484523D01*
X372705Y484453D01*
X372685Y484386D01*
X372687Y484353D01*
X372682Y484326D01*
X372694Y484275D01*
X372700Y484206D01*
X372701Y484201D01*
X372377Y483639D01*
X372365Y483606D01*
X372344Y483571D01*
X372107Y482967D01*
X372101Y482965D01*
X372044Y482924D01*
X371981Y482891D01*
X371960Y482866D01*
X371937Y482850D01*
X371910Y482806D01*
X371865Y482753D01*
X370680Y480702D01*
X370658Y480635D01*
X370628Y480571D01*
X370625Y480538D01*
X370617Y480512D01*
X370620Y480460D01*
X370616Y480391D01*
X370616Y480386D01*
X370212Y479878D01*
X370196Y479847D01*
X370169Y479816D01*
X369845Y479254D01*
X369839Y479252D01*
X369776Y479221D01*
X369710Y479197D01*
X369685Y479176D01*
X369660Y479163D01*
X369626Y479124D01*
X369590Y479092D01*
X369587Y479090D01*
X369586Y479089D01*
X369574Y479079D01*
X368097Y477226D01*
X368065Y477164D01*
X368025Y477105D01*
X368018Y477073D01*
X368005Y477048D01*
X368001Y476997D01*
X367987Y476929D01*
X367986Y476924D01*
X367511Y476482D01*
X367490Y476454D01*
X367459Y476427D01*
X367055Y475919D01*
X367049Y475919D01*
X366982Y475897D01*
X366913Y475884D01*
X366885Y475866D01*
X366858Y475857D01*
X366819Y475824D01*
X366761Y475786D01*
X365024Y474175D01*
X364983Y474118D01*
X364935Y474066D01*
X364923Y474035D01*
X364907Y474012D01*
X364895Y473962D01*
X364871Y473897D01*
X364870Y473892D01*
X364334Y473527D01*
X364309Y473502D01*
X364274Y473479D01*
X363799Y473038D01*
X363793Y473038D01*
X363724Y473027D01*
X363653Y473024D01*
X363623Y473010D01*
X363595Y473006D01*
X363552Y472979D01*
X363488Y472950D01*
X361531Y471616D01*
X361482Y471565D01*
X361427Y471521D01*
X361411Y471492D01*
X361391Y471472D01*
X361372Y471424D01*
X361338Y471364D01*
X361336Y471359D01*
X360751Y471077D01*
X360724Y471056D01*
X360686Y471039D01*
X360150Y470674D01*
X360144Y470675D01*
X360074Y470674D01*
X360003Y470682D01*
X359972Y470673D01*
X359944Y470673D01*
X359897Y470652D01*
X359830Y470634D01*
X357695Y469606D01*
X357639Y469563D01*
X357578Y469527D01*
X357558Y469502D01*
X357536Y469485D01*
X357510Y469440D01*
X357467Y469386D01*
X357464Y469381D01*
X356844Y469190D01*
X356814Y469173D01*
X356774Y469162D01*
X356189Y468880D01*
X356184Y468882D01*
X356114Y468892D01*
X356046Y468910D01*
X356013Y468906D01*
X355985Y468910D01*
X355935Y468896D01*
X355867Y468888D01*
X353603Y468190D01*
X353541Y468156D01*
X353475Y468130D01*
X353452Y468107D01*
X353427Y468094D01*
X353395Y468054D01*
X353344Y468006D01*
X353341Y468002D01*
X352700Y467905D01*
X352667Y467893D01*
X352626Y467888D01*
X352005Y467697D01*
X352001Y467700D01*
X351933Y467720D01*
X351868Y467747D01*
X351835Y467748D01*
X351808Y467756D01*
X351757Y467751D01*
X351688Y467753D01*
X349345Y467400D01*
X349279Y467375D01*
X349210Y467359D01*
X349183Y467341D01*
X349157Y467331D01*
X349119Y467296D01*
X349062Y467257D01*
X349058Y467253D01*
X348409Y467253D01*
X348375Y467246D01*
X348334Y467247D01*
X347692Y467150D01*
X347688Y467154D01*
X347624Y467183D01*
X347564Y467221D01*
X347532Y467227D01*
X347506Y467238D01*
X347455Y467240D01*
X347387Y467253D01*
X347209Y467253D01*
X347201Y467251D01*
X347194Y467253D01*
X347104Y467232D01*
X347013Y467213D01*
X347006Y467209D01*
X346999Y467207D01*
X346851Y467104D01*
X329026Y449280D01*
X329025Y449278D01*
X329023Y449276D01*
X328970Y449195D01*
X328915Y449113D01*
X328915Y449110D01*
X328913Y449108D01*
X328896Y449012D01*
X328878Y448916D01*
X328878Y448914D01*
X328878Y448911D01*
X328899Y448815D01*
X328919Y448720D01*
X328921Y448718D01*
X328921Y448715D01*
X328978Y448635D01*
X329034Y448555D01*
X329036Y448554D01*
X329037Y448552D01*
X329120Y448500D01*
X329203Y448448D01*
X329205Y448447D01*
X329208Y448446D01*
X329385Y448414D01*
X330045Y448414D01*
X330671Y447788D01*
X330675Y447785D01*
X330678Y447781D01*
X330758Y447730D01*
X330838Y447677D01*
X330843Y447676D01*
X330847Y447673D01*
X330941Y447657D01*
X331034Y447640D01*
X331040Y447641D01*
X331045Y447640D01*
X331137Y447661D01*
X331231Y447681D01*
X331235Y447684D01*
X331240Y447685D01*
X331388Y447788D01*
X332014Y448414D01*
X335045Y448414D01*
X335671Y447788D01*
X335675Y447785D01*
X335678Y447781D01*
X335758Y447730D01*
X335838Y447677D01*
X335843Y447676D01*
X335847Y447673D01*
X335941Y447657D01*
X336034Y447640D01*
X336040Y447641D01*
X336045Y447640D01*
X336137Y447661D01*
X336231Y447681D01*
X336235Y447684D01*
X336240Y447685D01*
X336388Y447788D01*
X337014Y448414D01*
X339973Y448414D01*
X339978Y448415D01*
X339984Y448414D01*
X340077Y448435D01*
X340170Y448454D01*
X340174Y448457D01*
X340179Y448458D01*
X340257Y448513D01*
X340336Y448566D01*
X340338Y448571D01*
X340343Y448574D01*
X340393Y448655D01*
X340445Y448734D01*
X340446Y448739D01*
X340449Y448744D01*
X340481Y448921D01*
X340481Y450837D01*
X346209Y456566D01*
X352585Y456566D01*
X352593Y456567D01*
X352600Y456566D01*
X352690Y456587D01*
X352781Y456605D01*
X352788Y456610D01*
X352795Y456612D01*
X352943Y456714D01*
X355053Y458824D01*
X359449Y458824D01*
X359958Y458314D01*
X359963Y458312D01*
X359966Y458307D01*
X360046Y458256D01*
X360125Y458204D01*
X360130Y458203D01*
X360135Y458200D01*
X360229Y458184D01*
X360322Y458166D01*
X360327Y458167D01*
X360333Y458166D01*
X360425Y458188D01*
X360518Y458208D01*
X360523Y458211D01*
X360528Y458212D01*
X360676Y458314D01*
X362403Y460042D01*
X376737Y460042D01*
X379095Y457684D01*
X379095Y449350D01*
X376737Y446992D01*
X371159Y446992D01*
X371157Y446992D01*
X371154Y446992D01*
X371059Y446972D01*
X370963Y446953D01*
X370961Y446951D01*
X370958Y446951D01*
X370877Y446895D01*
X370797Y446840D01*
X370796Y446838D01*
X370793Y446836D01*
X370740Y446753D01*
X370688Y446672D01*
X370687Y446669D01*
X370686Y446667D01*
X370669Y446571D01*
X370652Y446475D01*
X370653Y446472D01*
X370652Y446470D01*
X370674Y446375D01*
X370696Y446279D01*
X370697Y446277D01*
X370698Y446274D01*
X370801Y446126D01*
X373061Y443866D01*
X373061Y439691D01*
X373062Y439686D01*
X373061Y439681D01*
X373082Y439588D01*
X373100Y439495D01*
X373103Y439490D01*
X373104Y439485D01*
X373160Y439407D01*
X373213Y439329D01*
X373217Y439326D01*
X373220Y439322D01*
X373302Y439271D01*
X373381Y439220D01*
X373386Y439219D01*
X373391Y439216D01*
X373568Y439184D01*
X379036Y439184D01*
X379044Y439185D01*
X379052Y439184D01*
X379141Y439205D01*
X379233Y439224D01*
X379239Y439228D01*
X379247Y439230D01*
X379395Y439332D01*
X380186Y440123D01*
X380190Y440130D01*
X380196Y440134D01*
X380245Y440213D01*
X380297Y440290D01*
X380298Y440298D01*
X380302Y440305D01*
X380334Y440482D01*
X380334Y448976D01*
X381227Y449869D01*
X384049Y449869D01*
X384054Y449870D01*
X384060Y449869D01*
X384153Y449890D01*
X384246Y449909D01*
X384250Y449912D01*
X384255Y449913D01*
X384333Y449968D01*
X384412Y450021D01*
X384414Y450026D01*
X384419Y450029D01*
X384469Y450110D01*
X384521Y450189D01*
X384522Y450194D01*
X384525Y450199D01*
X384557Y450376D01*
X384557Y456800D01*
X384556Y456805D01*
X384556Y456810D01*
X384536Y456903D01*
X384517Y456996D01*
X384514Y457001D01*
X384513Y457006D01*
X384458Y457083D01*
X384404Y457162D01*
X384400Y457165D01*
X384397Y457169D01*
X384316Y457220D01*
X384236Y457272D01*
X384231Y457272D01*
X384227Y457275D01*
X384049Y457307D01*
X381220Y457307D01*
X380327Y458200D01*
X380327Y469464D01*
X381220Y470357D01*
X393483Y470357D01*
X394376Y469464D01*
X394376Y458200D01*
X393483Y457307D01*
X390653Y457307D01*
X390648Y457306D01*
X390643Y457307D01*
X390550Y457286D01*
X390457Y457268D01*
X390452Y457265D01*
X390447Y457264D01*
X390370Y457208D01*
X390291Y457155D01*
X390288Y457151D01*
X390284Y457148D01*
X390233Y457066D01*
X390182Y456987D01*
X390181Y456982D01*
X390178Y456977D01*
X390146Y456800D01*
X390146Y450376D01*
X390147Y450371D01*
X390146Y450366D01*
X390167Y450273D01*
X390186Y450180D01*
X390189Y450175D01*
X390190Y450170D01*
X390245Y450093D01*
X390298Y450014D01*
X390303Y450011D01*
X390306Y450007D01*
X390387Y449956D01*
X390466Y449905D01*
X390471Y449904D01*
X390476Y449901D01*
X390653Y449869D01*
X393491Y449869D01*
X394384Y448976D01*
X394384Y437713D01*
X393491Y436820D01*
X384997Y436820D01*
X384989Y436818D01*
X384981Y436819D01*
X384891Y436798D01*
X384800Y436780D01*
X384794Y436776D01*
X384786Y436774D01*
X384638Y436671D01*
X381561Y433594D01*
X376061Y433594D01*
X376056Y433593D01*
X376051Y433594D01*
X375958Y433574D01*
X375865Y433555D01*
X375860Y433552D01*
X375855Y433551D01*
X375778Y433496D01*
X375699Y433442D01*
X375696Y433438D01*
X375692Y433435D01*
X375641Y433353D01*
X375590Y433274D01*
X375589Y433269D01*
X375586Y433265D01*
X375554Y433087D01*
X375554Y429874D01*
X374295Y428615D01*
X366764Y428615D01*
X365505Y429874D01*
X365505Y432905D01*
X366131Y433531D01*
X366133Y433535D01*
X366138Y433538D01*
X366189Y433618D01*
X366241Y433697D01*
X366242Y433703D01*
X366245Y433707D01*
X366261Y433801D01*
X366279Y433894D01*
X366278Y433900D01*
X366279Y433905D01*
X366257Y433997D01*
X366237Y434090D01*
X366234Y434095D01*
X366233Y434100D01*
X366131Y434248D01*
X365505Y434874D01*
X365505Y436203D01*
X365503Y436210D01*
X365504Y436218D01*
X365483Y436308D01*
X365465Y436399D01*
X365461Y436406D01*
X365459Y436413D01*
X365356Y436561D01*
X363701Y438216D01*
X363695Y438220D01*
X363690Y438227D01*
X363612Y438276D01*
X363534Y438327D01*
X363527Y438328D01*
X363520Y438333D01*
X363343Y438365D01*
X362014Y438365D01*
X360755Y439624D01*
X360755Y442001D01*
X360753Y442009D01*
X360754Y442017D01*
X360735Y442102D01*
X360735Y444666D01*
X360755Y444777D01*
X360755Y447155D01*
X361139Y447539D01*
X361142Y447543D01*
X361146Y447546D01*
X361197Y447627D01*
X361250Y447706D01*
X361251Y447711D01*
X361254Y447715D01*
X361269Y447809D01*
X361287Y447903D01*
X361286Y447908D01*
X361287Y447913D01*
X361266Y448006D01*
X361246Y448099D01*
X361243Y448103D01*
X361242Y448108D01*
X361139Y448256D01*
X360676Y448719D01*
X360671Y448722D01*
X360668Y448727D01*
X360588Y448778D01*
X360509Y448830D01*
X360504Y448831D01*
X360499Y448834D01*
X360405Y448850D01*
X360312Y448868D01*
X360307Y448867D01*
X360302Y448868D01*
X360209Y448846D01*
X360116Y448826D01*
X360112Y448823D01*
X360106Y448822D01*
X359958Y448720D01*
X359449Y448210D01*
X356473Y448210D01*
X356470Y448210D01*
X356468Y448210D01*
X356372Y448190D01*
X356276Y448171D01*
X356274Y448169D01*
X356272Y448169D01*
X356191Y448113D01*
X356111Y448058D01*
X356109Y448056D01*
X356107Y448054D01*
X356053Y447970D01*
X356001Y447890D01*
X356001Y447887D01*
X356000Y447885D01*
X355983Y447788D01*
X355966Y447693D01*
X355966Y447690D01*
X355966Y447688D01*
X355988Y447595D01*
X356009Y447497D01*
X356011Y447495D01*
X356012Y447492D01*
X356114Y447344D01*
X356304Y447155D01*
X356304Y439624D01*
X355045Y438365D01*
X352014Y438365D01*
X351388Y438990D01*
X351384Y438993D01*
X351381Y438998D01*
X351300Y439049D01*
X351221Y439101D01*
X351216Y439102D01*
X351211Y439105D01*
X351118Y439121D01*
X351024Y439139D01*
X351019Y439138D01*
X351014Y439139D01*
X350921Y439117D01*
X350828Y439097D01*
X350824Y439094D01*
X350819Y439093D01*
X350671Y438990D01*
X350045Y438365D01*
X347014Y438365D01*
X346388Y438990D01*
X346384Y438993D01*
X346381Y438998D01*
X346300Y439049D01*
X346221Y439101D01*
X346216Y439102D01*
X346211Y439105D01*
X346118Y439121D01*
X346024Y439139D01*
X346019Y439138D01*
X346014Y439139D01*
X345921Y439117D01*
X345828Y439097D01*
X345824Y439094D01*
X345819Y439093D01*
X345671Y438990D01*
X345045Y438365D01*
X342014Y438365D01*
X341388Y438990D01*
X341384Y438993D01*
X341381Y438998D01*
X341300Y439049D01*
X341221Y439101D01*
X341216Y439102D01*
X341211Y439105D01*
X341118Y439121D01*
X341024Y439139D01*
X341019Y439138D01*
X341014Y439139D01*
X340921Y439117D01*
X340828Y439097D01*
X340824Y439094D01*
X340819Y439093D01*
X340671Y438990D01*
X340045Y438365D01*
X337014Y438365D01*
X336388Y438990D01*
X336384Y438993D01*
X336381Y438998D01*
X336300Y439049D01*
X336221Y439101D01*
X336216Y439102D01*
X336211Y439105D01*
X336118Y439121D01*
X336024Y439139D01*
X336019Y439138D01*
X336014Y439139D01*
X335921Y439117D01*
X335828Y439097D01*
X335824Y439094D01*
X335819Y439093D01*
X335671Y438990D01*
X335045Y438365D01*
X332014Y438365D01*
X331388Y438990D01*
X331384Y438993D01*
X331381Y438998D01*
X331300Y439049D01*
X331221Y439101D01*
X331216Y439102D01*
X331211Y439105D01*
X331118Y439121D01*
X331024Y439139D01*
X331019Y439138D01*
X331014Y439139D01*
X330921Y439117D01*
X330828Y439097D01*
X330824Y439094D01*
X330819Y439093D01*
X330671Y438990D01*
X330045Y438365D01*
X327014Y438365D01*
X326388Y438990D01*
X326384Y438993D01*
X326381Y438998D01*
X326301Y439049D01*
X326221Y439101D01*
X326216Y439102D01*
X326211Y439105D01*
X326118Y439121D01*
X326024Y439139D01*
X326019Y439138D01*
X326014Y439139D01*
X325921Y439117D01*
X325828Y439097D01*
X325824Y439094D01*
X325819Y439093D01*
X325671Y438990D01*
X325045Y438365D01*
X322014Y438365D01*
X321388Y438990D01*
X321384Y438993D01*
X321381Y438998D01*
X321300Y439049D01*
X321221Y439101D01*
X321216Y439102D01*
X321211Y439105D01*
X321118Y439121D01*
X321024Y439139D01*
X321019Y439138D01*
X321014Y439139D01*
X320921Y439117D01*
X320828Y439097D01*
X320824Y439094D01*
X320819Y439093D01*
X320671Y438990D01*
X320045Y438365D01*
X317014Y438365D01*
X315755Y439624D01*
X315755Y442001D01*
X315753Y442009D01*
X315754Y442017D01*
X315735Y442102D01*
X315735Y454815D01*
X326142Y465222D01*
X326146Y465229D01*
X326152Y465233D01*
X326201Y465312D01*
X326253Y465389D01*
X326254Y465397D01*
X326258Y465403D01*
X326290Y465581D01*
X326290Y468923D01*
X329316Y471949D01*
X329346Y471993D01*
X329382Y472031D01*
X329400Y472076D01*
X329427Y472116D01*
X329437Y472168D01*
X329457Y472217D01*
X329456Y472265D01*
X329465Y472313D01*
X329454Y472365D01*
X329453Y472417D01*
X329433Y472462D01*
X329423Y472509D01*
X329393Y472552D01*
X329372Y472601D01*
X329334Y472638D01*
X329309Y472674D01*
X329276Y472694D01*
X329243Y472727D01*
X328916Y472950D01*
X328851Y472978D01*
X328789Y473013D01*
X328757Y473017D01*
X328731Y473028D01*
X328679Y473028D01*
X328611Y473038D01*
X328605Y473038D01*
X328130Y473479D01*
X328100Y473497D01*
X328070Y473527D01*
X327534Y473892D01*
X327533Y473897D01*
X327507Y473963D01*
X327488Y474031D01*
X327468Y474057D01*
X327458Y474083D01*
X327421Y474120D01*
X327380Y474175D01*
X325643Y475786D01*
X325583Y475823D01*
X325528Y475867D01*
X325496Y475876D01*
X325472Y475891D01*
X325421Y475899D01*
X325355Y475919D01*
X325349Y475919D01*
X324945Y476427D01*
X324918Y476449D01*
X324893Y476482D01*
X324418Y476924D01*
X324417Y476929D01*
X324401Y476998D01*
X324393Y477068D01*
X324377Y477097D01*
X324371Y477124D01*
X324340Y477165D01*
X324307Y477226D01*
X322830Y479079D01*
X322808Y479097D01*
X322803Y479105D01*
X322788Y479113D01*
X322776Y479124D01*
X322728Y479175D01*
X322698Y479189D01*
X322677Y479207D01*
X322627Y479223D01*
X322565Y479252D01*
X322559Y479254D01*
X322235Y479816D01*
X322212Y479842D01*
X322192Y479878D01*
X321788Y480386D01*
X321788Y480391D01*
X321782Y480462D01*
X321784Y480532D01*
X321773Y480563D01*
X321771Y480591D01*
X321747Y480637D01*
X321724Y480702D01*
X320539Y482753D01*
X320492Y482806D01*
X320452Y482864D01*
X320425Y482883D01*
X320406Y482904D01*
X320360Y482926D01*
X320303Y482965D01*
X320297Y482967D01*
X320060Y483571D01*
X320042Y483600D01*
X320027Y483639D01*
X319703Y484201D01*
X319704Y484206D01*
X319709Y484277D01*
X319722Y484346D01*
X319715Y484378D01*
X319717Y484406D01*
X319700Y484455D01*
X319687Y484523D01*
X318821Y486728D01*
X318783Y486788D01*
X318752Y486851D01*
X318728Y486873D01*
X318713Y486897D01*
X318670Y486926D01*
X318619Y486973D01*
X318614Y486975D01*
X318470Y487608D01*
X318456Y487640D01*
X318447Y487681D01*
X318210Y488285D01*
X318213Y488290D01*
X318227Y488359D01*
X318250Y488425D01*
X318249Y488458D01*
X318255Y488486D01*
X318245Y488536D01*
X318242Y488605D01*
X317715Y490915D01*
X317686Y490979D01*
X317665Y491047D01*
X317644Y491072D01*
X317633Y491098D01*
X317595Y491133D01*
X317551Y491187D01*
X317547Y491190D01*
X317499Y491837D01*
X317489Y491871D01*
X317487Y491912D01*
X317343Y492545D01*
X317346Y492550D01*
X317371Y492616D01*
X317404Y492678D01*
X317407Y492711D01*
X317417Y492737D01*
X317415Y492788D01*
X317422Y492857D01*
X317320Y494216D01*
X317297Y494299D01*
X317278Y494384D01*
X317270Y494395D01*
X317266Y494409D01*
X317212Y494477D01*
X317162Y494547D01*
X317150Y494555D01*
X317142Y494566D01*
X317065Y494608D01*
X316992Y494653D01*
X316977Y494656D01*
X316966Y494662D01*
X316910Y494668D01*
X316815Y494685D01*
X278982Y494685D01*
X279100Y496162D01*
X279096Y496191D01*
X279101Y496219D01*
X279084Y496288D01*
X279076Y496360D01*
X279062Y496384D01*
X279055Y496412D01*
X279012Y496470D01*
X278977Y496532D01*
X278954Y496549D01*
X278937Y496572D01*
X278875Y496609D01*
X278818Y496652D01*
X278790Y496659D01*
X278766Y496674D01*
X278666Y496690D01*
X278625Y496701D01*
X278615Y496699D01*
X278602Y496701D01*
X259602Y496701D01*
X259526Y496686D01*
X259448Y496677D01*
X259429Y496666D01*
X259407Y496662D01*
X259343Y496618D01*
X259275Y496579D01*
X259259Y496560D01*
X259243Y496549D01*
X259219Y496511D01*
X259169Y496451D01*
X249669Y479951D01*
X249660Y479924D01*
X249644Y479900D01*
X249629Y479830D01*
X249606Y479762D01*
X249609Y479734D01*
X249603Y479706D01*
X249617Y479636D01*
X249622Y479564D01*
X249635Y479539D01*
X249641Y479511D01*
X249681Y479451D01*
X249714Y479388D01*
X249736Y479370D01*
X249752Y479346D01*
X249835Y479288D01*
X249867Y479261D01*
X249878Y479258D01*
X249889Y479251D01*
X251207Y478627D01*
X248863Y474567D01*
X248851Y474534D01*
X248832Y474505D01*
X248820Y474440D01*
X248799Y474377D01*
X248801Y474342D01*
X248800Y474337D01*
X248752Y474311D01*
X248730Y474285D01*
X248706Y474268D01*
X248679Y474225D01*
X248636Y474174D01*
X238820Y457172D01*
X238808Y457138D01*
X238791Y457110D01*
X238788Y457105D01*
X238776Y457042D01*
X238756Y456982D01*
X238759Y456944D01*
X238752Y456908D01*
X238766Y456845D01*
X238771Y456782D01*
X238787Y456749D01*
X238796Y456712D01*
X238833Y456660D01*
X238861Y456603D01*
X238890Y456579D01*
X238912Y456549D01*
X238966Y456515D01*
X239014Y456474D01*
X239050Y456462D01*
X239082Y456443D01*
X239155Y456430D01*
X239206Y456414D01*
X239231Y456416D01*
X239259Y456411D01*
X242990Y456411D01*
X246099Y453302D01*
X246099Y448906D01*
X243735Y446542D01*
X243731Y446536D01*
X243725Y446531D01*
X243676Y446453D01*
X243624Y446375D01*
X243623Y446368D01*
X243619Y446361D01*
X243587Y446184D01*
X243587Y435034D01*
X242705Y434153D01*
X242683Y434119D01*
X242653Y434092D01*
X242628Y434037D01*
X242594Y433986D01*
X242587Y433946D01*
X242570Y433910D01*
X242568Y433849D01*
X242556Y433789D01*
X242565Y433750D01*
X242563Y433710D01*
X242587Y433643D01*
X242598Y433593D01*
X242614Y433570D01*
X242624Y433540D01*
X242811Y433218D01*
X242809Y433213D01*
X242805Y433142D01*
X242792Y433073D01*
X242798Y433041D01*
X242797Y433013D01*
X242814Y432964D01*
X242827Y432896D01*
X243694Y430689D01*
X243732Y430630D01*
X243763Y430566D01*
X243788Y430544D01*
X243803Y430520D01*
X243845Y430491D01*
X243897Y430445D01*
X243901Y430442D01*
X244046Y429809D01*
X244060Y429778D01*
X244068Y429737D01*
X244305Y429133D01*
X244303Y429128D01*
X244288Y429059D01*
X244265Y428992D01*
X244267Y428959D01*
X244261Y428932D01*
X244271Y428881D01*
X244274Y428812D01*
X244802Y426500D01*
X244831Y426436D01*
X244852Y426369D01*
X244873Y426343D01*
X244885Y426318D01*
X244922Y426283D01*
X244966Y426229D01*
X244970Y426225D01*
X245019Y425578D01*
X245028Y425545D01*
X245030Y425503D01*
X245175Y424871D01*
X245172Y424866D01*
X245147Y424800D01*
X245114Y424737D01*
X245111Y424705D01*
X245101Y424678D01*
X245103Y424627D01*
X245096Y424558D01*
X245273Y422193D01*
X245293Y422126D01*
X245303Y422056D01*
X245320Y422027D01*
X245328Y422000D01*
X245360Y421960D01*
X245395Y421900D01*
X245399Y421896D01*
X245350Y421249D01*
X245355Y421215D01*
X245350Y421173D01*
X245399Y420526D01*
X245395Y420522D01*
X245361Y420461D01*
X245319Y420404D01*
X245311Y420372D01*
X245297Y420347D01*
X245291Y420296D01*
X245274Y420229D01*
X245098Y417864D01*
X245106Y417794D01*
X245107Y417724D01*
X245119Y417693D01*
X245123Y417665D01*
X245148Y417621D01*
X245174Y417557D01*
X245177Y417552D01*
X245033Y416919D01*
X245032Y416885D01*
X245022Y416844D01*
X244973Y416197D01*
X244969Y416194D01*
X244926Y416138D01*
X244876Y416088D01*
X244863Y416058D01*
X244846Y416035D01*
X244833Y415985D01*
X244806Y415922D01*
X244279Y413610D01*
X244277Y413539D01*
X244267Y413469D01*
X244274Y413438D01*
X244274Y413410D01*
X244292Y413361D01*
X244308Y413294D01*
X244311Y413289D01*
X244074Y412685D01*
X244068Y412651D01*
X244051Y412613D01*
X243907Y411980D01*
X243902Y411977D01*
X243851Y411928D01*
X243795Y411886D01*
X243778Y411858D01*
X243757Y411839D01*
X243737Y411792D01*
X243700Y411733D01*
X242835Y409525D01*
X242822Y409455D01*
X242802Y409388D01*
X242805Y409355D01*
X242800Y409328D01*
X242811Y409277D01*
X242817Y409208D01*
X242818Y409203D01*
X242494Y408641D01*
X242483Y408608D01*
X242461Y408573D01*
X242224Y407969D01*
X242219Y407966D01*
X242161Y407926D01*
X242099Y407893D01*
X242078Y407868D01*
X242055Y407851D01*
X242028Y407808D01*
X241983Y407755D01*
X240798Y405701D01*
X240775Y405634D01*
X240745Y405570D01*
X240743Y405537D01*
X240734Y405511D01*
X240738Y405459D01*
X240733Y405390D01*
X240734Y405385D01*
X240329Y404878D01*
X240314Y404847D01*
X240287Y404815D01*
X239962Y404253D01*
X239957Y404251D01*
X239894Y404220D01*
X239827Y404196D01*
X239803Y404175D01*
X239778Y404162D01*
X239744Y404123D01*
X239692Y404078D01*
X238214Y402223D01*
X238182Y402160D01*
X238142Y402102D01*
X238135Y402070D01*
X238122Y402045D01*
X238118Y401993D01*
X238104Y401926D01*
X238104Y401920D01*
X237628Y401479D01*
X237608Y401451D01*
X237576Y401423D01*
X237172Y400916D01*
X237167Y400915D01*
X237099Y400894D01*
X237030Y400880D01*
X237002Y400862D01*
X236976Y400854D01*
X236937Y400820D01*
X236878Y400783D01*
X235141Y399169D01*
X235099Y399112D01*
X235052Y399060D01*
X235040Y399029D01*
X235024Y399007D01*
X235012Y398956D01*
X234987Y398892D01*
X234986Y398886D01*
X234450Y398521D01*
X234426Y398496D01*
X234391Y398473D01*
X233915Y398032D01*
X233910Y398032D01*
X233840Y398021D01*
X233770Y398018D01*
X233740Y398004D01*
X233712Y398000D01*
X233668Y397972D01*
X233605Y397944D01*
X231646Y396608D01*
X231597Y396557D01*
X231542Y396513D01*
X231526Y396484D01*
X231506Y396464D01*
X231487Y396416D01*
X231453Y396356D01*
X231452Y396351D01*
X230867Y396069D01*
X230839Y396048D01*
X230801Y396031D01*
X230265Y395665D01*
X230260Y395666D01*
X230189Y395666D01*
X230119Y395673D01*
X230088Y395664D01*
X230060Y395664D01*
X230012Y395643D01*
X229946Y395625D01*
X227809Y394595D01*
X227753Y394553D01*
X227692Y394517D01*
X227672Y394491D01*
X227650Y394474D01*
X227624Y394430D01*
X227581Y394375D01*
X227579Y394370D01*
X226958Y394179D01*
X226928Y394162D01*
X226888Y394151D01*
X226303Y393870D01*
X226298Y393871D01*
X226228Y393881D01*
X226160Y393899D01*
X226127Y393895D01*
X226100Y393899D01*
X226050Y393886D01*
X225981Y393877D01*
X223715Y393178D01*
X223653Y393144D01*
X223588Y393118D01*
X223564Y393095D01*
X223539Y393082D01*
X223507Y393041D01*
X223457Y392994D01*
X223454Y392989D01*
X222812Y392893D01*
X222779Y392881D01*
X222738Y392876D01*
X222118Y392684D01*
X222113Y392687D01*
X222045Y392707D01*
X221981Y392735D01*
X221948Y392736D01*
X221921Y392744D01*
X221870Y392738D01*
X221800Y392740D01*
X219456Y392386D01*
X219389Y392361D01*
X219321Y392345D01*
X219294Y392327D01*
X219267Y392317D01*
X219229Y392282D01*
X219173Y392243D01*
X219169Y392239D01*
X218520Y392239D01*
X218486Y392232D01*
X218444Y392233D01*
X217803Y392136D01*
X217798Y392139D01*
X217734Y392169D01*
X217674Y392206D01*
X217642Y392212D01*
X217617Y392224D01*
X217565Y392226D01*
X217497Y392238D01*
X215126Y392237D01*
X215056Y392223D01*
X214986Y392218D01*
X214957Y392203D01*
X214929Y392198D01*
X214886Y392169D01*
X214824Y392138D01*
X214820Y392135D01*
X214178Y392231D01*
X214144Y392230D01*
X214103Y392237D01*
X213454Y392237D01*
X213450Y392241D01*
X213391Y392280D01*
X213337Y392326D01*
X213306Y392336D01*
X213283Y392352D01*
X213232Y392361D01*
X213167Y392384D01*
X210822Y392736D01*
X210751Y392733D01*
X210681Y392738D01*
X210650Y392728D01*
X210622Y392726D01*
X210575Y392704D01*
X210509Y392683D01*
X210504Y392680D01*
X209884Y392872D01*
X209850Y392875D01*
X209810Y392888D01*
X209169Y392985D01*
X209165Y392989D01*
X209113Y393037D01*
X209067Y393090D01*
X209038Y393105D01*
X209017Y393124D01*
X208968Y393141D01*
X208907Y393173D01*
X206640Y393871D01*
X206570Y393878D01*
X206501Y393893D01*
X206469Y393888D01*
X206441Y393891D01*
X206392Y393876D01*
X206323Y393865D01*
X206318Y393863D01*
X205733Y394145D01*
X205700Y394153D01*
X205663Y394172D01*
X205043Y394363D01*
X205040Y394368D01*
X204996Y394423D01*
X204958Y394482D01*
X204931Y394502D01*
X204913Y394523D01*
X204868Y394547D01*
X204812Y394588D01*
X203574Y395184D01*
X203490Y395205D01*
X203407Y395231D01*
X203393Y395230D01*
X203380Y395233D01*
X203294Y395220D01*
X203208Y395212D01*
X203195Y395206D01*
X203181Y395204D01*
X203108Y395159D01*
X203031Y395118D01*
X203021Y395106D01*
X203010Y395099D01*
X202977Y395055D01*
X202915Y394980D01*
X184023Y362259D01*
X182786Y363113D01*
X182759Y363124D01*
X182737Y363143D01*
X182668Y363163D01*
X182603Y363191D01*
X182574Y363191D01*
X182546Y363199D01*
X182475Y363191D01*
X182404Y363192D01*
X182377Y363180D01*
X182348Y363177D01*
X182286Y363142D01*
X182221Y363114D01*
X182200Y363094D01*
X182175Y363079D01*
X182112Y363002D01*
X182082Y362972D01*
X182078Y362962D01*
X182069Y362951D01*
X172569Y346451D01*
X172545Y346378D01*
X172514Y346308D01*
X172514Y346284D01*
X172506Y346262D01*
X172513Y346186D01*
X172512Y346109D01*
X172521Y346085D01*
X172522Y346064D01*
X172543Y346025D01*
X172562Y345973D01*
X172563Y345967D01*
X172565Y345965D01*
X172569Y345953D01*
X182069Y329453D01*
X182088Y329431D01*
X182101Y329405D01*
X182154Y329357D01*
X182201Y329304D01*
X182227Y329291D01*
X182249Y329272D01*
X182316Y329249D01*
X182380Y329218D01*
X182409Y329217D01*
X182436Y329207D01*
X182508Y329212D01*
X182579Y329209D01*
X182606Y329219D01*
X182635Y329221D01*
X182725Y329263D01*
X182765Y329278D01*
X182773Y329285D01*
X182786Y329291D01*
X184023Y330145D01*
X202915Y297424D01*
X202972Y297359D01*
X203026Y297291D01*
X203038Y297284D01*
X203047Y297273D01*
X203125Y297236D01*
X203201Y297194D01*
X203215Y297192D01*
X203228Y297186D01*
X203314Y297182D01*
X203400Y297172D01*
X203415Y297176D01*
X203428Y297176D01*
X203480Y297194D01*
X203574Y297220D01*
X204812Y297816D01*
X204868Y297859D01*
X204929Y297894D01*
X204949Y297920D01*
X204972Y297937D01*
X204998Y297982D01*
X205040Y298036D01*
X205043Y298041D01*
X205663Y298232D01*
X205693Y298248D01*
X205733Y298259D01*
X206318Y298541D01*
X206323Y298539D01*
X206393Y298529D01*
X206462Y298511D01*
X206494Y298515D01*
X206522Y298511D01*
X206572Y298525D01*
X206640Y298533D01*
X208907Y299231D01*
X208969Y299265D01*
X209034Y299291D01*
X209058Y299314D01*
X209083Y299327D01*
X209115Y299367D01*
X209165Y299415D01*
X209169Y299419D01*
X209810Y299516D01*
X209843Y299527D01*
X209884Y299532D01*
X210504Y299724D01*
X210509Y299721D01*
X210533Y299714D01*
X210543Y299708D01*
X210569Y299703D01*
X210577Y299701D01*
X210642Y299673D01*
X210674Y299672D01*
X210701Y299664D01*
X210753Y299670D01*
X210822Y299668D01*
X213167Y300020D01*
X213233Y300044D01*
X213302Y300061D01*
X213329Y300079D01*
X213355Y300089D01*
X213393Y300124D01*
X213450Y300163D01*
X213454Y300167D01*
X214103Y300167D01*
X214137Y300174D01*
X214178Y300173D01*
X214820Y300269D01*
X214824Y300266D01*
X214888Y300236D01*
X214948Y300199D01*
X214981Y300193D01*
X215006Y300181D01*
X215058Y300179D01*
X215126Y300167D01*
X217497Y300166D01*
X217566Y300180D01*
X217637Y300185D01*
X217666Y300200D01*
X217693Y300205D01*
X217736Y300234D01*
X217798Y300265D01*
X217803Y300268D01*
X218444Y300171D01*
X218479Y300173D01*
X218520Y300165D01*
X219169Y300165D01*
X219173Y300161D01*
X219231Y300122D01*
X219285Y300077D01*
X219316Y300066D01*
X219340Y300050D01*
X219390Y300041D01*
X219456Y300018D01*
X221800Y299664D01*
X221871Y299668D01*
X221941Y299663D01*
X221973Y299673D01*
X222001Y299674D01*
X222047Y299696D01*
X222113Y299717D01*
X222118Y299720D01*
X222738Y299528D01*
X222772Y299525D01*
X222812Y299511D01*
X223454Y299415D01*
X223457Y299410D01*
X223509Y299363D01*
X223555Y299309D01*
X223585Y299294D01*
X223605Y299275D01*
X223654Y299258D01*
X223715Y299226D01*
X225981Y298527D01*
X226051Y298520D01*
X226120Y298504D01*
X226153Y298509D01*
X226181Y298507D01*
X226230Y298522D01*
X226298Y298533D01*
X226303Y298534D01*
X226888Y298253D01*
X226922Y298244D01*
X226958Y298225D01*
X227579Y298034D01*
X227581Y298029D01*
X227626Y297974D01*
X227664Y297914D01*
X227690Y297895D01*
X227708Y297873D01*
X227753Y297849D01*
X227809Y297809D01*
X229946Y296779D01*
X230014Y296762D01*
X230080Y296736D01*
X230113Y296736D01*
X230140Y296729D01*
X230191Y296737D01*
X230260Y296738D01*
X230265Y296739D01*
X230801Y296373D01*
X230833Y296359D01*
X230867Y296335D01*
X231452Y296053D01*
X231453Y296048D01*
X231489Y295987D01*
X231518Y295923D01*
X231541Y295900D01*
X231556Y295876D01*
X231597Y295845D01*
X231646Y295796D01*
X233605Y294460D01*
X233670Y294432D01*
X233732Y294397D01*
X233764Y294393D01*
X233790Y294382D01*
X233841Y294382D01*
X233910Y294372D01*
X233915Y294372D01*
X234391Y293931D01*
X234420Y293913D01*
X234450Y293883D01*
X234986Y293518D01*
X234987Y293512D01*
X235014Y293447D01*
X235032Y293379D01*
X235052Y293353D01*
X235063Y293327D01*
X235099Y293290D01*
X235141Y293235D01*
X236878Y291621D01*
X236938Y291584D01*
X236994Y291541D01*
X237025Y291531D01*
X237049Y291517D01*
X237100Y291509D01*
X237167Y291489D01*
X237172Y291488D01*
X237576Y290981D01*
X237603Y290958D01*
X237628Y290925D01*
X237994Y290585D01*
X238078Y290534D01*
X238162Y290482D01*
X238164Y290481D01*
X238165Y290481D01*
X238186Y290477D01*
X238339Y290450D01*
X241587Y290450D01*
X241595Y290451D01*
X241602Y290450D01*
X241692Y290471D01*
X241783Y290489D01*
X241790Y290494D01*
X241797Y290496D01*
X241945Y290598D01*
X244309Y292962D01*
X248705Y292962D01*
X251814Y289853D01*
X251814Y285457D01*
X248705Y282348D01*
X244309Y282348D01*
X243944Y282714D01*
X243864Y282767D01*
X243783Y282822D01*
X243780Y282822D01*
X243777Y282824D01*
X243682Y282843D01*
X243587Y282862D01*
X243583Y282861D01*
X243580Y282862D01*
X243485Y282842D01*
X243390Y282823D01*
X243387Y282821D01*
X243384Y282820D01*
X243305Y282765D01*
X243224Y282711D01*
X243222Y282708D01*
X243219Y282706D01*
X243167Y282625D01*
X243114Y282544D01*
X243113Y282540D01*
X243112Y282537D01*
X243096Y282443D01*
X243078Y282346D01*
X243079Y282343D01*
X243078Y282339D01*
X243086Y282306D01*
X243113Y282170D01*
X243700Y280671D01*
X243738Y280612D01*
X243769Y280549D01*
X243794Y280526D01*
X243809Y280503D01*
X243851Y280474D01*
X243902Y280427D01*
X243907Y280424D01*
X244051Y279791D01*
X244066Y279760D01*
X244074Y279719D01*
X244311Y279115D01*
X244308Y279110D01*
X244293Y279041D01*
X244270Y278974D01*
X244272Y278941D01*
X244266Y278914D01*
X244273Y278874D01*
X244272Y278868D01*
X244276Y278853D01*
X244279Y278794D01*
X244806Y276482D01*
X244835Y276418D01*
X244856Y276350D01*
X244876Y276325D01*
X244888Y276299D01*
X244926Y276264D01*
X244969Y276210D01*
X244973Y276207D01*
X245022Y275560D01*
X245031Y275526D01*
X245033Y275485D01*
X245177Y274852D01*
X245174Y274847D01*
X245149Y274781D01*
X245116Y274719D01*
X245113Y274686D01*
X245103Y274660D01*
X245105Y274608D01*
X245098Y274540D01*
X245274Y272175D01*
X245293Y272107D01*
X245304Y272037D01*
X245321Y272009D01*
X245328Y271982D01*
X245360Y271941D01*
X245395Y271882D01*
X245399Y271878D01*
X245350Y271231D01*
X245355Y271196D01*
X245350Y271155D01*
X245399Y270508D01*
X245395Y270504D01*
X245360Y270442D01*
X245319Y270385D01*
X245310Y270353D01*
X245297Y270329D01*
X245291Y270277D01*
X245273Y270211D01*
X245096Y267846D01*
X245104Y267776D01*
X245105Y267705D01*
X245117Y267675D01*
X245120Y267647D01*
X245146Y267602D01*
X245172Y267538D01*
X245175Y267533D01*
X245030Y266901D01*
X245029Y266866D01*
X245019Y266826D01*
X244970Y266179D01*
X244966Y266175D01*
X244922Y266119D01*
X244873Y266069D01*
X244860Y266039D01*
X244843Y266017D01*
X244829Y265967D01*
X244802Y265904D01*
X244274Y263592D01*
X244272Y263521D01*
X244262Y263451D01*
X244269Y263420D01*
X244269Y263392D01*
X244287Y263343D01*
X244303Y263276D01*
X244305Y263271D01*
X244068Y262667D01*
X244062Y262633D01*
X244046Y262595D01*
X243901Y261962D01*
X243897Y261959D01*
X243845Y261911D01*
X243789Y261868D01*
X243772Y261841D01*
X243751Y261821D01*
X243730Y261774D01*
X243694Y261715D01*
X242827Y259508D01*
X242815Y259438D01*
X242794Y259371D01*
X242797Y259338D01*
X242792Y259311D01*
X242803Y259260D01*
X242809Y259191D01*
X242811Y259186D01*
X242486Y258624D01*
X242475Y258591D01*
X242453Y258556D01*
X242216Y257952D01*
X242211Y257950D01*
X242153Y257909D01*
X242091Y257876D01*
X242069Y257851D01*
X242046Y257835D01*
X242019Y257791D01*
X241974Y257739D01*
X240788Y255685D01*
X240765Y255618D01*
X240735Y255555D01*
X240733Y255522D01*
X240724Y255495D01*
X240728Y255444D01*
X240723Y255375D01*
X240724Y255369D01*
X240319Y254862D01*
X240303Y254831D01*
X240276Y254800D01*
X239952Y254238D01*
X239946Y254236D01*
X239883Y254205D01*
X239816Y254181D01*
X239792Y254160D01*
X239767Y254147D01*
X239733Y254108D01*
X239681Y254063D01*
X238202Y252209D01*
X238169Y252146D01*
X238130Y252088D01*
X238123Y252056D01*
X238110Y252031D01*
X238106Y251979D01*
X238091Y251912D01*
X238091Y251906D01*
X237615Y251465D01*
X237595Y251437D01*
X237564Y251410D01*
X237159Y250902D01*
X237154Y250902D01*
X237086Y250880D01*
X237017Y250867D01*
X236989Y250849D01*
X236963Y250840D01*
X236924Y250807D01*
X236865Y250770D01*
X235126Y249157D01*
X235085Y249100D01*
X235037Y249048D01*
X235026Y249017D01*
X235009Y248995D01*
X234998Y248944D01*
X234973Y248880D01*
X234972Y248874D01*
X234436Y248509D01*
X234411Y248484D01*
X234376Y248462D01*
X233901Y248021D01*
X233895Y248021D01*
X233825Y248009D01*
X233755Y248006D01*
X233725Y247993D01*
X233697Y247989D01*
X233653Y247961D01*
X233590Y247933D01*
X232470Y247170D01*
X232410Y247108D01*
X232346Y247049D01*
X232340Y247036D01*
X232330Y247026D01*
X232298Y246946D01*
X232262Y246867D01*
X232261Y246853D01*
X232256Y246840D01*
X232258Y246754D01*
X232255Y246667D01*
X232260Y246653D01*
X232261Y246640D01*
X232283Y246589D01*
X232316Y246497D01*
X251207Y213777D01*
X249889Y213153D01*
X249866Y213136D01*
X249839Y213126D01*
X249787Y213077D01*
X249729Y213034D01*
X249715Y213009D01*
X249694Y212990D01*
X249665Y212924D01*
X249629Y212862D01*
X249626Y212834D01*
X249614Y212808D01*
X249613Y212736D01*
X249604Y212665D01*
X249612Y212638D01*
X249612Y212609D01*
X249647Y212514D01*
X249658Y212474D01*
X249665Y212465D01*
X249669Y212453D01*
X259169Y195953D01*
X259221Y195895D01*
X259267Y195832D01*
X259286Y195821D01*
X259301Y195804D01*
X259371Y195770D01*
X259438Y195730D01*
X259463Y195726D01*
X259480Y195718D01*
X259525Y195716D01*
X259602Y195703D01*
X278602Y195703D01*
X278630Y195708D01*
G37*
%LPC*%
G36*
X329013Y214327D02*
X329013Y214327D01*
X328120Y215220D01*
X328120Y227484D01*
X329013Y228377D01*
X331225Y228377D01*
X331230Y228378D01*
X331235Y228377D01*
X331328Y228398D01*
X331422Y228416D01*
X331426Y228419D01*
X331431Y228420D01*
X331509Y228476D01*
X331587Y228529D01*
X331590Y228533D01*
X331594Y228536D01*
X331645Y228618D01*
X331697Y228697D01*
X331697Y228702D01*
X331700Y228707D01*
X331732Y228884D01*
X331732Y231355D01*
X331731Y231360D01*
X331732Y231365D01*
X331711Y231458D01*
X331693Y231552D01*
X331690Y231556D01*
X331689Y231561D01*
X331633Y231639D01*
X331580Y231717D01*
X331576Y231720D01*
X331573Y231724D01*
X331491Y231775D01*
X331412Y231827D01*
X331407Y231827D01*
X331402Y231830D01*
X331225Y231862D01*
X328895Y231862D01*
X328002Y232755D01*
X328002Y245019D01*
X328895Y245912D01*
X338889Y245912D01*
X338894Y245913D01*
X338899Y245912D01*
X338992Y245933D01*
X339086Y245951D01*
X339090Y245954D01*
X339095Y245955D01*
X339173Y246011D01*
X339251Y246064D01*
X339254Y246068D01*
X339258Y246071D01*
X339309Y246153D01*
X339361Y246232D01*
X339361Y246237D01*
X339364Y246242D01*
X339396Y246419D01*
X339396Y260372D01*
X339395Y260380D01*
X339396Y260387D01*
X339375Y260477D01*
X339357Y260568D01*
X339352Y260575D01*
X339350Y260582D01*
X339248Y260730D01*
X336884Y263094D01*
X336884Y267169D01*
X336883Y267174D01*
X336884Y267179D01*
X336863Y267272D01*
X336845Y267366D01*
X336842Y267370D01*
X336841Y267375D01*
X336785Y267453D01*
X336732Y267531D01*
X336728Y267534D01*
X336725Y267538D01*
X336643Y267589D01*
X336564Y267641D01*
X336559Y267641D01*
X336554Y267644D01*
X336377Y267676D01*
X326337Y267676D01*
X325444Y268569D01*
X325444Y280833D01*
X326337Y281726D01*
X328540Y281726D01*
X328545Y281727D01*
X328550Y281726D01*
X328643Y281747D01*
X328737Y281765D01*
X328741Y281768D01*
X328746Y281769D01*
X328824Y281825D01*
X328902Y281878D01*
X328905Y281882D01*
X328909Y281885D01*
X328960Y281967D01*
X329012Y282046D01*
X329012Y282051D01*
X329015Y282056D01*
X329047Y282233D01*
X329047Y288632D01*
X329046Y288637D01*
X329047Y288642D01*
X329026Y288735D01*
X329008Y288829D01*
X329005Y288833D01*
X329004Y288838D01*
X328948Y288916D01*
X328895Y288994D01*
X328891Y288997D01*
X328888Y289001D01*
X328806Y289052D01*
X328727Y289104D01*
X328722Y289104D01*
X328717Y289107D01*
X328540Y289139D01*
X326026Y289139D01*
X326024Y289139D01*
X326021Y289139D01*
X325926Y289119D01*
X325830Y289100D01*
X325827Y289098D01*
X325825Y289098D01*
X325744Y289042D01*
X325664Y288987D01*
X325662Y288985D01*
X325660Y288983D01*
X325607Y288900D01*
X325555Y288819D01*
X325554Y288816D01*
X325553Y288814D01*
X325536Y288718D01*
X325519Y288622D01*
X325520Y288619D01*
X325519Y288617D01*
X325541Y288522D01*
X325563Y288426D01*
X325564Y288424D01*
X325565Y288421D01*
X325667Y288273D01*
X326236Y287705D01*
X326236Y283309D01*
X323127Y280200D01*
X318731Y280200D01*
X315622Y283309D01*
X315622Y286651D01*
X315621Y286659D01*
X315622Y286667D01*
X315601Y286757D01*
X315583Y286848D01*
X315578Y286854D01*
X315576Y286862D01*
X315474Y287010D01*
X313493Y288991D01*
X313486Y288995D01*
X313482Y289001D01*
X313403Y289050D01*
X313326Y289102D01*
X313318Y289103D01*
X313312Y289107D01*
X313134Y289139D01*
X309210Y289139D01*
X308317Y290032D01*
X308317Y298526D01*
X308316Y298534D01*
X308317Y298542D01*
X308296Y298632D01*
X308278Y298723D01*
X308273Y298729D01*
X308271Y298737D01*
X308169Y298885D01*
X306467Y300587D01*
X306460Y300591D01*
X306456Y300597D01*
X306377Y300646D01*
X306300Y300698D01*
X306292Y300699D01*
X306286Y300703D01*
X306108Y300735D01*
X282052Y300735D01*
X271436Y311352D01*
X271429Y311356D01*
X271425Y311362D01*
X271346Y311411D01*
X271269Y311463D01*
X271261Y311464D01*
X271255Y311468D01*
X271077Y311500D01*
X262990Y311500D01*
X262097Y312393D01*
X262097Y328957D01*
X262990Y329850D01*
X279554Y329850D01*
X280447Y328957D01*
X280447Y312393D01*
X279731Y311678D01*
X279729Y311674D01*
X279724Y311671D01*
X279673Y311590D01*
X279621Y311511D01*
X279620Y311506D01*
X279617Y311502D01*
X279601Y311408D01*
X279583Y311314D01*
X279584Y311309D01*
X279583Y311304D01*
X279605Y311212D01*
X279625Y311118D01*
X279628Y311114D01*
X279629Y311109D01*
X279731Y310961D01*
X284219Y306473D01*
X284226Y306469D01*
X284230Y306463D01*
X284309Y306414D01*
X284386Y306362D01*
X284394Y306361D01*
X284400Y306357D01*
X284578Y306325D01*
X308634Y306325D01*
X311621Y303337D01*
X311628Y303333D01*
X311632Y303327D01*
X311711Y303278D01*
X311788Y303226D01*
X311796Y303225D01*
X311802Y303221D01*
X311980Y303189D01*
X320474Y303189D01*
X321367Y302296D01*
X321367Y291321D01*
X321368Y291316D01*
X321367Y291311D01*
X321388Y291218D01*
X321406Y291124D01*
X321409Y291120D01*
X321410Y291115D01*
X321466Y291037D01*
X321519Y290959D01*
X321523Y290956D01*
X321526Y290952D01*
X321608Y290901D01*
X321687Y290849D01*
X321692Y290849D01*
X321697Y290846D01*
X321874Y290814D01*
X323127Y290814D01*
X324451Y289489D01*
X324454Y289488D01*
X324455Y289486D01*
X324535Y289434D01*
X324618Y289379D01*
X324621Y289378D01*
X324623Y289377D01*
X324719Y289359D01*
X324815Y289341D01*
X324818Y289341D01*
X324820Y289341D01*
X324917Y289362D01*
X325011Y289383D01*
X325013Y289384D01*
X325016Y289385D01*
X325096Y289441D01*
X325176Y289497D01*
X325177Y289499D01*
X325179Y289501D01*
X325232Y289585D01*
X325283Y289666D01*
X325284Y289669D01*
X325285Y289671D01*
X325317Y289848D01*
X325317Y302296D01*
X326210Y303189D01*
X334704Y303189D01*
X334712Y303190D01*
X334720Y303189D01*
X334810Y303210D01*
X334901Y303228D01*
X334907Y303233D01*
X334915Y303235D01*
X335063Y303337D01*
X340261Y308536D01*
X346588Y308536D01*
X346590Y308536D01*
X346593Y308536D01*
X346688Y308556D01*
X346784Y308575D01*
X346787Y308577D01*
X346789Y308577D01*
X346870Y308633D01*
X346950Y308688D01*
X346952Y308690D01*
X346954Y308692D01*
X347006Y308774D01*
X347059Y308856D01*
X347060Y308859D01*
X347061Y308861D01*
X347078Y308957D01*
X347095Y309053D01*
X347094Y309056D01*
X347095Y309058D01*
X347073Y309153D01*
X347051Y309249D01*
X347050Y309251D01*
X347049Y309254D01*
X346947Y309402D01*
X346229Y310119D01*
X346229Y314515D01*
X348830Y317116D01*
X348833Y317121D01*
X348838Y317124D01*
X348889Y317204D01*
X348941Y317283D01*
X348942Y317288D01*
X348945Y317293D01*
X348961Y317387D01*
X348979Y317480D01*
X348978Y317485D01*
X348979Y317490D01*
X348957Y317582D01*
X348937Y317676D01*
X348934Y317681D01*
X348933Y317686D01*
X348830Y317834D01*
X347462Y319202D01*
X347462Y323598D01*
X349739Y325874D01*
X349740Y325877D01*
X349742Y325878D01*
X349794Y325958D01*
X349849Y326041D01*
X349850Y326044D01*
X349851Y326046D01*
X349869Y326142D01*
X349887Y326238D01*
X349887Y326241D01*
X349887Y326243D01*
X349866Y326339D01*
X349845Y326434D01*
X349844Y326436D01*
X349843Y326439D01*
X349787Y326519D01*
X349731Y326599D01*
X349729Y326600D01*
X349727Y326602D01*
X349645Y326654D01*
X349562Y326706D01*
X349559Y326707D01*
X349557Y326708D01*
X349380Y326740D01*
X347531Y326740D01*
X347523Y326739D01*
X347515Y326740D01*
X347425Y326719D01*
X347334Y326701D01*
X347328Y326696D01*
X347320Y326694D01*
X347172Y326592D01*
X346614Y326033D01*
X339478Y326033D01*
X339473Y326032D01*
X339468Y326033D01*
X339375Y326012D01*
X339281Y325994D01*
X339277Y325991D01*
X339272Y325990D01*
X339194Y325934D01*
X339116Y325881D01*
X339113Y325877D01*
X339109Y325874D01*
X339058Y325792D01*
X339006Y325713D01*
X339006Y325708D01*
X339003Y325703D01*
X338971Y325526D01*
X338971Y321696D01*
X338078Y320803D01*
X336550Y320803D01*
X336545Y320802D01*
X336540Y320803D01*
X336447Y320782D01*
X336353Y320764D01*
X336349Y320761D01*
X336344Y320760D01*
X336266Y320704D01*
X336188Y320651D01*
X336185Y320647D01*
X336181Y320644D01*
X336130Y320562D01*
X336078Y320483D01*
X336078Y320478D01*
X336075Y320473D01*
X336043Y320296D01*
X336043Y318356D01*
X336044Y318348D01*
X336043Y318341D01*
X336064Y318251D01*
X336082Y318160D01*
X336087Y318153D01*
X336089Y318146D01*
X336191Y317998D01*
X338555Y315634D01*
X338555Y311238D01*
X335446Y308129D01*
X331050Y308129D01*
X327941Y311238D01*
X327941Y315634D01*
X330305Y317998D01*
X330309Y318004D01*
X330315Y318009D01*
X330364Y318087D01*
X330416Y318165D01*
X330417Y318172D01*
X330421Y318179D01*
X330453Y318356D01*
X330453Y320296D01*
X330452Y320301D01*
X330453Y320306D01*
X330432Y320399D01*
X330414Y320493D01*
X330411Y320497D01*
X330410Y320502D01*
X330354Y320580D01*
X330301Y320658D01*
X330297Y320661D01*
X330294Y320665D01*
X330212Y320716D01*
X330133Y320768D01*
X330128Y320768D01*
X330123Y320771D01*
X329946Y320803D01*
X321814Y320803D01*
X320921Y321696D01*
X320921Y330363D01*
X320920Y330371D01*
X320921Y330379D01*
X320900Y330469D01*
X320882Y330560D01*
X320877Y330566D01*
X320875Y330574D01*
X320773Y330722D01*
X303722Y347773D01*
X303722Y363881D01*
X303720Y363889D01*
X303721Y363896D01*
X303700Y363986D01*
X303682Y364077D01*
X303678Y364084D01*
X303676Y364092D01*
X303573Y364240D01*
X301210Y366603D01*
X301210Y367308D01*
X301209Y367313D01*
X301210Y367319D01*
X301189Y367412D01*
X301170Y367505D01*
X301167Y367509D01*
X301166Y367514D01*
X301111Y367592D01*
X301057Y367671D01*
X301053Y367673D01*
X301050Y367678D01*
X300969Y367728D01*
X300889Y367780D01*
X300884Y367781D01*
X300880Y367784D01*
X300702Y367816D01*
X294148Y367816D01*
X294143Y367814D01*
X294138Y367815D01*
X294045Y367795D01*
X293952Y367776D01*
X293948Y367773D01*
X293943Y367772D01*
X293865Y367717D01*
X293786Y367663D01*
X293783Y367659D01*
X293779Y367656D01*
X293728Y367574D01*
X293677Y367495D01*
X293676Y367490D01*
X293673Y367486D01*
X293641Y367308D01*
X293641Y364479D01*
X292748Y363586D01*
X281485Y363586D01*
X280592Y364479D01*
X280592Y367308D01*
X280591Y367313D01*
X280592Y367319D01*
X280571Y367412D01*
X280552Y367505D01*
X280549Y367509D01*
X280548Y367514D01*
X280493Y367592D01*
X280440Y367671D01*
X280435Y367673D01*
X280432Y367678D01*
X280351Y367728D01*
X280271Y367780D01*
X280266Y367781D01*
X280262Y367784D01*
X280085Y367816D01*
X274261Y367816D01*
X274256Y367814D01*
X274251Y367815D01*
X274158Y367795D01*
X274065Y367776D01*
X274060Y367773D01*
X274055Y367772D01*
X273977Y367717D01*
X273899Y367663D01*
X273896Y367659D01*
X273892Y367656D01*
X273841Y367574D01*
X273789Y367495D01*
X273789Y367490D01*
X273786Y367486D01*
X273754Y367308D01*
X273754Y359913D01*
X272861Y359020D01*
X256597Y359020D01*
X255704Y359913D01*
X255704Y374176D01*
X256597Y375069D01*
X272861Y375069D01*
X273754Y374176D01*
X273754Y373912D01*
X273755Y373907D01*
X273754Y373902D01*
X273775Y373809D01*
X273793Y373716D01*
X273796Y373711D01*
X273797Y373706D01*
X273853Y373628D01*
X273906Y373550D01*
X273910Y373547D01*
X273913Y373543D01*
X273995Y373492D01*
X274074Y373441D01*
X274079Y373440D01*
X274084Y373437D01*
X274261Y373405D01*
X280085Y373405D01*
X280090Y373406D01*
X280095Y373405D01*
X280188Y373426D01*
X280281Y373445D01*
X280285Y373448D01*
X280290Y373449D01*
X280368Y373504D01*
X280447Y373557D01*
X280450Y373562D01*
X280454Y373565D01*
X280505Y373646D01*
X280556Y373725D01*
X280557Y373730D01*
X280560Y373735D01*
X280592Y373912D01*
X280592Y376742D01*
X281485Y377635D01*
X292748Y377635D01*
X293641Y376742D01*
X293641Y373912D01*
X293642Y373907D01*
X293641Y373902D01*
X293662Y373809D01*
X293681Y373716D01*
X293684Y373711D01*
X293685Y373706D01*
X293740Y373628D01*
X293793Y373550D01*
X293798Y373547D01*
X293801Y373543D01*
X293882Y373492D01*
X293962Y373441D01*
X293967Y373440D01*
X293971Y373437D01*
X294148Y373405D01*
X303405Y373405D01*
X303413Y373407D01*
X303421Y373405D01*
X303511Y373426D01*
X303602Y373445D01*
X303608Y373449D01*
X303616Y373451D01*
X303764Y373554D01*
X304318Y374108D01*
X305227Y374108D01*
X305232Y374109D01*
X305238Y374108D01*
X305331Y374129D01*
X305424Y374147D01*
X305428Y374150D01*
X305433Y374152D01*
X305511Y374207D01*
X305590Y374260D01*
X305592Y374264D01*
X305597Y374268D01*
X305647Y374349D01*
X305699Y374428D01*
X305700Y374433D01*
X305703Y374438D01*
X305735Y374615D01*
X305735Y375666D01*
X305755Y375777D01*
X305755Y378107D01*
X305754Y378112D01*
X305755Y378118D01*
X305734Y378211D01*
X305715Y378304D01*
X305712Y378308D01*
X305711Y378313D01*
X305656Y378391D01*
X305602Y378470D01*
X305598Y378472D01*
X305595Y378477D01*
X305514Y378527D01*
X305434Y378579D01*
X305429Y378580D01*
X305425Y378583D01*
X305247Y378615D01*
X297764Y378615D01*
X296504Y379874D01*
X296504Y382905D01*
X297130Y383530D01*
X297133Y383535D01*
X297138Y383538D01*
X297188Y383618D01*
X297241Y383697D01*
X297242Y383703D01*
X297245Y383707D01*
X297261Y383801D01*
X297279Y383894D01*
X297278Y383899D01*
X297279Y383905D01*
X297257Y383997D01*
X297237Y384090D01*
X297234Y384095D01*
X297233Y384100D01*
X297130Y384248D01*
X296504Y384874D01*
X296504Y387905D01*
X297764Y389164D01*
X305295Y389164D01*
X306554Y387905D01*
X306554Y384874D01*
X305928Y384248D01*
X305925Y384243D01*
X305921Y384240D01*
X305869Y384160D01*
X305817Y384081D01*
X305816Y384076D01*
X305813Y384071D01*
X305797Y383978D01*
X305779Y383884D01*
X305781Y383879D01*
X305780Y383874D01*
X305801Y383781D01*
X305821Y383688D01*
X305824Y383684D01*
X305825Y383678D01*
X305928Y383530D01*
X306554Y382905D01*
X306554Y379921D01*
X306555Y379916D01*
X306554Y379911D01*
X306575Y379818D01*
X306594Y379725D01*
X306596Y379720D01*
X306598Y379715D01*
X306653Y379637D01*
X306706Y379559D01*
X306711Y379556D01*
X306714Y379552D01*
X306795Y379501D01*
X306874Y379450D01*
X306879Y379449D01*
X306884Y379446D01*
X307061Y379414D01*
X310045Y379414D01*
X311304Y378155D01*
X311304Y375777D01*
X311306Y375769D01*
X311304Y375761D01*
X311324Y375677D01*
X311324Y371708D01*
X311326Y371701D01*
X311324Y371693D01*
X311345Y371603D01*
X311364Y371512D01*
X311368Y371505D01*
X311370Y371498D01*
X311473Y371350D01*
X311823Y370999D01*
X311823Y368943D01*
X311824Y368940D01*
X311823Y368938D01*
X311844Y368842D01*
X311863Y368747D01*
X311864Y368744D01*
X311865Y368742D01*
X311921Y368661D01*
X311975Y368581D01*
X311978Y368579D01*
X311979Y368577D01*
X312063Y368524D01*
X312143Y368472D01*
X312146Y368471D01*
X312148Y368470D01*
X312244Y368453D01*
X312341Y368436D01*
X312343Y368436D01*
X312346Y368436D01*
X312440Y368458D01*
X312536Y368479D01*
X312538Y368481D01*
X312541Y368482D01*
X312689Y368584D01*
X314078Y369973D01*
X315586Y371481D01*
X315590Y371488D01*
X315597Y371492D01*
X315646Y371571D01*
X315697Y371648D01*
X315698Y371656D01*
X315703Y371663D01*
X315735Y371840D01*
X315735Y375666D01*
X315755Y375777D01*
X315755Y378155D01*
X317014Y379414D01*
X320045Y379414D01*
X320671Y378788D01*
X320675Y378785D01*
X320678Y378781D01*
X320758Y378730D01*
X320838Y378677D01*
X320843Y378676D01*
X320847Y378673D01*
X320941Y378657D01*
X321034Y378639D01*
X321040Y378640D01*
X321045Y378640D01*
X321137Y378661D01*
X321231Y378681D01*
X321235Y378684D01*
X321240Y378685D01*
X321388Y378788D01*
X322014Y379414D01*
X325045Y379414D01*
X325671Y378788D01*
X325675Y378785D01*
X325678Y378781D01*
X325758Y378730D01*
X325838Y378677D01*
X325843Y378676D01*
X325847Y378673D01*
X325941Y378657D01*
X326034Y378639D01*
X326040Y378640D01*
X326045Y378640D01*
X326137Y378661D01*
X326231Y378681D01*
X326235Y378684D01*
X326240Y378685D01*
X326388Y378788D01*
X327014Y379414D01*
X330045Y379414D01*
X331304Y378155D01*
X331304Y370624D01*
X330045Y369364D01*
X327832Y369364D01*
X327829Y369364D01*
X327827Y369364D01*
X327732Y369344D01*
X327636Y369325D01*
X327633Y369323D01*
X327631Y369323D01*
X327550Y369267D01*
X327470Y369212D01*
X327468Y369210D01*
X327466Y369208D01*
X327413Y369125D01*
X327361Y369044D01*
X327360Y369042D01*
X327359Y369039D01*
X327342Y368943D01*
X327325Y368847D01*
X327325Y368844D01*
X327325Y368842D01*
X327347Y368747D01*
X327368Y368651D01*
X327370Y368649D01*
X327371Y368646D01*
X327473Y368498D01*
X328776Y367196D01*
X328776Y362800D01*
X325667Y359691D01*
X321269Y359691D01*
X321193Y359741D01*
X321111Y359795D01*
X321109Y359796D01*
X321106Y359797D01*
X321010Y359814D01*
X320914Y359833D01*
X320912Y359832D01*
X320909Y359833D01*
X320813Y359811D01*
X320718Y359791D01*
X320716Y359790D01*
X320713Y359789D01*
X320634Y359732D01*
X320553Y359677D01*
X320552Y359675D01*
X320550Y359673D01*
X320498Y359590D01*
X320446Y359508D01*
X320446Y359505D01*
X320444Y359503D01*
X320412Y359325D01*
X320412Y357847D01*
X317303Y354738D01*
X312907Y354738D01*
X310177Y357469D01*
X310175Y357470D01*
X310173Y357472D01*
X310093Y357525D01*
X310010Y357579D01*
X310007Y357580D01*
X310005Y357581D01*
X309909Y357599D01*
X309813Y357617D01*
X309811Y357617D01*
X309808Y357617D01*
X309712Y357596D01*
X309617Y357575D01*
X309615Y357574D01*
X309612Y357573D01*
X309533Y357517D01*
X309452Y357461D01*
X309451Y357459D01*
X309449Y357457D01*
X309397Y357375D01*
X309345Y357292D01*
X309344Y357289D01*
X309343Y357287D01*
X309311Y357110D01*
X309311Y350298D01*
X309313Y350291D01*
X309311Y350283D01*
X309332Y350193D01*
X309351Y350102D01*
X309355Y350095D01*
X309357Y350088D01*
X309460Y349940D01*
X322398Y337001D01*
X322405Y336997D01*
X322409Y336991D01*
X322488Y336942D01*
X322565Y336890D01*
X322573Y336889D01*
X322579Y336885D01*
X322757Y336853D01*
X338078Y336853D01*
X338971Y335960D01*
X338971Y332130D01*
X338972Y332125D01*
X338971Y332120D01*
X338992Y332027D01*
X339010Y331933D01*
X339013Y331929D01*
X339014Y331924D01*
X339070Y331846D01*
X339123Y331768D01*
X339127Y331765D01*
X339130Y331761D01*
X339212Y331710D01*
X339291Y331658D01*
X339296Y331658D01*
X339301Y331655D01*
X339478Y331623D01*
X343361Y331623D01*
X343366Y331624D01*
X343371Y331623D01*
X343464Y331644D01*
X343558Y331662D01*
X343562Y331665D01*
X343567Y331666D01*
X343645Y331722D01*
X343723Y331775D01*
X343726Y331779D01*
X343730Y331782D01*
X343781Y331864D01*
X343833Y331943D01*
X343833Y331948D01*
X343836Y331953D01*
X343868Y332130D01*
X343868Y339897D01*
X344761Y340790D01*
X356025Y340790D01*
X356918Y339897D01*
X356918Y332293D01*
X356919Y332288D01*
X356918Y332283D01*
X356939Y332190D01*
X356957Y332096D01*
X356960Y332092D01*
X356961Y332087D01*
X357017Y332009D01*
X357070Y331931D01*
X357074Y331928D01*
X357077Y331924D01*
X357159Y331873D01*
X357238Y331821D01*
X357243Y331821D01*
X357248Y331818D01*
X357425Y331786D01*
X371532Y331786D01*
X371537Y331787D01*
X371542Y331786D01*
X371635Y331807D01*
X371729Y331825D01*
X371733Y331828D01*
X371738Y331829D01*
X371816Y331885D01*
X371894Y331938D01*
X371897Y331942D01*
X371901Y331945D01*
X371952Y332027D01*
X372004Y332106D01*
X372004Y332111D01*
X372007Y332116D01*
X372039Y332293D01*
X372039Y332740D01*
X372038Y332745D01*
X372039Y332750D01*
X372018Y332843D01*
X372000Y332937D01*
X371997Y332941D01*
X371996Y332946D01*
X371940Y333024D01*
X371887Y333102D01*
X371883Y333105D01*
X371880Y333109D01*
X371798Y333160D01*
X371719Y333212D01*
X371714Y333212D01*
X371709Y333215D01*
X371532Y333247D01*
X367142Y333247D01*
X366120Y334270D01*
X366113Y334274D01*
X366109Y334280D01*
X366030Y334329D01*
X365953Y334381D01*
X365945Y334382D01*
X365939Y334386D01*
X365761Y334418D01*
X362419Y334418D01*
X359310Y337527D01*
X359310Y341923D01*
X362419Y345032D01*
X366815Y345032D01*
X369924Y341923D01*
X369924Y339344D01*
X369925Y339339D01*
X369924Y339334D01*
X369945Y339241D01*
X369963Y339147D01*
X369966Y339143D01*
X369967Y339138D01*
X370023Y339060D01*
X370076Y338982D01*
X370080Y338979D01*
X370083Y338975D01*
X370165Y338924D01*
X370244Y338872D01*
X370249Y338872D01*
X370254Y338869D01*
X370431Y338837D01*
X379745Y338837D01*
X384609Y333973D01*
X384609Y333544D01*
X384610Y333536D01*
X384609Y333528D01*
X384630Y333438D01*
X384648Y333347D01*
X384653Y333341D01*
X384655Y333333D01*
X384757Y333185D01*
X385089Y332854D01*
X385089Y325128D01*
X383427Y323466D01*
X380201Y323466D01*
X378923Y324745D01*
X378918Y324748D01*
X378915Y324752D01*
X378835Y324803D01*
X378756Y324856D01*
X378751Y324857D01*
X378746Y324860D01*
X378652Y324876D01*
X378559Y324893D01*
X378554Y324892D01*
X378549Y324893D01*
X378456Y324872D01*
X378363Y324852D01*
X378358Y324849D01*
X378353Y324848D01*
X378205Y324745D01*
X376927Y323466D01*
X373701Y323466D01*
X372039Y325128D01*
X372039Y325689D01*
X372038Y325694D01*
X372039Y325699D01*
X372018Y325792D01*
X372000Y325886D01*
X371997Y325890D01*
X371996Y325895D01*
X371940Y325973D01*
X371887Y326051D01*
X371883Y326054D01*
X371880Y326058D01*
X371798Y326109D01*
X371719Y326161D01*
X371714Y326161D01*
X371709Y326164D01*
X371532Y326196D01*
X356702Y326196D01*
X356699Y326196D01*
X356697Y326196D01*
X356602Y326176D01*
X356506Y326157D01*
X356503Y326155D01*
X356501Y326155D01*
X356420Y326099D01*
X356340Y326044D01*
X356338Y326042D01*
X356336Y326040D01*
X356283Y325957D01*
X356231Y325876D01*
X356230Y325873D01*
X356229Y325871D01*
X356212Y325775D01*
X356195Y325679D01*
X356195Y325676D01*
X356195Y325674D01*
X356217Y325578D01*
X356238Y325483D01*
X356240Y325481D01*
X356241Y325478D01*
X356343Y325330D01*
X358076Y323598D01*
X358076Y322043D01*
X358077Y322038D01*
X358076Y322033D01*
X358097Y321940D01*
X358115Y321846D01*
X358118Y321842D01*
X358119Y321837D01*
X358175Y321759D01*
X358228Y321681D01*
X358232Y321678D01*
X358235Y321674D01*
X358317Y321623D01*
X358396Y321571D01*
X358401Y321571D01*
X358406Y321568D01*
X358583Y321536D01*
X360511Y321536D01*
X360519Y321537D01*
X360527Y321536D01*
X360617Y321557D01*
X360708Y321575D01*
X360714Y321580D01*
X360722Y321582D01*
X360870Y321684D01*
X361201Y322016D01*
X368927Y322016D01*
X370589Y320354D01*
X370589Y317128D01*
X369310Y315850D01*
X369307Y315845D01*
X369303Y315842D01*
X369252Y315762D01*
X369199Y315683D01*
X369198Y315678D01*
X369195Y315673D01*
X369179Y315579D01*
X369162Y315486D01*
X369163Y315481D01*
X369162Y315475D01*
X369183Y315383D01*
X369203Y315290D01*
X369206Y315285D01*
X369207Y315280D01*
X369310Y315132D01*
X370589Y313854D01*
X370589Y310628D01*
X369310Y309350D01*
X369307Y309345D01*
X369303Y309342D01*
X369252Y309262D01*
X369199Y309183D01*
X369198Y309178D01*
X369195Y309173D01*
X369179Y309079D01*
X369162Y308986D01*
X369163Y308981D01*
X369162Y308975D01*
X369183Y308883D01*
X369203Y308790D01*
X369206Y308785D01*
X369207Y308780D01*
X369310Y308632D01*
X370589Y307354D01*
X370589Y304128D01*
X368927Y302466D01*
X361201Y302466D01*
X360870Y302798D01*
X360863Y302802D01*
X360859Y302808D01*
X360780Y302857D01*
X360703Y302909D01*
X360695Y302910D01*
X360688Y302914D01*
X360511Y302946D01*
X342787Y302946D01*
X342779Y302945D01*
X342771Y302946D01*
X342681Y302925D01*
X342590Y302907D01*
X342584Y302902D01*
X342576Y302900D01*
X342428Y302798D01*
X338515Y298885D01*
X338511Y298878D01*
X338505Y298874D01*
X338456Y298795D01*
X338404Y298718D01*
X338403Y298710D01*
X338399Y298704D01*
X338367Y298526D01*
X338367Y290032D01*
X337474Y289139D01*
X335144Y289139D01*
X335139Y289138D01*
X335134Y289139D01*
X335041Y289118D01*
X334947Y289100D01*
X334943Y289097D01*
X334938Y289096D01*
X334860Y289040D01*
X334782Y288987D01*
X334779Y288983D01*
X334775Y288980D01*
X334724Y288898D01*
X334672Y288819D01*
X334672Y288814D01*
X334669Y288809D01*
X334637Y288632D01*
X334637Y282233D01*
X334638Y282228D01*
X334637Y282223D01*
X334658Y282130D01*
X334676Y282036D01*
X334679Y282032D01*
X334680Y282027D01*
X334736Y281949D01*
X334789Y281871D01*
X334793Y281868D01*
X334796Y281864D01*
X334878Y281813D01*
X334957Y281761D01*
X334962Y281761D01*
X334967Y281758D01*
X335144Y281726D01*
X337601Y281726D01*
X338494Y280833D01*
X338494Y270324D01*
X338494Y270322D01*
X338494Y270319D01*
X338514Y270223D01*
X338533Y270128D01*
X338535Y270125D01*
X338535Y270123D01*
X338591Y270042D01*
X338646Y269962D01*
X338648Y269960D01*
X338650Y269958D01*
X338733Y269905D01*
X338814Y269853D01*
X338817Y269852D01*
X338819Y269851D01*
X338915Y269834D01*
X339011Y269817D01*
X339014Y269818D01*
X339016Y269817D01*
X339111Y269839D01*
X339207Y269861D01*
X339209Y269862D01*
X339212Y269863D01*
X339360Y269965D01*
X339993Y270599D01*
X340322Y270599D01*
X340327Y270600D01*
X340332Y270599D01*
X340425Y270620D01*
X340519Y270638D01*
X340523Y270641D01*
X340528Y270642D01*
X340606Y270698D01*
X340684Y270751D01*
X340687Y270755D01*
X340691Y270758D01*
X340742Y270840D01*
X340794Y270919D01*
X340794Y270924D01*
X340797Y270929D01*
X340829Y271106D01*
X340829Y282230D01*
X341722Y283123D01*
X343789Y283123D01*
X343794Y283124D01*
X343799Y283123D01*
X343892Y283144D01*
X343986Y283162D01*
X343990Y283165D01*
X343995Y283166D01*
X344073Y283222D01*
X344151Y283275D01*
X344154Y283279D01*
X344158Y283282D01*
X344209Y283364D01*
X344261Y283443D01*
X344261Y283448D01*
X344264Y283453D01*
X344296Y283630D01*
X344296Y290863D01*
X344295Y290871D01*
X344296Y290878D01*
X344275Y290968D01*
X344257Y291059D01*
X344252Y291066D01*
X344250Y291073D01*
X344148Y291221D01*
X341784Y293585D01*
X341784Y297981D01*
X344893Y301090D01*
X349289Y301090D01*
X352398Y297981D01*
X352398Y293585D01*
X350034Y291221D01*
X350030Y291215D01*
X350024Y291210D01*
X349975Y291132D01*
X349923Y291054D01*
X349922Y291047D01*
X349918Y291040D01*
X349886Y290863D01*
X349886Y283630D01*
X349887Y283625D01*
X349886Y283620D01*
X349907Y283526D01*
X349925Y283433D01*
X349928Y283429D01*
X349929Y283424D01*
X349985Y283346D01*
X350038Y283268D01*
X350042Y283265D01*
X350045Y283261D01*
X350127Y283210D01*
X350206Y283158D01*
X350211Y283158D01*
X350216Y283155D01*
X350393Y283123D01*
X352986Y283123D01*
X353879Y282230D01*
X353879Y269966D01*
X352986Y269073D01*
X347139Y269073D01*
X347137Y269073D01*
X347134Y269073D01*
X347039Y269053D01*
X346943Y269034D01*
X346940Y269032D01*
X346938Y269032D01*
X346857Y268976D01*
X346777Y268921D01*
X346775Y268919D01*
X346773Y268917D01*
X346720Y268834D01*
X346668Y268753D01*
X346667Y268750D01*
X346666Y268748D01*
X346649Y268652D01*
X346632Y268556D01*
X346633Y268553D01*
X346632Y268551D01*
X346654Y268456D01*
X346676Y268360D01*
X346677Y268358D01*
X346678Y268355D01*
X346780Y268207D01*
X347498Y267490D01*
X347498Y263094D01*
X345134Y260730D01*
X345130Y260724D01*
X345124Y260719D01*
X345075Y260641D01*
X345023Y260563D01*
X345022Y260556D01*
X345018Y260549D01*
X344986Y260372D01*
X344986Y246227D01*
X344986Y246224D01*
X344986Y246221D01*
X345006Y246127D01*
X345025Y246030D01*
X345027Y246028D01*
X345027Y246025D01*
X345083Y245945D01*
X345138Y245864D01*
X345140Y245863D01*
X345142Y245861D01*
X345225Y245808D01*
X345306Y245755D01*
X345309Y245755D01*
X345311Y245753D01*
X345407Y245737D01*
X345503Y245719D01*
X345506Y245720D01*
X345509Y245720D01*
X345602Y245741D01*
X345699Y245763D01*
X345701Y245765D01*
X345704Y245765D01*
X345852Y245868D01*
X345895Y245912D01*
X357159Y245912D01*
X357557Y245513D01*
X357564Y245509D01*
X357568Y245503D01*
X357647Y245454D01*
X357724Y245402D01*
X357732Y245401D01*
X357738Y245397D01*
X357916Y245365D01*
X410112Y245365D01*
X410120Y245366D01*
X410128Y245365D01*
X410218Y245386D01*
X410309Y245404D01*
X410315Y245409D01*
X410323Y245411D01*
X410471Y245513D01*
X411712Y246754D01*
X411716Y246761D01*
X411722Y246765D01*
X411771Y246844D01*
X411823Y246921D01*
X411824Y246929D01*
X411828Y246935D01*
X411860Y247113D01*
X411860Y298479D01*
X411859Y298487D01*
X411860Y298495D01*
X411839Y298584D01*
X411821Y298676D01*
X411816Y298682D01*
X411814Y298690D01*
X411712Y298838D01*
X411455Y299095D01*
X411452Y299096D01*
X411451Y299099D01*
X411369Y299152D01*
X411288Y299206D01*
X411285Y299206D01*
X411283Y299208D01*
X411186Y299225D01*
X411091Y299244D01*
X411088Y299243D01*
X411086Y299243D01*
X410989Y299222D01*
X410895Y299202D01*
X410893Y299200D01*
X410890Y299200D01*
X410810Y299143D01*
X410730Y299088D01*
X410729Y299085D01*
X410727Y299084D01*
X410675Y299000D01*
X410623Y298918D01*
X410622Y298916D01*
X410621Y298914D01*
X410589Y298736D01*
X410589Y297628D01*
X408927Y295966D01*
X405952Y295966D01*
X405944Y295965D01*
X405936Y295966D01*
X405846Y295945D01*
X405755Y295927D01*
X405749Y295922D01*
X405741Y295920D01*
X405593Y295818D01*
X398237Y288462D01*
X398233Y288455D01*
X398227Y288451D01*
X398178Y288372D01*
X398126Y288295D01*
X398125Y288287D01*
X398121Y288281D01*
X398089Y288103D01*
X398089Y285128D01*
X397757Y284797D01*
X397753Y284790D01*
X397747Y284786D01*
X397698Y284707D01*
X397646Y284630D01*
X397645Y284622D01*
X397641Y284615D01*
X397609Y284438D01*
X397609Y283910D01*
X397609Y283908D01*
X397609Y283905D01*
X397629Y283810D01*
X397648Y283714D01*
X397650Y283711D01*
X397650Y283709D01*
X397706Y283628D01*
X397761Y283548D01*
X397763Y283546D01*
X397765Y283544D01*
X397848Y283491D01*
X397929Y283439D01*
X397932Y283438D01*
X397934Y283437D01*
X398030Y283420D01*
X398126Y283403D01*
X398129Y283404D01*
X398131Y283403D01*
X398226Y283425D01*
X398322Y283447D01*
X398324Y283448D01*
X398327Y283449D01*
X398475Y283551D01*
X400011Y285088D01*
X404407Y285088D01*
X407516Y281979D01*
X407516Y277583D01*
X405784Y275852D01*
X405783Y275849D01*
X405781Y275848D01*
X405728Y275767D01*
X405674Y275685D01*
X405673Y275682D01*
X405672Y275680D01*
X405654Y275584D01*
X405636Y275488D01*
X405636Y275485D01*
X405636Y275483D01*
X405658Y275385D01*
X405678Y275292D01*
X405679Y275290D01*
X405680Y275287D01*
X405736Y275207D01*
X405792Y275127D01*
X405794Y275126D01*
X405796Y275124D01*
X405878Y275072D01*
X405961Y275020D01*
X405964Y275019D01*
X405966Y275018D01*
X406143Y274986D01*
X409746Y274986D01*
X410639Y274093D01*
X410639Y261829D01*
X409746Y260936D01*
X398482Y260936D01*
X397589Y261829D01*
X397589Y270323D01*
X397588Y270331D01*
X397589Y270339D01*
X397568Y270429D01*
X397550Y270520D01*
X397545Y270526D01*
X397543Y270534D01*
X397441Y270682D01*
X391975Y276148D01*
X391972Y276149D01*
X391971Y276152D01*
X391890Y276204D01*
X391808Y276259D01*
X391805Y276259D01*
X391803Y276261D01*
X391707Y276278D01*
X391611Y276297D01*
X391608Y276296D01*
X391606Y276296D01*
X391509Y276275D01*
X391415Y276255D01*
X391413Y276253D01*
X391410Y276253D01*
X391330Y276196D01*
X391250Y276141D01*
X391249Y276138D01*
X391247Y276137D01*
X391195Y276054D01*
X391143Y275971D01*
X391142Y275969D01*
X391141Y275967D01*
X391109Y275789D01*
X391109Y271704D01*
X390086Y270682D01*
X390082Y270675D01*
X390076Y270671D01*
X390027Y270592D01*
X389975Y270515D01*
X389974Y270507D01*
X389970Y270501D01*
X389938Y270323D01*
X389938Y261829D01*
X389045Y260936D01*
X377781Y260936D01*
X376888Y261829D01*
X376888Y272796D01*
X376888Y272799D01*
X376888Y272802D01*
X376888Y272804D01*
X376888Y272806D01*
X376867Y272899D01*
X376849Y272993D01*
X376846Y272997D01*
X376845Y273002D01*
X376789Y273080D01*
X376736Y273158D01*
X376732Y273161D01*
X376729Y273165D01*
X376647Y273216D01*
X376568Y273268D01*
X376563Y273268D01*
X376558Y273271D01*
X376381Y273303D01*
X371386Y273303D01*
X371381Y273302D01*
X371376Y273303D01*
X371283Y273282D01*
X371189Y273264D01*
X371185Y273261D01*
X371180Y273260D01*
X371102Y273204D01*
X371024Y273151D01*
X371021Y273147D01*
X371017Y273144D01*
X370966Y273062D01*
X370914Y272983D01*
X370914Y272978D01*
X370911Y272973D01*
X370879Y272796D01*
X370879Y269966D01*
X369986Y269073D01*
X358722Y269073D01*
X357829Y269966D01*
X357829Y282230D01*
X358722Y283123D01*
X369986Y283123D01*
X370879Y282230D01*
X370879Y279400D01*
X370880Y279395D01*
X370879Y279390D01*
X370900Y279297D01*
X370918Y279203D01*
X370921Y279199D01*
X370922Y279194D01*
X370978Y279116D01*
X371031Y279038D01*
X371035Y279035D01*
X371038Y279031D01*
X371120Y278980D01*
X371199Y278928D01*
X371204Y278928D01*
X371209Y278925D01*
X371386Y278893D01*
X375314Y278893D01*
X375322Y278894D01*
X375330Y278893D01*
X375420Y278914D01*
X375511Y278932D01*
X375517Y278937D01*
X375525Y278939D01*
X375673Y279041D01*
X378871Y282239D01*
X378875Y282246D01*
X378881Y282250D01*
X378930Y282329D01*
X378982Y282406D01*
X378983Y282414D01*
X378987Y282420D01*
X379019Y282598D01*
X379019Y284334D01*
X379019Y284337D01*
X379019Y284339D01*
X378999Y284434D01*
X378980Y284531D01*
X378978Y284533D01*
X378978Y284535D01*
X378922Y284616D01*
X378867Y284697D01*
X378865Y284698D01*
X378863Y284700D01*
X378780Y284753D01*
X378699Y284806D01*
X378696Y284806D01*
X378694Y284808D01*
X378598Y284824D01*
X378502Y284841D01*
X378499Y284841D01*
X378497Y284841D01*
X378402Y284819D01*
X378306Y284798D01*
X378304Y284796D01*
X378301Y284796D01*
X378153Y284693D01*
X376927Y283466D01*
X373701Y283466D01*
X372039Y285128D01*
X372039Y292854D01*
X373701Y294516D01*
X376927Y294516D01*
X378205Y293237D01*
X378210Y293234D01*
X378213Y293230D01*
X378293Y293179D01*
X378372Y293126D01*
X378377Y293125D01*
X378382Y293122D01*
X378476Y293106D01*
X378569Y293089D01*
X378574Y293090D01*
X378580Y293089D01*
X378672Y293110D01*
X378765Y293130D01*
X378770Y293133D01*
X378775Y293134D01*
X378923Y293237D01*
X380201Y294516D01*
X383427Y294516D01*
X384705Y293237D01*
X384710Y293234D01*
X384713Y293230D01*
X384793Y293179D01*
X384872Y293126D01*
X384877Y293125D01*
X384882Y293122D01*
X384976Y293106D01*
X385069Y293089D01*
X385074Y293090D01*
X385080Y293089D01*
X385172Y293110D01*
X385265Y293130D01*
X385270Y293133D01*
X385275Y293134D01*
X385423Y293237D01*
X386701Y294516D01*
X389927Y294516D01*
X391205Y293237D01*
X391210Y293234D01*
X391213Y293230D01*
X391293Y293179D01*
X391372Y293126D01*
X391377Y293125D01*
X391382Y293122D01*
X391476Y293106D01*
X391569Y293089D01*
X391574Y293090D01*
X391580Y293089D01*
X391672Y293110D01*
X391765Y293130D01*
X391770Y293133D01*
X391775Y293134D01*
X391923Y293237D01*
X393201Y294516D01*
X396176Y294516D01*
X396184Y294517D01*
X396192Y294516D01*
X396282Y294537D01*
X396373Y294555D01*
X396379Y294560D01*
X396387Y294562D01*
X396535Y294664D01*
X399391Y297520D01*
X399395Y297527D01*
X399401Y297531D01*
X399450Y297610D01*
X399502Y297687D01*
X399503Y297695D01*
X399507Y297701D01*
X399539Y297879D01*
X399539Y300854D01*
X400818Y302132D01*
X400821Y302137D01*
X400825Y302140D01*
X400876Y302220D01*
X400929Y302299D01*
X400930Y302304D01*
X400933Y302309D01*
X400949Y302403D01*
X400966Y302496D01*
X400965Y302501D01*
X400966Y302507D01*
X400945Y302599D01*
X400925Y302692D01*
X400922Y302697D01*
X400921Y302702D01*
X400818Y302850D01*
X399539Y304128D01*
X399539Y307354D01*
X400818Y308632D01*
X400821Y308637D01*
X400825Y308640D01*
X400876Y308720D01*
X400929Y308799D01*
X400930Y308804D01*
X400933Y308809D01*
X400949Y308903D01*
X400966Y308996D01*
X400965Y309001D01*
X400966Y309007D01*
X400945Y309099D01*
X400925Y309192D01*
X400922Y309197D01*
X400921Y309202D01*
X400818Y309350D01*
X399539Y310628D01*
X399539Y313854D01*
X400818Y315132D01*
X400821Y315137D01*
X400825Y315140D01*
X400876Y315220D01*
X400929Y315299D01*
X400930Y315304D01*
X400933Y315309D01*
X400949Y315403D01*
X400966Y315496D01*
X400965Y315501D01*
X400966Y315507D01*
X400945Y315599D01*
X400925Y315692D01*
X400922Y315697D01*
X400921Y315702D01*
X400818Y315850D01*
X399539Y317128D01*
X399539Y320354D01*
X401201Y322016D01*
X408927Y322016D01*
X409238Y321704D01*
X409245Y321700D01*
X409249Y321694D01*
X409328Y321645D01*
X409405Y321593D01*
X409413Y321592D01*
X409420Y321588D01*
X409597Y321556D01*
X421220Y321556D01*
X421225Y321557D01*
X421230Y321556D01*
X421323Y321577D01*
X421417Y321595D01*
X421421Y321598D01*
X421426Y321599D01*
X421504Y321655D01*
X421582Y321708D01*
X421585Y321712D01*
X421589Y321715D01*
X421640Y321797D01*
X421692Y321876D01*
X421692Y321881D01*
X421695Y321886D01*
X421727Y322063D01*
X421727Y322488D01*
X422620Y323381D01*
X434884Y323381D01*
X435777Y322488D01*
X435777Y311224D01*
X434884Y310331D01*
X422620Y310331D01*
X421727Y311224D01*
X421727Y315459D01*
X421726Y315464D01*
X421727Y315469D01*
X421706Y315562D01*
X421688Y315656D01*
X421685Y315660D01*
X421684Y315665D01*
X421628Y315743D01*
X421575Y315821D01*
X421571Y315824D01*
X421568Y315828D01*
X421486Y315879D01*
X421407Y315931D01*
X421402Y315931D01*
X421397Y315934D01*
X421220Y315966D01*
X411333Y315966D01*
X411330Y315966D01*
X411328Y315966D01*
X411233Y315946D01*
X411136Y315927D01*
X411134Y315925D01*
X411131Y315925D01*
X411050Y315868D01*
X410970Y315814D01*
X410969Y315812D01*
X410967Y315810D01*
X410914Y315727D01*
X410861Y315646D01*
X410861Y315643D01*
X410859Y315641D01*
X410843Y315545D01*
X410826Y315449D01*
X410826Y315446D01*
X410826Y315444D01*
X410848Y315350D01*
X410869Y315253D01*
X410871Y315251D01*
X410871Y315248D01*
X410974Y315100D01*
X420861Y305213D01*
X420864Y305212D01*
X420865Y305209D01*
X420946Y305157D01*
X421028Y305102D01*
X421031Y305102D01*
X421033Y305100D01*
X421129Y305083D01*
X421225Y305064D01*
X421228Y305065D01*
X421230Y305065D01*
X421327Y305086D01*
X421421Y305106D01*
X421423Y305108D01*
X421426Y305108D01*
X421506Y305165D01*
X421586Y305220D01*
X421587Y305223D01*
X421589Y305224D01*
X421641Y305307D01*
X421693Y305390D01*
X421694Y305392D01*
X421695Y305394D01*
X421709Y305469D01*
X422620Y306381D01*
X434884Y306381D01*
X435777Y305488D01*
X435777Y294224D01*
X434884Y293331D01*
X432054Y293331D01*
X432049Y293330D01*
X432044Y293331D01*
X431951Y293310D01*
X431857Y293292D01*
X431853Y293289D01*
X431848Y293288D01*
X431770Y293232D01*
X431692Y293179D01*
X431689Y293175D01*
X431685Y293172D01*
X431634Y293090D01*
X431582Y293011D01*
X431582Y293006D01*
X431579Y293001D01*
X431547Y292824D01*
X431547Y278097D01*
X431548Y278089D01*
X431547Y278082D01*
X431568Y277992D01*
X431586Y277901D01*
X431591Y277894D01*
X431593Y277887D01*
X431695Y277739D01*
X434059Y275375D01*
X434059Y270979D01*
X430950Y267870D01*
X426554Y267870D01*
X423445Y270979D01*
X423445Y275375D01*
X425809Y277739D01*
X425813Y277745D01*
X425819Y277750D01*
X425868Y277828D01*
X425920Y277906D01*
X425921Y277913D01*
X425925Y277920D01*
X425957Y278097D01*
X425957Y292824D01*
X425956Y292829D01*
X425957Y292834D01*
X425936Y292927D01*
X425918Y293021D01*
X425915Y293025D01*
X425914Y293030D01*
X425858Y293108D01*
X425805Y293186D01*
X425801Y293189D01*
X425798Y293193D01*
X425716Y293244D01*
X425637Y293296D01*
X425632Y293296D01*
X425627Y293299D01*
X425450Y293331D01*
X422620Y293331D01*
X422535Y293417D01*
X422532Y293419D01*
X422531Y293421D01*
X422450Y293474D01*
X422368Y293528D01*
X422365Y293528D01*
X422363Y293530D01*
X422266Y293547D01*
X422171Y293566D01*
X422168Y293565D01*
X422166Y293566D01*
X422069Y293544D01*
X421975Y293524D01*
X421973Y293523D01*
X421970Y293522D01*
X421890Y293465D01*
X421810Y293410D01*
X421809Y293407D01*
X421807Y293406D01*
X421755Y293322D01*
X421703Y293241D01*
X421702Y293238D01*
X421701Y293236D01*
X421669Y293058D01*
X421669Y239417D01*
X413064Y230813D01*
X413060Y230806D01*
X413054Y230802D01*
X413005Y230723D01*
X412953Y230646D01*
X412952Y230638D01*
X412948Y230632D01*
X412916Y230454D01*
X412916Y219928D01*
X412023Y219035D01*
X400759Y219035D01*
X399866Y219928D01*
X399866Y226659D01*
X399866Y226662D01*
X399866Y226664D01*
X399846Y226759D01*
X399827Y226856D01*
X399825Y226858D01*
X399825Y226861D01*
X399769Y226941D01*
X399714Y227022D01*
X399712Y227023D01*
X399710Y227025D01*
X399627Y227078D01*
X399546Y227131D01*
X399543Y227131D01*
X399541Y227133D01*
X399445Y227149D01*
X399349Y227166D01*
X399346Y227166D01*
X399344Y227166D01*
X399249Y227144D01*
X399153Y227123D01*
X399151Y227121D01*
X399148Y227121D01*
X399000Y227018D01*
X397033Y225051D01*
X396064Y224082D01*
X396060Y224075D01*
X396054Y224071D01*
X396005Y223992D01*
X395953Y223915D01*
X395952Y223907D01*
X395948Y223901D01*
X395916Y223723D01*
X395916Y219928D01*
X395023Y219035D01*
X383759Y219035D01*
X382866Y219928D01*
X382866Y220345D01*
X382865Y220350D01*
X382866Y220355D01*
X382845Y220448D01*
X382827Y220542D01*
X382824Y220546D01*
X382823Y220551D01*
X382767Y220629D01*
X382714Y220707D01*
X382710Y220710D01*
X382707Y220714D01*
X382625Y220765D01*
X382546Y220817D01*
X382541Y220817D01*
X382536Y220820D01*
X382359Y220852D01*
X376856Y220852D01*
X376851Y220851D01*
X376846Y220852D01*
X376753Y220831D01*
X376659Y220813D01*
X376655Y220810D01*
X376650Y220809D01*
X376572Y220753D01*
X376494Y220700D01*
X376491Y220696D01*
X376487Y220693D01*
X376436Y220611D01*
X376384Y220532D01*
X376384Y220527D01*
X376381Y220522D01*
X376349Y220345D01*
X376349Y217633D01*
X375456Y216740D01*
X364192Y216740D01*
X363299Y217633D01*
X363299Y229897D01*
X364192Y230790D01*
X375456Y230790D01*
X376349Y229897D01*
X376349Y226949D01*
X376350Y226944D01*
X376349Y226939D01*
X376370Y226846D01*
X376388Y226752D01*
X376391Y226748D01*
X376392Y226743D01*
X376448Y226665D01*
X376501Y226587D01*
X376505Y226584D01*
X376508Y226580D01*
X376590Y226529D01*
X376669Y226477D01*
X376674Y226477D01*
X376679Y226474D01*
X376856Y226442D01*
X382359Y226442D01*
X382364Y226443D01*
X382369Y226442D01*
X382462Y226463D01*
X382556Y226481D01*
X382560Y226484D01*
X382565Y226485D01*
X382643Y226541D01*
X382721Y226594D01*
X382724Y226598D01*
X382728Y226601D01*
X382779Y226683D01*
X382831Y226762D01*
X382831Y226767D01*
X382834Y226772D01*
X382866Y226949D01*
X382866Y232192D01*
X383759Y233085D01*
X391442Y233085D01*
X391447Y233086D01*
X391452Y233085D01*
X391545Y233106D01*
X391639Y233124D01*
X391643Y233127D01*
X391648Y233128D01*
X391726Y233184D01*
X391804Y233237D01*
X391807Y233241D01*
X391811Y233244D01*
X391862Y233326D01*
X391914Y233405D01*
X391914Y233410D01*
X391917Y233415D01*
X391949Y233592D01*
X391949Y238192D01*
X392667Y238909D01*
X392668Y238912D01*
X392670Y238913D01*
X392722Y238993D01*
X392777Y239076D01*
X392778Y239079D01*
X392779Y239081D01*
X392796Y239175D01*
X392815Y239273D01*
X392815Y239276D01*
X392815Y239278D01*
X392794Y239375D01*
X392773Y239469D01*
X392772Y239471D01*
X392771Y239474D01*
X392715Y239554D01*
X392659Y239634D01*
X392657Y239635D01*
X392655Y239637D01*
X392572Y239689D01*
X392490Y239741D01*
X392487Y239742D01*
X392485Y239743D01*
X392308Y239775D01*
X358559Y239775D01*
X358554Y239774D01*
X358549Y239775D01*
X358456Y239754D01*
X358362Y239736D01*
X358358Y239733D01*
X358353Y239732D01*
X358275Y239676D01*
X358197Y239623D01*
X358194Y239619D01*
X358190Y239616D01*
X358139Y239534D01*
X358087Y239455D01*
X358087Y239450D01*
X358084Y239445D01*
X358052Y239268D01*
X358052Y232755D01*
X357159Y231862D01*
X345895Y231862D01*
X345002Y232755D01*
X345002Y241010D01*
X345002Y241013D01*
X345002Y241015D01*
X344982Y241110D01*
X344963Y241207D01*
X344961Y241209D01*
X344961Y241212D01*
X344905Y241292D01*
X344850Y241373D01*
X344848Y241374D01*
X344846Y241376D01*
X344763Y241429D01*
X344682Y241482D01*
X344679Y241482D01*
X344677Y241484D01*
X344581Y241500D01*
X344485Y241517D01*
X344482Y241517D01*
X344480Y241517D01*
X344386Y241495D01*
X344289Y241474D01*
X344287Y241472D01*
X344284Y241472D01*
X344136Y241369D01*
X341200Y238433D01*
X341196Y238426D01*
X341190Y238422D01*
X341141Y238343D01*
X341089Y238266D01*
X341088Y238258D01*
X341084Y238252D01*
X341052Y238074D01*
X341052Y232755D01*
X340159Y231862D01*
X337829Y231862D01*
X337824Y231861D01*
X337819Y231862D01*
X337726Y231841D01*
X337632Y231823D01*
X337628Y231820D01*
X337623Y231819D01*
X337545Y231763D01*
X337467Y231710D01*
X337464Y231706D01*
X337460Y231703D01*
X337409Y231621D01*
X337357Y231542D01*
X337357Y231537D01*
X337354Y231532D01*
X337322Y231355D01*
X337322Y228884D01*
X337323Y228879D01*
X337322Y228874D01*
X337343Y228781D01*
X337361Y228687D01*
X337364Y228683D01*
X337365Y228678D01*
X337421Y228600D01*
X337474Y228522D01*
X337478Y228519D01*
X337481Y228515D01*
X337563Y228464D01*
X337642Y228412D01*
X337647Y228412D01*
X337652Y228409D01*
X337829Y228377D01*
X340277Y228377D01*
X341170Y227484D01*
X341170Y215220D01*
X340277Y214327D01*
X329013Y214327D01*
G37*
%LPD*%
%LPC*%
G36*
X223211Y340935D02*
X223211Y340935D01*
X220853Y343292D01*
X220853Y351626D01*
X223211Y353984D01*
X237545Y353984D01*
X238631Y352898D01*
X238635Y352895D01*
X238638Y352891D01*
X238719Y352840D01*
X238798Y352787D01*
X238803Y352786D01*
X238808Y352783D01*
X238901Y352767D01*
X238995Y352750D01*
X239000Y352751D01*
X239005Y352750D01*
X239098Y352771D01*
X239191Y352791D01*
X239195Y352794D01*
X239200Y352795D01*
X239348Y352898D01*
X242213Y355763D01*
X245556Y355763D01*
X245564Y355765D01*
X245571Y355763D01*
X245661Y355784D01*
X245752Y355803D01*
X245759Y355807D01*
X245766Y355809D01*
X245914Y355912D01*
X248136Y358133D01*
X248140Y358140D01*
X248146Y358144D01*
X248195Y358223D01*
X248247Y358300D01*
X248248Y358308D01*
X248252Y358314D01*
X248284Y358492D01*
X248284Y370746D01*
X248284Y370748D01*
X248284Y370751D01*
X248264Y370846D01*
X248245Y370942D01*
X248243Y370945D01*
X248243Y370947D01*
X248187Y371027D01*
X248132Y371108D01*
X248130Y371110D01*
X248128Y371112D01*
X248045Y371165D01*
X247964Y371217D01*
X247961Y371218D01*
X247959Y371219D01*
X247863Y371236D01*
X247767Y371253D01*
X247764Y371252D01*
X247762Y371253D01*
X247667Y371231D01*
X247571Y371209D01*
X247569Y371208D01*
X247566Y371207D01*
X247418Y371105D01*
X246673Y370359D01*
X243331Y370359D01*
X243323Y370358D01*
X243315Y370359D01*
X243225Y370338D01*
X243134Y370320D01*
X243128Y370315D01*
X243120Y370313D01*
X242972Y370211D01*
X242864Y370103D01*
X240410Y370103D01*
X240405Y370102D01*
X240400Y370103D01*
X240307Y370082D01*
X240213Y370063D01*
X240209Y370060D01*
X240204Y370059D01*
X240126Y370004D01*
X240048Y369950D01*
X240045Y369946D01*
X240040Y369943D01*
X239990Y369862D01*
X239938Y369782D01*
X239937Y369777D01*
X239935Y369773D01*
X239903Y369595D01*
X239903Y368730D01*
X237545Y366373D01*
X223211Y366373D01*
X220853Y368730D01*
X220853Y377064D01*
X223211Y379422D01*
X237545Y379422D01*
X238777Y378190D01*
X238781Y378187D01*
X238784Y378183D01*
X238865Y378132D01*
X238944Y378079D01*
X238949Y378078D01*
X238954Y378075D01*
X239047Y378059D01*
X239141Y378042D01*
X239146Y378043D01*
X239151Y378042D01*
X239244Y378063D01*
X239337Y378083D01*
X239341Y378086D01*
X239346Y378087D01*
X239494Y378190D01*
X242277Y380973D01*
X246673Y380973D01*
X247418Y380227D01*
X247421Y380226D01*
X247422Y380224D01*
X247502Y380172D01*
X247585Y380117D01*
X247588Y380116D01*
X247590Y380115D01*
X247686Y380097D01*
X247782Y380079D01*
X247785Y380079D01*
X247787Y380079D01*
X247884Y380100D01*
X247978Y380121D01*
X247980Y380122D01*
X247983Y380123D01*
X248063Y380179D01*
X248143Y380235D01*
X248144Y380237D01*
X248146Y380239D01*
X248198Y380322D01*
X248250Y380404D01*
X248251Y380407D01*
X248252Y380409D01*
X248284Y380586D01*
X248284Y411749D01*
X250070Y413534D01*
X260982Y424447D01*
X260984Y424449D01*
X260986Y424450D01*
X261038Y424531D01*
X261093Y424613D01*
X261094Y424616D01*
X261095Y424618D01*
X261112Y424712D01*
X261131Y424810D01*
X261130Y424813D01*
X261131Y424816D01*
X261109Y424912D01*
X261089Y425006D01*
X261088Y425009D01*
X261087Y425011D01*
X261031Y425091D01*
X260975Y425171D01*
X260973Y425173D01*
X260971Y425175D01*
X260888Y425226D01*
X260806Y425279D01*
X260803Y425279D01*
X260801Y425280D01*
X260624Y425312D01*
X256346Y425312D01*
X253237Y428421D01*
X253237Y432817D01*
X256346Y435926D01*
X259323Y435926D01*
X259331Y435927D01*
X259339Y435926D01*
X259429Y435947D01*
X259520Y435966D01*
X259526Y435970D01*
X259534Y435972D01*
X259682Y436074D01*
X260128Y436520D01*
X260132Y436527D01*
X260138Y436531D01*
X260187Y436610D01*
X260239Y436687D01*
X260240Y436695D01*
X260244Y436702D01*
X260276Y436879D01*
X260276Y446603D01*
X260275Y446611D01*
X260276Y446619D01*
X260255Y446709D01*
X260237Y446800D01*
X260232Y446806D01*
X260230Y446814D01*
X260128Y446962D01*
X252094Y454995D01*
X252094Y466758D01*
X252093Y466766D01*
X252094Y466773D01*
X252073Y466863D01*
X252055Y466954D01*
X252050Y466961D01*
X252048Y466968D01*
X251946Y467116D01*
X249582Y469480D01*
X249582Y473899D01*
X249625Y473922D01*
X249641Y473940D01*
X249661Y473954D01*
X252691Y476985D01*
X256292Y476985D01*
X257196Y476876D01*
X260196Y473876D01*
X260196Y469480D01*
X257832Y467116D01*
X257828Y467110D01*
X257822Y467105D01*
X257773Y467027D01*
X257721Y466949D01*
X257720Y466942D01*
X257716Y466935D01*
X257684Y466758D01*
X257684Y457521D01*
X257685Y457513D01*
X257684Y457505D01*
X257705Y457415D01*
X257723Y457324D01*
X257728Y457318D01*
X257730Y457310D01*
X257832Y457162D01*
X265080Y449914D01*
X265087Y449910D01*
X265091Y449904D01*
X265170Y449855D01*
X265247Y449804D01*
X265255Y449802D01*
X265261Y449798D01*
X265439Y449766D01*
X277432Y449766D01*
X278326Y448873D01*
X278326Y445543D01*
X278327Y445538D01*
X278326Y445532D01*
X278346Y445439D01*
X278365Y445346D01*
X278368Y445342D01*
X278369Y445337D01*
X278425Y445259D01*
X278478Y445180D01*
X278482Y445178D01*
X278485Y445173D01*
X278567Y445123D01*
X278646Y445071D01*
X278651Y445070D01*
X278656Y445068D01*
X278833Y445036D01*
X283031Y445036D01*
X283036Y445037D01*
X283041Y445036D01*
X283134Y445056D01*
X283227Y445075D01*
X283232Y445078D01*
X283237Y445079D01*
X283315Y445134D01*
X283393Y445188D01*
X283396Y445192D01*
X283400Y445195D01*
X283451Y445277D01*
X283502Y445356D01*
X283503Y445361D01*
X283506Y445365D01*
X283538Y445543D01*
X283538Y448118D01*
X284431Y449012D01*
X295694Y449012D01*
X296071Y448635D01*
X296075Y448632D01*
X296078Y448628D01*
X296158Y448577D01*
X296238Y448524D01*
X296243Y448523D01*
X296247Y448521D01*
X296341Y448505D01*
X296435Y448487D01*
X296440Y448488D01*
X296445Y448487D01*
X296538Y448509D01*
X296631Y448528D01*
X296635Y448531D01*
X296640Y448533D01*
X296788Y448635D01*
X298171Y450018D01*
X302567Y450018D01*
X305234Y447351D01*
X305238Y447348D01*
X305241Y447344D01*
X305321Y447293D01*
X305401Y447240D01*
X305406Y447239D01*
X305410Y447236D01*
X305504Y447221D01*
X305598Y447203D01*
X305603Y447204D01*
X305608Y447203D01*
X305700Y447224D01*
X305794Y447244D01*
X305798Y447247D01*
X305803Y447248D01*
X305951Y447351D01*
X307014Y448414D01*
X310045Y448414D01*
X311304Y447155D01*
X311304Y444777D01*
X311306Y444769D01*
X311304Y444761D01*
X311324Y444677D01*
X311324Y442113D01*
X311304Y442001D01*
X311304Y439624D01*
X310045Y438365D01*
X307061Y438365D01*
X307056Y438363D01*
X307051Y438364D01*
X306958Y438344D01*
X306865Y438325D01*
X306860Y438322D01*
X306855Y438321D01*
X306777Y438266D01*
X306699Y438212D01*
X306696Y438208D01*
X306692Y438205D01*
X306641Y438123D01*
X306590Y438044D01*
X306589Y438039D01*
X306586Y438035D01*
X306554Y437857D01*
X306554Y434874D01*
X305295Y433615D01*
X302917Y433615D01*
X302909Y433613D01*
X302901Y433614D01*
X302817Y433594D01*
X295990Y433594D01*
X295988Y433594D01*
X295985Y433594D01*
X295890Y433574D01*
X295794Y433555D01*
X295792Y433553D01*
X295789Y433553D01*
X295709Y433497D01*
X295628Y433442D01*
X295627Y433440D01*
X295625Y433439D01*
X295571Y433355D01*
X295519Y433274D01*
X295518Y433272D01*
X295517Y433269D01*
X295501Y433173D01*
X295483Y433077D01*
X295484Y433074D01*
X295483Y433072D01*
X295505Y432978D01*
X295527Y432881D01*
X295528Y432879D01*
X295529Y432877D01*
X295632Y432729D01*
X299028Y429332D01*
X299034Y429328D01*
X299039Y429322D01*
X299118Y429273D01*
X299195Y429222D01*
X299203Y429220D01*
X299209Y429216D01*
X299387Y429184D01*
X302806Y429184D01*
X302917Y429164D01*
X305295Y429164D01*
X306554Y427905D01*
X306554Y424874D01*
X305928Y424248D01*
X305925Y424243D01*
X305921Y424240D01*
X305870Y424160D01*
X305817Y424081D01*
X305816Y424076D01*
X305813Y424071D01*
X305797Y423978D01*
X305779Y423884D01*
X305781Y423879D01*
X305780Y423874D01*
X305801Y423781D01*
X305821Y423688D01*
X305824Y423684D01*
X305825Y423678D01*
X305928Y423530D01*
X306554Y422905D01*
X306554Y419874D01*
X305928Y419248D01*
X305925Y419243D01*
X305921Y419240D01*
X305870Y419160D01*
X305817Y419081D01*
X305816Y419076D01*
X305813Y419071D01*
X305797Y418978D01*
X305779Y418884D01*
X305781Y418879D01*
X305780Y418874D01*
X305801Y418781D01*
X305821Y418688D01*
X305824Y418684D01*
X305825Y418678D01*
X305928Y418530D01*
X306554Y417905D01*
X306554Y414874D01*
X305928Y414248D01*
X305925Y414243D01*
X305921Y414240D01*
X305870Y414160D01*
X305817Y414081D01*
X305816Y414076D01*
X305813Y414071D01*
X305797Y413978D01*
X305779Y413884D01*
X305781Y413879D01*
X305780Y413874D01*
X305801Y413781D01*
X305821Y413688D01*
X305824Y413684D01*
X305825Y413678D01*
X305928Y413530D01*
X306554Y412905D01*
X306554Y409874D01*
X305928Y409248D01*
X305925Y409243D01*
X305921Y409240D01*
X305870Y409160D01*
X305817Y409081D01*
X305816Y409076D01*
X305813Y409071D01*
X305797Y408978D01*
X305779Y408884D01*
X305781Y408879D01*
X305780Y408874D01*
X305801Y408781D01*
X305821Y408688D01*
X305824Y408684D01*
X305825Y408678D01*
X305928Y408530D01*
X306554Y407905D01*
X306554Y404874D01*
X305928Y404248D01*
X305925Y404243D01*
X305921Y404240D01*
X305870Y404160D01*
X305817Y404081D01*
X305816Y404076D01*
X305813Y404071D01*
X305797Y403977D01*
X305779Y403884D01*
X305781Y403879D01*
X305780Y403874D01*
X305801Y403781D01*
X305821Y403688D01*
X305824Y403684D01*
X305825Y403678D01*
X305928Y403530D01*
X306554Y402905D01*
X306554Y399874D01*
X305928Y399248D01*
X305925Y399243D01*
X305921Y399240D01*
X305869Y399160D01*
X305817Y399081D01*
X305816Y399076D01*
X305813Y399071D01*
X305797Y398978D01*
X305779Y398884D01*
X305781Y398879D01*
X305780Y398874D01*
X305801Y398781D01*
X305821Y398688D01*
X305824Y398684D01*
X305825Y398678D01*
X305928Y398530D01*
X306554Y397905D01*
X306554Y394874D01*
X305295Y393615D01*
X297764Y393615D01*
X296504Y394874D01*
X296504Y397905D01*
X297130Y398530D01*
X297133Y398535D01*
X297138Y398538D01*
X297188Y398618D01*
X297241Y398697D01*
X297242Y398703D01*
X297245Y398707D01*
X297261Y398801D01*
X297279Y398894D01*
X297278Y398899D01*
X297279Y398905D01*
X297257Y398997D01*
X297237Y399090D01*
X297234Y399095D01*
X297233Y399100D01*
X297130Y399248D01*
X296504Y399874D01*
X296504Y403087D01*
X296503Y403092D01*
X296504Y403098D01*
X296484Y403191D01*
X296465Y403284D01*
X296462Y403288D01*
X296461Y403293D01*
X296406Y403371D01*
X296352Y403450D01*
X296348Y403452D01*
X296345Y403457D01*
X296263Y403507D01*
X296184Y403559D01*
X296179Y403560D01*
X296175Y403562D01*
X295997Y403594D01*
X294219Y403594D01*
X294211Y403593D01*
X294203Y403594D01*
X294114Y403573D01*
X294022Y403555D01*
X294016Y403550D01*
X294008Y403549D01*
X293860Y403446D01*
X293491Y403077D01*
X293487Y403070D01*
X293481Y403066D01*
X293432Y402987D01*
X293380Y402910D01*
X293379Y402902D01*
X293375Y402896D01*
X293343Y402718D01*
X293343Y399376D01*
X290234Y396267D01*
X285838Y396267D01*
X282729Y399376D01*
X282729Y403772D01*
X285838Y406881D01*
X289180Y406881D01*
X289188Y406882D01*
X289196Y406881D01*
X289286Y406902D01*
X289377Y406920D01*
X289383Y406925D01*
X289391Y406927D01*
X289539Y407029D01*
X290238Y407729D01*
X290240Y407731D01*
X290242Y407732D01*
X290294Y407812D01*
X290349Y407895D01*
X290350Y407898D01*
X290351Y407900D01*
X290368Y407996D01*
X290387Y408092D01*
X290386Y408095D01*
X290387Y408098D01*
X290365Y408194D01*
X290345Y408288D01*
X290344Y408291D01*
X290343Y408293D01*
X290287Y408373D01*
X290231Y408453D01*
X290229Y408455D01*
X290227Y408457D01*
X290144Y408508D01*
X290062Y408561D01*
X290059Y408561D01*
X290057Y408562D01*
X289880Y408594D01*
X285630Y408594D01*
X285622Y408593D01*
X285614Y408594D01*
X285525Y408573D01*
X285433Y408555D01*
X285427Y408550D01*
X285419Y408549D01*
X285271Y408446D01*
X278629Y401804D01*
X278626Y401800D01*
X278622Y401797D01*
X278571Y401716D01*
X278518Y401637D01*
X278517Y401632D01*
X278515Y401627D01*
X278499Y401534D01*
X278481Y401440D01*
X278482Y401435D01*
X278481Y401430D01*
X278503Y401337D01*
X278522Y401244D01*
X278525Y401240D01*
X278527Y401235D01*
X278629Y401087D01*
X279500Y400216D01*
X279500Y395820D01*
X276391Y392711D01*
X271995Y392711D01*
X268886Y395820D01*
X268886Y400288D01*
X268901Y400368D01*
X268919Y400464D01*
X268918Y400467D01*
X268919Y400469D01*
X268897Y400566D01*
X268878Y400660D01*
X268876Y400662D01*
X268875Y400665D01*
X268819Y400745D01*
X268763Y400825D01*
X268761Y400826D01*
X268759Y400828D01*
X268677Y400880D01*
X268594Y400932D01*
X268591Y400933D01*
X268589Y400934D01*
X268412Y400966D01*
X267479Y400966D01*
X264370Y404075D01*
X264370Y408471D01*
X266734Y410835D01*
X266738Y410841D01*
X266744Y410846D01*
X266793Y410924D01*
X266845Y411002D01*
X266846Y411009D01*
X266850Y411016D01*
X266882Y411193D01*
X266882Y413456D01*
X272611Y419184D01*
X281255Y419184D01*
X281257Y419184D01*
X281260Y419184D01*
X281355Y419204D01*
X281451Y419224D01*
X281453Y419225D01*
X281456Y419226D01*
X281537Y419282D01*
X281617Y419336D01*
X281618Y419338D01*
X281621Y419340D01*
X281674Y419424D01*
X281726Y419504D01*
X281727Y419507D01*
X281728Y419509D01*
X281744Y419605D01*
X281762Y419701D01*
X281761Y419704D01*
X281762Y419707D01*
X281740Y419800D01*
X281718Y419897D01*
X281717Y419899D01*
X281716Y419902D01*
X281613Y420050D01*
X280697Y420966D01*
X280697Y425362D01*
X283806Y428471D01*
X288202Y428471D01*
X291311Y425362D01*
X291311Y424691D01*
X291312Y424686D01*
X291311Y424681D01*
X291332Y424588D01*
X291350Y424495D01*
X291353Y424490D01*
X291354Y424485D01*
X291410Y424407D01*
X291463Y424329D01*
X291467Y424326D01*
X291470Y424322D01*
X291552Y424271D01*
X291631Y424220D01*
X291636Y424219D01*
X291641Y424216D01*
X291818Y424184D01*
X295047Y424184D01*
X295050Y424184D01*
X295052Y424184D01*
X295148Y424204D01*
X295244Y424224D01*
X295246Y424225D01*
X295248Y424226D01*
X295328Y424281D01*
X295409Y424336D01*
X295411Y424338D01*
X295413Y424340D01*
X295466Y424423D01*
X295519Y424504D01*
X295519Y424507D01*
X295521Y424509D01*
X295537Y424605D01*
X295554Y424701D01*
X295554Y424704D01*
X295554Y424707D01*
X295532Y424799D01*
X295511Y424897D01*
X295509Y424899D01*
X295509Y424902D01*
X295406Y425050D01*
X295076Y425380D01*
X290964Y429492D01*
X290957Y429496D01*
X290953Y429502D01*
X290874Y429551D01*
X290797Y429603D01*
X290789Y429604D01*
X290783Y429608D01*
X290605Y429640D01*
X274291Y429640D01*
X274283Y429639D01*
X274275Y429640D01*
X274185Y429619D01*
X274094Y429601D01*
X274088Y429596D01*
X274080Y429594D01*
X273932Y429492D01*
X254022Y409582D01*
X254018Y409575D01*
X254012Y409571D01*
X253963Y409492D01*
X253911Y409415D01*
X253910Y409407D01*
X253906Y409401D01*
X253874Y409223D01*
X253874Y355966D01*
X249867Y351959D01*
X249862Y351953D01*
X249856Y351948D01*
X249807Y351870D01*
X249756Y351792D01*
X249754Y351785D01*
X249750Y351778D01*
X249718Y351601D01*
X249718Y348258D01*
X246610Y345150D01*
X243267Y345150D01*
X243259Y345148D01*
X243252Y345150D01*
X243162Y345129D01*
X243071Y345110D01*
X243064Y345106D01*
X243057Y345104D01*
X242909Y345001D01*
X242572Y344665D01*
X240410Y344665D01*
X240405Y344664D01*
X240400Y344664D01*
X240307Y344644D01*
X240213Y344625D01*
X240209Y344622D01*
X240204Y344621D01*
X240126Y344566D01*
X240048Y344512D01*
X240045Y344508D01*
X240040Y344505D01*
X239990Y344424D01*
X239938Y344344D01*
X239937Y344339D01*
X239935Y344335D01*
X239903Y344157D01*
X239903Y343292D01*
X237545Y340935D01*
X223211Y340935D01*
G37*
%LPD*%
G36*
X478143Y393769D02*
X478143Y393769D01*
X478186Y393768D01*
X482179Y394369D01*
X482209Y394380D01*
X482252Y394385D01*
X486111Y395574D01*
X486139Y395589D01*
X486180Y395601D01*
X489818Y397352D01*
X489840Y397369D01*
X489866Y397378D01*
X489919Y397428D01*
X489977Y397472D01*
X489990Y397496D01*
X490010Y397515D01*
X490040Y397581D01*
X490076Y397645D01*
X490079Y397672D01*
X490090Y397697D01*
X490091Y397770D01*
X490100Y397842D01*
X490092Y397868D01*
X490092Y397896D01*
X490056Y397994D01*
X490044Y398033D01*
X490038Y398041D01*
X490034Y398052D01*
X463034Y444852D01*
X463016Y444872D01*
X463005Y444897D01*
X462951Y444946D01*
X462903Y445001D01*
X462878Y445012D01*
X462858Y445031D01*
X462789Y445055D01*
X462723Y445086D01*
X462696Y445088D01*
X462671Y445097D01*
X462598Y445092D01*
X462525Y445095D01*
X462499Y445086D01*
X462472Y445084D01*
X462376Y445040D01*
X462338Y445026D01*
X462331Y445019D01*
X462321Y445015D01*
X458984Y442741D01*
X458962Y442718D01*
X458926Y442695D01*
X455965Y439949D01*
X455946Y439923D01*
X455914Y439895D01*
X453396Y436739D01*
X453381Y436710D01*
X453354Y436677D01*
X451334Y433181D01*
X451324Y433151D01*
X451301Y433114D01*
X449825Y429356D01*
X449820Y429324D01*
X449803Y429284D01*
X448903Y425348D01*
X448903Y425316D01*
X448892Y425274D01*
X448589Y421248D01*
X448592Y421225D01*
X448589Y421205D01*
X448591Y421195D01*
X448589Y421174D01*
X448890Y417147D01*
X448898Y417116D01*
X448901Y417073D01*
X449798Y413137D01*
X449811Y413108D01*
X449820Y413065D01*
X451294Y409306D01*
X451311Y409279D01*
X451326Y409239D01*
X453344Y405742D01*
X453365Y405718D01*
X453386Y405680D01*
X455902Y402522D01*
X455927Y402502D01*
X455953Y402468D01*
X458912Y399720D01*
X458939Y399704D01*
X458970Y399674D01*
X462306Y397398D01*
X462335Y397386D01*
X462370Y397361D01*
X466008Y395608D01*
X466038Y395600D01*
X466077Y395581D01*
X469935Y394389D01*
X469967Y394386D01*
X470008Y394373D01*
X474000Y393770D01*
X474032Y393771D01*
X474074Y393764D01*
X478112Y393763D01*
X478143Y393769D01*
G37*
G36*
X218330Y393764D02*
X218330Y393764D01*
X218361Y393770D01*
X218404Y393770D01*
X222396Y394373D01*
X222426Y394384D01*
X222469Y394389D01*
X226327Y395581D01*
X226355Y395596D01*
X226397Y395608D01*
X230034Y397361D01*
X230059Y397380D01*
X230098Y397398D01*
X233434Y399674D01*
X233456Y399697D01*
X233492Y399720D01*
X236451Y402468D01*
X236470Y402493D01*
X236502Y402522D01*
X239018Y405680D01*
X239033Y405708D01*
X239060Y405742D01*
X241078Y409239D01*
X241088Y409269D01*
X241110Y409306D01*
X242584Y413065D01*
X242590Y413097D01*
X242606Y413137D01*
X243503Y417073D01*
X243504Y417105D01*
X243514Y417147D01*
X243815Y421174D01*
X243811Y421205D01*
X243812Y421221D01*
X243815Y421238D01*
X243814Y421242D01*
X243815Y421248D01*
X243512Y425274D01*
X243503Y425305D01*
X243501Y425348D01*
X242601Y429284D01*
X242588Y429313D01*
X242579Y429356D01*
X241103Y433114D01*
X241085Y433141D01*
X241070Y433181D01*
X239050Y436677D01*
X239029Y436701D01*
X239008Y436739D01*
X236490Y439895D01*
X236465Y439915D01*
X236439Y439949D01*
X233478Y442695D01*
X233451Y442711D01*
X233420Y442741D01*
X230083Y445015D01*
X230058Y445025D01*
X230037Y445042D01*
X229967Y445063D01*
X229900Y445092D01*
X229872Y445092D01*
X229846Y445099D01*
X229774Y445091D01*
X229701Y445091D01*
X229676Y445080D01*
X229649Y445077D01*
X229585Y445041D01*
X229518Y445013D01*
X229499Y444993D01*
X229476Y444980D01*
X229409Y444899D01*
X229380Y444869D01*
X229377Y444860D01*
X229370Y444852D01*
X202370Y398052D01*
X202361Y398026D01*
X202345Y398003D01*
X202330Y397932D01*
X202306Y397863D01*
X202309Y397836D01*
X202303Y397809D01*
X202316Y397738D01*
X202322Y397665D01*
X202335Y397640D01*
X202340Y397614D01*
X202380Y397553D01*
X202414Y397488D01*
X202435Y397471D01*
X202450Y397448D01*
X202536Y397387D01*
X202567Y397362D01*
X202576Y397359D01*
X202586Y397352D01*
X206224Y395601D01*
X206255Y395594D01*
X206293Y395574D01*
X210152Y394385D01*
X210184Y394382D01*
X210225Y394369D01*
X214218Y393768D01*
X214249Y393770D01*
X214292Y393763D01*
X218330Y393764D01*
G37*
G36*
X462630Y247313D02*
X462630Y247313D01*
X462703Y247313D01*
X462728Y247324D01*
X462755Y247327D01*
X462819Y247363D01*
X462886Y247391D01*
X462905Y247411D01*
X462928Y247424D01*
X462996Y247505D01*
X463024Y247535D01*
X463027Y247544D01*
X463034Y247553D01*
X490034Y294353D01*
X490043Y294378D01*
X490059Y294401D01*
X490074Y294472D01*
X490098Y294541D01*
X490095Y294568D01*
X490101Y294595D01*
X490088Y294666D01*
X490082Y294739D01*
X490069Y294764D01*
X490064Y294790D01*
X490024Y294851D01*
X489990Y294916D01*
X489969Y294933D01*
X489954Y294956D01*
X489868Y295017D01*
X489837Y295042D01*
X489828Y295045D01*
X489818Y295052D01*
X486180Y296803D01*
X486149Y296810D01*
X486111Y296830D01*
X482252Y298019D01*
X482220Y298022D01*
X482179Y298035D01*
X478186Y298636D01*
X478155Y298634D01*
X478112Y298641D01*
X474074Y298640D01*
X474043Y298634D01*
X474000Y298634D01*
X470008Y298031D01*
X469978Y298020D01*
X469935Y298015D01*
X466077Y296823D01*
X466049Y296808D01*
X466008Y296796D01*
X462370Y295043D01*
X462345Y295024D01*
X462306Y295006D01*
X458970Y292730D01*
X458948Y292707D01*
X458912Y292684D01*
X455953Y289936D01*
X455934Y289911D01*
X455902Y289882D01*
X453386Y286724D01*
X453371Y286696D01*
X453344Y286662D01*
X451326Y283165D01*
X451316Y283135D01*
X451294Y283098D01*
X449820Y279339D01*
X449814Y279307D01*
X449798Y279267D01*
X448901Y275331D01*
X448900Y275299D01*
X448890Y275257D01*
X448589Y271231D01*
X448593Y271199D01*
X448589Y271156D01*
X448892Y267130D01*
X448901Y267099D01*
X448903Y267056D01*
X449803Y263120D01*
X449816Y263091D01*
X449825Y263048D01*
X451301Y259290D01*
X451319Y259263D01*
X451334Y259223D01*
X453354Y255727D01*
X453375Y255703D01*
X453396Y255665D01*
X455914Y252509D01*
X455939Y252489D01*
X455965Y252455D01*
X458926Y249709D01*
X458953Y249693D01*
X458984Y249663D01*
X462321Y247389D01*
X462346Y247379D01*
X462367Y247362D01*
X462437Y247341D01*
X462504Y247312D01*
X462532Y247313D01*
X462558Y247305D01*
X462630Y247313D01*
G37*
G36*
X229806Y247312D02*
X229806Y247312D01*
X229879Y247309D01*
X229905Y247318D01*
X229932Y247320D01*
X230028Y247364D01*
X230066Y247378D01*
X230073Y247385D01*
X230083Y247389D01*
X233420Y249663D01*
X233442Y249686D01*
X233478Y249709D01*
X236439Y252455D01*
X236458Y252481D01*
X236490Y252509D01*
X239008Y255665D01*
X239023Y255694D01*
X239050Y255727D01*
X241070Y259223D01*
X241080Y259253D01*
X241103Y259290D01*
X242579Y263048D01*
X242584Y263080D01*
X242601Y263120D01*
X243501Y267056D01*
X243501Y267088D01*
X243512Y267130D01*
X243815Y271156D01*
X243811Y271187D01*
X243815Y271231D01*
X243514Y275257D01*
X243506Y275288D01*
X243503Y275331D01*
X242606Y279267D01*
X242593Y279296D01*
X242584Y279339D01*
X241110Y283098D01*
X241093Y283125D01*
X241078Y283165D01*
X239060Y286662D01*
X239039Y286686D01*
X239018Y286724D01*
X236502Y289882D01*
X236477Y289902D01*
X236451Y289936D01*
X233492Y292684D01*
X233465Y292700D01*
X233434Y292730D01*
X230098Y295006D01*
X230069Y295018D01*
X230034Y295043D01*
X226397Y296796D01*
X226366Y296804D01*
X226327Y296823D01*
X222469Y298015D01*
X222437Y298018D01*
X222396Y298031D01*
X218404Y298634D01*
X218372Y298633D01*
X218330Y298640D01*
X214292Y298641D01*
X214261Y298635D01*
X214218Y298636D01*
X210225Y298035D01*
X210195Y298024D01*
X210152Y298019D01*
X206293Y296830D01*
X206265Y296815D01*
X206224Y296803D01*
X202586Y295052D01*
X202564Y295035D01*
X202538Y295026D01*
X202485Y294976D01*
X202427Y294932D01*
X202414Y294908D01*
X202394Y294889D01*
X202364Y294823D01*
X202328Y294759D01*
X202325Y294732D01*
X202314Y294707D01*
X202313Y294634D01*
X202304Y294562D01*
X202312Y294536D01*
X202312Y294508D01*
X202348Y294410D01*
X202360Y294371D01*
X202366Y294363D01*
X202370Y294353D01*
X229370Y247553D01*
X229388Y247532D01*
X229399Y247507D01*
X229453Y247458D01*
X229501Y247404D01*
X229526Y247392D01*
X229546Y247373D01*
X229615Y247349D01*
X229681Y247318D01*
X229708Y247317D01*
X229733Y247307D01*
X229806Y247312D01*
G37*
G36*
X348251Y468785D02*
X348251Y468785D01*
X348294Y468784D01*
X352284Y469385D01*
X352314Y469396D01*
X352357Y469402D01*
X356213Y470591D01*
X356241Y470607D01*
X356283Y470619D01*
X359919Y472370D01*
X359944Y472389D01*
X359983Y472407D01*
X363317Y474680D01*
X363340Y474703D01*
X363376Y474727D01*
X366334Y477471D01*
X366353Y477497D01*
X366385Y477526D01*
X368901Y480681D01*
X368915Y480709D01*
X368943Y480743D01*
X370961Y484238D01*
X370971Y484268D01*
X370993Y484305D01*
X372467Y488061D01*
X372468Y488068D01*
X372470Y488069D01*
X372474Y488096D01*
X372489Y488133D01*
X373387Y492067D01*
X373388Y492099D01*
X373398Y492141D01*
X373700Y496165D01*
X373696Y496192D01*
X373701Y496219D01*
X373684Y496289D01*
X373675Y496362D01*
X373661Y496386D01*
X373655Y496412D01*
X373612Y496471D01*
X373575Y496534D01*
X373553Y496550D01*
X373537Y496572D01*
X373474Y496609D01*
X373416Y496653D01*
X373389Y496660D01*
X373366Y496674D01*
X373262Y496691D01*
X373223Y496701D01*
X373213Y496699D01*
X373202Y496701D01*
X319202Y496701D01*
X319175Y496696D01*
X319148Y496698D01*
X319079Y496676D01*
X319007Y496662D01*
X318985Y496646D01*
X318959Y496638D01*
X318903Y496590D01*
X318843Y496549D01*
X318829Y496526D01*
X318808Y496508D01*
X318776Y496443D01*
X318736Y496382D01*
X318732Y496355D01*
X318720Y496330D01*
X318710Y496226D01*
X318703Y496185D01*
X318705Y496176D01*
X318704Y496165D01*
X319006Y492141D01*
X319014Y492110D01*
X319017Y492067D01*
X319915Y488133D01*
X319928Y488104D01*
X319937Y488061D01*
X321411Y484305D01*
X321428Y484278D01*
X321443Y484238D01*
X323461Y480743D01*
X323482Y480719D01*
X323503Y480681D01*
X326019Y477526D01*
X326044Y477506D01*
X326070Y477471D01*
X329028Y474727D01*
X329055Y474710D01*
X329087Y474680D01*
X332421Y472407D01*
X332450Y472394D01*
X332485Y472370D01*
X336121Y470619D01*
X336152Y470611D01*
X336191Y470591D01*
X340047Y469402D01*
X340078Y469399D01*
X340120Y469385D01*
X344110Y468784D01*
X344142Y468785D01*
X344184Y468778D01*
X348220Y468778D01*
X348251Y468785D01*
G37*
%LPC*%
G36*
X294847Y311500D02*
X294847Y311500D01*
X291475Y312897D01*
X288894Y315478D01*
X287497Y318850D01*
X287497Y322500D01*
X288894Y325872D01*
X291475Y328453D01*
X291899Y328629D01*
X291900Y328629D01*
X293124Y329136D01*
X294349Y329643D01*
X294847Y329850D01*
X298497Y329850D01*
X301869Y328453D01*
X304450Y325872D01*
X305847Y322500D01*
X305847Y318850D01*
X304450Y315478D01*
X301869Y312897D01*
X301695Y312825D01*
X300470Y312318D01*
X299246Y311810D01*
X298497Y311500D01*
X294847Y311500D01*
G37*
%LPD*%
D10*
X461596Y374106D03*
X478596Y374106D03*
D11*
X420760Y359144D03*
X420760Y378144D03*
D12*
X367654Y435764D02*
X367654Y437014D01*
X373404Y437014D01*
X373404Y435764D01*
X367654Y435764D01*
X367654Y436951D02*
X373404Y436951D01*
X367654Y432014D02*
X367654Y430764D01*
X367654Y432014D02*
X373404Y432014D01*
X373404Y430764D01*
X367654Y430764D01*
X367654Y431951D02*
X373404Y431951D01*
X367654Y427014D02*
X367654Y425764D01*
X367654Y427014D02*
X373404Y427014D01*
X373404Y425764D01*
X367654Y425764D01*
X367654Y426951D02*
X373404Y426951D01*
X367654Y422014D02*
X367654Y420764D01*
X367654Y422014D02*
X373404Y422014D01*
X373404Y420764D01*
X367654Y420764D01*
X367654Y421951D02*
X373404Y421951D01*
X367654Y417014D02*
X367654Y415764D01*
X367654Y417014D02*
X373404Y417014D01*
X373404Y415764D01*
X367654Y415764D01*
X367654Y416951D02*
X373404Y416951D01*
X367654Y412014D02*
X367654Y410764D01*
X367654Y412014D02*
X373404Y412014D01*
X373404Y410764D01*
X367654Y410764D01*
X367654Y411951D02*
X373404Y411951D01*
X367654Y407014D02*
X367654Y405764D01*
X367654Y407014D02*
X373404Y407014D01*
X373404Y405764D01*
X367654Y405764D01*
X367654Y406951D02*
X373404Y406951D01*
X367654Y402014D02*
X367654Y400764D01*
X367654Y402014D02*
X373404Y402014D01*
X373404Y400764D01*
X367654Y400764D01*
X367654Y401951D02*
X373404Y401951D01*
X367654Y397014D02*
X367654Y395764D01*
X367654Y397014D02*
X373404Y397014D01*
X373404Y395764D01*
X367654Y395764D01*
X367654Y396951D02*
X373404Y396951D01*
X367654Y392014D02*
X367654Y390764D01*
X367654Y392014D02*
X373404Y392014D01*
X373404Y390764D01*
X367654Y390764D01*
X367654Y391951D02*
X373404Y391951D01*
X367654Y387014D02*
X367654Y385764D01*
X367654Y387014D02*
X373404Y387014D01*
X373404Y385764D01*
X367654Y385764D01*
X367654Y386951D02*
X373404Y386951D01*
X367654Y382014D02*
X367654Y380764D01*
X367654Y382014D02*
X373404Y382014D01*
X373404Y380764D01*
X367654Y380764D01*
X367654Y381951D02*
X373404Y381951D01*
X364154Y377264D02*
X362904Y377264D01*
X364154Y377264D02*
X364154Y371514D01*
X362904Y371514D01*
X362904Y377264D01*
X362904Y372701D02*
X364154Y372701D01*
X364154Y373888D02*
X362904Y373888D01*
X362904Y375075D02*
X364154Y375075D01*
X364154Y376262D02*
X362904Y376262D01*
X359154Y377264D02*
X357904Y377264D01*
X359154Y377264D02*
X359154Y371514D01*
X357904Y371514D01*
X357904Y377264D01*
X357904Y372701D02*
X359154Y372701D01*
X359154Y373888D02*
X357904Y373888D01*
X357904Y375075D02*
X359154Y375075D01*
X359154Y376262D02*
X357904Y376262D01*
X354154Y377264D02*
X352904Y377264D01*
X354154Y377264D02*
X354154Y371514D01*
X352904Y371514D01*
X352904Y377264D01*
X352904Y372701D02*
X354154Y372701D01*
X354154Y373888D02*
X352904Y373888D01*
X352904Y375075D02*
X354154Y375075D01*
X354154Y376262D02*
X352904Y376262D01*
X349154Y377264D02*
X347904Y377264D01*
X349154Y377264D02*
X349154Y371514D01*
X347904Y371514D01*
X347904Y377264D01*
X347904Y372701D02*
X349154Y372701D01*
X349154Y373888D02*
X347904Y373888D01*
X347904Y375075D02*
X349154Y375075D01*
X349154Y376262D02*
X347904Y376262D01*
X344154Y377264D02*
X342904Y377264D01*
X344154Y377264D02*
X344154Y371514D01*
X342904Y371514D01*
X342904Y377264D01*
X342904Y372701D02*
X344154Y372701D01*
X344154Y373888D02*
X342904Y373888D01*
X342904Y375075D02*
X344154Y375075D01*
X344154Y376262D02*
X342904Y376262D01*
X339154Y377264D02*
X337904Y377264D01*
X339154Y377264D02*
X339154Y371514D01*
X337904Y371514D01*
X337904Y377264D01*
X337904Y372701D02*
X339154Y372701D01*
X339154Y373888D02*
X337904Y373888D01*
X337904Y375075D02*
X339154Y375075D01*
X339154Y376262D02*
X337904Y376262D01*
X334154Y377264D02*
X332904Y377264D01*
X334154Y377264D02*
X334154Y371514D01*
X332904Y371514D01*
X332904Y377264D01*
X332904Y372701D02*
X334154Y372701D01*
X334154Y373888D02*
X332904Y373888D01*
X332904Y375075D02*
X334154Y375075D01*
X334154Y376262D02*
X332904Y376262D01*
X329154Y377264D02*
X327904Y377264D01*
X329154Y377264D02*
X329154Y371514D01*
X327904Y371514D01*
X327904Y377264D01*
X327904Y372701D02*
X329154Y372701D01*
X329154Y373888D02*
X327904Y373888D01*
X327904Y375075D02*
X329154Y375075D01*
X329154Y376262D02*
X327904Y376262D01*
X324154Y377264D02*
X322904Y377264D01*
X324154Y377264D02*
X324154Y371514D01*
X322904Y371514D01*
X322904Y377264D01*
X322904Y372701D02*
X324154Y372701D01*
X324154Y373888D02*
X322904Y373888D01*
X322904Y375075D02*
X324154Y375075D01*
X324154Y376262D02*
X322904Y376262D01*
X319154Y377264D02*
X317904Y377264D01*
X319154Y377264D02*
X319154Y371514D01*
X317904Y371514D01*
X317904Y377264D01*
X317904Y372701D02*
X319154Y372701D01*
X319154Y373888D02*
X317904Y373888D01*
X317904Y375075D02*
X319154Y375075D01*
X319154Y376262D02*
X317904Y376262D01*
X314154Y377264D02*
X312904Y377264D01*
X314154Y377264D02*
X314154Y371514D01*
X312904Y371514D01*
X312904Y377264D01*
X312904Y372701D02*
X314154Y372701D01*
X314154Y373888D02*
X312904Y373888D01*
X312904Y375075D02*
X314154Y375075D01*
X314154Y376262D02*
X312904Y376262D01*
X309154Y377264D02*
X307904Y377264D01*
X309154Y377264D02*
X309154Y371514D01*
X307904Y371514D01*
X307904Y377264D01*
X307904Y372701D02*
X309154Y372701D01*
X309154Y373888D02*
X307904Y373888D01*
X307904Y375075D02*
X309154Y375075D01*
X309154Y376262D02*
X307904Y376262D01*
X304404Y380764D02*
X304404Y382014D01*
X304404Y380764D02*
X298654Y380764D01*
X298654Y382014D01*
X304404Y382014D01*
X304404Y381951D02*
X298654Y381951D01*
X304404Y385764D02*
X304404Y387014D01*
X304404Y385764D02*
X298654Y385764D01*
X298654Y387014D01*
X304404Y387014D01*
X304404Y386951D02*
X298654Y386951D01*
X304404Y390764D02*
X304404Y392014D01*
X304404Y390764D02*
X298654Y390764D01*
X298654Y392014D01*
X304404Y392014D01*
X304404Y391951D02*
X298654Y391951D01*
X304404Y395764D02*
X304404Y397014D01*
X304404Y395764D02*
X298654Y395764D01*
X298654Y397014D01*
X304404Y397014D01*
X304404Y396951D02*
X298654Y396951D01*
X304404Y400764D02*
X304404Y402014D01*
X304404Y400764D02*
X298654Y400764D01*
X298654Y402014D01*
X304404Y402014D01*
X304404Y401951D02*
X298654Y401951D01*
X304404Y405764D02*
X304404Y407014D01*
X304404Y405764D02*
X298654Y405764D01*
X298654Y407014D01*
X304404Y407014D01*
X304404Y406951D02*
X298654Y406951D01*
X304404Y410764D02*
X304404Y412014D01*
X304404Y410764D02*
X298654Y410764D01*
X298654Y412014D01*
X304404Y412014D01*
X304404Y411951D02*
X298654Y411951D01*
X304404Y415764D02*
X304404Y417014D01*
X304404Y415764D02*
X298654Y415764D01*
X298654Y417014D01*
X304404Y417014D01*
X304404Y416951D02*
X298654Y416951D01*
X304404Y420764D02*
X304404Y422014D01*
X304404Y420764D02*
X298654Y420764D01*
X298654Y422014D01*
X304404Y422014D01*
X304404Y421951D02*
X298654Y421951D01*
X304404Y425764D02*
X304404Y427014D01*
X304404Y425764D02*
X298654Y425764D01*
X298654Y427014D01*
X304404Y427014D01*
X304404Y426951D02*
X298654Y426951D01*
X304404Y430764D02*
X304404Y432014D01*
X304404Y430764D02*
X298654Y430764D01*
X298654Y432014D01*
X304404Y432014D01*
X304404Y431951D02*
X298654Y431951D01*
X304404Y435764D02*
X304404Y437014D01*
X304404Y435764D02*
X298654Y435764D01*
X298654Y437014D01*
X304404Y437014D01*
X304404Y436951D02*
X298654Y436951D01*
X307904Y440514D02*
X309154Y440514D01*
X307904Y440514D02*
X307904Y446264D01*
X309154Y446264D01*
X309154Y440514D01*
X309154Y441701D02*
X307904Y441701D01*
X307904Y442888D02*
X309154Y442888D01*
X309154Y444075D02*
X307904Y444075D01*
X307904Y445262D02*
X309154Y445262D01*
X312904Y440514D02*
X314154Y440514D01*
X312904Y440514D02*
X312904Y446264D01*
X314154Y446264D01*
X314154Y440514D01*
X314154Y441701D02*
X312904Y441701D01*
X312904Y442888D02*
X314154Y442888D01*
X314154Y444075D02*
X312904Y444075D01*
X312904Y445262D02*
X314154Y445262D01*
X317904Y440514D02*
X319154Y440514D01*
X317904Y440514D02*
X317904Y446264D01*
X319154Y446264D01*
X319154Y440514D01*
X319154Y441701D02*
X317904Y441701D01*
X317904Y442888D02*
X319154Y442888D01*
X319154Y444075D02*
X317904Y444075D01*
X317904Y445262D02*
X319154Y445262D01*
X322904Y440514D02*
X324154Y440514D01*
X322904Y440514D02*
X322904Y446264D01*
X324154Y446264D01*
X324154Y440514D01*
X324154Y441701D02*
X322904Y441701D01*
X322904Y442888D02*
X324154Y442888D01*
X324154Y444075D02*
X322904Y444075D01*
X322904Y445262D02*
X324154Y445262D01*
X327904Y440514D02*
X329154Y440514D01*
X327904Y440514D02*
X327904Y446264D01*
X329154Y446264D01*
X329154Y440514D01*
X329154Y441701D02*
X327904Y441701D01*
X327904Y442888D02*
X329154Y442888D01*
X329154Y444075D02*
X327904Y444075D01*
X327904Y445262D02*
X329154Y445262D01*
X332904Y440514D02*
X334154Y440514D01*
X332904Y440514D02*
X332904Y446264D01*
X334154Y446264D01*
X334154Y440514D01*
X334154Y441701D02*
X332904Y441701D01*
X332904Y442888D02*
X334154Y442888D01*
X334154Y444075D02*
X332904Y444075D01*
X332904Y445262D02*
X334154Y445262D01*
X337904Y440514D02*
X339154Y440514D01*
X337904Y440514D02*
X337904Y446264D01*
X339154Y446264D01*
X339154Y440514D01*
X339154Y441701D02*
X337904Y441701D01*
X337904Y442888D02*
X339154Y442888D01*
X339154Y444075D02*
X337904Y444075D01*
X337904Y445262D02*
X339154Y445262D01*
X342904Y440514D02*
X344154Y440514D01*
X342904Y440514D02*
X342904Y446264D01*
X344154Y446264D01*
X344154Y440514D01*
X344154Y441701D02*
X342904Y441701D01*
X342904Y442888D02*
X344154Y442888D01*
X344154Y444075D02*
X342904Y444075D01*
X342904Y445262D02*
X344154Y445262D01*
X347904Y440514D02*
X349154Y440514D01*
X347904Y440514D02*
X347904Y446264D01*
X349154Y446264D01*
X349154Y440514D01*
X349154Y441701D02*
X347904Y441701D01*
X347904Y442888D02*
X349154Y442888D01*
X349154Y444075D02*
X347904Y444075D01*
X347904Y445262D02*
X349154Y445262D01*
X352904Y440514D02*
X354154Y440514D01*
X352904Y440514D02*
X352904Y446264D01*
X354154Y446264D01*
X354154Y440514D01*
X354154Y441701D02*
X352904Y441701D01*
X352904Y442888D02*
X354154Y442888D01*
X354154Y444075D02*
X352904Y444075D01*
X352904Y445262D02*
X354154Y445262D01*
X357904Y440514D02*
X359154Y440514D01*
X357904Y440514D02*
X357904Y446264D01*
X359154Y446264D01*
X359154Y440514D01*
X359154Y441701D02*
X357904Y441701D01*
X357904Y442888D02*
X359154Y442888D01*
X359154Y444075D02*
X357904Y444075D01*
X357904Y445262D02*
X359154Y445262D01*
X362904Y440514D02*
X364154Y440514D01*
X362904Y440514D02*
X362904Y446264D01*
X364154Y446264D01*
X364154Y440514D01*
X364154Y441701D02*
X362904Y441701D01*
X362904Y442888D02*
X364154Y442888D01*
X364154Y444075D02*
X362904Y444075D01*
X362904Y445262D02*
X364154Y445262D01*
D13*
X336029Y408889D03*
D14*
X404970Y425494D03*
X404970Y413494D03*
X404970Y401494D03*
D11*
X269301Y441741D03*
X269301Y460741D03*
X264729Y367045D03*
X264729Y386045D03*
D15*
X400154Y365177D03*
X400154Y382177D03*
X290063Y441987D03*
X290063Y458987D03*
D10*
X387351Y463832D03*
X404351Y463832D03*
D15*
X287117Y370610D03*
X287117Y387610D03*
D10*
X387359Y443344D03*
X404359Y443344D03*
X441488Y365149D03*
X441488Y382149D03*
D16*
X235878Y344959D02*
X224878Y344959D01*
X224878Y349959D01*
X235878Y349959D01*
X235878Y344959D01*
X235878Y349709D02*
X224878Y349709D01*
X224878Y375397D02*
X235878Y375397D01*
X235878Y370397D01*
X224878Y370397D01*
X224878Y375397D01*
X224878Y375147D02*
X235878Y375147D01*
X364070Y456017D02*
X375070Y456017D01*
X375070Y451017D01*
X364070Y451017D01*
X364070Y456017D01*
X364070Y455767D02*
X375070Y455767D01*
X457827Y355255D02*
X468827Y355255D01*
X468827Y350255D01*
X457827Y350255D01*
X457827Y355255D01*
X457827Y355005D02*
X468827Y355005D01*
D17*
X428802Y489302D03*
X511402Y346202D03*
X428802Y203102D03*
X263602Y203102D03*
X181002Y346202D03*
X263602Y489302D03*
X470102Y417702D03*
X470102Y274702D03*
X222302Y274702D03*
X222302Y417702D03*
X346202Y489302D03*
D18*
X374876Y331679D02*
X374876Y326303D01*
X374876Y331679D02*
X375752Y331679D01*
X375752Y326303D01*
X374876Y326303D01*
X374876Y328797D02*
X375752Y328797D01*
X375752Y331291D02*
X374876Y331291D01*
X381376Y331679D02*
X381376Y326303D01*
X381376Y331679D02*
X382252Y331679D01*
X382252Y326303D01*
X381376Y326303D01*
X381376Y328797D02*
X382252Y328797D01*
X382252Y331291D02*
X381376Y331291D01*
X387876Y331679D02*
X387876Y326303D01*
X387876Y331679D02*
X388752Y331679D01*
X388752Y326303D01*
X387876Y326303D01*
X387876Y328797D02*
X388752Y328797D01*
X388752Y331291D02*
X387876Y331291D01*
X394376Y331679D02*
X394376Y326303D01*
X394376Y331679D02*
X395252Y331679D01*
X395252Y326303D01*
X394376Y326303D01*
X394376Y328797D02*
X395252Y328797D01*
X395252Y331291D02*
X394376Y331291D01*
X402376Y319179D02*
X407752Y319179D01*
X407752Y318303D01*
X402376Y318303D01*
X402376Y319179D01*
X402376Y312679D02*
X407752Y312679D01*
X407752Y311803D01*
X402376Y311803D01*
X402376Y312679D01*
X402376Y306179D02*
X407752Y306179D01*
X407752Y305303D01*
X402376Y305303D01*
X402376Y306179D01*
X402376Y299679D02*
X407752Y299679D01*
X407752Y298803D01*
X402376Y298803D01*
X402376Y299679D01*
X395252Y291679D02*
X395252Y286303D01*
X394376Y286303D01*
X394376Y291679D01*
X395252Y291679D01*
X395252Y288797D02*
X394376Y288797D01*
X394376Y291291D02*
X395252Y291291D01*
X388752Y291679D02*
X388752Y286303D01*
X387876Y286303D01*
X387876Y291679D01*
X388752Y291679D01*
X388752Y288797D02*
X387876Y288797D01*
X387876Y291291D02*
X388752Y291291D01*
X382252Y291679D02*
X382252Y286303D01*
X381376Y286303D01*
X381376Y291679D01*
X382252Y291679D01*
X382252Y288797D02*
X381376Y288797D01*
X381376Y291291D02*
X382252Y291291D01*
X375752Y291679D02*
X375752Y286303D01*
X374876Y286303D01*
X374876Y291679D01*
X375752Y291679D01*
X375752Y288797D02*
X374876Y288797D01*
X374876Y291291D02*
X375752Y291291D01*
X367752Y298803D02*
X362376Y298803D01*
X362376Y299679D01*
X367752Y299679D01*
X367752Y298803D01*
X367752Y305303D02*
X362376Y305303D01*
X362376Y306179D01*
X367752Y306179D01*
X367752Y305303D01*
X367752Y311803D02*
X362376Y311803D01*
X362376Y312679D01*
X367752Y312679D01*
X367752Y311803D01*
X367752Y318303D02*
X362376Y318303D01*
X362376Y319179D01*
X367752Y319179D01*
X367752Y318303D01*
D19*
X385064Y308991D03*
D15*
X331842Y296164D03*
X314842Y296164D03*
X314969Y274701D03*
X331969Y274701D03*
X369824Y223765D03*
X369824Y206765D03*
X334645Y221352D03*
X334645Y204352D03*
X334527Y238887D03*
X351527Y238887D03*
X389391Y226060D03*
X406391Y226060D03*
X404114Y267961D03*
X404114Y250961D03*
D10*
X428752Y316856D03*
X428752Y299856D03*
D15*
X364354Y276098D03*
X347354Y276098D03*
X383413Y267961D03*
X383413Y250961D03*
X350393Y333765D03*
X350393Y350765D03*
D11*
X329946Y328828D03*
X329946Y347828D03*
D20*
X271272Y320675D03*
D21*
X296672Y320675D03*
D22*
X288671Y205740D03*
D23*
X266240Y205740D01*
X263602Y203102D01*
D22*
X316389Y400149D03*
X317980Y427101D03*
D23*
X336029Y410159D02*
X336029Y408889D01*
X336029Y410159D02*
X314799Y431389D01*
X301529Y431389D01*
D22*
X254635Y341630D03*
D23*
X399542Y468641D02*
X404351Y463832D01*
X399542Y468641D02*
X399542Y473075D01*
D22*
X399542Y473075D03*
D23*
X404114Y250961D02*
X383413Y250961D01*
D22*
X365379Y265292D03*
D23*
X379710Y250961D01*
X383413Y250961D01*
X388314Y312241D02*
X388314Y328991D01*
X388314Y312241D02*
X385064Y308991D01*
X375314Y299241D02*
X365064Y299241D01*
X375314Y299241D02*
X385064Y308991D01*
D22*
X345440Y401320D03*
X356870Y401320D03*
D24*
X290063Y441987D02*
X269547Y441987D01*
X269301Y441741D01*
D23*
X304707Y370610D02*
X306516Y368801D01*
X304707Y370610D02*
X287117Y370610D01*
X268295Y370610D01*
X264729Y367045D01*
X329946Y328828D02*
X345456Y328828D01*
X350393Y333765D01*
X329946Y328828D02*
X326619Y328828D01*
X388314Y288991D02*
X388314Y272862D01*
X383413Y267961D01*
X394814Y277261D02*
X394814Y288991D01*
X394814Y277261D02*
X404114Y267961D01*
X394814Y288991D02*
X388314Y288991D01*
X394814Y288991D02*
X405064Y299241D01*
D22*
X367754Y441668D03*
D23*
X269301Y441741D02*
X254889Y456153D01*
X254889Y471678D01*
D22*
X254889Y471678D03*
D23*
X295661Y436389D02*
X301529Y436389D01*
X295661Y436389D02*
X290063Y441987D01*
D22*
X306516Y368801D03*
D23*
X355167Y328991D02*
X375314Y328991D01*
X355167Y328991D02*
X350393Y333765D01*
X258544Y430984D02*
X269301Y441741D01*
X258544Y430984D02*
X258544Y430619D01*
D22*
X258544Y430619D03*
D23*
X329946Y328828D02*
X333248Y325526D01*
X333248Y313436D01*
D22*
X333248Y313436D03*
X402209Y279781D03*
D23*
X402209Y269866D01*
X404114Y267961D01*
X306516Y368801D02*
X308529Y370814D01*
X308529Y374389D01*
X306516Y368801D02*
X306516Y348931D01*
X326619Y328828D01*
X387351Y443352D02*
X387351Y463832D01*
X387351Y443352D02*
X387359Y443344D01*
X380404Y436389D01*
X370529Y436389D01*
X367754Y439164D01*
X367754Y441668D01*
X366033Y443389D01*
X363529Y443389D01*
X400154Y365304D02*
X400154Y365177D01*
X400154Y365304D02*
X391852Y373606D01*
X391852Y388435D01*
X383897Y396389D01*
X370529Y396389D01*
D22*
X415417Y344043D03*
D23*
X400154Y359306D01*
X400154Y365177D01*
X414601Y365304D02*
X420760Y359144D01*
X414601Y365304D02*
X400154Y365304D01*
X387687Y416389D02*
X370529Y416389D01*
X396792Y425494D02*
X404970Y425494D01*
X396792Y425494D02*
X387687Y416389D01*
X387695Y411389D02*
X370529Y411389D01*
X397590Y401494D02*
X404970Y401494D01*
X397590Y401494D02*
X387695Y411389D01*
D24*
X343529Y443389D02*
X343529Y449574D01*
X347472Y453517D02*
X357251Y453517D01*
X369570Y453517D01*
X347472Y453517D02*
X343529Y449574D01*
D22*
X357251Y453517D03*
D23*
X370529Y406389D02*
X385603Y406389D01*
X400070Y391922D01*
X452374Y375793D02*
X454061Y374106D01*
X452374Y375793D02*
X452374Y386715D01*
X447167Y391922D01*
X400070Y391922D01*
X463327Y362585D02*
X463327Y352755D01*
D22*
X463327Y362585D03*
D23*
X463327Y372375D01*
X461596Y374106D01*
X454061Y374106D01*
X400154Y382177D02*
X400154Y385976D01*
X384741Y401389D01*
X370529Y401389D01*
X400154Y382177D02*
X404187Y378144D01*
X420760Y378144D01*
X437482Y378144D01*
X441488Y382149D01*
X308529Y443389D02*
X301691Y443389D01*
X300369Y444711D01*
D22*
X300369Y444711D03*
D23*
X241706Y372897D02*
X230378Y372897D01*
X241706Y372897D02*
X244475Y375666D01*
D22*
X244475Y375666D03*
D23*
X370529Y375355D02*
X370529Y381389D01*
X370529Y375355D02*
X370459Y375285D01*
D22*
X370459Y375285D03*
D23*
X358529Y374389D02*
X358529Y364964D01*
X367894Y355600D01*
X393573Y355600D01*
X416306Y332867D01*
D22*
X477520Y305943D03*
D23*
X450596Y332867D01*
X416306Y332867D01*
X323529Y365058D02*
X323529Y374389D01*
X323529Y365058D02*
X323469Y364998D01*
D22*
X323469Y364998D03*
D23*
X370529Y391389D02*
X379344Y391389D01*
X381429Y389303D01*
D22*
X381429Y389303D03*
D23*
X318529Y443389D02*
X318529Y453657D01*
X331597Y466725D01*
D22*
X331597Y466725D03*
X381762Y364109D03*
D23*
X377162Y368709D02*
X367735Y368709D01*
X377162Y368709D02*
X381762Y364109D01*
X363529Y372915D02*
X363529Y374389D01*
X363529Y372915D02*
X367735Y368709D01*
D22*
X466598Y389763D03*
D23*
X470102Y393267D01*
X470102Y417702D01*
X353529Y374389D02*
X353529Y362569D01*
X364817Y351282D01*
X391509Y351282D02*
X413988Y328803D01*
X448818Y328803D01*
X391509Y351282D02*
X364817Y351282D01*
X470102Y307519D02*
X470102Y274702D01*
X470102Y307519D02*
X448818Y328803D01*
X318529Y370472D02*
X318529Y374389D01*
X318529Y370472D02*
X315087Y367030D01*
X315087Y360063D01*
X315105Y360045D01*
D22*
X315105Y360045D03*
X246507Y287655D03*
D23*
X235255Y287655D01*
X222302Y274702D01*
X370529Y386389D02*
X374722Y386389D01*
X380261Y380850D01*
X385064Y380850D01*
D22*
X385064Y380850D03*
X240792Y451104D03*
D23*
X240792Y436192D01*
X222302Y417702D01*
X323529Y443389D02*
X323529Y447735D01*
X346202Y470408D02*
X346202Y489302D01*
X346202Y470408D02*
X323529Y447735D01*
X348529Y374389D02*
X348529Y367325D01*
X342392Y361188D01*
D22*
X342392Y361188D03*
D23*
X301529Y416389D02*
X273768Y416389D01*
D22*
X269677Y406273D03*
D23*
X269677Y412298D02*
X273768Y416389D01*
D22*
X352769Y321400D03*
D23*
X355428Y318741D01*
X365064Y318741D01*
X269677Y406273D02*
X269677Y412298D01*
X287779Y421389D02*
X301529Y421389D01*
X287779Y421389D02*
X286004Y423164D01*
D22*
X286004Y423164D03*
D23*
X394814Y337849D02*
X394814Y328991D01*
X394814Y337849D02*
X394589Y338074D01*
D22*
X394589Y338074D03*
D23*
X341419Y305741D02*
X331842Y296164D01*
X341419Y305741D02*
X365064Y305741D01*
X331842Y296164D02*
X331842Y274828D01*
X331969Y274701D01*
X334527Y221470D02*
X334645Y221352D01*
X334527Y221470D02*
X334527Y238887D01*
D22*
X342191Y265292D03*
D23*
X342191Y243376D01*
X337702Y238887D01*
X334527Y238887D01*
X369706Y223647D02*
X369824Y223765D01*
D22*
X397256Y235994D03*
D23*
X397256Y229226D01*
X394090Y226060D01*
X389391Y226060D01*
X386978Y223647D01*
X369706Y223647D01*
X355210Y242570D02*
X411480Y242570D01*
X355210Y242570D02*
X351527Y238887D01*
X411480Y242570D02*
X414655Y245745D01*
X414655Y299847D01*
X408761Y305741D02*
X405064Y305741D01*
X408761Y305741D02*
X414655Y299847D01*
X409881Y312241D02*
X405064Y312241D01*
X406391Y228092D02*
X406391Y226060D01*
X418874Y303248D02*
X409881Y312241D01*
X418874Y303248D02*
X418874Y240575D01*
X406391Y228092D01*
X428752Y316856D02*
X426847Y318761D01*
X405084Y318761D01*
X405064Y318741D01*
X376682Y276098D02*
X364354Y276098D01*
X381814Y281230D02*
X381814Y288991D01*
X381814Y281230D02*
X376682Y276098D01*
D22*
X428752Y273177D03*
D23*
X428752Y299856D01*
D22*
X347091Y295783D03*
D23*
X347091Y276361D01*
X347354Y276098D01*
X301529Y411389D02*
X284262Y411389D01*
D22*
X274193Y398018D03*
D23*
X274193Y401320D02*
X284262Y411389D01*
X274193Y401320D02*
X274193Y398018D01*
D22*
X351536Y312317D03*
D23*
X351612Y312241D02*
X365064Y312241D01*
X351612Y312241D02*
X351536Y312317D01*
X301529Y406389D02*
X292851Y406389D01*
X288036Y401574D01*
D22*
X288036Y401574D03*
D23*
X381814Y332815D02*
X381814Y328991D01*
X378587Y336042D02*
X368300Y336042D01*
X364617Y339725D01*
D22*
X364617Y339725D03*
D23*
X378587Y336042D02*
X381814Y332815D01*
X314842Y296164D02*
X307476Y303530D01*
X283210Y303530D01*
X271272Y315468D01*
X271272Y320675D01*
D22*
X320929Y285507D03*
D23*
X314842Y291594D01*
X314842Y296164D01*
X301529Y426389D02*
X298019Y426389D01*
X291973Y432435D01*
X272923Y432435D01*
X251079Y410591D01*
X251079Y357124D01*
X241414Y347459D02*
X230378Y347459D01*
X244412Y350457D02*
X251079Y357124D01*
X244412Y350457D02*
X241414Y347459D01*
D22*
X244412Y350457D03*
M02*
