G04 EAGLE Gerber RS-274X export*
G75*
%MOMM*%
%FSLAX34Y34*%
%LPD*%
%IN*%
%IPPOS*%
%AMOC8*
5,1,8,0,0,1.08239X$1,22.5*%
G01*
%ADD10C,0.254000*%


D10*
X-249238Y0D02*
X261938Y0D01*
X261938Y227013D01*
X-249238Y227013D01*
X-249238Y0D01*
X-207491Y132300D02*
X-207919Y132368D01*
X-208331Y132501D01*
X-208716Y132698D01*
X-209067Y132952D01*
X-209373Y133259D01*
X-209627Y133609D01*
X-209824Y133994D01*
X-209957Y134406D01*
X-210025Y134834D01*
X-210025Y135266D01*
X-209957Y135694D01*
X-209824Y136106D01*
X-209627Y136491D01*
X-209373Y136842D01*
X-209067Y137148D01*
X-208716Y137402D01*
X-208331Y137599D01*
X-207919Y137732D01*
X-207491Y137800D01*
X-207059Y137800D01*
X-206631Y137732D01*
X-206219Y137599D01*
X-205834Y137402D01*
X-205484Y137148D01*
X-205177Y136842D01*
X-204923Y136491D01*
X-204726Y136106D01*
X-204593Y135694D01*
X-204525Y135266D01*
X-204525Y134834D01*
X-204593Y134406D01*
X-204726Y133994D01*
X-204923Y133609D01*
X-205177Y133259D01*
X-205484Y132952D01*
X-205834Y132698D01*
X-206219Y132501D01*
X-206631Y132368D01*
X-207059Y132300D01*
X-207491Y132300D01*
X-207491Y90800D02*
X-207919Y90868D01*
X-208331Y91001D01*
X-208716Y91198D01*
X-209067Y91452D01*
X-209373Y91759D01*
X-209627Y92109D01*
X-209824Y92494D01*
X-209957Y92906D01*
X-210025Y93334D01*
X-210025Y93766D01*
X-209957Y94194D01*
X-209824Y94606D01*
X-209627Y94991D01*
X-209373Y95342D01*
X-209067Y95648D01*
X-208716Y95902D01*
X-208331Y96099D01*
X-207919Y96232D01*
X-207491Y96300D01*
X-207059Y96300D01*
X-206631Y96232D01*
X-206219Y96099D01*
X-205834Y95902D01*
X-205484Y95648D01*
X-205177Y95342D01*
X-204923Y94991D01*
X-204726Y94606D01*
X-204593Y94194D01*
X-204525Y93766D01*
X-204525Y93334D01*
X-204593Y92906D01*
X-204726Y92494D01*
X-204923Y92109D01*
X-205177Y91759D01*
X-205484Y91452D01*
X-205834Y91198D01*
X-206219Y91001D01*
X-206631Y90868D01*
X-207059Y90800D01*
X-207491Y90800D01*
M02*
