G04 EAGLE Gerber RS-274X export*
G75*
%MOMM*%
%FSLAX34Y34*%
%LPD*%
%INSoldermask Bottom*%
%IPPOS*%
%AMOC8*
5,1,8,0,0,1.08239X$1,22.5*%
G01*
%ADD10R,1.201600X1.101600*%
%ADD11R,1.601600X1.401600*%
%ADD12C,0.225016*%
%ADD13R,5.801588X5.801588*%
%ADD14R,1.501597X0.501600*%
%ADD15R,1.101600X1.201600*%
%ADD16C,0.605878*%
%ADD17C,1.101600*%
%ADD18C,0.365794*%
%ADD19R,2.251600X2.251600*%
%ADD20R,1.631600X1.631600*%
%ADD21C,1.631600*%

G36*
X347640Y478768D02*
X347640Y478768D01*
X347688Y478768D01*
X350457Y479230D01*
X350490Y479242D01*
X350537Y479250D01*
X353193Y480162D01*
X353223Y480179D01*
X353268Y480195D01*
X355738Y481531D01*
X355764Y481553D01*
X355807Y481576D01*
X358022Y483301D01*
X358045Y483327D01*
X358083Y483357D01*
X359985Y485422D01*
X360003Y485452D01*
X360035Y485487D01*
X361571Y487838D01*
X361584Y487870D01*
X361610Y487910D01*
X362738Y490482D01*
X362745Y490515D01*
X362765Y490560D01*
X363454Y493281D01*
X363456Y493316D01*
X363468Y493363D01*
X363700Y496161D01*
X363696Y496190D01*
X363701Y496219D01*
X363685Y496288D01*
X363676Y496358D01*
X363662Y496384D01*
X363655Y496412D01*
X363613Y496469D01*
X363578Y496531D01*
X363554Y496549D01*
X363537Y496572D01*
X363476Y496608D01*
X363419Y496651D01*
X363391Y496659D01*
X363366Y496674D01*
X363268Y496690D01*
X363227Y496701D01*
X363216Y496699D01*
X363202Y496701D01*
X329202Y496701D01*
X329173Y496695D01*
X329144Y496698D01*
X329077Y496676D01*
X329007Y496662D01*
X328983Y496645D01*
X328955Y496636D01*
X328902Y496589D01*
X328843Y496549D01*
X328828Y496525D01*
X328806Y496505D01*
X328774Y496441D01*
X328736Y496382D01*
X328731Y496353D01*
X328719Y496327D01*
X328710Y496227D01*
X328703Y496185D01*
X328706Y496175D01*
X328704Y496161D01*
X328936Y493363D01*
X328946Y493329D01*
X328950Y493281D01*
X329639Y490560D01*
X329654Y490528D01*
X329666Y490482D01*
X330794Y487910D01*
X330814Y487882D01*
X330833Y487838D01*
X332369Y485487D01*
X332393Y485463D01*
X332419Y485422D01*
X334321Y483357D01*
X334349Y483336D01*
X334382Y483301D01*
X336597Y481576D01*
X336628Y481561D01*
X336666Y481531D01*
X339136Y480195D01*
X339169Y480185D01*
X339211Y480162D01*
X341867Y479250D01*
X341901Y479246D01*
X341947Y479230D01*
X344716Y478768D01*
X344751Y478769D01*
X344798Y478761D01*
X347606Y478761D01*
X347640Y478768D01*
G37*
G36*
X224809Y256012D02*
X224809Y256012D01*
X224880Y256009D01*
X224907Y256019D01*
X224936Y256021D01*
X225026Y256063D01*
X225066Y256078D01*
X225074Y256086D01*
X225087Y256092D01*
X227390Y257691D01*
X227414Y257717D01*
X227454Y257744D01*
X229463Y259701D01*
X229482Y259730D01*
X229517Y259763D01*
X231176Y262024D01*
X231191Y262055D01*
X231220Y262094D01*
X232484Y264597D01*
X232493Y264631D01*
X232515Y264674D01*
X233351Y267351D01*
X233354Y267385D01*
X233369Y267431D01*
X233752Y270210D01*
X233750Y270244D01*
X233756Y270292D01*
X233677Y273095D01*
X233669Y273129D01*
X233668Y273177D01*
X233129Y275929D01*
X233115Y275961D01*
X233106Y276009D01*
X232121Y278634D01*
X232106Y278659D01*
X232101Y278679D01*
X232093Y278690D01*
X232086Y278709D01*
X230682Y281137D01*
X230659Y281163D01*
X230635Y281205D01*
X228851Y283368D01*
X228824Y283390D01*
X228793Y283427D01*
X226677Y285268D01*
X226647Y285285D01*
X226611Y285317D01*
X224220Y286784D01*
X224188Y286795D01*
X224147Y286821D01*
X221548Y287874D01*
X221514Y287881D01*
X221469Y287899D01*
X218732Y288510D01*
X218697Y288511D01*
X218650Y288522D01*
X215850Y288674D01*
X215816Y288669D01*
X215768Y288672D01*
X212980Y288362D01*
X212947Y288351D01*
X212899Y288346D01*
X210201Y287581D01*
X210171Y287565D01*
X210124Y287552D01*
X207589Y286353D01*
X207565Y286336D01*
X207538Y286326D01*
X207486Y286277D01*
X207429Y286234D01*
X207415Y286209D01*
X207394Y286189D01*
X207365Y286124D01*
X207329Y286063D01*
X207326Y286034D01*
X207314Y286007D01*
X207313Y285936D01*
X207304Y285865D01*
X207312Y285837D01*
X207312Y285808D01*
X207346Y285715D01*
X207358Y285674D01*
X207365Y285665D01*
X207370Y285652D01*
X224370Y256252D01*
X224389Y256230D01*
X224402Y256204D01*
X224455Y256156D01*
X224502Y256103D01*
X224528Y256091D01*
X224550Y256071D01*
X224617Y256048D01*
X224681Y256018D01*
X224710Y256016D01*
X224738Y256007D01*
X224809Y256012D01*
G37*
G36*
X476588Y403735D02*
X476588Y403735D01*
X476636Y403732D01*
X479424Y404042D01*
X479457Y404053D01*
X479505Y404058D01*
X482203Y404823D01*
X482233Y404839D01*
X482280Y404852D01*
X484815Y406051D01*
X484839Y406068D01*
X484866Y406078D01*
X484918Y406127D01*
X484975Y406170D01*
X484989Y406195D01*
X485011Y406215D01*
X485039Y406280D01*
X485075Y406342D01*
X485078Y406370D01*
X485090Y406397D01*
X485091Y406468D01*
X485100Y406539D01*
X485092Y406567D01*
X485092Y406596D01*
X485058Y406689D01*
X485046Y406730D01*
X485039Y406739D01*
X485034Y406752D01*
X468034Y436152D01*
X468015Y436174D01*
X468002Y436200D01*
X467949Y436248D01*
X467902Y436301D01*
X467876Y436313D01*
X467854Y436333D01*
X467787Y436356D01*
X467723Y436386D01*
X467694Y436388D01*
X467666Y436397D01*
X467595Y436392D01*
X467524Y436395D01*
X467497Y436385D01*
X467468Y436383D01*
X467378Y436341D01*
X467338Y436326D01*
X467330Y436318D01*
X467317Y436312D01*
X465014Y434713D01*
X464990Y434688D01*
X464950Y434660D01*
X462941Y432703D01*
X462922Y432674D01*
X462887Y432641D01*
X461228Y430380D01*
X461213Y430349D01*
X461184Y430310D01*
X459920Y427807D01*
X459911Y427773D01*
X459889Y427730D01*
X459053Y425053D01*
X459050Y425019D01*
X459035Y424973D01*
X458652Y422194D01*
X458654Y422160D01*
X458648Y422112D01*
X458727Y419309D01*
X458735Y419275D01*
X458736Y419227D01*
X459275Y416475D01*
X459289Y416443D01*
X459298Y416395D01*
X460283Y413770D01*
X460301Y413740D01*
X460318Y413695D01*
X461722Y411267D01*
X461745Y411241D01*
X461769Y411200D01*
X463553Y409036D01*
X463580Y409014D01*
X463611Y408977D01*
X465727Y407136D01*
X465757Y407119D01*
X465793Y407088D01*
X468184Y405620D01*
X468216Y405609D01*
X468257Y405583D01*
X470856Y404530D01*
X470890Y404523D01*
X470935Y404505D01*
X473672Y403894D01*
X473707Y403893D01*
X473754Y403882D01*
X476554Y403730D01*
X476588Y403735D01*
G37*
G36*
X467628Y256013D02*
X467628Y256013D01*
X467699Y256012D01*
X467726Y256023D01*
X467755Y256027D01*
X467817Y256061D01*
X467882Y256089D01*
X467903Y256110D01*
X467928Y256124D01*
X467991Y256200D01*
X468021Y256231D01*
X468025Y256241D01*
X468034Y256252D01*
X485034Y285652D01*
X485043Y285680D01*
X485060Y285704D01*
X485075Y285773D01*
X485097Y285841D01*
X485095Y285870D01*
X485101Y285898D01*
X485088Y285968D01*
X485082Y286039D01*
X485069Y286065D01*
X485063Y286093D01*
X485023Y286152D01*
X484991Y286215D01*
X484968Y286234D01*
X484952Y286258D01*
X484870Y286315D01*
X484837Y286342D01*
X484827Y286345D01*
X484815Y286353D01*
X482280Y287552D01*
X482246Y287560D01*
X482203Y287581D01*
X479505Y288346D01*
X479470Y288348D01*
X479424Y288362D01*
X476636Y288672D01*
X476602Y288669D01*
X476554Y288674D01*
X473754Y288522D01*
X473720Y288513D01*
X473672Y288510D01*
X470935Y287899D01*
X470903Y287885D01*
X470856Y287874D01*
X468257Y286821D01*
X468228Y286802D01*
X468184Y286784D01*
X465793Y285317D01*
X465768Y285293D01*
X465727Y285268D01*
X463611Y283427D01*
X463590Y283400D01*
X463553Y283368D01*
X461769Y281205D01*
X461753Y281174D01*
X461722Y281137D01*
X460318Y278709D01*
X460307Y278676D01*
X460300Y278663D01*
X460290Y278649D01*
X460290Y278646D01*
X460283Y278634D01*
X459298Y276009D01*
X459292Y275974D01*
X459275Y275929D01*
X458736Y273177D01*
X458736Y273143D01*
X458727Y273095D01*
X458648Y270292D01*
X458654Y270258D01*
X458652Y270210D01*
X459035Y267431D01*
X459047Y267399D01*
X459053Y267351D01*
X459889Y264674D01*
X459906Y264643D01*
X459920Y264597D01*
X461184Y262094D01*
X461206Y262067D01*
X461228Y262024D01*
X462887Y259763D01*
X462913Y259740D01*
X462941Y259701D01*
X464950Y257744D01*
X464979Y257725D01*
X465014Y257691D01*
X467317Y256092D01*
X467344Y256080D01*
X467367Y256062D01*
X467435Y256041D01*
X467500Y256013D01*
X467529Y256013D01*
X467557Y256005D01*
X467628Y256013D01*
G37*
G36*
X218650Y403882D02*
X218650Y403882D01*
X218684Y403891D01*
X218732Y403894D01*
X221469Y404505D01*
X221501Y404519D01*
X221548Y404530D01*
X224147Y405583D01*
X224176Y405602D01*
X224220Y405620D01*
X226611Y407088D01*
X226636Y407111D01*
X226677Y407136D01*
X228793Y408977D01*
X228814Y409004D01*
X228851Y409036D01*
X230635Y411200D01*
X230651Y411230D01*
X230682Y411267D01*
X232086Y413695D01*
X232097Y413728D01*
X232121Y413770D01*
X233106Y416395D01*
X233112Y416430D01*
X233129Y416475D01*
X233668Y419227D01*
X233668Y419262D01*
X233677Y419309D01*
X233756Y422112D01*
X233751Y422146D01*
X233752Y422194D01*
X233369Y424973D01*
X233357Y425005D01*
X233351Y425053D01*
X232515Y427730D01*
X232498Y427761D01*
X232484Y427807D01*
X231220Y430310D01*
X231198Y430337D01*
X231176Y430380D01*
X229517Y432641D01*
X229491Y432664D01*
X229463Y432703D01*
X227454Y434660D01*
X227425Y434679D01*
X227390Y434713D01*
X225087Y436312D01*
X225060Y436324D01*
X225037Y436342D01*
X224969Y436363D01*
X224904Y436391D01*
X224875Y436391D01*
X224847Y436399D01*
X224776Y436391D01*
X224705Y436392D01*
X224678Y436381D01*
X224649Y436377D01*
X224587Y436343D01*
X224522Y436315D01*
X224501Y436294D01*
X224476Y436280D01*
X224413Y436204D01*
X224383Y436173D01*
X224379Y436163D01*
X224370Y436152D01*
X207370Y406752D01*
X207361Y406724D01*
X207344Y406700D01*
X207329Y406631D01*
X207307Y406563D01*
X207309Y406534D01*
X207303Y406506D01*
X207316Y406436D01*
X207322Y406365D01*
X207335Y406339D01*
X207341Y406311D01*
X207381Y406252D01*
X207413Y406189D01*
X207436Y406170D01*
X207452Y406146D01*
X207534Y406089D01*
X207567Y406062D01*
X207577Y406059D01*
X207589Y406051D01*
X210124Y404852D01*
X210158Y404844D01*
X210201Y404823D01*
X212899Y404058D01*
X212934Y404056D01*
X212980Y404042D01*
X215768Y403732D01*
X215802Y403735D01*
X215850Y403730D01*
X218650Y403882D01*
G37*
G36*
X509929Y329213D02*
X509929Y329213D01*
X510000Y329213D01*
X510027Y329224D01*
X510056Y329227D01*
X510118Y329262D01*
X510183Y329290D01*
X510204Y329310D01*
X510229Y329325D01*
X510292Y329402D01*
X510322Y329432D01*
X510326Y329442D01*
X510335Y329453D01*
X519835Y345953D01*
X519845Y345985D01*
X519854Y345998D01*
X519858Y346022D01*
X519859Y346026D01*
X519890Y346096D01*
X519890Y346120D01*
X519898Y346142D01*
X519892Y346218D01*
X519893Y346295D01*
X519883Y346319D01*
X519882Y346340D01*
X519861Y346379D01*
X519835Y346451D01*
X510335Y362951D01*
X510316Y362973D01*
X510303Y362999D01*
X510250Y363047D01*
X510203Y363100D01*
X510177Y363113D01*
X510156Y363132D01*
X510088Y363155D01*
X510024Y363186D01*
X509995Y363188D01*
X509968Y363197D01*
X509896Y363192D01*
X509825Y363195D01*
X509798Y363185D01*
X509769Y363183D01*
X509679Y363141D01*
X509639Y363126D01*
X509631Y363119D01*
X509618Y363113D01*
X507095Y361371D01*
X507071Y361347D01*
X507033Y361320D01*
X504821Y359196D01*
X504802Y359168D01*
X504768Y359136D01*
X502926Y356685D01*
X502912Y356654D01*
X502883Y356617D01*
X501458Y353902D01*
X501449Y353871D01*
X501433Y353846D01*
X501432Y353838D01*
X501427Y353828D01*
X500456Y350920D01*
X500452Y350886D01*
X500437Y350842D01*
X499945Y347815D01*
X499946Y347781D01*
X499938Y347735D01*
X499938Y344669D01*
X499939Y344665D01*
X499939Y344663D01*
X499945Y344636D01*
X499945Y344589D01*
X500437Y341562D01*
X500449Y341531D01*
X500456Y341484D01*
X501427Y338576D01*
X501444Y338547D01*
X501458Y338502D01*
X502883Y335787D01*
X502905Y335761D01*
X502926Y335719D01*
X504768Y333268D01*
X504793Y333245D01*
X504821Y333208D01*
X507033Y331084D01*
X507061Y331066D01*
X507095Y331033D01*
X509618Y329291D01*
X509645Y329280D01*
X509667Y329261D01*
X509736Y329241D01*
X509801Y329213D01*
X509830Y329213D01*
X509858Y329205D01*
X509929Y329213D01*
G37*
G36*
X182508Y329212D02*
X182508Y329212D01*
X182579Y329209D01*
X182606Y329219D01*
X182635Y329221D01*
X182725Y329263D01*
X182765Y329278D01*
X182773Y329285D01*
X182786Y329291D01*
X185309Y331033D01*
X185333Y331057D01*
X185371Y331084D01*
X187583Y333208D01*
X187602Y333236D01*
X187636Y333268D01*
X189478Y335719D01*
X189492Y335750D01*
X189521Y335787D01*
X190946Y338502D01*
X190955Y338535D01*
X190977Y338576D01*
X191948Y341484D01*
X191952Y341518D01*
X191967Y341562D01*
X192459Y344589D01*
X192458Y344623D01*
X192466Y344669D01*
X192466Y347735D01*
X192459Y347768D01*
X192459Y347815D01*
X191967Y350842D01*
X191955Y350873D01*
X191948Y350920D01*
X190977Y353828D01*
X190964Y353851D01*
X190958Y353876D01*
X190951Y353885D01*
X190946Y353902D01*
X189521Y356617D01*
X189499Y356643D01*
X189478Y356685D01*
X187636Y359136D01*
X187611Y359159D01*
X187583Y359196D01*
X185371Y361320D01*
X185343Y361338D01*
X185309Y361371D01*
X182786Y363113D01*
X182759Y363124D01*
X182737Y363143D01*
X182668Y363163D01*
X182603Y363191D01*
X182574Y363191D01*
X182546Y363199D01*
X182475Y363191D01*
X182404Y363192D01*
X182377Y363180D01*
X182348Y363177D01*
X182286Y363142D01*
X182221Y363114D01*
X182200Y363094D01*
X182175Y363079D01*
X182112Y363002D01*
X182082Y362972D01*
X182078Y362962D01*
X182069Y362951D01*
X172569Y346451D01*
X172545Y346378D01*
X172514Y346308D01*
X172514Y346284D01*
X172506Y346262D01*
X172513Y346186D01*
X172512Y346109D01*
X172521Y346085D01*
X172522Y346064D01*
X172543Y346025D01*
X172562Y345973D01*
X172563Y345967D01*
X172565Y345965D01*
X172569Y345953D01*
X182069Y329453D01*
X182088Y329431D01*
X182101Y329405D01*
X182154Y329357D01*
X182201Y329304D01*
X182227Y329291D01*
X182249Y329272D01*
X182316Y329249D01*
X182380Y329218D01*
X182409Y329217D01*
X182436Y329207D01*
X182508Y329212D01*
G37*
G36*
X432878Y195718D02*
X432878Y195718D01*
X432956Y195727D01*
X432975Y195738D01*
X432997Y195742D01*
X433061Y195786D01*
X433129Y195825D01*
X433145Y195844D01*
X433161Y195855D01*
X433185Y195893D01*
X433235Y195953D01*
X442735Y212453D01*
X442744Y212480D01*
X442760Y212504D01*
X442775Y212574D01*
X442798Y212642D01*
X442795Y212670D01*
X442801Y212698D01*
X442788Y212769D01*
X442782Y212840D01*
X442769Y212865D01*
X442763Y212893D01*
X442723Y212953D01*
X442690Y213016D01*
X442668Y213034D01*
X442652Y213058D01*
X442569Y213116D01*
X442537Y213143D01*
X442526Y213146D01*
X442516Y213153D01*
X439750Y214462D01*
X439717Y214470D01*
X439674Y214490D01*
X436734Y215338D01*
X436700Y215341D01*
X436656Y215354D01*
X433618Y215719D01*
X433584Y215716D01*
X433537Y215722D01*
X430480Y215595D01*
X430447Y215587D01*
X430400Y215586D01*
X427403Y214970D01*
X427372Y214957D01*
X427326Y214948D01*
X424466Y213859D01*
X424438Y213841D01*
X424394Y213825D01*
X421746Y212291D01*
X421720Y212269D01*
X421680Y212246D01*
X419312Y210308D01*
X419290Y210281D01*
X419254Y210252D01*
X417227Y207959D01*
X417211Y207930D01*
X417179Y207895D01*
X415547Y205307D01*
X415535Y205275D01*
X415510Y205236D01*
X414314Y202419D01*
X414307Y202386D01*
X414304Y202379D01*
X414300Y202373D01*
X414299Y202367D01*
X414288Y202343D01*
X413560Y199371D01*
X413558Y199337D01*
X413547Y199292D01*
X413304Y196242D01*
X413308Y196213D01*
X413303Y196185D01*
X413320Y196116D01*
X413328Y196044D01*
X413343Y196020D01*
X413349Y195992D01*
X413392Y195934D01*
X413428Y195872D01*
X413450Y195855D01*
X413467Y195832D01*
X413529Y195795D01*
X413586Y195752D01*
X413614Y195745D01*
X413638Y195730D01*
X413738Y195714D01*
X413779Y195703D01*
X413789Y195705D01*
X413802Y195703D01*
X432802Y195703D01*
X432878Y195718D01*
G37*
G36*
X433571Y476687D02*
X433571Y476687D01*
X433618Y476685D01*
X436656Y477050D01*
X436688Y477061D01*
X436734Y477066D01*
X439674Y477914D01*
X439704Y477930D01*
X439750Y477942D01*
X442516Y479251D01*
X442538Y479268D01*
X442565Y479278D01*
X442617Y479327D01*
X442675Y479370D01*
X442689Y479395D01*
X442710Y479414D01*
X442739Y479480D01*
X442775Y479542D01*
X442778Y479570D01*
X442790Y479596D01*
X442791Y479668D01*
X442800Y479739D01*
X442792Y479766D01*
X442793Y479795D01*
X442757Y479890D01*
X442746Y479930D01*
X442739Y479939D01*
X442735Y479951D01*
X433235Y496451D01*
X433183Y496510D01*
X433137Y496572D01*
X433118Y496583D01*
X433103Y496600D01*
X433033Y496634D01*
X432966Y496674D01*
X432942Y496678D01*
X432924Y496686D01*
X432879Y496688D01*
X432802Y496701D01*
X413802Y496701D01*
X413774Y496696D01*
X413746Y496698D01*
X413678Y496676D01*
X413607Y496662D01*
X413584Y496646D01*
X413557Y496637D01*
X413502Y496590D01*
X413443Y496549D01*
X413428Y496525D01*
X413407Y496507D01*
X413375Y496442D01*
X413336Y496382D01*
X413331Y496354D01*
X413319Y496328D01*
X413310Y496227D01*
X413303Y496185D01*
X413305Y496175D01*
X413304Y496162D01*
X413547Y493112D01*
X413556Y493080D01*
X413560Y493033D01*
X414288Y490061D01*
X414303Y490030D01*
X414314Y489985D01*
X415510Y487168D01*
X415529Y487140D01*
X415547Y487097D01*
X417179Y484509D01*
X417203Y484485D01*
X417227Y484445D01*
X419254Y482152D01*
X419281Y482132D01*
X419312Y482096D01*
X421680Y480158D01*
X421710Y480142D01*
X421746Y480113D01*
X424394Y478580D01*
X424426Y478569D01*
X424466Y478545D01*
X427326Y477457D01*
X427359Y477451D01*
X427403Y477434D01*
X430400Y476818D01*
X430434Y476818D01*
X430480Y476809D01*
X433537Y476682D01*
X433571Y476687D01*
G37*
G36*
X278630Y195708D02*
X278630Y195708D01*
X278658Y195706D01*
X278726Y195728D01*
X278797Y195742D01*
X278820Y195758D01*
X278847Y195767D01*
X278902Y195814D01*
X278961Y195855D01*
X278976Y195879D01*
X278998Y195897D01*
X279029Y195962D01*
X279068Y196022D01*
X279073Y196050D01*
X279085Y196076D01*
X279094Y196177D01*
X279101Y196219D01*
X279099Y196229D01*
X279100Y196242D01*
X278857Y199292D01*
X278848Y199324D01*
X278844Y199371D01*
X278116Y202343D01*
X278101Y202374D01*
X278090Y202419D01*
X276894Y205236D01*
X276875Y205264D01*
X276857Y205307D01*
X275225Y207895D01*
X275201Y207919D01*
X275177Y207959D01*
X273150Y210252D01*
X273123Y210272D01*
X273092Y210308D01*
X270725Y212246D01*
X270694Y212262D01*
X270658Y212291D01*
X268010Y213825D01*
X267978Y213835D01*
X267938Y213859D01*
X265078Y214948D01*
X265045Y214953D01*
X265001Y214970D01*
X262004Y215586D01*
X261970Y215586D01*
X261924Y215595D01*
X258867Y215722D01*
X258833Y215717D01*
X258786Y215719D01*
X255748Y215354D01*
X255716Y215343D01*
X255670Y215338D01*
X252730Y214490D01*
X252700Y214474D01*
X252655Y214462D01*
X249889Y213153D01*
X249866Y213136D01*
X249839Y213126D01*
X249787Y213077D01*
X249729Y213034D01*
X249715Y213009D01*
X249694Y212990D01*
X249665Y212924D01*
X249629Y212862D01*
X249626Y212834D01*
X249614Y212808D01*
X249613Y212736D01*
X249604Y212665D01*
X249612Y212638D01*
X249612Y212609D01*
X249647Y212514D01*
X249658Y212474D01*
X249665Y212465D01*
X249669Y212453D01*
X259169Y195953D01*
X259221Y195895D01*
X259267Y195832D01*
X259286Y195821D01*
X259301Y195804D01*
X259371Y195770D01*
X259438Y195730D01*
X259463Y195726D01*
X259480Y195718D01*
X259525Y195716D01*
X259602Y195703D01*
X278602Y195703D01*
X278630Y195708D01*
G37*
G36*
X261924Y476809D02*
X261924Y476809D01*
X261957Y476817D01*
X262004Y476818D01*
X265001Y477434D01*
X265032Y477447D01*
X265078Y477457D01*
X267938Y478545D01*
X267967Y478563D01*
X268010Y478580D01*
X270658Y480113D01*
X270684Y480135D01*
X270725Y480158D01*
X273092Y482096D01*
X273114Y482123D01*
X273150Y482152D01*
X275177Y484445D01*
X275194Y484474D01*
X275225Y484509D01*
X276857Y487097D01*
X276869Y487129D01*
X276894Y487168D01*
X278090Y489985D01*
X278097Y490018D01*
X278116Y490061D01*
X278844Y493033D01*
X278846Y493067D01*
X278857Y493112D01*
X279100Y496162D01*
X279096Y496191D01*
X279101Y496219D01*
X279084Y496288D01*
X279076Y496360D01*
X279062Y496384D01*
X279055Y496412D01*
X279012Y496470D01*
X278977Y496532D01*
X278954Y496549D01*
X278937Y496572D01*
X278875Y496609D01*
X278818Y496652D01*
X278790Y496659D01*
X278766Y496674D01*
X278666Y496690D01*
X278625Y496701D01*
X278615Y496699D01*
X278602Y496701D01*
X259602Y496701D01*
X259526Y496686D01*
X259448Y496677D01*
X259429Y496666D01*
X259407Y496662D01*
X259343Y496618D01*
X259275Y496579D01*
X259259Y496560D01*
X259243Y496549D01*
X259219Y496511D01*
X259169Y496451D01*
X249669Y479951D01*
X249660Y479924D01*
X249644Y479900D01*
X249629Y479830D01*
X249606Y479762D01*
X249609Y479734D01*
X249603Y479706D01*
X249617Y479636D01*
X249622Y479564D01*
X249635Y479539D01*
X249641Y479511D01*
X249681Y479451D01*
X249714Y479388D01*
X249736Y479370D01*
X249752Y479346D01*
X249835Y479288D01*
X249867Y479261D01*
X249878Y479258D01*
X249889Y479251D01*
X252655Y477942D01*
X252688Y477934D01*
X252730Y477914D01*
X255670Y477066D01*
X255704Y477063D01*
X255748Y477050D01*
X258786Y476685D01*
X258820Y476688D01*
X258867Y476682D01*
X261924Y476809D01*
G37*
D10*
X461596Y374106D03*
X478596Y374106D03*
D11*
X420760Y359144D03*
X420760Y378144D03*
D12*
X367646Y435756D02*
X367646Y437022D01*
X373412Y437022D01*
X373412Y435756D01*
X367646Y435756D01*
X367646Y432022D02*
X367646Y430756D01*
X367646Y432022D02*
X373412Y432022D01*
X373412Y430756D01*
X367646Y430756D01*
X367646Y427022D02*
X367646Y425756D01*
X367646Y427022D02*
X373412Y427022D01*
X373412Y425756D01*
X367646Y425756D01*
X367646Y422022D02*
X367646Y420756D01*
X367646Y422022D02*
X373412Y422022D01*
X373412Y420756D01*
X367646Y420756D01*
X367646Y417022D02*
X367646Y415756D01*
X367646Y417022D02*
X373412Y417022D01*
X373412Y415756D01*
X367646Y415756D01*
X367646Y412022D02*
X367646Y410756D01*
X367646Y412022D02*
X373412Y412022D01*
X373412Y410756D01*
X367646Y410756D01*
X367646Y407022D02*
X367646Y405756D01*
X367646Y407022D02*
X373412Y407022D01*
X373412Y405756D01*
X367646Y405756D01*
X367646Y402022D02*
X367646Y400756D01*
X367646Y402022D02*
X373412Y402022D01*
X373412Y400756D01*
X367646Y400756D01*
X367646Y397022D02*
X367646Y395756D01*
X367646Y397022D02*
X373412Y397022D01*
X373412Y395756D01*
X367646Y395756D01*
X367646Y392022D02*
X367646Y390756D01*
X367646Y392022D02*
X373412Y392022D01*
X373412Y390756D01*
X367646Y390756D01*
X367646Y387022D02*
X367646Y385756D01*
X367646Y387022D02*
X373412Y387022D01*
X373412Y385756D01*
X367646Y385756D01*
X367646Y382022D02*
X367646Y380756D01*
X367646Y382022D02*
X373412Y382022D01*
X373412Y380756D01*
X367646Y380756D01*
X364162Y377272D02*
X362896Y377272D01*
X364162Y377272D02*
X364162Y371506D01*
X362896Y371506D01*
X362896Y377272D01*
X362896Y373643D02*
X364162Y373643D01*
X364162Y375780D02*
X362896Y375780D01*
X359162Y377272D02*
X357896Y377272D01*
X359162Y377272D02*
X359162Y371506D01*
X357896Y371506D01*
X357896Y377272D01*
X357896Y373643D02*
X359162Y373643D01*
X359162Y375780D02*
X357896Y375780D01*
X354162Y377272D02*
X352896Y377272D01*
X354162Y377272D02*
X354162Y371506D01*
X352896Y371506D01*
X352896Y377272D01*
X352896Y373643D02*
X354162Y373643D01*
X354162Y375780D02*
X352896Y375780D01*
X349162Y377272D02*
X347896Y377272D01*
X349162Y377272D02*
X349162Y371506D01*
X347896Y371506D01*
X347896Y377272D01*
X347896Y373643D02*
X349162Y373643D01*
X349162Y375780D02*
X347896Y375780D01*
X344162Y377272D02*
X342896Y377272D01*
X344162Y377272D02*
X344162Y371506D01*
X342896Y371506D01*
X342896Y377272D01*
X342896Y373643D02*
X344162Y373643D01*
X344162Y375780D02*
X342896Y375780D01*
X339162Y377272D02*
X337896Y377272D01*
X339162Y377272D02*
X339162Y371506D01*
X337896Y371506D01*
X337896Y377272D01*
X337896Y373643D02*
X339162Y373643D01*
X339162Y375780D02*
X337896Y375780D01*
X334162Y377272D02*
X332896Y377272D01*
X334162Y377272D02*
X334162Y371506D01*
X332896Y371506D01*
X332896Y377272D01*
X332896Y373643D02*
X334162Y373643D01*
X334162Y375780D02*
X332896Y375780D01*
X329162Y377272D02*
X327896Y377272D01*
X329162Y377272D02*
X329162Y371506D01*
X327896Y371506D01*
X327896Y377272D01*
X327896Y373643D02*
X329162Y373643D01*
X329162Y375780D02*
X327896Y375780D01*
X324162Y377272D02*
X322896Y377272D01*
X324162Y377272D02*
X324162Y371506D01*
X322896Y371506D01*
X322896Y377272D01*
X322896Y373643D02*
X324162Y373643D01*
X324162Y375780D02*
X322896Y375780D01*
X319162Y377272D02*
X317896Y377272D01*
X319162Y377272D02*
X319162Y371506D01*
X317896Y371506D01*
X317896Y377272D01*
X317896Y373643D02*
X319162Y373643D01*
X319162Y375780D02*
X317896Y375780D01*
X314162Y377272D02*
X312896Y377272D01*
X314162Y377272D02*
X314162Y371506D01*
X312896Y371506D01*
X312896Y377272D01*
X312896Y373643D02*
X314162Y373643D01*
X314162Y375780D02*
X312896Y375780D01*
X309162Y377272D02*
X307896Y377272D01*
X309162Y377272D02*
X309162Y371506D01*
X307896Y371506D01*
X307896Y377272D01*
X307896Y373643D02*
X309162Y373643D01*
X309162Y375780D02*
X307896Y375780D01*
X304412Y380756D02*
X304412Y382022D01*
X304412Y380756D02*
X298646Y380756D01*
X298646Y382022D01*
X304412Y382022D01*
X304412Y385756D02*
X304412Y387022D01*
X304412Y385756D02*
X298646Y385756D01*
X298646Y387022D01*
X304412Y387022D01*
X304412Y390756D02*
X304412Y392022D01*
X304412Y390756D02*
X298646Y390756D01*
X298646Y392022D01*
X304412Y392022D01*
X304412Y395756D02*
X304412Y397022D01*
X304412Y395756D02*
X298646Y395756D01*
X298646Y397022D01*
X304412Y397022D01*
X304412Y400756D02*
X304412Y402022D01*
X304412Y400756D02*
X298646Y400756D01*
X298646Y402022D01*
X304412Y402022D01*
X304412Y405756D02*
X304412Y407022D01*
X304412Y405756D02*
X298646Y405756D01*
X298646Y407022D01*
X304412Y407022D01*
X304412Y410756D02*
X304412Y412022D01*
X304412Y410756D02*
X298646Y410756D01*
X298646Y412022D01*
X304412Y412022D01*
X304412Y415756D02*
X304412Y417022D01*
X304412Y415756D02*
X298646Y415756D01*
X298646Y417022D01*
X304412Y417022D01*
X304412Y420756D02*
X304412Y422022D01*
X304412Y420756D02*
X298646Y420756D01*
X298646Y422022D01*
X304412Y422022D01*
X304412Y425756D02*
X304412Y427022D01*
X304412Y425756D02*
X298646Y425756D01*
X298646Y427022D01*
X304412Y427022D01*
X304412Y430756D02*
X304412Y432022D01*
X304412Y430756D02*
X298646Y430756D01*
X298646Y432022D01*
X304412Y432022D01*
X304412Y435756D02*
X304412Y437022D01*
X304412Y435756D02*
X298646Y435756D01*
X298646Y437022D01*
X304412Y437022D01*
X307896Y440506D02*
X309162Y440506D01*
X307896Y440506D02*
X307896Y446272D01*
X309162Y446272D01*
X309162Y440506D01*
X309162Y442643D02*
X307896Y442643D01*
X307896Y444780D02*
X309162Y444780D01*
X312896Y440506D02*
X314162Y440506D01*
X312896Y440506D02*
X312896Y446272D01*
X314162Y446272D01*
X314162Y440506D01*
X314162Y442643D02*
X312896Y442643D01*
X312896Y444780D02*
X314162Y444780D01*
X317896Y440506D02*
X319162Y440506D01*
X317896Y440506D02*
X317896Y446272D01*
X319162Y446272D01*
X319162Y440506D01*
X319162Y442643D02*
X317896Y442643D01*
X317896Y444780D02*
X319162Y444780D01*
X322896Y440506D02*
X324162Y440506D01*
X322896Y440506D02*
X322896Y446272D01*
X324162Y446272D01*
X324162Y440506D01*
X324162Y442643D02*
X322896Y442643D01*
X322896Y444780D02*
X324162Y444780D01*
X327896Y440506D02*
X329162Y440506D01*
X327896Y440506D02*
X327896Y446272D01*
X329162Y446272D01*
X329162Y440506D01*
X329162Y442643D02*
X327896Y442643D01*
X327896Y444780D02*
X329162Y444780D01*
X332896Y440506D02*
X334162Y440506D01*
X332896Y440506D02*
X332896Y446272D01*
X334162Y446272D01*
X334162Y440506D01*
X334162Y442643D02*
X332896Y442643D01*
X332896Y444780D02*
X334162Y444780D01*
X337896Y440506D02*
X339162Y440506D01*
X337896Y440506D02*
X337896Y446272D01*
X339162Y446272D01*
X339162Y440506D01*
X339162Y442643D02*
X337896Y442643D01*
X337896Y444780D02*
X339162Y444780D01*
X342896Y440506D02*
X344162Y440506D01*
X342896Y440506D02*
X342896Y446272D01*
X344162Y446272D01*
X344162Y440506D01*
X344162Y442643D02*
X342896Y442643D01*
X342896Y444780D02*
X344162Y444780D01*
X347896Y440506D02*
X349162Y440506D01*
X347896Y440506D02*
X347896Y446272D01*
X349162Y446272D01*
X349162Y440506D01*
X349162Y442643D02*
X347896Y442643D01*
X347896Y444780D02*
X349162Y444780D01*
X352896Y440506D02*
X354162Y440506D01*
X352896Y440506D02*
X352896Y446272D01*
X354162Y446272D01*
X354162Y440506D01*
X354162Y442643D02*
X352896Y442643D01*
X352896Y444780D02*
X354162Y444780D01*
X357896Y440506D02*
X359162Y440506D01*
X357896Y440506D02*
X357896Y446272D01*
X359162Y446272D01*
X359162Y440506D01*
X359162Y442643D02*
X357896Y442643D01*
X357896Y444780D02*
X359162Y444780D01*
X362896Y440506D02*
X364162Y440506D01*
X362896Y440506D02*
X362896Y446272D01*
X364162Y446272D01*
X364162Y440506D01*
X364162Y442643D02*
X362896Y442643D01*
X362896Y444780D02*
X364162Y444780D01*
D13*
X336029Y408889D03*
D14*
X404970Y425494D03*
X404970Y413494D03*
X404970Y401494D03*
D11*
X269301Y441741D03*
X269301Y460741D03*
X264729Y367045D03*
X264729Y386045D03*
D15*
X400154Y365177D03*
X400154Y382177D03*
X290063Y441987D03*
X290063Y458987D03*
D10*
X387351Y463832D03*
X404351Y463832D03*
D15*
X287117Y370610D03*
X287117Y387610D03*
D10*
X387359Y443344D03*
X404359Y443344D03*
X441488Y365149D03*
X441488Y382149D03*
D16*
X235857Y344980D02*
X224899Y344980D01*
X224899Y349938D01*
X235857Y349938D01*
X235857Y344980D01*
X235857Y375376D02*
X224899Y375376D01*
X235857Y375376D02*
X235857Y370418D01*
X224899Y370418D01*
X224899Y375376D01*
X364091Y455996D02*
X375049Y455996D01*
X375049Y451038D01*
X364091Y451038D01*
X364091Y455996D01*
X457848Y355234D02*
X468806Y355234D01*
X468806Y350276D01*
X457848Y350276D01*
X457848Y355234D01*
D17*
X428802Y489302D03*
X511402Y346202D03*
X428802Y203102D03*
X263602Y203102D03*
X181002Y346202D03*
X263602Y489302D03*
X470102Y417702D03*
X470102Y274702D03*
X222302Y274702D03*
X222302Y417702D03*
X346202Y489302D03*
D18*
X374885Y331670D02*
X374885Y326312D01*
X374885Y331670D02*
X375743Y331670D01*
X375743Y326312D01*
X374885Y326312D01*
X374885Y329787D02*
X375743Y329787D01*
X381385Y331670D02*
X381385Y326312D01*
X381385Y331670D02*
X382243Y331670D01*
X382243Y326312D01*
X381385Y326312D01*
X381385Y329787D02*
X382243Y329787D01*
X387885Y331670D02*
X387885Y326312D01*
X387885Y331670D02*
X388743Y331670D01*
X388743Y326312D01*
X387885Y326312D01*
X387885Y329787D02*
X388743Y329787D01*
X394385Y331670D02*
X394385Y326312D01*
X394385Y331670D02*
X395243Y331670D01*
X395243Y326312D01*
X394385Y326312D01*
X394385Y329787D02*
X395243Y329787D01*
X402385Y319170D02*
X407743Y319170D01*
X407743Y318312D01*
X402385Y318312D01*
X402385Y319170D01*
X402385Y312670D02*
X407743Y312670D01*
X407743Y311812D01*
X402385Y311812D01*
X402385Y312670D01*
X402385Y306170D02*
X407743Y306170D01*
X407743Y305312D01*
X402385Y305312D01*
X402385Y306170D01*
X402385Y299670D02*
X407743Y299670D01*
X407743Y298812D01*
X402385Y298812D01*
X402385Y299670D01*
X395243Y291670D02*
X395243Y286312D01*
X394385Y286312D01*
X394385Y291670D01*
X395243Y291670D01*
X395243Y289787D02*
X394385Y289787D01*
X388743Y291670D02*
X388743Y286312D01*
X387885Y286312D01*
X387885Y291670D01*
X388743Y291670D01*
X388743Y289787D02*
X387885Y289787D01*
X382243Y291670D02*
X382243Y286312D01*
X381385Y286312D01*
X381385Y291670D01*
X382243Y291670D01*
X382243Y289787D02*
X381385Y289787D01*
X375743Y291670D02*
X375743Y286312D01*
X374885Y286312D01*
X374885Y291670D01*
X375743Y291670D01*
X375743Y289787D02*
X374885Y289787D01*
X367743Y298812D02*
X362385Y298812D01*
X362385Y299670D01*
X367743Y299670D01*
X367743Y298812D01*
X367743Y305312D02*
X362385Y305312D01*
X362385Y306170D01*
X367743Y306170D01*
X367743Y305312D01*
X367743Y311812D02*
X362385Y311812D01*
X362385Y312670D01*
X367743Y312670D01*
X367743Y311812D01*
X367743Y318312D02*
X362385Y318312D01*
X362385Y319170D01*
X367743Y319170D01*
X367743Y318312D01*
D19*
X385064Y308991D03*
D15*
X331842Y296164D03*
X314842Y296164D03*
X314969Y274701D03*
X331969Y274701D03*
X369824Y223765D03*
X369824Y206765D03*
X334645Y221352D03*
X334645Y204352D03*
X334527Y238887D03*
X351527Y238887D03*
X389391Y226060D03*
X406391Y226060D03*
X404114Y267961D03*
X404114Y250961D03*
D10*
X428752Y316856D03*
X428752Y299856D03*
D15*
X364354Y276098D03*
X347354Y276098D03*
X383413Y267961D03*
X383413Y250961D03*
X350393Y333765D03*
X350393Y350765D03*
D11*
X329946Y328828D03*
X329946Y347828D03*
D20*
X271272Y320675D03*
D21*
X296672Y320675D03*
M02*
