G04 EAGLE Gerber RS-274X export*
G75*
%MOMM*%
%FSLAX34Y34*%
%LPD*%
%INSolderpaste Top*%
%IPPOS*%
%AMOC8*
5,1,8,0,0,1.08239X$1,22.5*%
G01*
%ADD10C,0.124994*%
%ADD11R,5.699988X5.699988*%
%ADD12R,1.399997X0.400000*%
%ADD13R,1.350000X0.400000*%
%ADD14R,1.900000X1.800000*%
%ADD15R,1.900000X1.900000*%
%ADD16R,0.800000X0.800000*%


D10*
X-39081Y106082D02*
X-39965Y106966D01*
X-35901Y111030D01*
X-35017Y110146D01*
X-39081Y106082D01*
X-39662Y107269D02*
X-37894Y107269D01*
X-38475Y108456D02*
X-36707Y108456D01*
X-37288Y109643D02*
X-35520Y109643D01*
X-35701Y110830D02*
X-36101Y110830D01*
X-36429Y103431D02*
X-35545Y102547D01*
X-36429Y103431D02*
X-32365Y107495D01*
X-31481Y106611D01*
X-35545Y102547D01*
X-36126Y103734D02*
X-34358Y103734D01*
X-34939Y104921D02*
X-33171Y104921D01*
X-33752Y106108D02*
X-31984Y106108D01*
X-32165Y107295D02*
X-32565Y107295D01*
X-32894Y99895D02*
X-32010Y99011D01*
X-32894Y99895D02*
X-28830Y103959D01*
X-27946Y103075D01*
X-32010Y99011D01*
X-32591Y100198D02*
X-30823Y100198D01*
X-31404Y101385D02*
X-29636Y101385D01*
X-30217Y102572D02*
X-28449Y102572D01*
X-28630Y103759D02*
X-29030Y103759D01*
X-29358Y96360D02*
X-28474Y95476D01*
X-29358Y96360D02*
X-25294Y100424D01*
X-24410Y99540D01*
X-28474Y95476D01*
X-29055Y96663D02*
X-27287Y96663D01*
X-27868Y97850D02*
X-26100Y97850D01*
X-26681Y99037D02*
X-24913Y99037D01*
X-25094Y100224D02*
X-25494Y100224D01*
X-25823Y92824D02*
X-24939Y91940D01*
X-25823Y92824D02*
X-21759Y96888D01*
X-20875Y96004D01*
X-24939Y91940D01*
X-25520Y93127D02*
X-23752Y93127D01*
X-24333Y94314D02*
X-22565Y94314D01*
X-23146Y95501D02*
X-21378Y95501D01*
X-21559Y96688D02*
X-21959Y96688D01*
X-22287Y89289D02*
X-21403Y88405D01*
X-22287Y89289D02*
X-18223Y93353D01*
X-17339Y92469D01*
X-21403Y88405D01*
X-21984Y89592D02*
X-20216Y89592D01*
X-20797Y90779D02*
X-19029Y90779D01*
X-19610Y91966D02*
X-17842Y91966D01*
X-18023Y93153D02*
X-18423Y93153D01*
X-18751Y85753D02*
X-17867Y84869D01*
X-18751Y85753D02*
X-14687Y89817D01*
X-13803Y88933D01*
X-17867Y84869D01*
X-18448Y86056D02*
X-16680Y86056D01*
X-17261Y87243D02*
X-15493Y87243D01*
X-16074Y88430D02*
X-14306Y88430D01*
X-14487Y89617D02*
X-14887Y89617D01*
X-15216Y82218D02*
X-14332Y81334D01*
X-15216Y82218D02*
X-11152Y86282D01*
X-10268Y85398D01*
X-14332Y81334D01*
X-14913Y82521D02*
X-13145Y82521D01*
X-13726Y83708D02*
X-11958Y83708D01*
X-12539Y84895D02*
X-10771Y84895D01*
X-10952Y86082D02*
X-11352Y86082D01*
X-11680Y78682D02*
X-10796Y77798D01*
X-11680Y78682D02*
X-7616Y82746D01*
X-6732Y81862D01*
X-10796Y77798D01*
X-11377Y78985D02*
X-9609Y78985D01*
X-10190Y80172D02*
X-8422Y80172D01*
X-9003Y81359D02*
X-7235Y81359D01*
X-7416Y82546D02*
X-7816Y82546D01*
X-8145Y75147D02*
X-7261Y74263D01*
X-8145Y75147D02*
X-4081Y79211D01*
X-3197Y78327D01*
X-7261Y74263D01*
X-7842Y75450D02*
X-6074Y75450D01*
X-6655Y76637D02*
X-4887Y76637D01*
X-5468Y77824D02*
X-3700Y77824D01*
X-3881Y79011D02*
X-4281Y79011D01*
X-4609Y71611D02*
X-3725Y70727D01*
X-4609Y71611D02*
X-545Y75675D01*
X339Y74791D01*
X-3725Y70727D01*
X-4306Y71914D02*
X-2538Y71914D01*
X-3119Y73101D02*
X-1351Y73101D01*
X-1932Y74288D02*
X-164Y74288D01*
X-345Y75475D02*
X-745Y75475D01*
X-1074Y68076D02*
X-190Y67192D01*
X-1074Y68076D02*
X2990Y72140D01*
X3874Y71256D01*
X-190Y67192D01*
X-771Y68379D02*
X997Y68379D01*
X416Y69566D02*
X2184Y69566D01*
X1603Y70753D02*
X3371Y70753D01*
X3190Y71940D02*
X2790Y71940D01*
X12890Y67192D02*
X13774Y68076D01*
X12890Y67192D02*
X8826Y71256D01*
X9710Y72140D01*
X13774Y68076D01*
X13471Y68379D02*
X11703Y68379D01*
X12284Y69566D02*
X10516Y69566D01*
X11097Y70753D02*
X9329Y70753D01*
X9510Y71940D02*
X9910Y71940D01*
X16425Y70727D02*
X17309Y71611D01*
X16425Y70727D02*
X12361Y74791D01*
X13245Y75675D01*
X17309Y71611D01*
X17006Y71914D02*
X15238Y71914D01*
X15819Y73101D02*
X14051Y73101D01*
X14632Y74288D02*
X12864Y74288D01*
X13045Y75475D02*
X13445Y75475D01*
X19961Y74263D02*
X20845Y75147D01*
X19961Y74263D02*
X15897Y78327D01*
X16781Y79211D01*
X20845Y75147D01*
X20542Y75450D02*
X18774Y75450D01*
X19355Y76637D02*
X17587Y76637D01*
X18168Y77824D02*
X16400Y77824D01*
X16581Y79011D02*
X16981Y79011D01*
X23496Y77798D02*
X24380Y78682D01*
X23496Y77798D02*
X19432Y81862D01*
X20316Y82746D01*
X24380Y78682D01*
X24077Y78985D02*
X22309Y78985D01*
X22890Y80172D02*
X21122Y80172D01*
X21703Y81359D02*
X19935Y81359D01*
X20116Y82546D02*
X20516Y82546D01*
X27032Y81334D02*
X27916Y82218D01*
X27032Y81334D02*
X22968Y85398D01*
X23852Y86282D01*
X27916Y82218D01*
X27613Y82521D02*
X25845Y82521D01*
X26426Y83708D02*
X24658Y83708D01*
X25239Y84895D02*
X23471Y84895D01*
X23652Y86082D02*
X24052Y86082D01*
X30567Y84869D02*
X31451Y85753D01*
X30567Y84869D02*
X26503Y88933D01*
X27387Y89817D01*
X31451Y85753D01*
X31148Y86056D02*
X29380Y86056D01*
X29961Y87243D02*
X28193Y87243D01*
X28774Y88430D02*
X27006Y88430D01*
X27187Y89617D02*
X27587Y89617D01*
X34103Y88405D02*
X34987Y89289D01*
X34103Y88405D02*
X30039Y92469D01*
X30923Y93353D01*
X34987Y89289D01*
X34684Y89592D02*
X32916Y89592D01*
X33497Y90779D02*
X31729Y90779D01*
X32310Y91966D02*
X30542Y91966D01*
X30723Y93153D02*
X31123Y93153D01*
X37639Y91940D02*
X38523Y92824D01*
X37639Y91940D02*
X33575Y96004D01*
X34459Y96888D01*
X38523Y92824D01*
X38220Y93127D02*
X36452Y93127D01*
X37033Y94314D02*
X35265Y94314D01*
X35846Y95501D02*
X34078Y95501D01*
X34259Y96688D02*
X34659Y96688D01*
X41174Y95476D02*
X42058Y96360D01*
X41174Y95476D02*
X37110Y99540D01*
X37994Y100424D01*
X42058Y96360D01*
X41755Y96663D02*
X39987Y96663D01*
X40568Y97850D02*
X38800Y97850D01*
X39381Y99037D02*
X37613Y99037D01*
X37794Y100224D02*
X38194Y100224D01*
X44710Y99011D02*
X45594Y99895D01*
X44710Y99011D02*
X40646Y103075D01*
X41530Y103959D01*
X45594Y99895D01*
X45291Y100198D02*
X43523Y100198D01*
X44104Y101385D02*
X42336Y101385D01*
X42917Y102572D02*
X41149Y102572D01*
X41330Y103759D02*
X41730Y103759D01*
X48245Y102547D02*
X49129Y103431D01*
X48245Y102547D02*
X44181Y106611D01*
X45065Y107495D01*
X49129Y103431D01*
X48826Y103734D02*
X47058Y103734D01*
X47639Y104921D02*
X45871Y104921D01*
X46452Y106108D02*
X44684Y106108D01*
X44865Y107295D02*
X45265Y107295D01*
X51781Y106082D02*
X52665Y106966D01*
X51781Y106082D02*
X47717Y110146D01*
X48601Y111030D01*
X52665Y106966D01*
X52362Y107269D02*
X50594Y107269D01*
X51175Y108456D02*
X49407Y108456D01*
X49988Y109643D02*
X48220Y109643D01*
X48401Y110830D02*
X48801Y110830D01*
X52665Y120046D02*
X51781Y120930D01*
X52665Y120046D02*
X48601Y115982D01*
X47717Y116866D01*
X51781Y120930D01*
X49788Y117169D02*
X48020Y117169D01*
X49207Y118356D02*
X50975Y118356D01*
X50394Y119543D02*
X52162Y119543D01*
X51981Y120730D02*
X51581Y120730D01*
X49129Y123582D02*
X48245Y124466D01*
X49129Y123582D02*
X45065Y119518D01*
X44181Y120402D01*
X48245Y124466D01*
X46252Y120705D02*
X44484Y120705D01*
X45671Y121892D02*
X47439Y121892D01*
X46858Y123079D02*
X48626Y123079D01*
X48445Y124266D02*
X48045Y124266D01*
X45594Y127117D02*
X44710Y128001D01*
X45594Y127117D02*
X41530Y123053D01*
X40646Y123937D01*
X44710Y128001D01*
X42717Y124240D02*
X40949Y124240D01*
X42136Y125427D02*
X43904Y125427D01*
X43323Y126614D02*
X45091Y126614D01*
X44910Y127801D02*
X44510Y127801D01*
X42058Y130653D02*
X41174Y131537D01*
X42058Y130653D02*
X37994Y126589D01*
X37110Y127473D01*
X41174Y131537D01*
X39181Y127776D02*
X37413Y127776D01*
X38600Y128963D02*
X40368Y128963D01*
X39787Y130150D02*
X41555Y130150D01*
X41374Y131337D02*
X40974Y131337D01*
X38523Y134188D02*
X37639Y135072D01*
X38523Y134188D02*
X34459Y130124D01*
X33575Y131008D01*
X37639Y135072D01*
X35646Y131311D02*
X33878Y131311D01*
X35065Y132498D02*
X36833Y132498D01*
X36252Y133685D02*
X38020Y133685D01*
X37839Y134872D02*
X37439Y134872D01*
X34987Y137724D02*
X34103Y138608D01*
X34987Y137724D02*
X30923Y133660D01*
X30039Y134544D01*
X34103Y138608D01*
X32110Y134847D02*
X30342Y134847D01*
X31529Y136034D02*
X33297Y136034D01*
X32716Y137221D02*
X34484Y137221D01*
X34303Y138408D02*
X33903Y138408D01*
X31451Y141259D02*
X30567Y142143D01*
X31451Y141259D02*
X27387Y137195D01*
X26503Y138079D01*
X30567Y142143D01*
X28574Y138382D02*
X26806Y138382D01*
X27993Y139569D02*
X29761Y139569D01*
X29180Y140756D02*
X30948Y140756D01*
X30767Y141943D02*
X30367Y141943D01*
X27916Y144795D02*
X27032Y145679D01*
X27916Y144795D02*
X23852Y140731D01*
X22968Y141615D01*
X27032Y145679D01*
X25039Y141918D02*
X23271Y141918D01*
X24458Y143105D02*
X26226Y143105D01*
X25645Y144292D02*
X27413Y144292D01*
X27232Y145479D02*
X26832Y145479D01*
X24380Y148330D02*
X23496Y149214D01*
X24380Y148330D02*
X20316Y144266D01*
X19432Y145150D01*
X23496Y149214D01*
X21503Y145453D02*
X19735Y145453D01*
X20922Y146640D02*
X22690Y146640D01*
X22109Y147827D02*
X23877Y147827D01*
X23696Y149014D02*
X23296Y149014D01*
X20845Y151866D02*
X19961Y152750D01*
X20845Y151866D02*
X16781Y147802D01*
X15897Y148686D01*
X19961Y152750D01*
X17968Y148989D02*
X16200Y148989D01*
X17387Y150176D02*
X19155Y150176D01*
X18574Y151363D02*
X20342Y151363D01*
X20161Y152550D02*
X19761Y152550D01*
X17309Y155401D02*
X16425Y156285D01*
X17309Y155401D02*
X13245Y151337D01*
X12361Y152221D01*
X16425Y156285D01*
X14432Y152524D02*
X12664Y152524D01*
X13851Y153711D02*
X15619Y153711D01*
X15038Y154898D02*
X16806Y154898D01*
X16625Y156085D02*
X16225Y156085D01*
X13774Y158937D02*
X12890Y159821D01*
X13774Y158937D02*
X9710Y154873D01*
X8826Y155757D01*
X12890Y159821D01*
X10897Y156060D02*
X9129Y156060D01*
X10316Y157247D02*
X12084Y157247D01*
X11503Y158434D02*
X13271Y158434D01*
X13090Y159621D02*
X12690Y159621D01*
X-190Y159821D02*
X-1074Y158937D01*
X-190Y159821D02*
X3874Y155757D01*
X2990Y154873D01*
X-1074Y158937D01*
X1803Y156060D02*
X3571Y156060D01*
X2384Y157247D02*
X616Y157247D01*
X1197Y158434D02*
X-571Y158434D01*
X-390Y159621D02*
X10Y159621D01*
X-3725Y156285D02*
X-4609Y155401D01*
X-3725Y156285D02*
X339Y152221D01*
X-545Y151337D01*
X-4609Y155401D01*
X-1732Y152524D02*
X36Y152524D01*
X-1151Y153711D02*
X-2919Y153711D01*
X-2338Y154898D02*
X-4106Y154898D01*
X-3925Y156085D02*
X-3525Y156085D01*
X-7261Y152750D02*
X-8145Y151866D01*
X-7261Y152750D02*
X-3197Y148686D01*
X-4081Y147802D01*
X-8145Y151866D01*
X-5268Y148989D02*
X-3500Y148989D01*
X-4687Y150176D02*
X-6455Y150176D01*
X-5874Y151363D02*
X-7642Y151363D01*
X-7461Y152550D02*
X-7061Y152550D01*
X-10796Y149214D02*
X-11680Y148330D01*
X-10796Y149214D02*
X-6732Y145150D01*
X-7616Y144266D01*
X-11680Y148330D01*
X-8803Y145453D02*
X-7035Y145453D01*
X-8222Y146640D02*
X-9990Y146640D01*
X-9409Y147827D02*
X-11177Y147827D01*
X-10996Y149014D02*
X-10596Y149014D01*
X-14332Y145679D02*
X-15216Y144795D01*
X-14332Y145679D02*
X-10268Y141615D01*
X-11152Y140731D01*
X-15216Y144795D01*
X-12339Y141918D02*
X-10571Y141918D01*
X-11758Y143105D02*
X-13526Y143105D01*
X-12945Y144292D02*
X-14713Y144292D01*
X-14532Y145479D02*
X-14132Y145479D01*
X-17867Y142143D02*
X-18751Y141259D01*
X-17867Y142143D02*
X-13803Y138079D01*
X-14687Y137195D01*
X-18751Y141259D01*
X-15874Y138382D02*
X-14106Y138382D01*
X-15293Y139569D02*
X-17061Y139569D01*
X-16480Y140756D02*
X-18248Y140756D01*
X-18067Y141943D02*
X-17667Y141943D01*
X-21403Y138608D02*
X-22287Y137724D01*
X-21403Y138608D02*
X-17339Y134544D01*
X-18223Y133660D01*
X-22287Y137724D01*
X-19410Y134847D02*
X-17642Y134847D01*
X-18829Y136034D02*
X-20597Y136034D01*
X-20016Y137221D02*
X-21784Y137221D01*
X-21603Y138408D02*
X-21203Y138408D01*
X-24939Y135072D02*
X-25823Y134188D01*
X-24939Y135072D02*
X-20875Y131008D01*
X-21759Y130124D01*
X-25823Y134188D01*
X-22946Y131311D02*
X-21178Y131311D01*
X-22365Y132498D02*
X-24133Y132498D01*
X-23552Y133685D02*
X-25320Y133685D01*
X-25139Y134872D02*
X-24739Y134872D01*
X-28474Y131537D02*
X-29358Y130653D01*
X-28474Y131537D02*
X-24410Y127473D01*
X-25294Y126589D01*
X-29358Y130653D01*
X-26481Y127776D02*
X-24713Y127776D01*
X-25900Y128963D02*
X-27668Y128963D01*
X-27087Y130150D02*
X-28855Y130150D01*
X-28674Y131337D02*
X-28274Y131337D01*
X-32010Y128001D02*
X-32894Y127117D01*
X-32010Y128001D02*
X-27946Y123937D01*
X-28830Y123053D01*
X-32894Y127117D01*
X-30017Y124240D02*
X-28249Y124240D01*
X-29436Y125427D02*
X-31204Y125427D01*
X-30623Y126614D02*
X-32391Y126614D01*
X-32210Y127801D02*
X-31810Y127801D01*
X-35545Y124466D02*
X-36429Y123582D01*
X-35545Y124466D02*
X-31481Y120402D01*
X-32365Y119518D01*
X-36429Y123582D01*
X-33552Y120705D02*
X-31784Y120705D01*
X-32971Y121892D02*
X-34739Y121892D01*
X-34158Y123079D02*
X-35926Y123079D01*
X-35745Y124266D02*
X-35345Y124266D01*
X-39081Y120930D02*
X-39965Y120046D01*
X-39081Y120930D02*
X-35017Y116866D01*
X-35901Y115982D01*
X-39965Y120046D01*
X-37088Y117169D02*
X-35320Y117169D01*
X-36507Y118356D02*
X-38275Y118356D01*
X-37694Y119543D02*
X-39462Y119543D01*
X-39281Y120730D02*
X-38881Y120730D01*
D11*
G36*
X6350Y73201D02*
X-33955Y113506D01*
X6350Y153811D01*
X46655Y113506D01*
X6350Y73201D01*
G37*
D12*
G36*
X-41810Y86633D02*
X-51708Y76735D01*
X-54536Y79563D01*
X-44638Y89461D01*
X-41810Y86633D01*
G37*
G36*
X-33325Y78148D02*
X-43223Y68250D01*
X-46051Y71078D01*
X-36153Y80976D01*
X-33325Y78148D01*
G37*
G36*
X-24839Y69662D02*
X-34737Y59764D01*
X-37565Y62592D01*
X-27667Y72490D01*
X-24839Y69662D01*
G37*
D13*
X-205025Y114300D03*
X-205025Y107800D03*
X-205025Y120800D03*
X-205025Y127300D03*
X-205025Y101300D03*
D14*
X-231775Y74300D03*
D15*
X-231775Y102300D03*
X-231775Y126300D03*
D14*
X-231775Y154300D03*
D16*
X73025Y73463D03*
X73025Y88463D03*
M02*
