G04 EAGLE Gerber RS-274X export*
G75*
%MOMM*%
%FSLAX34Y34*%
%LPD*%
%INSolderpaste Bottom*%
%IPPOS*%
%AMOC8*
5,1,8,0,0,1.08239X$1,22.5*%
G01*
%ADD10R,1.100000X1.000000*%
%ADD11R,1.000000X1.100000*%
%ADD12R,0.800000X1.600000*%
%ADD13R,2.160000X2.160000*%
%ADD14C,0.067500*%
%ADD15R,1.300000X1.500000*%
%ADD16R,1.168400X1.600200*%


D10*
G36*
X-26093Y68089D02*
X-18316Y60312D01*
X-25387Y53241D01*
X-33164Y61018D01*
X-26093Y68089D01*
G37*
G36*
X-38113Y80109D02*
X-30336Y72332D01*
X-37407Y65261D01*
X-45184Y73038D01*
X-38113Y80109D01*
G37*
D11*
G36*
X19830Y85105D02*
X12759Y92176D01*
X20536Y99953D01*
X27607Y92882D01*
X19830Y85105D01*
G37*
G36*
X31851Y73084D02*
X24780Y80155D01*
X32557Y87932D01*
X39628Y80861D01*
X31851Y73084D01*
G37*
G36*
X-33164Y160351D02*
X-26093Y167422D01*
X-18316Y159645D01*
X-25387Y152574D01*
X-33164Y160351D01*
G37*
G36*
X-45184Y148330D02*
X-38113Y155401D01*
X-30336Y147624D01*
X-37407Y140553D01*
X-45184Y148330D01*
G37*
D10*
G36*
X-5455Y76820D02*
X2322Y69043D01*
X-4749Y61972D01*
X-12526Y69749D01*
X-5455Y76820D01*
G37*
G36*
X-17476Y88841D02*
X-9699Y81064D01*
X-16770Y73993D01*
X-24547Y81770D01*
X-17476Y88841D01*
G37*
G36*
X2555Y152501D02*
X10332Y160278D01*
X17403Y153207D01*
X9626Y145430D01*
X2555Y152501D01*
G37*
G36*
X-9466Y140480D02*
X-1689Y148257D01*
X5382Y141186D01*
X-2395Y133409D01*
X-9466Y140480D01*
G37*
G36*
X51695Y114126D02*
X59472Y106349D01*
X52401Y99278D01*
X44624Y107055D01*
X51695Y114126D01*
G37*
G36*
X39674Y126147D02*
X47451Y118370D01*
X40380Y111299D01*
X32603Y119076D01*
X39674Y126147D01*
G37*
G36*
X-38995Y112886D02*
X-46772Y120663D01*
X-39701Y127734D01*
X-31924Y119957D01*
X-38995Y112886D01*
G37*
G36*
X-26974Y100866D02*
X-34751Y108643D01*
X-27680Y115714D01*
X-19903Y107937D01*
X-26974Y100866D01*
G37*
G36*
X-51695Y100186D02*
X-59472Y107963D01*
X-52401Y115034D01*
X-44624Y107257D01*
X-51695Y100186D01*
G37*
G36*
X-39674Y88166D02*
X-47451Y95943D01*
X-40380Y103014D01*
X-32603Y95237D01*
X-39674Y88166D01*
G37*
D11*
G36*
X-7157Y109711D02*
X-14228Y116782D01*
X-6451Y124559D01*
X620Y117488D01*
X-7157Y109711D01*
G37*
G36*
X4864Y97691D02*
X-2207Y104762D01*
X5570Y112539D01*
X12641Y105468D01*
X4864Y97691D01*
G37*
D10*
X-164538Y58738D03*
X-181538Y58738D03*
X-164538Y106363D03*
X-181538Y106363D03*
D11*
X-181538Y74613D03*
X-164538Y74613D03*
X-181538Y90488D03*
X-164538Y90488D03*
X-148431Y105006D03*
X-148431Y122006D03*
D10*
G36*
X-67295Y92970D02*
X-59518Y100747D01*
X-52447Y93676D01*
X-60224Y85899D01*
X-67295Y92970D01*
G37*
G36*
X-79316Y80949D02*
X-71539Y88726D01*
X-64468Y81655D01*
X-72245Y73878D01*
X-79316Y80949D01*
G37*
G36*
X-127968Y137218D02*
X-135745Y129441D01*
X-142816Y136512D01*
X-135039Y144289D01*
X-127968Y137218D01*
G37*
G36*
X-115947Y149238D02*
X-123724Y141461D01*
X-130795Y148532D01*
X-123018Y156309D01*
X-115947Y149238D01*
G37*
D12*
X-185738Y125875D03*
X-185738Y159875D03*
D11*
X146613Y168275D03*
X129613Y168275D03*
D10*
X129613Y76200D03*
X146613Y76200D03*
D11*
X129613Y58738D03*
X146613Y58738D03*
D10*
X214875Y165100D03*
X197875Y165100D03*
D11*
X72794Y73025D03*
X55794Y73025D03*
D13*
G36*
X-101600Y128779D02*
X-86327Y113506D01*
X-101600Y98233D01*
X-116873Y113506D01*
X-101600Y128779D01*
G37*
D14*
X-103209Y85717D02*
X-108459Y80467D01*
X-109891Y81899D01*
X-104641Y87149D01*
X-103209Y85717D01*
X-107818Y81108D02*
X-109100Y81108D01*
X-109741Y81749D02*
X-107177Y81749D01*
X-106536Y82390D02*
X-109400Y82390D01*
X-108759Y83031D02*
X-105895Y83031D01*
X-105254Y83672D02*
X-108118Y83672D01*
X-107477Y84313D02*
X-104613Y84313D01*
X-103972Y84954D02*
X-106836Y84954D01*
X-106195Y85595D02*
X-103331Y85595D01*
X-103728Y86236D02*
X-105554Y86236D01*
X-104913Y86877D02*
X-104369Y86877D01*
X-106744Y89252D02*
X-111994Y84002D01*
X-113426Y85434D01*
X-108176Y90684D01*
X-106744Y89252D01*
X-111353Y84643D02*
X-112635Y84643D01*
X-113276Y85284D02*
X-110712Y85284D01*
X-110071Y85925D02*
X-112935Y85925D01*
X-112294Y86566D02*
X-109430Y86566D01*
X-108789Y87207D02*
X-111653Y87207D01*
X-111012Y87848D02*
X-108148Y87848D01*
X-107507Y88489D02*
X-110371Y88489D01*
X-109730Y89130D02*
X-106866Y89130D01*
X-107263Y89771D02*
X-109089Y89771D01*
X-108448Y90412D02*
X-107904Y90412D01*
X-110280Y92788D02*
X-115530Y87538D01*
X-116962Y88970D01*
X-111712Y94220D01*
X-110280Y92788D01*
X-114889Y88179D02*
X-116171Y88179D01*
X-116812Y88820D02*
X-114248Y88820D01*
X-113607Y89461D02*
X-116471Y89461D01*
X-115830Y90102D02*
X-112966Y90102D01*
X-112325Y90743D02*
X-115189Y90743D01*
X-114548Y91384D02*
X-111684Y91384D01*
X-111043Y92025D02*
X-113907Y92025D01*
X-113266Y92666D02*
X-110402Y92666D01*
X-110799Y93307D02*
X-112625Y93307D01*
X-111984Y93948D02*
X-111440Y93948D01*
X-113815Y96323D02*
X-119065Y91073D01*
X-120497Y92505D01*
X-115247Y97755D01*
X-113815Y96323D01*
X-118424Y91714D02*
X-119706Y91714D01*
X-120347Y92355D02*
X-117783Y92355D01*
X-117142Y92996D02*
X-120006Y92996D01*
X-119365Y93637D02*
X-116501Y93637D01*
X-115860Y94278D02*
X-118724Y94278D01*
X-118083Y94919D02*
X-115219Y94919D01*
X-114578Y95560D02*
X-117442Y95560D01*
X-116801Y96201D02*
X-113937Y96201D01*
X-114334Y96842D02*
X-116160Y96842D01*
X-115519Y97483D02*
X-114975Y97483D01*
X-117351Y99859D02*
X-122601Y94609D01*
X-124033Y96041D01*
X-118783Y101291D01*
X-117351Y99859D01*
X-121960Y95250D02*
X-123242Y95250D01*
X-123883Y95891D02*
X-121319Y95891D01*
X-120678Y96532D02*
X-123542Y96532D01*
X-122901Y97173D02*
X-120037Y97173D01*
X-119396Y97814D02*
X-122260Y97814D01*
X-121619Y98455D02*
X-118755Y98455D01*
X-118114Y99096D02*
X-120978Y99096D01*
X-120337Y99737D02*
X-117473Y99737D01*
X-117870Y100378D02*
X-119696Y100378D01*
X-119055Y101019D02*
X-118511Y101019D01*
X-120886Y103394D02*
X-126136Y98144D01*
X-127568Y99576D01*
X-122318Y104826D01*
X-120886Y103394D01*
X-125495Y98785D02*
X-126777Y98785D01*
X-127418Y99426D02*
X-124854Y99426D01*
X-124213Y100067D02*
X-127077Y100067D01*
X-126436Y100708D02*
X-123572Y100708D01*
X-122931Y101349D02*
X-125795Y101349D01*
X-125154Y101990D02*
X-122290Y101990D01*
X-121649Y102631D02*
X-124513Y102631D01*
X-123872Y103272D02*
X-121008Y103272D01*
X-121405Y103913D02*
X-123231Y103913D01*
X-122590Y104554D02*
X-122046Y104554D01*
X-124422Y106930D02*
X-129672Y101680D01*
X-131104Y103112D01*
X-125854Y108362D01*
X-124422Y106930D01*
X-129031Y102321D02*
X-130313Y102321D01*
X-130954Y102962D02*
X-128390Y102962D01*
X-127749Y103603D02*
X-130613Y103603D01*
X-129972Y104244D02*
X-127108Y104244D01*
X-126467Y104885D02*
X-129331Y104885D01*
X-128690Y105526D02*
X-125826Y105526D01*
X-125185Y106167D02*
X-128049Y106167D01*
X-127408Y106808D02*
X-124544Y106808D01*
X-124941Y107449D02*
X-126767Y107449D01*
X-126126Y108090D02*
X-125582Y108090D01*
X-127958Y110466D02*
X-133208Y105216D01*
X-134640Y106648D01*
X-129390Y111898D01*
X-127958Y110466D01*
X-132567Y105857D02*
X-133849Y105857D01*
X-134490Y106498D02*
X-131926Y106498D01*
X-131285Y107139D02*
X-134149Y107139D01*
X-133508Y107780D02*
X-130644Y107780D01*
X-130003Y108421D02*
X-132867Y108421D01*
X-132226Y109062D02*
X-129362Y109062D01*
X-128721Y109703D02*
X-131585Y109703D01*
X-130944Y110344D02*
X-128080Y110344D01*
X-128477Y110985D02*
X-130303Y110985D01*
X-129662Y111626D02*
X-129118Y111626D01*
X-98559Y139864D02*
X-93309Y145114D01*
X-98559Y139864D02*
X-99991Y141296D01*
X-94741Y146546D01*
X-93309Y145114D01*
X-97918Y140505D02*
X-99200Y140505D01*
X-99841Y141146D02*
X-97277Y141146D01*
X-96636Y141787D02*
X-99500Y141787D01*
X-98859Y142428D02*
X-95995Y142428D01*
X-95354Y143069D02*
X-98218Y143069D01*
X-97577Y143710D02*
X-94713Y143710D01*
X-94072Y144351D02*
X-96936Y144351D01*
X-96295Y144992D02*
X-93431Y144992D01*
X-93828Y145633D02*
X-95654Y145633D01*
X-95013Y146274D02*
X-94469Y146274D01*
X-89774Y141578D02*
X-95024Y136328D01*
X-96456Y137760D01*
X-91206Y143010D01*
X-89774Y141578D01*
X-94383Y136969D02*
X-95665Y136969D01*
X-96306Y137610D02*
X-93742Y137610D01*
X-93101Y138251D02*
X-95965Y138251D01*
X-95324Y138892D02*
X-92460Y138892D01*
X-91819Y139533D02*
X-94683Y139533D01*
X-94042Y140174D02*
X-91178Y140174D01*
X-90537Y140815D02*
X-93401Y140815D01*
X-92760Y141456D02*
X-89896Y141456D01*
X-90293Y142097D02*
X-92119Y142097D01*
X-91478Y142738D02*
X-90934Y142738D01*
X-86238Y138043D02*
X-91488Y132793D01*
X-92920Y134225D01*
X-87670Y139475D01*
X-86238Y138043D01*
X-90847Y133434D02*
X-92129Y133434D01*
X-92770Y134075D02*
X-90206Y134075D01*
X-89565Y134716D02*
X-92429Y134716D01*
X-91788Y135357D02*
X-88924Y135357D01*
X-88283Y135998D02*
X-91147Y135998D01*
X-90506Y136639D02*
X-87642Y136639D01*
X-87001Y137280D02*
X-89865Y137280D01*
X-89224Y137921D02*
X-86360Y137921D01*
X-86757Y138562D02*
X-88583Y138562D01*
X-87942Y139203D02*
X-87398Y139203D01*
X-82703Y134507D02*
X-87953Y129257D01*
X-89385Y130689D01*
X-84135Y135939D01*
X-82703Y134507D01*
X-87312Y129898D02*
X-88594Y129898D01*
X-89235Y130539D02*
X-86671Y130539D01*
X-86030Y131180D02*
X-88894Y131180D01*
X-88253Y131821D02*
X-85389Y131821D01*
X-84748Y132462D02*
X-87612Y132462D01*
X-86971Y133103D02*
X-84107Y133103D01*
X-83466Y133744D02*
X-86330Y133744D01*
X-85689Y134385D02*
X-82825Y134385D01*
X-83222Y135026D02*
X-85048Y135026D01*
X-84407Y135667D02*
X-83863Y135667D01*
X-79167Y130972D02*
X-84417Y125722D01*
X-85849Y127154D01*
X-80599Y132404D01*
X-79167Y130972D01*
X-83776Y126363D02*
X-85058Y126363D01*
X-85699Y127004D02*
X-83135Y127004D01*
X-82494Y127645D02*
X-85358Y127645D01*
X-84717Y128286D02*
X-81853Y128286D01*
X-81212Y128927D02*
X-84076Y128927D01*
X-83435Y129568D02*
X-80571Y129568D01*
X-79930Y130209D02*
X-82794Y130209D01*
X-82153Y130850D02*
X-79289Y130850D01*
X-79686Y131491D02*
X-81512Y131491D01*
X-80871Y132132D02*
X-80327Y132132D01*
X-75632Y127436D02*
X-80882Y122186D01*
X-82314Y123618D01*
X-77064Y128868D01*
X-75632Y127436D01*
X-80241Y122827D02*
X-81523Y122827D01*
X-82164Y123468D02*
X-79600Y123468D01*
X-78959Y124109D02*
X-81823Y124109D01*
X-81182Y124750D02*
X-78318Y124750D01*
X-77677Y125391D02*
X-80541Y125391D01*
X-79900Y126032D02*
X-77036Y126032D01*
X-76395Y126673D02*
X-79259Y126673D01*
X-78618Y127314D02*
X-75754Y127314D01*
X-76151Y127955D02*
X-77977Y127955D01*
X-77336Y128596D02*
X-76792Y128596D01*
X-72096Y123901D02*
X-77346Y118651D01*
X-78778Y120083D01*
X-73528Y125333D01*
X-72096Y123901D01*
X-76705Y119292D02*
X-77987Y119292D01*
X-78628Y119933D02*
X-76064Y119933D01*
X-75423Y120574D02*
X-78287Y120574D01*
X-77646Y121215D02*
X-74782Y121215D01*
X-74141Y121856D02*
X-77005Y121856D01*
X-76364Y122497D02*
X-73500Y122497D01*
X-72859Y123138D02*
X-75723Y123138D01*
X-75082Y123779D02*
X-72218Y123779D01*
X-72615Y124420D02*
X-74441Y124420D01*
X-73800Y125061D02*
X-73256Y125061D01*
X-68561Y120365D02*
X-73811Y115115D01*
X-75243Y116547D01*
X-69993Y121797D01*
X-68561Y120365D01*
X-73170Y115756D02*
X-74452Y115756D01*
X-75093Y116397D02*
X-72529Y116397D01*
X-71888Y117038D02*
X-74752Y117038D01*
X-74111Y117679D02*
X-71247Y117679D01*
X-70606Y118320D02*
X-73470Y118320D01*
X-72829Y118961D02*
X-69965Y118961D01*
X-69324Y119602D02*
X-72188Y119602D01*
X-71547Y120243D02*
X-68683Y120243D01*
X-69080Y120884D02*
X-70906Y120884D01*
X-70265Y121525D02*
X-69721Y121525D01*
X-73811Y111898D02*
X-68561Y106648D01*
X-69993Y105216D01*
X-75243Y110466D01*
X-73811Y111898D01*
X-70634Y105857D02*
X-69352Y105857D01*
X-68711Y106498D02*
X-71275Y106498D01*
X-71916Y107139D02*
X-69052Y107139D01*
X-69693Y107780D02*
X-72557Y107780D01*
X-73198Y108421D02*
X-70334Y108421D01*
X-70975Y109062D02*
X-73839Y109062D01*
X-74480Y109703D02*
X-71616Y109703D01*
X-72257Y110344D02*
X-75121Y110344D01*
X-74724Y110985D02*
X-72898Y110985D01*
X-73539Y111626D02*
X-74083Y111626D01*
X-77346Y108362D02*
X-72096Y103112D01*
X-73528Y101680D01*
X-78778Y106930D01*
X-77346Y108362D01*
X-74169Y102321D02*
X-72887Y102321D01*
X-72246Y102962D02*
X-74810Y102962D01*
X-75451Y103603D02*
X-72587Y103603D01*
X-73228Y104244D02*
X-76092Y104244D01*
X-76733Y104885D02*
X-73869Y104885D01*
X-74510Y105526D02*
X-77374Y105526D01*
X-78015Y106167D02*
X-75151Y106167D01*
X-75792Y106808D02*
X-78656Y106808D01*
X-78259Y107449D02*
X-76433Y107449D01*
X-77074Y108090D02*
X-77618Y108090D01*
X-80882Y104826D02*
X-75632Y99576D01*
X-77064Y98144D01*
X-82314Y103394D01*
X-80882Y104826D01*
X-77705Y98785D02*
X-76423Y98785D01*
X-75782Y99426D02*
X-78346Y99426D01*
X-78987Y100067D02*
X-76123Y100067D01*
X-76764Y100708D02*
X-79628Y100708D01*
X-80269Y101349D02*
X-77405Y101349D01*
X-78046Y101990D02*
X-80910Y101990D01*
X-81551Y102631D02*
X-78687Y102631D01*
X-79328Y103272D02*
X-82192Y103272D01*
X-81795Y103913D02*
X-79969Y103913D01*
X-80610Y104554D02*
X-81154Y104554D01*
X-84417Y101291D02*
X-79167Y96041D01*
X-80599Y94609D01*
X-85849Y99859D01*
X-84417Y101291D01*
X-81240Y95250D02*
X-79958Y95250D01*
X-79317Y95891D02*
X-81881Y95891D01*
X-82522Y96532D02*
X-79658Y96532D01*
X-80299Y97173D02*
X-83163Y97173D01*
X-83804Y97814D02*
X-80940Y97814D01*
X-81581Y98455D02*
X-84445Y98455D01*
X-85086Y99096D02*
X-82222Y99096D01*
X-82863Y99737D02*
X-85727Y99737D01*
X-85330Y100378D02*
X-83504Y100378D01*
X-84145Y101019D02*
X-84689Y101019D01*
X-87953Y97755D02*
X-82703Y92505D01*
X-84135Y91073D01*
X-89385Y96323D01*
X-87953Y97755D01*
X-84776Y91714D02*
X-83494Y91714D01*
X-82853Y92355D02*
X-85417Y92355D01*
X-86058Y92996D02*
X-83194Y92996D01*
X-83835Y93637D02*
X-86699Y93637D01*
X-87340Y94278D02*
X-84476Y94278D01*
X-85117Y94919D02*
X-87981Y94919D01*
X-88622Y95560D02*
X-85758Y95560D01*
X-86399Y96201D02*
X-89263Y96201D01*
X-88866Y96842D02*
X-87040Y96842D01*
X-87681Y97483D02*
X-88225Y97483D01*
X-91488Y94220D02*
X-86238Y88970D01*
X-87670Y87538D01*
X-92920Y92788D01*
X-91488Y94220D01*
X-88311Y88179D02*
X-87029Y88179D01*
X-86388Y88820D02*
X-88952Y88820D01*
X-89593Y89461D02*
X-86729Y89461D01*
X-87370Y90102D02*
X-90234Y90102D01*
X-90875Y90743D02*
X-88011Y90743D01*
X-88652Y91384D02*
X-91516Y91384D01*
X-92157Y92025D02*
X-89293Y92025D01*
X-89934Y92666D02*
X-92798Y92666D01*
X-92401Y93307D02*
X-90575Y93307D01*
X-91216Y93948D02*
X-91760Y93948D01*
X-95024Y90684D02*
X-89774Y85434D01*
X-91206Y84002D01*
X-96456Y89252D01*
X-95024Y90684D01*
X-91847Y84643D02*
X-90565Y84643D01*
X-89924Y85284D02*
X-92488Y85284D01*
X-93129Y85925D02*
X-90265Y85925D01*
X-90906Y86566D02*
X-93770Y86566D01*
X-94411Y87207D02*
X-91547Y87207D01*
X-92188Y87848D02*
X-95052Y87848D01*
X-95693Y88489D02*
X-92829Y88489D01*
X-93470Y89130D02*
X-96334Y89130D01*
X-95937Y89771D02*
X-94111Y89771D01*
X-94752Y90412D02*
X-95296Y90412D01*
X-98559Y87149D02*
X-93309Y81899D01*
X-94741Y80467D01*
X-99991Y85717D01*
X-98559Y87149D01*
X-95382Y81108D02*
X-94100Y81108D01*
X-93459Y81749D02*
X-96023Y81749D01*
X-96664Y82390D02*
X-93800Y82390D01*
X-94441Y83031D02*
X-97305Y83031D01*
X-97946Y83672D02*
X-95082Y83672D01*
X-95723Y84313D02*
X-98587Y84313D01*
X-99228Y84954D02*
X-96364Y84954D01*
X-97005Y85595D02*
X-99869Y85595D01*
X-99472Y86236D02*
X-97646Y86236D01*
X-98287Y86877D02*
X-98831Y86877D01*
X-127958Y116547D02*
X-133208Y121797D01*
X-127958Y116547D02*
X-129390Y115115D01*
X-134640Y120365D01*
X-133208Y121797D01*
X-130031Y115756D02*
X-128749Y115756D01*
X-128108Y116397D02*
X-130672Y116397D01*
X-131313Y117038D02*
X-128449Y117038D01*
X-129090Y117679D02*
X-131954Y117679D01*
X-132595Y118320D02*
X-129731Y118320D01*
X-130372Y118961D02*
X-133236Y118961D01*
X-133877Y119602D02*
X-131013Y119602D01*
X-131654Y120243D02*
X-134518Y120243D01*
X-134121Y120884D02*
X-132295Y120884D01*
X-132936Y121525D02*
X-133480Y121525D01*
X-129672Y125333D02*
X-124422Y120083D01*
X-125854Y118651D01*
X-131104Y123901D01*
X-129672Y125333D01*
X-126495Y119292D02*
X-125213Y119292D01*
X-124572Y119933D02*
X-127136Y119933D01*
X-127777Y120574D02*
X-124913Y120574D01*
X-125554Y121215D02*
X-128418Y121215D01*
X-129059Y121856D02*
X-126195Y121856D01*
X-126836Y122497D02*
X-129700Y122497D01*
X-130341Y123138D02*
X-127477Y123138D01*
X-128118Y123779D02*
X-130982Y123779D01*
X-130585Y124420D02*
X-128759Y124420D01*
X-129400Y125061D02*
X-129944Y125061D01*
X-126136Y128868D02*
X-120886Y123618D01*
X-122318Y122186D01*
X-127568Y127436D01*
X-126136Y128868D01*
X-122959Y122827D02*
X-121677Y122827D01*
X-121036Y123468D02*
X-123600Y123468D01*
X-124241Y124109D02*
X-121377Y124109D01*
X-122018Y124750D02*
X-124882Y124750D01*
X-125523Y125391D02*
X-122659Y125391D01*
X-123300Y126032D02*
X-126164Y126032D01*
X-126805Y126673D02*
X-123941Y126673D01*
X-124582Y127314D02*
X-127446Y127314D01*
X-127049Y127955D02*
X-125223Y127955D01*
X-125864Y128596D02*
X-126408Y128596D01*
X-122601Y132404D02*
X-117351Y127154D01*
X-118783Y125722D01*
X-124033Y130972D01*
X-122601Y132404D01*
X-119424Y126363D02*
X-118142Y126363D01*
X-117501Y127004D02*
X-120065Y127004D01*
X-120706Y127645D02*
X-117842Y127645D01*
X-118483Y128286D02*
X-121347Y128286D01*
X-121988Y128927D02*
X-119124Y128927D01*
X-119765Y129568D02*
X-122629Y129568D01*
X-123270Y130209D02*
X-120406Y130209D01*
X-121047Y130850D02*
X-123911Y130850D01*
X-123514Y131491D02*
X-121688Y131491D01*
X-122329Y132132D02*
X-122873Y132132D01*
X-119065Y135939D02*
X-113815Y130689D01*
X-115247Y129257D01*
X-120497Y134507D01*
X-119065Y135939D01*
X-115888Y129898D02*
X-114606Y129898D01*
X-113965Y130539D02*
X-116529Y130539D01*
X-117170Y131180D02*
X-114306Y131180D01*
X-114947Y131821D02*
X-117811Y131821D01*
X-118452Y132462D02*
X-115588Y132462D01*
X-116229Y133103D02*
X-119093Y133103D01*
X-119734Y133744D02*
X-116870Y133744D01*
X-117511Y134385D02*
X-120375Y134385D01*
X-119978Y135026D02*
X-118152Y135026D01*
X-118793Y135667D02*
X-119337Y135667D01*
X-115530Y139475D02*
X-110280Y134225D01*
X-111712Y132793D01*
X-116962Y138043D01*
X-115530Y139475D01*
X-112353Y133434D02*
X-111071Y133434D01*
X-110430Y134075D02*
X-112994Y134075D01*
X-113635Y134716D02*
X-110771Y134716D01*
X-111412Y135357D02*
X-114276Y135357D01*
X-114917Y135998D02*
X-112053Y135998D01*
X-112694Y136639D02*
X-115558Y136639D01*
X-116199Y137280D02*
X-113335Y137280D01*
X-113976Y137921D02*
X-116840Y137921D01*
X-116443Y138562D02*
X-114617Y138562D01*
X-115258Y139203D02*
X-115802Y139203D01*
X-111994Y143010D02*
X-106744Y137760D01*
X-108176Y136328D01*
X-113426Y141578D01*
X-111994Y143010D01*
X-108817Y136969D02*
X-107535Y136969D01*
X-106894Y137610D02*
X-109458Y137610D01*
X-110099Y138251D02*
X-107235Y138251D01*
X-107876Y138892D02*
X-110740Y138892D01*
X-111381Y139533D02*
X-108517Y139533D01*
X-109158Y140174D02*
X-112022Y140174D01*
X-112663Y140815D02*
X-109799Y140815D01*
X-110440Y141456D02*
X-113304Y141456D01*
X-112907Y142097D02*
X-111081Y142097D01*
X-111722Y142738D02*
X-112266Y142738D01*
X-108459Y146546D02*
X-103209Y141296D01*
X-104641Y139864D01*
X-109891Y145114D01*
X-108459Y146546D01*
X-105282Y140505D02*
X-104000Y140505D01*
X-103359Y141146D02*
X-105923Y141146D01*
X-106564Y141787D02*
X-103700Y141787D01*
X-104341Y142428D02*
X-107205Y142428D01*
X-107846Y143069D02*
X-104982Y143069D01*
X-105623Y143710D02*
X-108487Y143710D01*
X-109128Y144351D02*
X-106264Y144351D01*
X-106905Y144992D02*
X-109769Y144992D01*
X-109372Y145633D02*
X-107546Y145633D01*
X-108187Y146274D02*
X-108731Y146274D01*
D11*
X-170656Y152963D03*
X-170656Y135963D03*
G36*
X-164456Y157336D02*
X-171527Y164407D01*
X-163750Y172184D01*
X-156679Y165113D01*
X-164456Y157336D01*
G37*
G36*
X-152435Y145316D02*
X-159506Y152387D01*
X-151729Y160164D01*
X-144658Y153093D01*
X-152435Y145316D01*
G37*
D15*
G36*
X-134137Y143388D02*
X-143329Y134196D01*
X-153935Y144802D01*
X-144743Y153994D01*
X-134137Y143388D01*
G37*
G36*
X-120702Y156823D02*
X-129894Y147631D01*
X-140500Y158237D01*
X-131308Y167429D01*
X-120702Y156823D01*
G37*
D16*
X-179070Y12700D03*
X-163830Y12700D03*
D15*
G36*
X4250Y86525D02*
X13442Y77333D01*
X2836Y66727D01*
X-6356Y75919D01*
X4250Y86525D01*
G37*
G36*
X-9186Y99960D02*
X6Y90768D01*
X-10600Y80162D01*
X-19792Y89354D01*
X-9186Y99960D01*
G37*
G36*
X-6356Y161412D02*
X2836Y170604D01*
X13442Y159998D01*
X4250Y150806D01*
X-6356Y161412D01*
G37*
G36*
X-19792Y147977D02*
X-10600Y157169D01*
X6Y146563D01*
X-9186Y137371D01*
X-19792Y147977D01*
G37*
G36*
X45525Y107956D02*
X54717Y98764D01*
X44111Y88158D01*
X34919Y97350D01*
X45525Y107956D01*
G37*
G36*
X32090Y121392D02*
X41282Y112200D01*
X30676Y101594D01*
X21484Y110786D01*
X32090Y121392D01*
G37*
M02*
