G04 EAGLE Gerber RS-274X export*
G75*
%MOMM*%
%FSLAX34Y34*%
%LPD*%
%INSolderpaste Bottom*%
%IPPOS*%
%AMOC8*
5,1,8,0,0,1.08239X$1,22.5*%
G01*
%ADD10R,1.100000X1.000000*%
%ADD11R,1.500000X1.300000*%
%ADD12C,0.124994*%
%ADD13R,5.699988X5.699988*%
%ADD14R,1.399997X0.400000*%
%ADD15R,1.000000X1.100000*%
%ADD16C,0.262500*%
%ADD17R,2.150000X2.150000*%


D10*
X461596Y374106D03*
X478596Y374106D03*
D11*
X420760Y359144D03*
X420760Y378144D03*
D12*
X367654Y435764D02*
X367654Y437014D01*
X373404Y437014D01*
X373404Y435764D01*
X367654Y435764D01*
X367654Y436951D02*
X373404Y436951D01*
X367654Y432014D02*
X367654Y430764D01*
X367654Y432014D02*
X373404Y432014D01*
X373404Y430764D01*
X367654Y430764D01*
X367654Y431951D02*
X373404Y431951D01*
X367654Y427014D02*
X367654Y425764D01*
X367654Y427014D02*
X373404Y427014D01*
X373404Y425764D01*
X367654Y425764D01*
X367654Y426951D02*
X373404Y426951D01*
X367654Y422014D02*
X367654Y420764D01*
X367654Y422014D02*
X373404Y422014D01*
X373404Y420764D01*
X367654Y420764D01*
X367654Y421951D02*
X373404Y421951D01*
X367654Y417014D02*
X367654Y415764D01*
X367654Y417014D02*
X373404Y417014D01*
X373404Y415764D01*
X367654Y415764D01*
X367654Y416951D02*
X373404Y416951D01*
X367654Y412014D02*
X367654Y410764D01*
X367654Y412014D02*
X373404Y412014D01*
X373404Y410764D01*
X367654Y410764D01*
X367654Y411951D02*
X373404Y411951D01*
X367654Y407014D02*
X367654Y405764D01*
X367654Y407014D02*
X373404Y407014D01*
X373404Y405764D01*
X367654Y405764D01*
X367654Y406951D02*
X373404Y406951D01*
X367654Y402014D02*
X367654Y400764D01*
X367654Y402014D02*
X373404Y402014D01*
X373404Y400764D01*
X367654Y400764D01*
X367654Y401951D02*
X373404Y401951D01*
X367654Y397014D02*
X367654Y395764D01*
X367654Y397014D02*
X373404Y397014D01*
X373404Y395764D01*
X367654Y395764D01*
X367654Y396951D02*
X373404Y396951D01*
X367654Y392014D02*
X367654Y390764D01*
X367654Y392014D02*
X373404Y392014D01*
X373404Y390764D01*
X367654Y390764D01*
X367654Y391951D02*
X373404Y391951D01*
X367654Y387014D02*
X367654Y385764D01*
X367654Y387014D02*
X373404Y387014D01*
X373404Y385764D01*
X367654Y385764D01*
X367654Y386951D02*
X373404Y386951D01*
X367654Y382014D02*
X367654Y380764D01*
X367654Y382014D02*
X373404Y382014D01*
X373404Y380764D01*
X367654Y380764D01*
X367654Y381951D02*
X373404Y381951D01*
X364154Y377264D02*
X362904Y377264D01*
X364154Y377264D02*
X364154Y371514D01*
X362904Y371514D01*
X362904Y377264D01*
X362904Y372701D02*
X364154Y372701D01*
X364154Y373888D02*
X362904Y373888D01*
X362904Y375075D02*
X364154Y375075D01*
X364154Y376262D02*
X362904Y376262D01*
X359154Y377264D02*
X357904Y377264D01*
X359154Y377264D02*
X359154Y371514D01*
X357904Y371514D01*
X357904Y377264D01*
X357904Y372701D02*
X359154Y372701D01*
X359154Y373888D02*
X357904Y373888D01*
X357904Y375075D02*
X359154Y375075D01*
X359154Y376262D02*
X357904Y376262D01*
X354154Y377264D02*
X352904Y377264D01*
X354154Y377264D02*
X354154Y371514D01*
X352904Y371514D01*
X352904Y377264D01*
X352904Y372701D02*
X354154Y372701D01*
X354154Y373888D02*
X352904Y373888D01*
X352904Y375075D02*
X354154Y375075D01*
X354154Y376262D02*
X352904Y376262D01*
X349154Y377264D02*
X347904Y377264D01*
X349154Y377264D02*
X349154Y371514D01*
X347904Y371514D01*
X347904Y377264D01*
X347904Y372701D02*
X349154Y372701D01*
X349154Y373888D02*
X347904Y373888D01*
X347904Y375075D02*
X349154Y375075D01*
X349154Y376262D02*
X347904Y376262D01*
X344154Y377264D02*
X342904Y377264D01*
X344154Y377264D02*
X344154Y371514D01*
X342904Y371514D01*
X342904Y377264D01*
X342904Y372701D02*
X344154Y372701D01*
X344154Y373888D02*
X342904Y373888D01*
X342904Y375075D02*
X344154Y375075D01*
X344154Y376262D02*
X342904Y376262D01*
X339154Y377264D02*
X337904Y377264D01*
X339154Y377264D02*
X339154Y371514D01*
X337904Y371514D01*
X337904Y377264D01*
X337904Y372701D02*
X339154Y372701D01*
X339154Y373888D02*
X337904Y373888D01*
X337904Y375075D02*
X339154Y375075D01*
X339154Y376262D02*
X337904Y376262D01*
X334154Y377264D02*
X332904Y377264D01*
X334154Y377264D02*
X334154Y371514D01*
X332904Y371514D01*
X332904Y377264D01*
X332904Y372701D02*
X334154Y372701D01*
X334154Y373888D02*
X332904Y373888D01*
X332904Y375075D02*
X334154Y375075D01*
X334154Y376262D02*
X332904Y376262D01*
X329154Y377264D02*
X327904Y377264D01*
X329154Y377264D02*
X329154Y371514D01*
X327904Y371514D01*
X327904Y377264D01*
X327904Y372701D02*
X329154Y372701D01*
X329154Y373888D02*
X327904Y373888D01*
X327904Y375075D02*
X329154Y375075D01*
X329154Y376262D02*
X327904Y376262D01*
X324154Y377264D02*
X322904Y377264D01*
X324154Y377264D02*
X324154Y371514D01*
X322904Y371514D01*
X322904Y377264D01*
X322904Y372701D02*
X324154Y372701D01*
X324154Y373888D02*
X322904Y373888D01*
X322904Y375075D02*
X324154Y375075D01*
X324154Y376262D02*
X322904Y376262D01*
X319154Y377264D02*
X317904Y377264D01*
X319154Y377264D02*
X319154Y371514D01*
X317904Y371514D01*
X317904Y377264D01*
X317904Y372701D02*
X319154Y372701D01*
X319154Y373888D02*
X317904Y373888D01*
X317904Y375075D02*
X319154Y375075D01*
X319154Y376262D02*
X317904Y376262D01*
X314154Y377264D02*
X312904Y377264D01*
X314154Y377264D02*
X314154Y371514D01*
X312904Y371514D01*
X312904Y377264D01*
X312904Y372701D02*
X314154Y372701D01*
X314154Y373888D02*
X312904Y373888D01*
X312904Y375075D02*
X314154Y375075D01*
X314154Y376262D02*
X312904Y376262D01*
X309154Y377264D02*
X307904Y377264D01*
X309154Y377264D02*
X309154Y371514D01*
X307904Y371514D01*
X307904Y377264D01*
X307904Y372701D02*
X309154Y372701D01*
X309154Y373888D02*
X307904Y373888D01*
X307904Y375075D02*
X309154Y375075D01*
X309154Y376262D02*
X307904Y376262D01*
X304404Y380764D02*
X304404Y382014D01*
X304404Y380764D02*
X298654Y380764D01*
X298654Y382014D01*
X304404Y382014D01*
X304404Y381951D02*
X298654Y381951D01*
X304404Y385764D02*
X304404Y387014D01*
X304404Y385764D02*
X298654Y385764D01*
X298654Y387014D01*
X304404Y387014D01*
X304404Y386951D02*
X298654Y386951D01*
X304404Y390764D02*
X304404Y392014D01*
X304404Y390764D02*
X298654Y390764D01*
X298654Y392014D01*
X304404Y392014D01*
X304404Y391951D02*
X298654Y391951D01*
X304404Y395764D02*
X304404Y397014D01*
X304404Y395764D02*
X298654Y395764D01*
X298654Y397014D01*
X304404Y397014D01*
X304404Y396951D02*
X298654Y396951D01*
X304404Y400764D02*
X304404Y402014D01*
X304404Y400764D02*
X298654Y400764D01*
X298654Y402014D01*
X304404Y402014D01*
X304404Y401951D02*
X298654Y401951D01*
X304404Y405764D02*
X304404Y407014D01*
X304404Y405764D02*
X298654Y405764D01*
X298654Y407014D01*
X304404Y407014D01*
X304404Y406951D02*
X298654Y406951D01*
X304404Y410764D02*
X304404Y412014D01*
X304404Y410764D02*
X298654Y410764D01*
X298654Y412014D01*
X304404Y412014D01*
X304404Y411951D02*
X298654Y411951D01*
X304404Y415764D02*
X304404Y417014D01*
X304404Y415764D02*
X298654Y415764D01*
X298654Y417014D01*
X304404Y417014D01*
X304404Y416951D02*
X298654Y416951D01*
X304404Y420764D02*
X304404Y422014D01*
X304404Y420764D02*
X298654Y420764D01*
X298654Y422014D01*
X304404Y422014D01*
X304404Y421951D02*
X298654Y421951D01*
X304404Y425764D02*
X304404Y427014D01*
X304404Y425764D02*
X298654Y425764D01*
X298654Y427014D01*
X304404Y427014D01*
X304404Y426951D02*
X298654Y426951D01*
X304404Y430764D02*
X304404Y432014D01*
X304404Y430764D02*
X298654Y430764D01*
X298654Y432014D01*
X304404Y432014D01*
X304404Y431951D02*
X298654Y431951D01*
X304404Y435764D02*
X304404Y437014D01*
X304404Y435764D02*
X298654Y435764D01*
X298654Y437014D01*
X304404Y437014D01*
X304404Y436951D02*
X298654Y436951D01*
X307904Y440514D02*
X309154Y440514D01*
X307904Y440514D02*
X307904Y446264D01*
X309154Y446264D01*
X309154Y440514D01*
X309154Y441701D02*
X307904Y441701D01*
X307904Y442888D02*
X309154Y442888D01*
X309154Y444075D02*
X307904Y444075D01*
X307904Y445262D02*
X309154Y445262D01*
X312904Y440514D02*
X314154Y440514D01*
X312904Y440514D02*
X312904Y446264D01*
X314154Y446264D01*
X314154Y440514D01*
X314154Y441701D02*
X312904Y441701D01*
X312904Y442888D02*
X314154Y442888D01*
X314154Y444075D02*
X312904Y444075D01*
X312904Y445262D02*
X314154Y445262D01*
X317904Y440514D02*
X319154Y440514D01*
X317904Y440514D02*
X317904Y446264D01*
X319154Y446264D01*
X319154Y440514D01*
X319154Y441701D02*
X317904Y441701D01*
X317904Y442888D02*
X319154Y442888D01*
X319154Y444075D02*
X317904Y444075D01*
X317904Y445262D02*
X319154Y445262D01*
X322904Y440514D02*
X324154Y440514D01*
X322904Y440514D02*
X322904Y446264D01*
X324154Y446264D01*
X324154Y440514D01*
X324154Y441701D02*
X322904Y441701D01*
X322904Y442888D02*
X324154Y442888D01*
X324154Y444075D02*
X322904Y444075D01*
X322904Y445262D02*
X324154Y445262D01*
X327904Y440514D02*
X329154Y440514D01*
X327904Y440514D02*
X327904Y446264D01*
X329154Y446264D01*
X329154Y440514D01*
X329154Y441701D02*
X327904Y441701D01*
X327904Y442888D02*
X329154Y442888D01*
X329154Y444075D02*
X327904Y444075D01*
X327904Y445262D02*
X329154Y445262D01*
X332904Y440514D02*
X334154Y440514D01*
X332904Y440514D02*
X332904Y446264D01*
X334154Y446264D01*
X334154Y440514D01*
X334154Y441701D02*
X332904Y441701D01*
X332904Y442888D02*
X334154Y442888D01*
X334154Y444075D02*
X332904Y444075D01*
X332904Y445262D02*
X334154Y445262D01*
X337904Y440514D02*
X339154Y440514D01*
X337904Y440514D02*
X337904Y446264D01*
X339154Y446264D01*
X339154Y440514D01*
X339154Y441701D02*
X337904Y441701D01*
X337904Y442888D02*
X339154Y442888D01*
X339154Y444075D02*
X337904Y444075D01*
X337904Y445262D02*
X339154Y445262D01*
X342904Y440514D02*
X344154Y440514D01*
X342904Y440514D02*
X342904Y446264D01*
X344154Y446264D01*
X344154Y440514D01*
X344154Y441701D02*
X342904Y441701D01*
X342904Y442888D02*
X344154Y442888D01*
X344154Y444075D02*
X342904Y444075D01*
X342904Y445262D02*
X344154Y445262D01*
X347904Y440514D02*
X349154Y440514D01*
X347904Y440514D02*
X347904Y446264D01*
X349154Y446264D01*
X349154Y440514D01*
X349154Y441701D02*
X347904Y441701D01*
X347904Y442888D02*
X349154Y442888D01*
X349154Y444075D02*
X347904Y444075D01*
X347904Y445262D02*
X349154Y445262D01*
X352904Y440514D02*
X354154Y440514D01*
X352904Y440514D02*
X352904Y446264D01*
X354154Y446264D01*
X354154Y440514D01*
X354154Y441701D02*
X352904Y441701D01*
X352904Y442888D02*
X354154Y442888D01*
X354154Y444075D02*
X352904Y444075D01*
X352904Y445262D02*
X354154Y445262D01*
X357904Y440514D02*
X359154Y440514D01*
X357904Y440514D02*
X357904Y446264D01*
X359154Y446264D01*
X359154Y440514D01*
X359154Y441701D02*
X357904Y441701D01*
X357904Y442888D02*
X359154Y442888D01*
X359154Y444075D02*
X357904Y444075D01*
X357904Y445262D02*
X359154Y445262D01*
X362904Y440514D02*
X364154Y440514D01*
X362904Y440514D02*
X362904Y446264D01*
X364154Y446264D01*
X364154Y440514D01*
X364154Y441701D02*
X362904Y441701D01*
X362904Y442888D02*
X364154Y442888D01*
X364154Y444075D02*
X362904Y444075D01*
X362904Y445262D02*
X364154Y445262D01*
D13*
X336029Y408889D03*
D14*
X404970Y425494D03*
X404970Y413494D03*
X404970Y401494D03*
D11*
X269301Y441741D03*
X269301Y460741D03*
X264729Y367045D03*
X264729Y386045D03*
D15*
X400154Y365177D03*
X400154Y382177D03*
X290063Y441987D03*
X290063Y458987D03*
D10*
X387351Y463832D03*
X404351Y463832D03*
D15*
X287117Y370610D03*
X287117Y387610D03*
D10*
X387359Y443344D03*
X404359Y443344D03*
X441488Y365149D03*
X441488Y382149D03*
D16*
X374876Y331679D02*
X374876Y326303D01*
X374876Y331679D02*
X375752Y331679D01*
X375752Y326303D01*
X374876Y326303D01*
X374876Y328797D02*
X375752Y328797D01*
X375752Y331291D02*
X374876Y331291D01*
X381376Y331679D02*
X381376Y326303D01*
X381376Y331679D02*
X382252Y331679D01*
X382252Y326303D01*
X381376Y326303D01*
X381376Y328797D02*
X382252Y328797D01*
X382252Y331291D02*
X381376Y331291D01*
X387876Y331679D02*
X387876Y326303D01*
X387876Y331679D02*
X388752Y331679D01*
X388752Y326303D01*
X387876Y326303D01*
X387876Y328797D02*
X388752Y328797D01*
X388752Y331291D02*
X387876Y331291D01*
X394376Y331679D02*
X394376Y326303D01*
X394376Y331679D02*
X395252Y331679D01*
X395252Y326303D01*
X394376Y326303D01*
X394376Y328797D02*
X395252Y328797D01*
X395252Y331291D02*
X394376Y331291D01*
X402376Y319179D02*
X407752Y319179D01*
X407752Y318303D01*
X402376Y318303D01*
X402376Y319179D01*
X402376Y312679D02*
X407752Y312679D01*
X407752Y311803D01*
X402376Y311803D01*
X402376Y312679D01*
X402376Y306179D02*
X407752Y306179D01*
X407752Y305303D01*
X402376Y305303D01*
X402376Y306179D01*
X402376Y299679D02*
X407752Y299679D01*
X407752Y298803D01*
X402376Y298803D01*
X402376Y299679D01*
X395252Y291679D02*
X395252Y286303D01*
X394376Y286303D01*
X394376Y291679D01*
X395252Y291679D01*
X395252Y288797D02*
X394376Y288797D01*
X394376Y291291D02*
X395252Y291291D01*
X388752Y291679D02*
X388752Y286303D01*
X387876Y286303D01*
X387876Y291679D01*
X388752Y291679D01*
X388752Y288797D02*
X387876Y288797D01*
X387876Y291291D02*
X388752Y291291D01*
X382252Y291679D02*
X382252Y286303D01*
X381376Y286303D01*
X381376Y291679D01*
X382252Y291679D01*
X382252Y288797D02*
X381376Y288797D01*
X381376Y291291D02*
X382252Y291291D01*
X375752Y291679D02*
X375752Y286303D01*
X374876Y286303D01*
X374876Y291679D01*
X375752Y291679D01*
X375752Y288797D02*
X374876Y288797D01*
X374876Y291291D02*
X375752Y291291D01*
X367752Y298803D02*
X362376Y298803D01*
X362376Y299679D01*
X367752Y299679D01*
X367752Y298803D01*
X367752Y305303D02*
X362376Y305303D01*
X362376Y306179D01*
X367752Y306179D01*
X367752Y305303D01*
X367752Y311803D02*
X362376Y311803D01*
X362376Y312679D01*
X367752Y312679D01*
X367752Y311803D01*
X367752Y318303D02*
X362376Y318303D01*
X362376Y319179D01*
X367752Y319179D01*
X367752Y318303D01*
D17*
X385064Y308991D03*
D15*
X331842Y296164D03*
X314842Y296164D03*
X314969Y274701D03*
X331969Y274701D03*
X369824Y223765D03*
X369824Y206765D03*
X334645Y221352D03*
X334645Y204352D03*
X334527Y238887D03*
X351527Y238887D03*
X389391Y226060D03*
X406391Y226060D03*
X404114Y267961D03*
X404114Y250961D03*
D10*
X428752Y316856D03*
X428752Y299856D03*
D15*
X364354Y276098D03*
X347354Y276098D03*
X383413Y267961D03*
X383413Y250961D03*
X350393Y333765D03*
X350393Y350765D03*
D11*
X329946Y328828D03*
X329946Y347828D03*
M02*
